<svg width="262" height="81" viewBox="0 0 262 81" fill="none" xmlns="http://www.w3.org/2000/svg">
<g clip-path="url(#clip0_478_656)">
<path d="M12.5287 64.8208C12.2481 64.4396 12.0777 64.0977 11.9995 63.7949C11.7829 64.233 12.0386 64.6605 12.5287 64.8208Z" fill="#00323D"/>
<path d="M88.3036 64.5751C87.778 64.2581 87.3412 65.779 86.7658 65.3587C86.1941 64.9348 86.1692 65.8645 85.5725 67.2608C84.9759 68.6571 83.0262 65.9073 81.7192 67.6633C80.4123 69.4194 79.4499 69.7542 76.8822 68.7426C72.5956 66.9545 72.0132 72.8425 67.7088 69.2271C64.335 67.3855 61.5009 74.1711 57.985 70.3063C55.9855 67.8913 52.601 71.2823 51.152 71.1505C51.152 71.1505 50.076 71.0651 48.6767 70.2636C45.1892 67.3036 42.9163 73.6867 39.2299 70.5806C35.0534 66.1602 33.6044 72.0874 30.1027 69.8611C26.981 65.9821 23.1135 71.7881 20.5848 67.6633C19.2779 65.9073 17.3282 68.6571 16.7315 67.2608C16.1349 65.8645 16.1136 64.9348 15.5383 65.3587C14.9665 65.7826 14.5296 64.2581 14.0005 64.5751C13.4429 64.9099 12.9102 64.9491 12.5195 64.8209C13.8371 66.6268 17.4986 69.3517 24.4772 73.5157C33.7038 78.0715 35.3553 77.6797 41.8118 79.9843C44.241 79.2719 44.7914 80.8748 47.2455 80.7644C48.6199 80.6575 48.2328 79.7065 49.561 80.2586C50.8892 80.8071 50.559 80.8534 51.1414 80.9995C51.7274 80.8534 51.3935 80.8107 52.7218 80.2586C54.0536 79.71 53.6629 80.6611 55.0373 80.768C57.4914 80.8784 58.0454 79.2719 60.471 79.9843C66.9311 77.6726 68.5754 78.0751 77.8056 73.5157C84.7486 69.3767 88.403 66.6589 89.7419 64.8529C89.2518 65.031 88.673 64.8066 88.2859 64.5751H88.3036ZM60.5101 78.5275C58.8587 78.2746 59.7536 77.6405 57.6441 78.7804C53.9328 80.8036 54.7177 76.9922 51.1556 79.1615C47.6184 76.9958 48.3606 80.8 44.6671 78.7804C42.5576 77.6405 43.4525 78.2746 41.8011 78.5275C36.9179 76.7999 25.2195 74.6093 18.4788 68.8459C23.8522 72.9351 26.8886 69.6438 29.9677 71.6991C31.7328 73.1773 34.3005 75.4178 36.3639 76.3689C36.3639 76.3689 32.0773 72.4792 32.9936 72.1835C33.9098 71.8879 36.2715 70.1104 37.1914 71.8451C38.1076 73.5798 39.4856 76.2407 41.0447 77.637C37.3299 69.6046 39.3755 74.1213 44.0492 73.0918C45.1963 72.3082 45.2886 76.4935 47.6503 78.3565C46.457 76.1801 45.4271 71.4248 46.9152 71.9093C48.4068 72.3937 49.4793 73.3626 51.1556 73.3626C52.8319 73.3626 53.908 72.3937 55.396 71.9093C56.8876 71.4213 55.8541 76.1801 54.6609 78.3565C57.0226 76.4971 57.1149 72.3118 58.262 73.0954C62.9179 74.1319 64.992 69.5904 61.2665 77.6405C62.8256 76.2442 64.2036 73.5834 65.1198 71.8487C66.0361 70.114 68.3978 71.8914 69.3176 72.1871C70.2339 72.4827 65.9473 76.3724 65.9473 76.3724C68.0107 75.4214 70.5784 73.1809 72.3435 71.6991C75.5078 69.6296 78.3951 72.9565 83.8324 68.8459C77.1308 74.595 65.3684 76.8106 60.5101 78.5275Z" fill="#00323D"/>
<path d="M40.4728 57.7616C39.6346 56.1694 38.697 55.1863 37.9477 54.5879C37.7985 54.5024 37.6458 54.4133 37.4896 54.3136C34.3714 52.326 20.6131 45.3089 19.6045 44.251C9.7422 30.3983 31.1112 46.1887 35.5256 48.9706C35.4439 48.8388 35.3658 48.707 35.2841 48.5717C33.3344 47.0364 28.9697 43.6133 25.887 41.2517C21.8064 38.1243 18.6421 35.9657 18.5498 33.0093C18.4716 30.5265 26.3771 36.9453 33.1497 42.5234C33.0929 42.1672 33.0503 41.8074 33.0148 41.4441C28.0392 36.2721 21.089 29.1089 21.8988 26.4979C22.6339 24.1292 22.9074 22.0169 25.4751 24.724C26.8033 26.1239 30.376 30.9504 33.5191 35.2854C33.6078 34.9434 33.7037 34.6015 33.8138 34.2595C30.2553 28.425 26.4126 21.6322 27.8154 20.6242C29.4669 20.7916 29.6054 15.7193 30.5678 16.9054C31.1502 17.625 33.9452 22.0454 36.9142 28.1079C37.2552 27.6235 37.6174 27.1391 38.0081 26.6546C36.2181 20.4318 34.62 14.6151 34.8757 14.5367C36.1152 14.1556 38.04 15.6374 39.5068 14.0309C40.2916 13.1725 41.2967 16.3035 42.5859 21.9243C43.321 21.2689 44.0171 20.6776 44.635 20.1647C44.2231 15.4343 44.0881 11.6942 44.7345 11.2383C44.7522 11.2276 44.7664 11.2169 44.7842 11.2027C44.7522 10.2124 44.7593 9.25425 44.8233 8.34594V8.32812C43.7401 9.00134 42.7492 9.56058 41.5204 9.39673C39.5956 8.97285 38.104 8.86955 36.6798 10.3692C34.968 14.5118 30.2517 11.3309 27.6663 14.957C25.9723 22.569 21.9343 17.0657 20.258 22.7792C19.6685 30.238 16.0389 26.4552 15.9466 31.4883C15.9466 34.1954 17.186 34.7012 15.9466 36.6033C12.4804 39.8483 16.5467 41.4726 16.7279 44.5502C16.5681 48.5182 20.2367 47.7025 21.4513 50.2565C21.9094 51.6955 24.7079 52.0731 28.5151 52.8781C32.3222 53.6831 38.6509 57.3164 36.9071 59.6851C35.1634 62.0539 34.3394 58.9656 31.9067 60.2337C21.9449 61.4661 11.1166 60.4189 11.9867 63.7957C12.3134 63.1367 13.7091 62.4528 17.0084 62.6202C22.9251 62.8945 21.6537 62.606 24.4061 62.4599C27.1584 62.3103 31.0473 63.6247 32.102 63.1794C33.1568 62.7342 33.7606 62.4172 35.6641 62.9871C37.5677 63.557 39.2724 61.7582 39.8903 61.6941C40.5083 61.63 42.9943 66.1252 50.5801 66.1252C43.6442 65.3309 42.1881 61.0494 40.4621 57.7652L40.4728 57.7616Z" fill="#00323D"/>
<path d="M70.3922 60.2299C67.963 58.9619 67.1355 62.0466 65.3918 59.6814C63.648 57.3127 69.9767 53.6794 73.7838 52.8744C77.591 52.0694 80.3895 51.6918 80.8476 50.2528C82.0658 47.6953 85.7166 48.5181 85.571 44.5464C85.7664 41.4546 89.8008 39.8517 86.3523 36.5996C85.1129 34.6975 86.3523 34.1881 86.3523 31.4846C86.2494 26.4372 82.6375 30.2485 82.0409 22.7755C81.2596 19.3524 79.2424 20.1966 76.9055 19.0567C74.5651 17.9169 76.0106 17.1546 74.6362 14.9569C72.0578 11.3272 67.3344 14.508 65.6226 10.369C64.202 8.86939 62.7104 8.97269 60.7856 9.39657C59.7699 9.52836 58.9211 9.17573 58.0474 8.66992C58.0261 8.97982 58.0012 9.29683 57.9657 9.61742C57.8982 10.2016 57.8024 10.7822 57.6816 11.3557C58.4594 12.5347 57.7597 19.8867 56.9749 27.114C57.5182 27.0926 58.051 27.114 58.573 27.1639C60.434 18.3515 61.7977 12.9265 62.7992 14.0236C64.266 15.6301 66.1944 14.1518 67.4303 14.5294C67.7215 14.6185 65.6333 22.0666 63.5805 29.1301C63.9037 29.3759 64.2163 29.643 64.5146 29.9351C67.789 22.9393 71.0989 17.6854 71.7417 16.8982C72.7042 15.7156 72.8427 20.7879 74.4941 20.6169C75.9999 21.6855 71.4683 29.4328 67.7251 35.5061C67.8103 35.8088 67.8884 36.1187 67.9524 36.4286C71.2658 31.8372 75.382 26.2413 76.8309 24.7168C79.3986 22.0096 79.6756 24.1255 80.4072 26.4906C81.288 29.3331 72.9741 37.5685 68.0198 42.7619C67.9701 43.0397 67.9133 43.3175 67.8494 43.5918C74.8635 37.8142 83.8379 30.3554 83.7562 33.002C83.6639 35.962 80.4996 38.117 76.419 41.2445C72.3384 44.3719 66.0097 49.3623 66.0097 49.3623C66.3613 49.8146 93.6221 28.9413 82.705 44.2472C81.6964 45.3051 67.9382 52.3223 64.82 54.3099C59.159 58.3243 60.9809 61.5408 57.5538 63.8347C55.1778 65.6335 51.7188 66.1179 51.7188 66.1179C59.3011 66.1179 61.7871 61.6227 62.4086 61.6868C65.857 64.3084 67.2669 61.84 70.1969 63.1722C71.2516 63.6174 75.1405 62.3066 77.8928 62.4526C80.6452 62.6022 79.3738 62.8872 85.2905 62.6129C89.2006 62.4313 90.1098 63.2968 90.2767 63.9095C91.4273 60.3867 80.4321 61.4767 70.3957 60.2299H70.3922Z" fill="#00323D"/>
<path d="M118.272 39.6057H108.246V30.7363H105.43V52.5964H108.246V42.3876H118.272V52.5964H121.088V30.7363H118.272V39.6057Z" fill="#00323D"/>
<path d="M139.608 30.7363L129.312 52.5964H132.448L135.734 45.6398H144.367L147.684 52.5964H150.742L140.578 30.7363H139.612H139.608ZM143.12 42.8828H137.033L140.084 36.4177L143.12 42.8828Z" fill="#00323D"/>
<path d="M178.562 30.7363L170.291 47.638L162.041 30.9322L161.941 30.7363H161.071L157.953 52.5964H160.705L162.662 38.1987L169.79 52.5964H170.77L177.809 38.3127L179.777 52.5964H182.565L179.429 30.7363H178.562Z" fill="#00323D"/>
<path d="M200.042 30.7363L189.746 52.5964H192.882L196.167 45.6398H204.801L208.118 52.5964H211.175L201.011 30.7363H200.045H200.042ZM203.554 42.8828H197.467L200.518 36.4177L203.554 42.8828Z" fill="#00323D"/>
<path d="M225.906 39.1355L220.71 30.7363H217.453L224.542 42.2345V52.5964H227.33V42.2309L234.287 30.7363H231.02L225.906 39.1355Z" fill="#00323D"/>
<path d="M251.836 30.7363H250.87L240.574 52.5964H243.71L246.995 45.6398H255.629L258.946 52.5964H262.004L251.839 30.7363H251.836ZM254.379 42.8828H248.291L251.342 36.4177L254.379 42.8828Z" fill="#00323D"/>
<path d="M105.43 75.8577L107.294 62.7852H107.507L112.806 73.5139L118.055 62.7852H118.265L120.14 75.8577H118.861L117.572 66.5075L112.962 75.8577H112.628L107.965 66.4362L106.687 75.8577H105.43Z" fill="#00323D"/>
<path d="M126.371 62.7852H127.674V70.6786C127.674 71.6154 127.692 72.1995 127.728 72.4311C127.792 72.9476 127.944 73.3786 128.179 73.7241C128.417 74.0696 128.779 74.3617 129.269 74.5968C129.759 74.8319 130.253 74.9494 130.75 74.9494C131.18 74.9494 131.595 74.8568 131.989 74.6751C132.384 74.4935 132.718 74.237 132.98 73.9093C133.247 73.5852 133.442 73.1898 133.566 72.7267C133.655 72.3954 133.698 71.7151 133.698 70.6821V62.7887H135.001V70.6821C135.001 71.8505 134.887 72.7944 134.66 73.5139C134.433 74.2334 133.978 74.8604 133.296 75.3947C132.615 75.929 131.787 76.1961 130.821 76.1961C129.77 76.1961 128.868 75.9432 128.118 75.441C127.369 74.9387 126.865 74.2691 126.613 73.4427C126.453 72.9333 126.375 72.0143 126.375 70.6892V62.7958L126.371 62.7852Z" fill="#00323D"/>
<path d="M140.492 73.4205L141.6 72.7544C142.382 74.1935 143.28 74.913 144.303 74.913C144.74 74.913 145.152 74.8097 145.535 74.6067C145.919 74.4037 146.21 74.1294 146.412 73.7839C146.615 73.4419 146.714 73.075 146.714 72.6903C146.714 72.2522 146.565 71.8212 146.27 71.4009C145.862 70.8203 145.12 70.1221 144.037 69.3029C142.95 68.48 142.271 67.8852 142.009 67.5183C141.547 66.9021 141.316 66.236 141.316 65.52C141.316 64.9501 141.451 64.4336 141.725 63.9634C141.994 63.4968 142.378 63.1263 142.872 62.8556C143.365 62.5849 143.902 62.4531 144.48 62.4531C145.095 62.4531 145.67 62.6063 146.203 62.9126C146.739 63.219 147.304 63.7782 147.9 64.5975L146.839 65.406C146.349 64.7542 145.929 64.3232 145.585 64.1166C145.24 63.91 144.864 63.8067 144.456 63.8067C143.93 63.8067 143.5 63.967 143.166 64.2876C142.833 64.6081 142.666 65 142.666 65.4701C142.666 65.7551 142.726 66.0294 142.843 66.2965C142.96 66.5637 143.177 66.8522 143.49 67.1692C143.66 67.3366 144.221 67.7712 145.173 68.4765C146.302 69.31 147.077 70.0544 147.496 70.7063C147.915 71.3581 148.124 72.0135 148.124 72.669C148.124 73.6164 147.766 74.4393 147.048 75.141C146.331 75.8391 145.457 76.1882 144.431 76.1882C143.639 76.1882 142.921 75.9781 142.279 75.5542C141.636 75.1303 141.043 74.4215 140.499 73.4241L140.492 73.4205Z" fill="#00323D"/>
<path d="M154.324 62.7852H155.628V75.8577H154.324V62.7852Z" fill="#00323D"/>
<path d="M174.379 65.2105L173.353 66.0012C172.785 65.2603 172.106 64.6975 171.311 64.3164C170.515 63.9353 169.642 63.7429 168.693 63.7429C167.653 63.7429 166.69 63.9923 165.806 64.4945C164.918 64.9967 164.233 65.6664 163.746 66.5106C163.26 67.3548 163.015 68.3058 163.015 69.3602C163.015 70.9524 163.558 72.2846 164.648 73.3496C165.739 74.4147 167.113 74.949 168.772 74.949C170.597 74.949 172.124 74.233 173.353 72.7975L174.379 73.5812C173.729 74.4111 172.92 75.0523 171.947 75.5047C170.973 75.957 169.89 76.185 168.69 76.185C166.41 76.185 164.609 75.4227 163.295 73.9018C162.191 72.6159 161.637 71.0628 161.637 69.2462C161.637 67.3334 162.304 65.7234 163.643 64.4161C164.982 63.1089 166.658 62.457 168.672 62.457C169.89 62.457 170.988 62.6992 171.968 63.1801C172.948 63.6646 173.751 64.3413 174.379 65.2105Z" fill="#00323D"/>
<path d="M6.09426 44.7877C5.38753 44.5348 4.44285 44.8696 3.88527 45.2187C3.27442 45.5998 2.79143 46.1306 2.0989 46.4155C1.54487 46.6435 0.909167 46.5509 0.252152 46.3514L0 46.5473L6.14753 51.8868C5.88118 51.869 5.59351 51.926 5.29164 52.0827C4.10546 52.6526 3.49816 53.5467 3.50882 54.1771C3.53013 55.3704 5.075 55.7373 6.07295 55.2422C7.13128 54.7186 8.18251 53.5182 7.36923 52.5707C7.32661 52.5208 7.28044 52.4745 7.23427 52.4282H7.24138L3.72546 49.372C3.94564 49.3364 4.15873 49.1369 4.31499 49.0229C4.63107 48.7914 4.90453 48.5242 5.11407 48.225C5.32005 47.9294 5.43014 47.6622 5.5793 47.3417C5.83501 46.7895 6.22567 46.4903 6.87558 46.412C7.07446 46.387 7.17035 46.3692 7.34792 46.4547C7.53615 46.5473 7.71017 46.6756 7.70661 46.8074C7.8025 46.4084 7.14194 46.1804 6.80455 46.1911C6.24342 46.2089 5.75688 46.444 5.38042 46.7539C5.13893 46.9534 4.80509 47.3238 4.60976 47.5518C4.4464 47.7406 4.27948 47.9935 4.05929 48.1645C3.81424 48.3533 3.69349 48.5029 3.349 48.5563C3.2105 48.5777 2.9761 48.5884 2.78433 48.5563L2.10245 47.965C2.33684 48.0647 2.6032 48.0291 2.78077 47.9864C3.1004 47.908 3.28153 47.6266 3.4733 47.4165C3.832 47.0211 4.11611 46.6114 4.41799 46.1911C4.7021 45.7922 5.44435 45.0477 6.14043 45.2614C6.49202 45.3683 6.49913 45.6711 6.64829 45.8955C6.84006 45.493 6.59502 44.9765 6.09071 44.7948L6.09426 44.7877Z" fill="#F2F2F2"/>
<path d="M93.5342 18.0338C92.5291 17.2146 91.3678 16.951 90.7001 17.1184C89.4323 17.4354 89.553 18.7819 90.416 19.4622C91.3287 20.1853 92.9624 20.7338 93.7082 19.8362C93.7472 19.7899 93.7828 19.74 93.8183 19.6902H93.8254L97.4194 13.4709C97.9841 13.8912 99.0034 14.1904 99.529 14.4469C100.797 15.0631 101.916 15.8254 103.134 16.495L100.264 21.464C100.193 21.2432 100.037 21.0259 99.7705 20.8229C98.7654 20.0072 97.6041 19.74 96.9364 19.9074C95.6686 20.2245 95.7893 21.5709 96.6523 22.2512C97.5686 22.9743 99.1987 23.5229 99.9445 22.6253C99.9836 22.579 100.019 22.5291 100.055 22.4792H100.062L103.45 16.6162C103.894 16.2956 104.377 15.7185 104.568 15.2911C103.805 14.714 102.885 14.2296 101.987 13.795C101.621 13.6169 97.9202 11.7754 97.9202 11.7754C97.5295 12.3346 97.114 13.1539 97.114 13.1539C97.1318 13.1824 97.1531 13.2109 97.1779 13.2394L94.0385 18.675C93.9674 18.4542 93.8112 18.2369 93.5448 18.0338H93.5342Z" fill="#F2F2F2"/>
<path d="M51.0932 30.7828C50.2906 28.382 49.5164 25.9527 48.8345 23.6018C46.9345 25.5787 45.1197 27.5236 43.7418 29.6252C36.5963 40.4643 46.1923 54.8335 57.4361 48.543C55.632 43.3781 53.6609 38.2773 51.8817 33.1017C48.8452 35.8017 48.6214 40.4715 51.3916 43.4279C46.899 40.475 47.9644 33.3261 51.0932 30.7864V30.7828ZM60.7212 51.82C61.4954 56.7071 57.7238 60.2477 53.5686 58.8906C57.3651 58.969 58.8141 56.8246 58.569 53.2555C42.3425 61.8114 25.7218 43.1145 40.1655 26.7435C43.0563 23.4665 46.3272 21.055 47.7904 19.7513C46.6504 15.1456 46.3237 11.4019 46.5332 8.46329C47.4068 -3.81138 57.5568 -2.06956 56.2606 9.42503C55.7527 13.9203 53.2738 18.5901 50.6458 21.6285C51.3667 24.2216 52.2261 26.9572 53.1353 29.6786C66.201 24.6205 71.7306 42.9969 60.7176 51.8271L60.7212 51.82ZM49.5768 17.436C51.3312 14.8108 52.4925 11.8258 52.9719 8.68413C54.389 -0.630513 49.1577 0.968828 48.7848 9.68862C48.6925 11.8508 48.8949 14.4546 49.5768 17.4395V17.436ZM53.8811 31.8585C55.6462 37.0092 57.5817 42.0922 59.4071 47.2179C67.6039 40.8027 62.8485 28.2182 53.8811 31.8585Z" fill="url(#paint0_linear_478_656)"/>
</g>
<defs>
<linearGradient id="paint0_linear_478_656" x1="36.7241" y1="7.62265" x2="62.6199" y2="55.9949" gradientUnits="userSpaceOnUse">
<stop offset="0.0343749" stop-color="white"/>
<stop offset="1" stop-color="#00323D"/>
</linearGradient>
<clipPath id="clip0_478_656">
<rect width="262" height="81" fill="white"/>
</clipPath>
</defs>
</svg>
