<svg width="548" height="159" viewBox="0 0 548 159" fill="none" xmlns="http://www.w3.org/2000/svg">
<g clip-path="url(#clip0_303_293)">
<path d="M45.5069 31.2516H10.5226V0.398438H0.695312V76.4408H10.5226V40.9288H45.5069V76.4408H55.3342V0.398438H45.5069V31.2516Z" fill="#00323D"/>
<path d="M119.961 0.398438L84.0352 76.4408H94.9778L106.441 52.2416H136.567L148.142 76.4408H158.812L123.332 0.398438H119.961ZM132.218 42.6511H110.977L121.622 20.1618L132.218 42.6511Z" fill="#00323D"/>
<path d="M255.887 0.398438L227.037 59.1928L198.237 1.09232L197.902 0.398438H194.866L183.973 76.4408H193.589L200.418 26.3572L225.29 76.4408H228.698L253.272 26.7537L260.138 76.4408H269.853L258.911 0.398438H255.887Z" fill="#00323D"/>
<path d="M330.836 0.398438L294.91 76.4408H305.853L317.316 52.2416H347.442L359.017 76.4408H369.687L334.207 0.398438H330.836ZM343.093 42.6511H321.852L332.497 20.1618L343.093 42.6511Z" fill="#00323D"/>
<path d="M421.1 29.616L402.97 0.398438H391.594L416.342 40.396V76.4408H426.07V40.3836L450.335 0.398438H438.933L421.1 29.616Z" fill="#00323D"/>
<path d="M511.566 0.398438H508.196L472.27 76.4408H483.212L494.675 52.2416H524.802L536.376 76.4408H547.046L511.566 0.398438ZM520.44 42.6511H499.199L509.844 20.1618L520.44 42.6511Z" fill="#00323D"/>
<path d="M0.695312 157.353L7.20142 111.879H7.94498L26.4347 149.2L44.751 111.879H45.4821L52.0254 157.353H47.5641L43.0656 124.827L26.98 157.353H25.8151L9.54362 124.579L5.08229 157.353H0.695312Z" fill="#00323D"/>
<path d="M73.7734 111.879H78.3215V139.337C78.3215 142.596 78.3835 144.628 78.5074 145.433C78.7305 147.23 79.2633 148.729 80.0813 149.931C80.9116 151.133 82.1756 152.149 83.8858 152.967C85.596 153.785 87.3185 154.194 89.0535 154.194C90.553 154.194 92.0029 153.871 93.3785 153.239C94.7541 152.607 95.919 151.715 96.836 150.575C97.7655 149.448 98.4471 148.072 98.8808 146.462C99.1906 145.309 99.3393 142.943 99.3393 139.349V111.891H103.887V139.349C103.887 143.414 103.491 146.697 102.698 149.2C101.905 151.703 100.318 153.884 97.939 155.742C95.5596 157.601 92.6721 158.53 89.3013 158.53C85.6331 158.53 82.4854 157.651 79.8706 155.903C77.2558 154.156 75.496 151.827 74.6161 148.952C74.0585 147.18 73.7858 143.983 73.7858 139.374V111.916L73.7734 111.879Z" fill="#00323D"/>
<path d="M123.047 148.878L126.913 146.561C129.64 151.567 132.775 154.07 136.344 154.07C137.868 154.07 139.306 153.71 140.644 153.004C141.983 152.298 142.999 151.344 143.705 150.142C144.412 148.952 144.759 147.676 144.759 146.338C144.759 144.814 144.238 143.314 143.21 141.852C141.784 139.833 139.194 137.404 135.415 134.554C131.623 131.692 129.256 129.623 128.339 128.346C126.727 126.203 125.922 123.886 125.922 121.395C125.922 119.413 126.393 117.616 127.347 115.98C128.289 114.357 129.627 113.068 131.35 112.127C133.072 111.185 134.944 110.727 136.964 110.727C139.108 110.727 141.115 111.259 142.974 112.325C144.845 113.391 146.816 115.336 148.898 118.186L145.192 120.999C143.482 118.731 142.02 117.232 140.818 116.513C139.616 115.794 138.302 115.435 136.877 115.435C135.043 115.435 133.543 115.993 132.378 117.108C131.214 118.223 130.631 119.586 130.631 121.222C130.631 122.213 130.842 123.167 131.251 124.096C131.66 125.026 132.416 126.029 133.506 127.132C134.101 127.714 136.059 129.226 139.38 131.679C143.321 134.579 146.023 137.169 147.485 139.436C148.947 141.704 149.679 143.983 149.679 146.263C149.679 149.559 148.427 152.422 145.924 154.863C143.42 157.291 140.372 158.506 136.79 158.506C134.027 158.506 131.523 157.774 129.28 156.3C127.037 154.825 124.968 152.36 123.072 148.89L123.047 148.878Z" fill="#00323D"/>
<path d="M171.305 111.879H175.853V157.353H171.305V111.879Z" fill="#00323D"/>
<path d="M241.301 120.316L237.719 123.067C235.736 120.49 233.369 118.532 230.593 117.206C227.817 115.88 224.769 115.211 221.46 115.211C217.829 115.211 214.471 116.079 211.385 117.826C208.287 119.573 205.895 121.902 204.197 124.839C202.499 127.776 201.644 131.084 201.644 134.752C201.644 140.29 203.54 144.925 207.345 148.629C211.149 152.334 215.945 154.193 221.733 154.193C228.102 154.193 233.431 151.702 237.719 146.709L241.301 149.435C239.033 152.322 236.207 154.552 232.812 156.126C229.416 157.699 225.636 158.492 221.448 158.492C213.492 158.492 207.209 155.841 202.623 150.55C198.769 146.077 196.836 140.674 196.836 134.355C196.836 127.701 199.166 122.101 203.838 117.553C208.51 113.006 214.359 110.738 221.386 110.738C225.636 110.738 229.466 111.581 232.886 113.254C236.306 114.939 239.107 117.293 241.301 120.316Z" fill="#00323D"/>
</g>
<defs>
<clipPath id="clip0_303_293">
<rect width="546.34" height="158.094" fill="white" transform="translate(0.699219 0.398438)"/>
</clipPath>
</defs>
</svg>
