<svg width="658" height="183" viewBox="0 0 658 183" fill="none" xmlns="http://www.w3.org/2000/svg">
<g clip-path="url(#clip0_303_310)">
<path d="M9.01606 194.509C9.01606 194.509 187.503 6.36181 365.902 55.5193C544.3 104.677 620.856 42.7657 668.367 0.814882" stroke="#F2F2F2" stroke-miterlimit="10"/>
<path d="M9.96583 211.764C9.96583 211.764 188.452 23.606 366.851 72.7635C545.25 121.921 621.805 60.0099 669.317 18.059" stroke="#F2F2F2" stroke-miterlimit="10"/>
<path d="M10.9184 229.008C10.9184 229.008 189.405 40.8599 367.804 90.0174C546.203 139.175 622.758 77.2638 670.27 35.3129" stroke="#F2F2F2" stroke-miterlimit="10"/>
<path d="M11.8682 246.26C11.8682 246.26 190.354 58.102 368.753 107.26C547.152 156.417 623.708 94.506 671.219 52.5551" stroke="#F2F2F2" stroke-miterlimit="10"/>
<path d="M12.8213 263.514C12.8213 263.514 191.308 75.356 369.706 124.513C548.105 173.671 624.661 111.76 672.172 69.809" stroke="#F2F2F2" stroke-miterlimit="10"/>
<g clip-path="url(#clip1_303_310)">
<path d="M493.258 26.6347C487.97 29.7298 483.109 28.2313 483.082 28.2221L482.788 28.0763L482.182 29.3184L505.691 40.6051C504.156 41.1768 502.816 42.4658 501.964 44.2066C500.404 47.4167 501.345 51.0972 504.017 52.3966C506.701 53.7005 509.923 52.0488 511.491 48.8343C513.042 45.6509 512.479 42.1752 509.327 40.5986L509.177 40.9058L509.555 41.0882L509.546 41.0926L487.811 30.4305C489.351 30.2569 491.428 29.5427 494.376 28.0136C500.227 24.9998 502.254 30.1975 502.254 30.1975C502.266 26.4856 498.366 23.6498 493.258 26.6347Z" fill="#F2F2F2"/>
<path d="M431.711 101.862C436.096 99.7202 434.638 94.8453 434.634 94.8363L424.009 72.9935L438.408 63.489L447.566 82.0087C446.13 81.5526 444.394 81.6439 442.786 82.4296C439.829 83.8736 438.414 87.0582 439.616 89.5202C440.819 91.9821 444.201 92.8229 447.148 91.3833C451.533 89.2414 450.075 84.3665 450.071 84.3575L439.446 62.5147L454.579 52.5294L463.904 71.3235C462.468 70.8675 460.75 70.9723 459.15 71.7536C456.194 73.1976 454.778 76.3599 455.981 78.8218C457.184 81.2838 460.526 82.0437 463.483 80.5997C466.268 79.2391 467.611 76.2461 466.778 73.9039C466.73 73.7827 466.713 73.6573 466.661 73.5495L466.616 73.5714L455.033 49.8592L455.015 49.868L454.641 49.1489L438.989 59.1875L436.911 60.5144L436.937 60.5683L421.474 70.9933L422.879 73.8015L432.115 92.4829C430.68 92.0269 428.943 92.1181 427.335 92.9038C424.379 94.3478 422.963 97.5324 424.166 99.9944C425.368 102.456 428.75 103.297 431.698 101.858L431.711 101.862Z" fill="#F2F2F2"/>
<path d="M383.409 94.9072C386.023 93.63 387.433 91.1162 386.161 88.3986L386.485 88.2406L386.695 88.6719L386.525 88.733L376.83 69.2735L390.28 60.3774L398.582 77.2121C397.293 76.8066 395.74 76.9085 394.302 77.6107C391.661 78.9011 390.387 81.7382 391.462 83.9396C392.537 86.141 395.681 87.154 398.332 85.8592C400.982 84.5644 401.719 80.7877 401.325 79.8672L401.036 79.2742L401.014 79.2293L390.33 57.4261L390.303 57.4393L390.132 57.0889L374.312 67.421L375.607 70.0046L383.895 86.7676C382.607 86.3621 381.063 86.4596 379.625 87.1619C376.984 88.4523 375.648 91.1636 376.728 93.374C377.807 95.5843 380.767 96.1976 383.409 94.9072Z" fill="#F2F2F2"/>
</g>
</g>
<defs>
<clipPath id="clip0_303_310">
<rect width="669.67" height="226.95" fill="white" transform="translate(0 37.2871) rotate(-3.15775)"/>
</clipPath>
<clipPath id="clip1_303_310">
<rect width="143.46" height="58.48" fill="white" transform="translate(365 69.3652) rotate(-26.0345)"/>
</clipPath>
</defs>
</svg>
