<svg width="854" height="275" viewBox="0 0 854 275" fill="none" xmlns="http://www.w3.org/2000/svg">
<g clip-path="url(#clip0_303_320)">
<path d="M-21.9366 135.629C-21.9366 135.629 239.097 2.33271 429.816 3.39978C620.535 4.46686 430.57 88.6316 487.585 132.693C544.6 176.755 727.05 27.3719 852.45 203.204" stroke="#F2F2F2" stroke-miterlimit="10"/>
<path d="M-21.8429 152.102C-21.8429 152.102 239.191 18.7947 429.91 19.8727C620.629 20.9507 430.663 105.105 487.678 149.166C544.693 193.228 727.144 43.8448 852.544 219.677" stroke="#F2F2F2" stroke-miterlimit="10"/>
<path d="M-21.7491 168.576C-21.7491 168.576 239.285 35.2693 430.003 36.3473C620.722 37.4253 430.757 121.579 487.772 165.641C544.787 209.703 727.238 60.3194 852.638 236.151" stroke="#F2F2F2" stroke-miterlimit="10"/>
<path d="M-21.6515 185.049C-21.6515 185.049 239.382 51.742 430.101 52.82C620.82 53.898 430.855 138.052 487.87 182.113C544.885 226.175 727.335 76.7921 852.736 252.624" stroke="#F2F2F2" stroke-miterlimit="10"/>
<path d="M-21.5578 201.511C-21.5578 201.511 239.476 68.2146 430.195 69.2926C620.914 70.3706 430.948 154.524 487.964 198.586C544.979 242.648 727.429 93.2647 852.829 269.097" stroke="#F2F2F2" stroke-miterlimit="10"/>
<g clip-path="url(#clip1_303_320)">
<path d="M824.87 77.6384C818.1 73.1184 816.83 66.4484 816.83 66.3984L816.83 66.9184L815.48 66.9184L815.64 101.068C814.07 99.5684 811.75 98.4684 809.18 98.4684C804.44 98.4684 800.59 101.598 800.59 105.558C800.59 109.518 804.44 112.848 809.18 112.848C813.92 112.848 817.7 109.918 817.77 105.918L816.83 105.918L816.83 105.498L816.83 105.468L817.22 82.8384C818.32 84.5684 820.51 86.6084 824 89.2284C830.99 94.4584 826.1 99.8984 826.1 99.8984C829.82 98.0984 831.08 93.3884 827.6 89.3384C830.57 86.5984 830.5 81.3984 824.87 77.6384ZM825.27 87.0884C819.2 83.0284 817.88 77.2484 817.66 76.0684L817.66 73.3384C818.75 75.0784 820.7 77.1384 824.23 79.7784C828.81 83.2084 828.24 86.7284 827.3 88.7484C826.73 88.1784 826.05 87.6184 825.26 87.0884L825.27 87.0884Z" fill="#F2F2F2"/>
<path d="M695.329 175.959C694.859 174.489 694.279 173.079 693.549 171.779C692.839 170.469 692.039 169.209 691.119 168.079C687.509 163.499 682.479 160.269 676.999 159.249C675.639 158.989 674.259 158.869 672.899 158.889C671.539 158.949 670.199 159.079 668.929 159.399C668.579 159.469 668.249 159.559 667.909 159.659C667.149 155.519 666.419 151.309 665.729 147.049C669.249 142.819 672.619 138.369 675.499 133.219C677.369 129.829 679.049 126.079 679.899 122.009C680.349 119.989 680.569 117.929 680.659 115.919C680.699 114.899 680.689 113.949 680.669 112.899L680.609 111.559L680.509 110.069C680.209 106.209 679.459 102.399 678.199 98.6893C676.929 94.9893 675.219 91.3893 672.569 88.1893C671.899 87.3893 671.169 86.6193 670.319 85.9093C669.469 85.1993 668.519 84.5193 667.319 84.0293C666.729 83.7793 666.059 83.5793 665.319 83.4893C664.949 83.4493 664.569 83.4293 664.159 83.4493C664.019 83.4593 664.059 83.4493 663.769 83.4793L663.609 83.5093C663.449 83.5393 663.029 83.6193 662.869 83.6793C661.999 83.9493 661.279 84.4393 660.739 84.9393C660.189 85.4493 659.789 85.9893 659.469 86.5093C658.239 88.6093 657.849 90.5393 657.499 92.4393C657.179 94.3293 657.029 96.1793 656.949 98.0093C656.709 105.309 657.269 112.359 658.039 119.289C658.699 125.379 659.549 131.369 660.479 137.249C658.569 139.649 656.599 142.039 654.649 144.419C653.529 145.789 652.399 147.099 651.269 148.509C650.089 149.979 648.949 151.479 647.899 153.039C645.789 156.159 643.989 159.489 642.549 162.959C641.089 166.419 640.039 170.049 639.479 173.749C638.899 177.439 638.829 181.219 639.389 184.889C639.499 185.809 639.719 186.719 639.899 187.619C640.149 188.519 640.349 189.409 640.679 190.279C641.249 192.029 642.059 193.699 642.969 195.279C644.789 198.459 647.369 201.109 650.269 203.089L651.369 203.809L652.509 204.439C653.239 204.869 654.109 205.219 654.899 205.589L656.019 206.009L656.639 206.239L657.239 206.419L658.429 206.789L659.639 207.099C662.859 207.889 666.169 208.209 669.399 208.019C671.649 207.899 673.859 207.529 676.009 206.959C676.379 208.449 676.729 209.929 677.069 211.379C677.689 213.989 678.199 216.559 678.649 219.069C679.079 221.589 679.439 224.049 679.569 226.449C679.629 227.649 679.649 228.829 679.589 229.979C679.569 230.259 679.569 230.579 679.529 230.819L679.429 231.699C679.329 232.239 679.239 232.749 679.089 233.279C678.539 235.389 677.499 237.279 676.159 238.779C674.799 240.259 673.159 241.349 671.419 241.969L670.759 242.169L670.599 242.219C670.599 242.219 670.519 242.239 670.539 242.239L670.449 242.259L670.079 242.349C669.629 242.449 669.219 242.509 668.769 242.559C667.889 242.649 667.019 242.669 666.179 242.559C665.349 242.449 664.549 242.259 663.819 241.989C663.089 241.699 662.429 241.319 661.839 240.899C660.679 240.029 659.869 238.939 659.429 237.799C659.189 237.239 659.069 236.649 658.989 236.079C658.949 235.799 658.929 235.509 658.919 235.229L658.919 234.809C658.949 234.929 658.919 234.809 658.929 234.809L658.929 234.609L658.909 234.339C658.949 233.939 658.989 233.359 659.119 232.919C659.229 232.459 659.379 232.029 659.549 231.649C659.769 231.159 660.039 230.769 660.309 230.449C661.509 231.169 662.939 231.539 664.439 231.419C668.219 231.089 671.019 227.769 670.689 223.989C670.359 220.209 667.089 217.279 663.309 217.539C660.609 217.719 657.919 218.719 655.599 221.609C653.749 223.909 652.399 227.089 652.269 230.349C652.229 231.169 652.249 231.999 652.349 232.849C652.459 233.719 652.589 234.499 652.859 235.469C653.349 237.029 654.199 238.799 655.389 240.319C656.589 241.849 658.179 243.169 660.019 244.039C660.929 244.489 661.899 244.839 662.909 245.059C663.909 245.309 664.949 245.439 665.999 245.469C667.049 245.499 668.119 245.419 669.179 245.229C669.699 245.139 670.259 244.999 670.779 244.839L671.139 244.729L671.349 244.659L671.539 244.589L672.319 244.289C673.339 243.839 674.339 243.289 675.269 242.599C676.189 241.909 677.039 241.099 677.799 240.189C679.279 238.349 680.389 236.149 680.929 233.749C681.079 233.159 681.169 232.519 681.259 231.889L681.329 231.009C681.359 230.659 681.359 230.379 681.369 230.069C681.409 228.839 681.369 227.599 681.269 226.359C680.899 221.379 679.839 216.299 678.719 211.029C678.389 209.529 678.049 207.999 677.709 206.459C681.109 205.349 684.299 203.689 687.079 201.459C689.539 199.479 691.689 197.069 693.289 194.319C694.109 192.949 694.749 191.479 695.249 189.969C695.509 189.219 695.709 188.439 695.889 187.669C695.989 187.299 696.039 186.839 696.119 186.429C696.189 186.009 696.259 185.559 696.289 185.259L696.399 184.259L696.439 182.939C696.439 182.139 696.419 181.329 696.319 180.549C696.159 178.969 695.829 177.429 695.349 175.969L695.329 175.959ZM664.399 88.7393C664.399 88.7393 664.379 88.7393 664.349 88.7493C664.389 88.7293 664.419 88.7193 664.399 88.7393ZM664.379 89.6693L664.399 89.6693C664.399 89.6693 664.359 89.6693 664.379 89.6693ZM662.019 118.899C661.729 115.479 661.519 112.039 661.419 108.599C661.309 105.159 661.339 101.699 661.639 98.3193C661.789 96.6293 662.009 94.9593 662.349 93.3693C662.679 91.8093 663.189 90.2393 663.829 89.2993C664.039 88.9793 664.239 88.8193 664.339 88.7593L664.469 88.7593C664.289 88.7593 664.439 88.7593 664.409 88.7593C664.449 88.7593 664.509 88.7693 664.579 88.7893C664.719 88.8293 664.909 88.8893 665.129 89.0093C666.039 89.4493 667.079 90.5393 667.899 91.7593C669.569 94.2693 670.629 97.4093 671.269 100.589C671.909 103.789 672.129 107.119 672.159 110.409L672.159 111.609L672.119 112.949C672.069 113.689 672.029 114.529 671.949 115.299C671.769 116.849 671.499 118.359 671.069 119.809C670.239 122.709 668.809 125.489 667.069 128.239C666.009 129.879 664.849 131.509 663.639 133.139C662.999 128.439 662.439 123.689 662.019 118.899ZM669.239 205.019C667.789 205.099 666.309 205.059 664.839 204.879C663.369 204.729 661.899 204.409 660.459 203.999L659.379 203.679L658.319 203.299L657.789 203.099L657.299 202.879L656.199 202.389C654.949 201.729 653.649 200.989 652.519 200.029C651.379 199.099 650.319 198.059 649.459 196.859C648.579 195.679 647.799 194.419 647.219 193.059C646.619 191.709 646.179 190.289 645.899 188.819C645.729 188.099 645.669 187.339 645.559 186.609C645.519 185.859 645.429 185.109 645.449 184.349C645.389 178.289 647.399 172.199 650.399 166.649C651.919 163.869 653.709 161.209 655.689 158.659C656.679 157.389 657.719 156.139 658.819 154.929C659.979 153.629 661.149 152.319 662.319 151.009C662.469 150.839 662.609 150.669 662.759 150.499C663.409 153.999 664.079 157.459 664.779 160.869C664.679 160.919 664.589 160.979 664.479 161.029L663.679 161.459C663.189 161.769 662.689 162.049 662.219 162.379C658.459 164.989 655.839 168.529 654.559 171.999C653.229 175.479 653.079 178.809 653.509 181.549C653.959 184.299 654.989 186.489 656.169 187.959C657.329 189.459 658.589 190.199 659.429 190.569C659.639 190.659 659.829 190.729 659.989 190.799C660.149 190.839 660.289 190.879 660.399 190.909L660.729 190.999C660.729 190.999 660.639 190.919 660.479 190.769C660.309 190.619 660.049 190.389 659.779 190.069C659.229 189.429 658.529 188.389 658.089 186.909C657.639 185.449 657.439 183.559 657.749 181.429C658.029 179.309 658.829 176.969 660.249 174.789C661.679 172.619 663.739 170.659 666.439 169.309C666.479 169.289 666.519 169.269 666.549 169.249C667.189 172.109 667.849 174.939 668.529 177.719C669.969 183.719 671.479 189.529 672.949 195.139C673.679 197.939 674.409 200.699 675.109 203.399C675.149 203.559 675.189 203.709 675.229 203.869C673.319 204.499 671.289 204.899 669.219 204.999L669.239 205.019ZM689.159 185.079C689.459 189.369 687.829 194.449 684.169 198.279C682.239 200.359 679.759 202.049 676.989 203.229C675.139 194.959 673.169 186.249 671.299 177.129C670.699 174.189 670.109 171.199 669.519 168.179L669.569 168.179C669.929 168.099 670.279 167.999 670.639 167.969C672.079 167.749 673.599 167.859 675.149 168.209C678.239 168.969 681.509 170.939 684.179 173.879C685.499 175.349 686.679 177.049 687.569 178.919C688.009 179.859 688.389 180.839 688.659 181.849C688.809 182.359 688.899 182.879 688.999 183.399L689.059 183.789L689.089 183.989L689.109 184.089C689.109 184.239 689.119 183.999 689.119 184.069L689.179 185.079L689.159 185.079Z" fill="#F2F2F2"/>
<path d="M778.83 148.968L778.83 148.938L778.96 113.918L778.84 113.918L778.78 113.978L752.75 117.538L752.78 121.698L752.89 147.768C751.53 146.478 749.54 145.698 747.32 145.698C743.23 145.698 739.91 148.478 739.91 151.888C739.91 155.298 743.22 157.508 747.31 157.508C751.35 157.508 754.63 154.908 754.71 150.908L754.83 150.908L754.83 151.928C754.83 151.928 754.77 151.918 754.77 151.908C754.77 151.908 754.74 151.898 754.74 151.888L754.64 125.488L776.92 122.448L777.02 144.888C775.66 143.598 773.67 142.778 771.45 142.778C767.36 142.778 764.04 145.538 764.04 148.948C764.04 152.358 767.35 154.548 771.44 154.548C775.48 154.548 778.76 151.918 778.84 147.918L778.84 148.968L778.83 148.968ZM754.61 123.498L754.61 121.708L776.88 118.818L776.88 120.458L754.61 123.498Z" fill="#F2F2F2"/>
</g>
<g clip-path="url(#clip2_303_320)">
<path d="M425.231 81.5383C418.211 82.0683 413.951 78.0683 413.931 78.0383L413.691 77.7383L412.441 78.7183L431.021 102.218C429.151 102.038 427.121 102.688 425.361 104.058C422.131 106.588 421.241 110.858 423.351 113.548C425.461 116.238 429.631 116.168 432.861 113.638C436.061 111.128 437.231 107.268 434.781 104.048L434.471 104.288L434.771 104.668L434.771 104.648L417.701 82.6983C419.381 83.2983 421.881 83.5983 425.701 83.5183C433.261 83.3483 432.731 89.7383 432.731 89.7383C434.611 85.9083 432.011 81.0183 425.241 81.5283L425.231 81.5383Z" fill="#F2F2F2"/>
<path d="M382.16 50.4176C376.45 50.0276 375.24 55.1576 375.25 55.1476C374.82 63.4176 374.4 71.6776 373.97 79.9476C367.92 80.4076 361.92 81.0576 355.97 81.8976C355.83 74.8576 355.69 67.8176 355.55 60.7776C356.8 61.8176 358.59 62.4976 360.59 62.4976C364.26 62.4976 367.3 60.2976 367.38 57.4976C367.46 54.6976 364.43 52.3276 360.61 52.3176C354.94 52.3176 354.1 57.5276 354.11 57.5176C354.26 65.7976 354.41 74.0676 354.57 82.3476C348.33 83.2676 342.15 84.3976 336.03 85.7376C335.36 78.6176 334.68 71.5076 334 64.3876C335.31 65.3376 337.12 65.8576 339.1 65.7176C342.73 65.4576 345.57 63.0476 345.44 60.2476C345.31 57.4476 342.14 55.3876 338.36 55.6676C334.79 55.9276 332.1 58.3376 332.03 60.8876C332.03 61.0176 332 61.1476 332.01 61.2776L332.06 61.2776C332.9 70.2276 333.74 79.1776 334.58 88.1276L334.61 88.1276C334.64 88.3976 334.67 88.6776 334.7 88.9476C340.91 87.6276 347.19 86.5176 353.52 85.6376C354.36 85.5176 355.2 85.4076 356.04 85.2976L356.04 85.2376C362.39 84.2676 368.8 83.5176 375.26 82.9876C375.31 81.9176 375.36 80.8476 375.4 79.7776C375.76 72.6876 376.11 65.5876 376.46 58.4976C377.64 59.6276 379.4 60.4276 381.42 60.5676C385.11 60.8276 388.33 58.8476 388.61 56.0576C388.89 53.2676 386 50.6876 382.15 50.4076L382.16 50.4176Z" fill="#F2F2F2"/>
</g>
</g>
<defs>
<clipPath id="clip0_303_320">
<rect width="874.821" height="268.984" fill="white" transform="translate(-23 5.43945) rotate(-0.330108)"/>
</clipPath>
<clipPath id="clip1_303_320">
<rect width="190.65" height="179.08" fill="white" transform="translate(639 66.3984)"/>
</clipPath>
<clipPath id="clip2_303_320">
<rect width="104.09" height="65.17" fill="white" transform="translate(332 50.3984)"/>
</clipPath>
</defs>
</svg>
