<svg width="82" height="150" viewBox="0 0 82 150" fill="none" xmlns="http://www.w3.org/2000/svg">
<path d="M64.415 97.426C64.6099 95.895 64.6798 94.372 64.5672 92.8853C64.477 91.398 64.2841 89.918 63.9276 88.5051C62.59 82.8289 59.3951 77.7766 54.8588 74.5373C53.7359 73.7271 52.5358 73.0355 51.2946 72.4791C50.0366 71.959 48.7671 71.5109 47.4808 71.2645C47.1339 71.1801 46.7968 71.1223 46.4464 71.0693C47.5063 66.9957 48.6229 62.8714 49.7969 58.7186C54.7742 56.3714 59.7085 53.7613 64.4943 50.3098C67.6212 48.027 70.728 45.3376 73.2176 42.0075C74.4787 40.3667 75.5483 38.5924 76.4789 36.8085C76.946 35.9009 77.3382 35.0356 77.7636 34.0754L78.2752 32.8355L78.814 31.4427C80.1725 27.8172 81.102 24.047 81.5271 20.152C81.9388 16.2618 81.9095 12.2764 80.8592 8.25657C80.5898 7.24843 80.2534 6.24215 79.7828 5.23956C79.3123 4.23697 78.7384 3.21933 77.8577 2.26831C77.4285 1.79249 76.9057 1.3282 76.273 0.934046C75.9545 0.741501 75.6185 0.56286 75.2385 0.407805C75.1073 0.357733 75.1478 0.365565 74.8723 0.270262L74.7146 0.229871C74.5569 0.189479 74.1424 0.0845839 73.972 0.0713845C73.0694 -0.0513729 72.2098 0.0886396 71.5092 0.313748C70.7952 0.543697 70.2046 0.864198 69.6949 1.20036C67.6929 2.58427 66.5242 4.16891 65.4044 5.74324C64.316 7.32119 63.3986 8.93469 62.5531 10.5596C59.252 17.075 56.7817 23.7018 54.5524 30.3084C52.5782 36.1073 50.8185 41.8957 49.1778 47.6182C46.4328 48.9868 43.6376 50.321 40.8648 51.6546C39.2709 52.4233 37.6933 53.1334 36.0735 53.9341C34.383 54.7681 32.7161 55.6461 31.1054 56.6166C27.875 58.5534 24.8369 60.8114 22.0659 63.3484C19.2811 65.8678 16.796 68.7146 14.7256 71.8318C12.6412 74.9314 10.9811 78.3281 9.93844 81.8911C9.64954 82.7715 9.46457 83.6893 9.24756 84.5811C9.094 85.5024 8.89935 86.3936 8.83098 87.3216C8.60843 89.1486 8.63721 91.0044 8.79465 92.8209C9.10109 96.4721 10.3203 99.9639 12.1125 102.984L12.8054 104.101L13.5726 105.153C14.0527 105.851 14.6934 106.536 15.2532 107.205L16.0909 108.059L16.5558 108.529L17.0236 108.946L17.9459 109.784L18.9117 110.576C21.4967 112.652 24.3617 114.34 27.3697 115.533C29.4598 116.374 31.6192 116.972 33.8088 117.364C33.5148 118.871 33.2069 120.36 32.9026 121.818C32.3621 124.446 31.7388 126.99 31.0865 129.456C30.4118 131.921 29.699 134.303 28.803 136.534C28.3505 137.647 27.8702 138.725 27.3301 139.742C27.1937 139.987 27.0585 140.277 26.9209 140.478L26.4585 141.233C26.1398 141.68 25.8428 142.105 25.483 142.522C24.0932 144.202 22.3522 145.476 20.504 146.269C18.6461 147.036 16.6992 147.331 14.8601 147.158L14.1774 147.061L14.0113 147.039C14.0113 147.039 13.9303 147.023 13.9485 147.031L13.8584 147.012L13.4851 146.937C13.0349 146.837 12.638 146.719 12.209 146.574C11.3733 146.284 10.5763 145.934 9.86135 145.48C9.1555 145.03 8.51063 144.519 7.963 143.966C7.42381 143.395 6.98609 142.772 6.62872 142.142C5.94477 140.863 5.671 139.533 5.75372 138.314C5.77272 137.705 5.91317 137.12 6.08142 136.569C6.16344 136.299 6.2678 136.027 6.37701 135.769L6.55442 135.389C6.53092 135.51 6.55442 135.389 6.56348 135.393L6.64796 135.212L6.74388 134.958C6.9491 134.613 7.23035 134.104 7.53404 133.76C7.82805 133.389 8.14564 133.063 8.46024 132.79C8.86663 132.439 9.27609 132.2 9.65599 132.024C10.4396 133.183 11.5794 134.123 12.9897 134.647C16.5554 135.945 20.4957 134.118 21.7932 130.553C23.0908 126.987 21.3645 122.95 17.8284 121.589C15.3051 120.612 12.4444 120.382 9.12082 122.022C6.47244 123.325 3.90556 125.637 2.4107 128.537C2.02808 129.263 1.69561 130.024 1.42721 130.837C1.15943 131.672 0.947788 132.434 0.78279 133.427C0.567987 135.048 0.590791 137.011 1.02737 138.892C1.46879 140.786 2.35241 142.654 3.65272 144.219C4.28747 145.012 5.01885 145.739 5.84139 146.365C6.6422 147.014 7.52995 147.571 8.46901 148.041C9.40807 148.512 10.4117 148.892 11.4528 149.167C11.9621 149.305 12.5288 149.415 13.0678 149.49L13.4405 149.542L13.6605 149.567L13.8622 149.584L14.696 149.641C15.8106 149.664 16.9493 149.588 18.0837 149.356C19.2091 149.119 20.3217 148.744 21.3949 148.24C23.5136 147.197 25.449 145.672 26.9522 143.725C27.3374 143.253 27.6893 142.711 28.037 142.178L28.4722 141.41C28.6472 141.106 28.7655 140.852 28.9055 140.575C29.4613 139.477 29.9488 138.336 30.3819 137.17C32.1501 132.5 33.3351 127.448 34.546 122.198C34.8805 120.699 35.2186 119.168 35.5609 117.629C39.1115 118.059 42.7042 117.902 46.1659 117.055C49.2321 116.299 52.1988 115.023 54.8107 113.206C56.1326 112.311 57.3337 111.248 58.4247 110.091C58.9772 109.521 59.4879 108.898 59.9763 108.277C60.2232 107.983 60.4629 107.588 60.7086 107.25C60.9494 106.899 61.2029 106.52 61.3569 106.261L61.879 105.401L62.4728 104.222C62.8107 103.496 63.1347 102.754 63.3736 102.005C63.8959 100.505 64.2473 98.9696 64.4289 97.4435L64.415 97.426ZM73.2215 5.30409C73.2215 5.30409 73.2034 5.29564 73.172 5.29203C73.2167 5.2908 73.2481 5.29441 73.2215 5.30409ZM72.8105 6.1386L72.8287 6.14705C72.8287 6.14705 72.7924 6.13015 72.8105 6.1386ZM58.3247 31.6361C59.5064 28.4137 60.7691 25.2069 62.1315 22.0466C63.4849 18.8821 64.9736 15.7586 66.6732 12.8217C67.523 11.3532 68.4279 9.93242 69.4077 8.63484C70.3657 7.36024 71.4911 6.1526 72.4683 5.57091C72.7938 5.36956 73.0427 5.30902 73.1587 5.29687L73.2765 5.35178C73.1134 5.27575 73.2493 5.33911 73.2221 5.32644C73.2584 5.34334 73.3085 5.37774 73.3635 5.42544C73.4735 5.52083 73.6204 5.65547 73.7691 5.85717C74.4081 6.64037 74.8904 8.06766 75.1183 9.51984C75.5718 12.5003 75.2062 15.7942 74.4431 18.9469C73.6715 22.1178 72.4643 25.229 71.1018 28.2238L70.595 29.3115L69.9927 30.5092C69.6348 31.1588 69.2437 31.9033 68.846 32.5674C68.0281 33.8964 67.1455 35.151 66.1433 36.2836C64.166 38.5616 61.6956 40.4774 58.9568 42.2351C57.3033 43.2738 55.5633 44.2613 53.7781 45.2276C55.1833 40.6972 56.6821 36.1552 58.3247 31.6361V31.6361ZM28.4919 112.746C27.1438 112.206 25.8192 111.544 24.5628 110.76C23.2937 110.003 22.0965 109.092 20.9644 108.113L20.1207 107.366L19.3204 106.574L18.9245 106.169L18.5733 105.763L17.7832 104.854C16.929 103.728 16.0632 102.508 15.4445 101.16C14.804 99.8358 14.2825 98.4454 14.0099 96.9944C13.7106 95.5532 13.5359 94.0816 13.5846 92.6039C13.611 91.1268 13.812 89.6539 14.1791 88.2032C14.3292 87.4787 14.5958 86.7645 14.8045 86.0564C15.085 85.3597 15.3202 84.6418 15.6594 83.9614C18.1647 78.4432 22.559 73.7722 27.6226 70.0089C30.1746 68.1311 32.9207 66.4761 35.7925 65.0011C37.2263 64.2682 38.6969 63.5745 40.2051 62.9423C41.8056 62.254 43.4195 61.5608 45.0333 60.8676C45.2411 60.7769 45.4398 60.6819 45.6476 60.5912C44.7583 64.0382 43.9041 67.4574 43.0982 70.8439C42.9865 70.847 42.8795 70.8634 42.7587 70.8622L41.852 70.9141C41.2769 70.9881 40.7054 71.0307 40.14 71.1313C35.6294 71.9088 31.7593 74.0108 29.1334 76.6153C26.4579 79.2078 24.9154 82.1628 24.1478 84.828C23.394 87.5107 23.4026 89.9308 23.8512 91.7617C24.2691 93.6113 25.0986 94.8143 25.7037 95.5044C25.856 95.6747 25.9986 95.8184 26.1141 95.9495C26.2422 96.0533 26.3522 96.1487 26.4393 96.2224L26.7004 96.4433C26.7004 96.4433 26.6526 96.3328 26.5709 96.1293C26.4802 95.9215 26.3417 95.6032 26.2321 95.1991C26.0039 94.3867 25.8087 93.1483 26.0351 91.621C26.2439 90.1075 26.8609 88.3099 28.0416 86.5102C29.1909 84.7069 30.9045 82.9238 33.1124 81.5477C35.3252 80.1848 38.0203 79.2784 41.0378 79.1952C41.0825 79.194 41.1272 79.1927 41.1629 79.1873C40.5349 82.0499 39.9377 84.8939 39.3798 87.7009C38.1507 93.7476 37.0652 99.6517 36.0279 105.358C35.5069 108.204 35.0028 111.014 34.4968 113.757C34.4654 113.919 34.4383 114.072 34.407 114.234C32.4097 113.998 30.4007 113.503 28.4822 112.719L28.4919 112.746ZM54.9702 103.086C53.43 107.101 49.8068 111.017 44.8715 112.943C42.2436 114.013 39.2818 114.497 36.2726 114.397C38.089 106.119 39.9825 97.3925 42.1398 88.3362C42.8378 85.4179 43.566 82.4585 44.3069 79.472L44.3522 79.4931C44.7123 79.5726 45.0718 79.6298 45.4107 79.7547C46.8089 80.1635 48.1402 80.9053 49.3973 81.8773C51.8771 83.8713 54.0089 87.0382 55.1871 90.8309C55.7627 92.7209 56.1142 94.7602 56.131 96.8311C56.1327 97.869 56.0632 98.9178 55.8813 99.9473C55.8019 100.473 55.6638 100.982 55.5348 101.496L55.4244 101.875L55.3672 102.069L55.343 102.168C55.2797 102.304 55.3901 102.09 55.3606 102.154L54.9883 103.095L54.9702 103.086Z" fill="#F2F2F2"/>
</svg>
