<svg width="30" height="47" viewBox="0 0 30 47" fill="none" xmlns="http://www.w3.org/2000/svg">
<path d="M24.9597 11.24C18.1897 6.72 16.9197 0.05 16.9197 -1.98526e-09L16.9197 0.52L15.5697 0.52L15.7297 34.67C14.1597 33.17 11.8397 32.07 9.26968 32.07C4.52968 32.07 0.679688 35.2 0.679688 39.16C0.679688 43.12 4.52968 46.45 9.26968 46.45C14.0097 46.45 17.7897 43.52 17.8597 39.52L16.9197 39.52L16.9197 39.1L16.9197 39.07L17.3097 16.44C18.4097 18.17 20.5997 20.21 24.0897 22.83C31.0797 28.06 26.1897 33.5 26.1897 33.5C29.9097 31.7 31.1697 26.99 27.6897 22.94C30.6597 20.2 30.5897 15 24.9597 11.24ZM25.3597 20.69C19.2897 16.63 17.9697 10.85 17.7497 9.67L17.7497 6.94C18.8397 8.68 20.7897 10.74 24.3197 13.38C28.8997 16.81 28.3297 20.33 27.3897 22.35C26.8197 21.78 26.1397 21.22 25.3497 20.69L25.3597 20.69Z" fill="#F2F2F2"/>
</svg>
