<svg width="34" height="48" viewBox="0 0 34 48" fill="none" xmlns="http://www.w3.org/2000/svg">
<path d="M26.7685 0.501957C23.6604 -0.605779 19.5091 0.867617 17.0677 2.38403C14.3898 4.05101 12.2604 6.38479 9.22755 7.62158C6.79698 8.62177 4.00075 8.21309 1.10774 7.3312L0 8.19158L27.0158 31.5723C25.8436 31.4971 24.5853 31.7444 23.2625 32.4327C18.0464 34.9278 15.3792 38.8533 15.4223 41.6065C15.5191 46.8225 22.2945 48.4465 26.6825 46.274C31.3285 43.9725 35.953 38.7242 32.3825 34.5621C32.1889 34.3471 31.9953 34.132 31.7909 33.9276L31.8125 33.9061L16.3687 20.538C17.3258 20.3874 18.2723 19.5163 18.9606 19.0108C20.3479 17.9999 21.5525 16.8276 22.4666 15.5048C23.37 14.2142 23.8647 13.042 24.51 11.6331C25.6285 9.21328 27.3492 7.9012 30.21 7.56781C31.0811 7.46026 31.5113 7.37422 32.2964 7.76139C33.1245 8.17007 33.8881 8.72932 33.8666 9.31007C34.286 7.56781 31.393 6.55686 29.9089 6.59988C27.446 6.67516 25.3058 7.70762 23.6604 9.06271C22.6064 9.93384 21.133 11.5578 20.2726 12.558C19.5628 13.3754 18.81 14.4938 17.8528 15.2359C16.7774 16.064 16.2396 16.7201 14.734 16.9459C14.1209 17.0427 13.0885 17.0965 12.2496 16.9459L9.25981 14.354C10.2923 14.7842 11.4538 14.6444 12.2389 14.4508C13.6477 14.1067 14.4436 12.8806 15.2825 11.9557C16.8526 10.2242 18.1002 8.42819 19.4338 6.57837C20.6921 4.83611 23.94 1.56667 26.9943 2.50234C28.543 2.97554 28.5645 4.29838 29.2206 5.27705C30.0702 3.51328 28.984 1.24403 26.7792 0.458937L26.7685 0.501957Z" fill="#00323D"/>
</svg>
