<svg width="48" height="65" viewBox="0 0 48 65" fill="none" xmlns="http://www.w3.org/2000/svg">
<path d="M16.6391 48.9074C11.4361 51.2079 8.07757 55.2149 7.38944 58.1614C6.09308 63.7569 11.5689 65.9708 15.961 63.9556C20.6093 61.818 26.0342 56.5375 24.0173 51.8423C23.9139 51.596 23.796 51.3543 23.6684 51.1318L23.6831 51.1031L6.62968 24.6241C9.40891 23.2568 12.6074 19.8686 14.6524 18.3305C19.5905 14.6132 24.8183 11.7454 29.8544 8.33213L43.4687 29.4717C42.4651 29.3079 41.3089 29.4888 39.9703 30.1201C34.7673 32.4206 31.4088 36.4277 30.7207 39.3741C29.4243 44.9696 34.9001 47.1835 39.2922 45.1683C43.9405 43.0307 49.3655 37.7502 47.3485 33.055C47.2451 32.8087 47.1273 32.5671 46.9996 32.3445L47.0143 32.3158L30.9463 7.35692C30.5947 4.97735 29.3021 1.93432 28.0193 0.334351C24.2447 2.1584 20.5005 4.79562 17.016 7.44504C15.5912 8.52758 0.992235 19.3063 0.992235 19.3063C2.38015 21.951 4.74805 25.2067 4.74805 25.2067C4.89724 25.1986 5.05157 25.1568 5.21057 25.1295L20.1135 48.2588C19.1098 48.0949 17.9536 48.2759 16.6151 48.9071L16.6391 48.9074Z" fill="#00323D"/>
</svg>
