<svg width="57" height="36" viewBox="0 0 57 36" fill="none" xmlns="http://www.w3.org/2000/svg">
<path d="M4.76922 30.5973C9.49144 31.8282 11.5608 27.1798 11.5633 27.1702L17.7287 3.67561L34.8455 5.84307L29.7311 25.8603C28.9387 24.579 27.5619 23.5174 25.8298 23.0659C22.6462 22.2361 19.4975 23.7302 18.8064 26.3816C18.1153 29.033 20.134 31.874 23.3079 32.7013C28.0301 33.9322 30.0995 29.2839 30.102 29.2742L36.2674 5.77968L54.2538 8.06014L49.0878 28.3946C48.2953 27.1133 46.9232 26.0736 45.2008 25.6246C42.0171 24.7948 38.8832 26.272 38.1921 28.9234C37.501 31.5749 39.5423 34.3288 42.726 35.1586C45.7257 35.9406 48.6939 34.5441 49.5879 32.2246C49.6304 32.1013 49.6993 31.9953 49.7296 31.8791L49.6812 31.8665L56.3376 6.3298L56.3183 6.32475L56.5032 5.5359L38.0881 2.95767L35.6467 2.61065L35.6316 2.66871L17.108 0.506576L16.345 3.55262L11.1853 23.744C10.3928 22.4627 9.01609 21.4011 7.28397 20.9496C4.10034 20.1198 0.951675 21.6139 0.260561 24.2653C-0.430553 26.9167 1.58812 29.7578 4.76206 30.5851L4.76922 30.5973Z" fill="#00323D"/>
</svg>
