<svg width="65" height="50" viewBox="0 0 65 50" fill="none" xmlns="http://www.w3.org/2000/svg">
<path d="M16.8349 29.1927C12.1953 25.9007 7.03383 25.0668 4.15043 25.9839C-1.31997 27.7346 -0.418758 33.5718 3.56066 36.3133C7.77645 39.2122 15.0896 41.1694 18.0905 37.0333C18.2492 36.8184 18.3965 36.5935 18.5223 36.3699L18.5545 36.3678L32.5716 8.16367C35.1689 9.85122 39.7168 10.8645 42.085 11.8338C47.806 14.1731 52.9458 17.196 58.4559 19.775L47.2651 42.2916C46.892 41.3456 46.1448 40.445 44.9173 39.6182C40.2776 36.3262 35.1162 35.4923 32.2328 36.4094C26.7624 38.1601 27.6636 43.9973 31.643 46.7389C35.8588 49.6377 43.1719 51.5949 46.1729 47.4588C46.3315 47.2439 46.4788 47.019 46.6046 46.7954L46.6368 46.7933L59.8526 20.2138C61.7167 18.6937 63.6692 16.0256 64.387 14.1045C60.8878 11.7957 56.7057 9.92928 52.646 8.29211C50.9867 7.62227 34.2541 0.598653 34.2541 0.598653C32.6926 3.14478 31.108 6.84549 31.108 6.84549C31.1913 6.96948 31.3062 7.08068 31.411 7.2033L19.1706 31.8453C18.7976 30.8993 18.0503 29.9987 16.8228 29.1719L16.8349 29.1927Z" fill="#BABABA"/>
</svg>
