<svg width="40" height="45" viewBox="0 0 40 45" fill="none" xmlns="http://www.w3.org/2000/svg">
<path d="M38.92 35.5695L38.92 35.5395L39.05 0.519531L38.93 0.519531L38.87 0.579533L12.84 4.13953L12.87 8.29953L12.98 34.3695C11.62 33.0795 9.63 32.2995 7.41 32.2995C3.32 32.2995 4.22479e-09 35.0795 4.64164e-09 38.4895C5.0585e-09 41.8995 3.30999 44.1095 7.39999 44.1095C11.44 44.1095 14.72 41.5095 14.8 37.5095L14.92 37.5095L14.92 38.5295C14.92 38.5295 14.86 38.5195 14.86 38.5095C14.86 38.5095 14.83 38.4995 14.83 38.4895L14.73 12.0895L37.01 9.04953L37.11 31.4895C35.75 30.1995 33.76 29.3795 31.54 29.3795C27.45 29.3795 24.13 32.1395 24.13 35.5495C24.13 38.9595 27.44 41.1495 31.53 41.1495C35.57 41.1495 38.85 38.5195 38.93 34.5195L38.93 35.5695L38.92 35.5695ZM14.7 10.0995L14.7 8.30953L36.97 5.41953L36.97 7.05953L14.7 10.0995Z" fill="#F2F2F2"/>
</svg>
