<svg width="66" height="51" viewBox="0 0 66 51" fill="none" xmlns="http://www.w3.org/2000/svg">
<path d="M16.6348 28.1823C12.2146 24.601 7.11685 23.4395 4.18081 24.1708C-1.39013 25.5689 -0.86315 31.4518 2.93326 34.4416C6.95553 37.6035 14.1289 40.0233 17.3876 36.0871C17.5597 35.8827 17.721 35.6676 17.8608 35.4525H17.8931L33.681 8.20008C36.1653 10.0499 40.6393 11.3512 42.9408 12.4697C48.501 15.1691 53.4374 18.5139 58.7718 21.4391L46.1672 43.1959C45.8553 42.228 45.167 41.2816 43.9948 40.3782C39.5746 36.7969 34.4769 35.6354 31.5408 36.3667C25.9699 37.7648 26.4969 43.6476 30.2933 46.6374C34.3155 49.7993 41.4889 52.2191 44.7476 48.2829C44.9197 48.0786 45.081 47.8635 45.2208 47.6484H45.2531L60.1376 21.9661C62.095 20.568 64.2136 18.0299 65.0525 16.1586C61.7078 13.6312 57.6533 11.5018 53.7063 9.60894C52.0931 8.83461 35.8427 0.757812 35.8427 0.757812C34.1219 3.19913 32.3044 6.79121 32.3044 6.79121C32.3797 6.92027 32.4872 7.03857 32.584 7.16762L18.7965 30.9786C18.4846 30.0106 17.7963 29.0642 16.624 28.1608L16.6348 28.1823Z" fill="#00323D"/>
</svg>
