<svg width="17" height="37" viewBox="0 0 17 37" fill="none" xmlns="http://www.w3.org/2000/svg">
<path d="M10.469 6.6061C4.44055 5.5101 1.72827 1.20684 1.71396 1.18244L1.586 0.8804L0.316853 1.42799L10.8034 25.305C9.26643 24.7391 7.40989 24.8442 5.6292 25.6098C2.35515 27.0299 0.671747 30.4354 1.85236 33.1613C3.04012 35.8994 6.56073 36.7448 9.84446 35.3272C13.0941 33.9214 14.9312 30.9177 13.5666 27.6684L13.2524 27.8035L13.4207 28.1884L13.411 28.1859L3.86385 5.93849C5.14548 6.80993 7.18689 7.62106 10.4197 8.38106C16.8223 9.90527 14.9748 15.1695 14.9748 15.1695C17.4017 12.3608 16.2892 7.66849 10.469 6.6061Z" fill="#F2F2F2"/>
</svg>
