<svg width="232" height="17" viewBox="0 0 232 17" fill="none" xmlns="http://www.w3.org/2000/svg">
<path d="M6.21241 10.872C5.15641 10.872 4.36707 10.5467 3.84441 9.896C3.32174 9.23467 3.06041 8.36533 3.06041 7.288C3.06041 6.59467 3.18307 5.98133 3.42841 5.448C3.67374 4.904 4.03641 4.48267 4.51641 4.184C4.99641 3.87467 5.58307 3.72 6.27641 3.72C6.60707 3.72 6.94307 3.76267 7.28441 3.848C7.62574 3.93333 7.94574 4.05067 8.24441 4.2L7.78041 5.176C7.51374 5.03733 7.25241 4.936 6.99641 4.872C6.75107 4.79733 6.51641 4.76 6.29241 4.76C5.66307 4.76 5.17241 4.984 4.82041 5.432C4.47907 5.88 4.30841 6.49867 4.30841 7.288C4.30841 7.832 4.37241 8.296 4.50041 8.68C4.63907 9.05333 4.85241 9.34133 5.14041 9.544C5.42841 9.736 5.80707 9.832 6.27641 9.832C6.52174 9.832 6.79374 9.8 7.09241 9.736C7.40174 9.66133 7.68974 9.57067 7.95641 9.464V10.488C7.70041 10.5947 7.43907 10.6853 7.17241 10.76C6.90574 10.8347 6.58574 10.872 6.21241 10.872ZM5.97241 13.16C5.11907 13.16 4.33507 13.016 3.62041 12.728C2.90574 12.44 2.28174 12.0347 1.74841 11.512C1.22574 10.9787 0.820406 10.3547 0.532406 9.64C0.244406 8.92533 0.100406 8.14133 0.100406 7.288C0.100406 6.43467 0.244406 5.65067 0.532406 4.936C0.820406 4.22133 1.22574 3.60267 1.74841 3.08C2.28174 2.54667 2.90574 2.136 3.62041 1.848C4.33507 1.56 5.11907 1.416 5.97241 1.416C6.78307 1.416 7.54041 1.56 8.24441 1.848C8.95907 2.136 9.58307 2.54667 10.1164 3.08C10.6604 3.60267 11.0817 4.22133 11.3804 4.936C11.6897 5.65067 11.8444 6.43467 11.8444 7.288C11.8444 8.14133 11.7004 8.92533 11.4124 9.64C11.1244 10.3547 10.7137 10.9787 10.1804 11.512C9.65774 12.0347 9.03907 12.44 8.32441 12.728C7.60974 13.016 6.82574 13.16 5.97241 13.16ZM5.97241 12.312C6.65507 12.312 7.29507 12.1893 7.89241 11.944C8.48974 11.6987 9.01774 11.352 9.47641 10.904C9.93507 10.4453 10.2924 9.912 10.5484 9.304C10.8044 8.696 10.9324 8.024 10.9324 7.288C10.9324 6.59467 10.8097 5.944 10.5644 5.336C10.3191 4.728 9.97241 4.19467 9.52441 3.736C9.08707 3.27733 8.56441 2.92 7.95641 2.664C7.35907 2.39733 6.69774 2.264 5.97241 2.264C5.24707 2.264 4.58041 2.38667 3.97241 2.632C3.36441 2.87733 2.83641 3.22933 2.38841 3.688C1.95107 4.136 1.60974 4.664 1.36441 5.272C1.11907 5.88 0.996406 6.552 0.996406 7.288C0.996406 7.98133 1.11907 8.632 1.36441 9.24C1.60974 9.848 1.95107 10.3813 2.38841 10.84C2.83641 11.2987 3.36441 11.6613 3.97241 11.928C4.58041 12.184 5.24707 12.312 5.97241 12.312ZM27.0732 13H25.6332V7.672H19.7772V13H18.3372V1.576H19.7772V6.408H25.6332V1.576H27.0732V13ZM37.3645 13L35.9885 9.464H31.4605L30.1005 13H28.6445L33.1085 1.528H34.4045L38.8525 13H37.3645ZM34.2765 4.728C34.2445 4.64267 34.1912 4.488 34.1165 4.264C34.0419 4.04 33.9672 3.81067 33.8925 3.576C33.8285 3.33067 33.7752 3.144 33.7325 3.016C33.6792 3.22933 33.6205 3.448 33.5565 3.672C33.5032 3.88533 33.4445 4.08267 33.3805 4.264C33.3272 4.44533 33.2792 4.6 33.2365 4.728L31.9405 8.184H35.5565L34.2765 4.728ZM45.4553 13L41.6953 2.984H41.6313C41.6526 3.19733 41.6686 3.46933 41.6793 3.8C41.7006 4.13067 41.7166 4.49333 41.7273 4.888C41.7379 5.272 41.7433 5.66667 41.7433 6.072V13H40.4153V1.576H42.5433L46.0633 10.936H46.1273L49.7113 1.576H51.8233V13H50.3993V5.976C50.3993 5.60267 50.4046 5.23467 50.4153 4.872C50.4259 4.49867 50.4419 4.152 50.4633 3.832C50.4846 3.50133 50.5006 3.224 50.5113 3H50.4473L46.6393 13H45.4553ZM62.0989 13L60.7229 9.464H56.1949L54.8349 13H53.3789L57.8429 1.528H59.1389L63.5869 13H62.0989ZM59.0109 4.728C58.9789 4.64267 58.9256 4.488 58.8509 4.264C58.7762 4.04 58.7016 3.81067 58.6269 3.576C58.5629 3.33067 58.5096 3.144 58.4669 3.016C58.4136 3.22933 58.3549 3.448 58.2909 3.672C58.2376 3.88533 58.1789 4.08267 58.1149 4.264C58.0616 4.44533 58.0136 4.6 57.9709 4.728L56.6749 8.184H60.2909L59.0109 4.728ZM67.1725 7.192L70.1485 1.576H71.7005L67.8925 8.568V13H66.4525V8.632L62.6445 1.576H64.2125L67.1725 7.192ZM79.4739 13L78.0979 9.464H73.5699L72.2099 13H70.7539L75.2179 1.528H76.5139L80.9619 13H79.4739ZM76.3859 4.728C76.3539 4.64267 76.3006 4.488 76.2259 4.264C76.1512 4.04 76.0766 3.81067 76.0019 3.576C75.9379 3.33067 75.8846 3.144 75.8419 3.016C75.7886 3.22933 75.7299 3.448 75.6659 3.672C75.6126 3.88533 75.5539 4.08267 75.4899 4.264C75.4366 4.44533 75.3886 4.6 75.3459 4.728L74.0499 8.184H77.6659L76.3859 4.728ZM93.8489 13L92.4729 9.464H87.9449L86.5849 13H85.1289L89.5929 1.528H90.8889L95.3369 13H93.8489ZM90.7609 4.728C90.7289 4.64267 90.6756 4.488 90.6009 4.264C90.5262 4.04 90.4516 3.81067 90.3769 3.576C90.3129 3.33067 90.2596 3.144 90.2169 3.016C90.1636 3.22933 90.1049 3.448 90.0409 3.672C89.9876 3.88533 89.9289 4.08267 89.8649 4.264C89.8116 4.44533 89.7636 4.6 89.7209 4.728L88.4249 8.184H92.0409L90.7609 4.728ZM98.1157 13H96.7077V0.839999H98.1157V13ZM102.241 13H100.833V0.839999H102.241V13ZM112.458 1.576C113.407 1.576 114.186 1.69867 114.794 1.944C115.413 2.17867 115.871 2.536 116.17 3.016C116.469 3.496 116.618 4.09867 116.618 4.824C116.618 5.432 116.506 5.93867 116.282 6.344C116.058 6.74933 115.77 7.07467 115.418 7.32C115.077 7.55467 114.714 7.74133 114.33 7.88L117.466 13H115.786L113.018 8.28H110.746V13H109.306V1.576H112.458ZM112.378 2.824H110.746V7.064H112.458C113.077 7.064 113.583 6.984 113.978 6.824C114.373 6.65333 114.661 6.408 114.842 6.088C115.034 5.768 115.13 5.368 115.13 4.888C115.13 4.38667 115.029 3.98667 114.826 3.688C114.634 3.38933 114.335 3.17067 113.93 3.032C113.525 2.89333 113.007 2.824 112.378 2.824ZM120.475 4.424V13H119.067V4.424H120.475ZM119.787 1.208C120 1.208 120.187 1.28267 120.347 1.432C120.518 1.57067 120.603 1.79467 120.603 2.104C120.603 2.40267 120.518 2.62667 120.347 2.776C120.187 2.92533 120 3 119.787 3C119.552 3 119.355 2.92533 119.195 2.776C119.035 2.62667 118.955 2.40267 118.955 2.104C118.955 1.79467 119.035 1.57067 119.195 1.432C119.355 1.28267 119.552 1.208 119.787 1.208ZM126.232 4.264C126.797 4.264 127.304 4.37067 127.752 4.584C128.211 4.79733 128.6 5.12267 128.92 5.56H129L129.192 4.424H130.312V13.144C130.312 13.9547 130.173 14.632 129.896 15.176C129.619 15.7307 129.197 16.1467 128.632 16.424C128.067 16.7013 127.347 16.84 126.472 16.84C125.853 16.84 125.283 16.792 124.76 16.696C124.248 16.6107 123.789 16.4773 123.384 16.296V15C123.661 15.1387 123.965 15.256 124.296 15.352C124.627 15.4587 124.984 15.5387 125.368 15.592C125.752 15.6453 126.147 15.672 126.552 15.672C127.288 15.672 127.864 15.4533 128.28 15.016C128.707 14.5893 128.92 14.0027 128.92 13.256V12.92C128.92 12.792 128.925 12.6107 128.936 12.376C128.947 12.1307 128.957 11.96 128.968 11.864H128.904C128.605 12.3013 128.232 12.6267 127.784 12.84C127.347 13.0533 126.835 13.16 126.248 13.16C125.139 13.16 124.269 12.7707 123.64 11.992C123.021 11.2133 122.712 10.1253 122.712 8.728C122.712 7.81067 122.851 7.02133 123.128 6.36C123.416 5.688 123.821 5.17067 124.344 4.808C124.867 4.44533 125.496 4.264 126.232 4.264ZM126.424 5.448C125.944 5.448 125.533 5.576 125.192 5.832C124.861 6.088 124.605 6.46133 124.424 6.952C124.253 7.44267 124.168 8.04 124.168 8.744C124.168 9.8 124.36 10.6107 124.744 11.176C125.139 11.7307 125.709 12.008 126.456 12.008C126.893 12.008 127.267 11.9547 127.576 11.848C127.885 11.7307 128.141 11.5547 128.344 11.32C128.547 11.0747 128.696 10.7653 128.792 10.392C128.888 10.0187 128.936 9.576 128.936 9.064V8.728C128.936 7.94933 128.845 7.32 128.664 6.84C128.493 6.36 128.221 6.008 127.848 5.784C127.475 5.56 127 5.448 126.424 5.448ZM134.444 4.408C134.444 4.61067 134.433 4.81867 134.412 5.032C134.401 5.24533 134.385 5.43733 134.364 5.608H134.46C134.641 5.30933 134.87 5.064 135.148 4.872C135.425 4.68 135.734 4.536 136.076 4.44C136.417 4.33333 136.769 4.28 137.132 4.28C137.825 4.28 138.401 4.392 138.86 4.616C139.329 4.82933 139.681 5.16533 139.916 5.624C140.15 6.08267 140.268 6.68 140.268 7.416V13H138.876V7.512C138.876 6.81867 138.721 6.30133 138.412 5.96C138.102 5.61867 137.617 5.448 136.956 5.448C136.316 5.448 135.814 5.57067 135.452 5.816C135.089 6.05067 134.828 6.40267 134.668 6.872C134.518 7.33067 134.444 7.896 134.444 8.568V13H133.036V0.839999H134.444V4.408ZM145.79 12.008C146.004 12.008 146.222 11.992 146.446 11.96C146.67 11.9173 146.852 11.8747 146.99 11.832V12.904C146.841 12.9787 146.628 13.0373 146.35 13.08C146.073 13.1333 145.806 13.16 145.55 13.16C145.102 13.16 144.686 13.0853 144.302 12.936C143.929 12.776 143.625 12.504 143.39 12.12C143.156 11.736 143.038 11.1973 143.038 10.504V5.512H141.822V4.84L143.054 4.28L143.614 2.456H144.446V4.424H146.926V5.512H144.446V10.472C144.446 10.9947 144.569 11.384 144.814 11.64C145.07 11.8853 145.396 12.008 145.79 12.008ZM154.292 10.632C154.292 11.1867 154.153 11.6507 153.876 12.024C153.598 12.3973 153.204 12.68 152.692 12.872C152.18 13.064 151.572 13.16 150.868 13.16C150.27 13.16 149.753 13.112 149.316 13.016C148.889 12.92 148.51 12.7867 148.18 12.616V11.336C148.521 11.5067 148.932 11.6667 149.412 11.816C149.902 11.9547 150.398 12.024 150.9 12.024C151.614 12.024 152.132 11.912 152.452 11.688C152.772 11.4533 152.932 11.144 152.932 10.76C152.932 10.5467 152.873 10.3547 152.756 10.184C152.638 10.0133 152.425 9.84267 152.116 9.672C151.817 9.50133 151.385 9.30933 150.82 9.096C150.265 8.88267 149.79 8.66933 149.396 8.456C149.001 8.24267 148.697 7.98667 148.484 7.688C148.27 7.38933 148.164 7.00533 148.164 6.536C148.164 5.81067 148.457 5.25067 149.044 4.856C149.641 4.46133 150.42 4.264 151.38 4.264C151.902 4.264 152.388 4.31733 152.836 4.424C153.294 4.52 153.721 4.65867 154.116 4.84L153.636 5.96C153.401 5.85333 153.15 5.76267 152.884 5.688C152.628 5.60267 152.366 5.53867 152.1 5.496C151.833 5.44267 151.561 5.416 151.284 5.416C150.708 5.416 150.265 5.512 149.956 5.704C149.657 5.88533 149.508 6.136 149.508 6.456C149.508 6.69067 149.577 6.89333 149.716 7.064C149.854 7.224 150.084 7.384 150.404 7.544C150.734 7.69333 151.172 7.87467 151.716 8.088C152.26 8.29067 152.724 8.49867 153.108 8.712C153.492 8.92533 153.785 9.18667 153.988 9.496C154.19 9.79467 154.292 10.1733 154.292 10.632ZM163.864 1.576C164.813 1.576 165.592 1.69867 166.2 1.944C166.819 2.17867 167.277 2.536 167.576 3.016C167.875 3.496 168.024 4.09867 168.024 4.824C168.024 5.432 167.912 5.93867 167.688 6.344C167.464 6.74933 167.176 7.07467 166.824 7.32C166.483 7.55467 166.12 7.74133 165.736 7.88L168.872 13H167.192L164.424 8.28H162.152V13H160.712V1.576H163.864ZM163.784 2.824H162.152V7.064H163.864C164.483 7.064 164.989 6.984 165.384 6.824C165.779 6.65333 166.067 6.408 166.248 6.088C166.44 5.768 166.536 5.368 166.536 4.888C166.536 4.38667 166.435 3.98667 166.232 3.688C166.04 3.38933 165.741 3.17067 165.336 3.032C164.931 2.89333 164.413 2.824 163.784 2.824ZM173.785 4.264C174.521 4.264 175.151 4.424 175.673 4.744C176.207 5.064 176.612 5.51733 176.889 6.104C177.177 6.68 177.321 7.35733 177.321 8.136V8.984H171.449C171.471 9.95467 171.716 10.696 172.185 11.208C172.665 11.7093 173.332 11.96 174.185 11.96C174.729 11.96 175.209 11.912 175.625 11.816C176.052 11.7093 176.489 11.56 176.937 11.368V12.6C176.5 12.792 176.068 12.9307 175.641 13.016C175.215 13.112 174.708 13.16 174.121 13.16C173.311 13.16 172.591 12.9947 171.961 12.664C171.343 12.3333 170.857 11.8427 170.505 11.192C170.164 10.5307 169.993 9.72533 169.993 8.776C169.993 7.83733 170.148 7.032 170.457 6.36C170.777 5.688 171.22 5.17067 171.785 4.808C172.361 4.44533 173.028 4.264 173.785 4.264ZM173.769 5.416C173.097 5.416 172.564 5.63467 172.169 6.072C171.785 6.49867 171.556 7.096 171.481 7.864H175.849C175.849 7.37333 175.775 6.94667 175.625 6.584C175.476 6.22133 175.247 5.93867 174.937 5.736C174.639 5.52267 174.249 5.416 173.769 5.416ZM185.089 10.632C185.089 11.1867 184.95 11.6507 184.673 12.024C184.395 12.3973 184.001 12.68 183.489 12.872C182.977 13.064 182.369 13.16 181.665 13.16C181.067 13.16 180.55 13.112 180.113 13.016C179.686 12.92 179.307 12.7867 178.977 12.616V11.336C179.318 11.5067 179.729 11.6667 180.209 11.816C180.699 11.9547 181.195 12.024 181.697 12.024C182.411 12.024 182.929 11.912 183.249 11.688C183.569 11.4533 183.729 11.144 183.729 10.76C183.729 10.5467 183.67 10.3547 183.553 10.184C183.435 10.0133 183.222 9.84267 182.913 9.672C182.614 9.50133 182.182 9.30933 181.617 9.096C181.062 8.88267 180.587 8.66933 180.193 8.456C179.798 8.24267 179.494 7.98667 179.281 7.688C179.067 7.38933 178.961 7.00533 178.961 6.536C178.961 5.81067 179.254 5.25067 179.841 4.856C180.438 4.46133 181.217 4.264 182.177 4.264C182.699 4.264 183.185 4.31733 183.633 4.424C184.091 4.52 184.518 4.65867 184.913 4.84L184.433 5.96C184.198 5.85333 183.947 5.76267 183.681 5.688C183.425 5.60267 183.163 5.53867 182.897 5.496C182.63 5.44267 182.358 5.416 182.081 5.416C181.505 5.416 181.062 5.512 180.753 5.704C180.454 5.88533 180.305 6.136 180.305 6.456C180.305 6.69067 180.374 6.89333 180.513 7.064C180.651 7.224 180.881 7.384 181.201 7.544C181.531 7.69333 181.969 7.87467 182.513 8.088C183.057 8.29067 183.521 8.49867 183.905 8.712C184.289 8.92533 184.582 9.18667 184.785 9.496C184.987 9.79467 185.089 10.1733 185.089 10.632ZM190.473 4.264C191.209 4.264 191.838 4.424 192.361 4.744C192.894 5.064 193.299 5.51733 193.577 6.104C193.865 6.68 194.009 7.35733 194.009 8.136V8.984H188.137C188.158 9.95467 188.403 10.696 188.873 11.208C189.353 11.7093 190.019 11.96 190.873 11.96C191.417 11.96 191.897 11.912 192.313 11.816C192.739 11.7093 193.177 11.56 193.625 11.368V12.6C193.187 12.792 192.755 12.9307 192.329 13.016C191.902 13.112 191.395 13.16 190.809 13.16C189.998 13.16 189.278 12.9947 188.649 12.664C188.03 12.3333 187.545 11.8427 187.193 11.192C186.851 10.5307 186.681 9.72533 186.681 8.776C186.681 7.83733 186.835 7.032 187.145 6.36C187.465 5.688 187.907 5.17067 188.473 4.808C189.049 4.44533 189.715 4.264 190.473 4.264ZM190.457 5.416C189.785 5.416 189.251 5.63467 188.857 6.072C188.473 6.49867 188.243 7.096 188.169 7.864H192.537C192.537 7.37333 192.462 6.94667 192.313 6.584C192.163 6.22133 191.934 5.93867 191.625 5.736C191.326 5.52267 190.937 5.416 190.457 5.416ZM200.192 4.264C200.352 4.264 200.523 4.27467 200.704 4.296C200.896 4.30667 201.061 4.328 201.2 4.36L201.024 5.656C200.885 5.624 200.731 5.59733 200.56 5.576C200.4 5.55467 200.245 5.544 200.096 5.544C199.765 5.544 199.451 5.61333 199.152 5.752C198.853 5.89067 198.587 6.088 198.352 6.344C198.117 6.58933 197.931 6.888 197.792 7.24C197.664 7.592 197.6 7.98667 197.6 8.424V13H196.192V4.424H197.344L197.504 5.992H197.568C197.749 5.672 197.968 5.384 198.224 5.128C198.48 4.86133 198.773 4.65333 199.104 4.504C199.435 4.344 199.797 4.264 200.192 4.264ZM204.689 13L201.441 4.424H202.945L204.769 9.48C204.855 9.71467 204.945 9.976 205.041 10.264C205.137 10.552 205.223 10.8293 205.297 11.096C205.372 11.352 205.425 11.5707 205.457 11.752H205.521C205.564 11.5707 205.623 11.3467 205.697 11.08C205.783 10.8133 205.873 10.536 205.969 10.248C206.076 9.96 206.167 9.704 206.241 9.48L208.065 4.424H209.569L206.305 13H204.689ZM214.238 4.264C214.974 4.264 215.604 4.424 216.126 4.744C216.66 5.064 217.065 5.51733 217.342 6.104C217.63 6.68 217.774 7.35733 217.774 8.136V8.984H211.902C211.924 9.95467 212.169 10.696 212.638 11.208C213.118 11.7093 213.785 11.96 214.638 11.96C215.182 11.96 215.662 11.912 216.078 11.816C216.505 11.7093 216.942 11.56 217.39 11.368V12.6C216.953 12.792 216.521 12.9307 216.094 13.016C215.668 13.112 215.161 13.16 214.574 13.16C213.764 13.16 213.044 12.9947 212.414 12.664C211.796 12.3333 211.31 11.8427 210.958 11.192C210.617 10.5307 210.446 9.72533 210.446 8.776C210.446 7.83733 210.601 7.032 210.91 6.36C211.23 5.688 211.673 5.17067 212.238 4.808C212.814 4.44533 213.481 4.264 214.238 4.264ZM214.222 5.416C213.55 5.416 213.017 5.63467 212.622 6.072C212.238 6.49867 212.009 7.096 211.934 7.864H216.302C216.302 7.37333 216.228 6.94667 216.078 6.584C215.929 6.22133 215.7 5.93867 215.39 5.736C215.092 5.52267 214.702 5.416 214.222 5.416ZM222.998 13.16C221.931 13.16 221.078 12.792 220.438 12.056C219.798 11.3093 219.478 10.2 219.478 8.728C219.478 7.256 219.798 6.14667 220.438 5.4C221.088 4.64267 221.947 4.264 223.014 4.264C223.462 4.264 223.851 4.32267 224.182 4.44C224.512 4.54667 224.8 4.696 225.046 4.888C225.291 5.08 225.499 5.29333 225.67 5.528H225.766C225.755 5.38933 225.734 5.18667 225.702 4.92C225.68 4.64267 225.67 4.424 225.67 4.264V0.839999H227.078V13H225.942L225.734 11.848H225.67C225.499 12.0933 225.291 12.3173 225.046 12.52C224.8 12.712 224.507 12.8667 224.166 12.984C223.835 13.1013 223.446 13.16 222.998 13.16ZM223.222 11.992C224.128 11.992 224.763 11.7467 225.126 11.256C225.499 10.7547 225.686 10.0027 225.686 9V8.744C225.686 7.67733 225.51 6.86133 225.158 6.296C224.806 5.72 224.155 5.432 223.206 5.432C222.448 5.432 221.878 5.736 221.494 6.344C221.12 6.94133 220.934 7.74667 220.934 8.76C220.934 9.784 221.12 10.5787 221.494 11.144C221.878 11.7093 222.454 11.992 223.222 11.992ZM229.593 12.136C229.593 11.7413 229.689 11.464 229.881 11.304C230.073 11.144 230.303 11.064 230.569 11.064C230.847 11.064 231.081 11.144 231.273 11.304C231.476 11.464 231.577 11.7413 231.577 12.136C231.577 12.52 231.476 12.7973 231.273 12.968C231.081 13.1387 230.847 13.224 230.569 13.224C230.303 13.224 230.073 13.1387 229.881 12.968C229.689 12.7973 229.593 12.52 229.593 12.136Z" fill="#BABABA"/>
</svg>
