<svg width="31" height="30" viewBox="0 0 31 30" fill="none" xmlns="http://www.w3.org/2000/svg">
<path fill-rule="evenodd" clip-rule="evenodd" d="M0.316406 15C0.316406 6.71563 7.03203 0 15.3164 0C23.6008 0 30.3164 6.71563 30.3164 15C30.3164 21.4706 26.2195 26.9842 20.478 29.0883V20.1721H23.8547L24.3612 16.2532H20.478V13.75C20.478 12.6136 20.793 11.8409 22.4196 11.8409H24.4943H24.4975V8.33766C24.1371 8.28896 22.9066 8.18182 21.4715 8.18182C18.478 8.18182 16.4293 10.0097 16.4293 13.3636V16.2532H13.043V20.1753H16.4293V29.9593C16.0619 29.9863 15.6907 30 15.3164 30C7.03203 30 0.316406 23.2844 0.316406 15Z" fill="#BABABA"/>
</svg>
