<svg width="249" height="59" viewBox="0 0 249 59" fill="none" xmlns="http://www.w3.org/2000/svg">
<path d="M5.20315 10.156H3.94315V1.26601H0.821152V0.160005H8.31115V1.26601H5.20315V10.156ZM15.4044 10.156H9.81845V0.160005H15.4044V1.26601H11.0784V4.38801H15.1524V5.48001H11.0784V9.05001H15.4044V10.156ZM17.5977 10.156V0.160005H18.8577V9.03601H23.2257V10.156H17.5977ZM24.5895 9.40001C24.5895 9.05467 24.6735 8.81201 24.8415 8.67201C25.0095 8.53201 25.2102 8.46201 25.4435 8.46201C25.6862 8.46201 25.8915 8.53201 26.0595 8.67201C26.2369 8.81201 26.3255 9.05467 26.3255 9.40001C26.3255 9.73601 26.2369 9.97867 26.0595 10.128C25.8915 10.2773 25.6862 10.352 25.4435 10.352C25.2102 10.352 25.0095 10.2773 24.8415 10.128C24.6735 9.97867 24.5895 9.73601 24.5895 9.40001ZM24.5895 3.40801C24.5895 3.05334 24.6735 2.80601 24.8415 2.66601C25.0095 2.52601 25.2102 2.45601 25.4435 2.45601C25.6862 2.45601 25.8915 2.52601 26.0595 2.66601C26.2369 2.80601 26.3255 3.05334 26.3255 3.40801C26.3255 3.74401 26.2369 3.98667 26.0595 4.13601C25.8915 4.28534 25.6862 4.36001 25.4435 4.36001C25.2102 4.36001 25.0095 4.28534 24.8415 4.13601C24.6735 3.98667 24.5895 3.74401 24.5895 3.40801ZM38.2864 5.14401C38.2864 5.95601 38.2257 6.67934 38.1044 7.31401C37.983 7.94867 37.787 8.49001 37.5164 8.93801C37.255 9.37667 36.9097 9.71267 36.4804 9.94601C36.0604 10.1793 35.5517 10.296 34.9544 10.296C34.2077 10.296 33.587 10.0907 33.0924 9.68001C32.607 9.26934 32.243 8.68134 32.0004 7.91601C31.767 7.14134 31.6504 6.21734 31.6504 5.14401C31.6504 4.06134 31.7577 3.13734 31.9724 2.37201C32.1964 1.60667 32.551 1.02334 33.0364 0.622005C33.5217 0.211339 34.161 0.00600553 34.9544 0.00600553C35.701 0.00600553 36.3217 0.211339 36.8164 0.622005C37.311 1.02334 37.6797 1.60667 37.9224 2.37201C38.165 3.13734 38.2864 4.06134 38.2864 5.14401ZM32.8824 5.14401C32.8824 6.05867 32.9477 6.81934 33.0784 7.42601C33.2184 8.03267 33.4377 8.49001 33.7364 8.79801C34.0444 9.09667 34.4504 9.24601 34.9544 9.24601C35.4584 9.24601 35.8597 9.09667 36.1584 8.79801C36.4664 8.49934 36.6904 8.04667 36.8304 7.44001C36.9704 6.82401 37.0404 6.05867 37.0404 5.14401C37.0404 4.22934 36.9704 3.47334 36.8304 2.87601C36.6904 2.26934 36.4664 1.81667 36.1584 1.51801C35.8597 1.21001 35.4584 1.05601 34.9544 1.05601C34.4504 1.05601 34.0444 1.21001 33.7364 1.51801C33.4377 1.81667 33.2184 2.26934 33.0784 2.87601C32.9477 3.47334 32.8824 4.22934 32.8824 5.14401ZM39.7461 5.88601C39.7461 5.30734 39.7834 4.73801 39.8581 4.17801C39.9421 3.61801 40.0821 3.09067 40.2781 2.59601C40.4741 2.09201 40.7447 1.64867 41.0901 1.26601C41.4354 0.874005 41.8694 0.570672 42.3921 0.356005C42.9241 0.132005 43.5681 0.0200053 44.3241 0.0200053C44.5201 0.0200053 44.7347 0.0293386 44.9681 0.048005C45.2107 0.066672 45.4067 0.0993388 45.5561 0.146005V1.19601C45.3881 1.14001 45.1967 1.09801 44.9821 1.07001C44.7767 1.04201 44.5667 1.02801 44.3521 1.02801C43.7081 1.02801 43.1714 1.13534 42.7421 1.35001C42.3127 1.56467 41.9721 1.85867 41.7201 2.23201C41.4774 2.60534 41.3001 3.03467 41.1881 3.52001C41.0761 4.00534 41.0061 4.52334 40.9781 5.07401H41.0621C41.2021 4.85001 41.3794 4.64934 41.5941 4.47201C41.8087 4.29467 42.0654 4.15467 42.3641 4.05201C42.6721 3.94934 43.0267 3.89801 43.4281 3.89801C44.0067 3.89801 44.5107 4.01934 44.9401 4.26201C45.3787 4.49534 45.7194 4.84067 45.9621 5.29801C46.2047 5.74601 46.3261 6.29201 46.3261 6.93601C46.3261 7.62667 46.1954 8.22401 45.9341 8.72801C45.6727 9.23201 45.3041 9.61934 44.8281 9.89001C44.3614 10.1607 43.8014 10.296 43.1481 10.296C42.6721 10.296 42.2287 10.2073 41.8181 10.03C41.4074 9.85267 41.0434 9.58201 40.7261 9.21801C40.4181 8.85401 40.1754 8.39667 39.9981 7.84601C39.8301 7.28601 39.7461 6.63267 39.7461 5.88601ZM43.1341 9.26001C43.7221 9.26001 44.1981 9.07334 44.5621 8.70001C44.9261 8.31734 45.1081 7.72934 45.1081 6.93601C45.1081 6.30134 44.9447 5.79734 44.6181 5.42401C44.3007 5.05067 43.8201 4.86401 43.1761 4.86401C42.7374 4.86401 42.3547 4.95734 42.0281 5.14401C41.7014 5.32134 41.4447 5.55001 41.2581 5.83001C41.0807 6.11001 40.9921 6.39934 40.9921 6.69801C40.9921 7.00601 41.0341 7.30934 41.1181 7.60801C41.2114 7.90667 41.3467 8.18201 41.5241 8.43401C41.7107 8.68601 41.9347 8.88667 42.1961 9.03601C42.4667 9.18534 42.7794 9.26001 43.1341 9.26001ZM47.5478 6.95001V5.85801H50.9358V6.95001H47.5478ZM52.2695 5.88601C52.2695 5.30734 52.3068 4.73801 52.3815 4.17801C52.4655 3.61801 52.6055 3.09067 52.8015 2.59601C52.9975 2.09201 53.2682 1.64867 53.6135 1.26601C53.9588 0.874005 54.3928 0.570672 54.9155 0.356005C55.4475 0.132005 56.0915 0.0200053 56.8475 0.0200053C57.0435 0.0200053 57.2582 0.0293386 57.4915 0.048005C57.7342 0.066672 57.9302 0.0993388 58.0795 0.146005V1.19601C57.9115 1.14001 57.7202 1.09801 57.5055 1.07001C57.3002 1.04201 57.0902 1.02801 56.8755 1.02801C56.2315 1.02801 55.6948 1.13534 55.2655 1.35001C54.8362 1.56467 54.4955 1.85867 54.2435 2.23201C54.0008 2.60534 53.8235 3.03467 53.7115 3.52001C53.5995 4.00534 53.5295 4.52334 53.5015 5.07401H53.5855C53.7255 4.85001 53.9028 4.64934 54.1175 4.47201C54.3322 4.29467 54.5888 4.15467 54.8875 4.05201C55.1955 3.94934 55.5502 3.89801 55.9515 3.89801C56.5302 3.89801 57.0342 4.01934 57.4635 4.26201C57.9022 4.49534 58.2428 4.84067 58.4855 5.29801C58.7282 5.74601 58.8495 6.29201 58.8495 6.93601C58.8495 7.62667 58.7188 8.22401 58.4575 8.72801C58.1962 9.23201 57.8275 9.61934 57.3515 9.89001C56.8848 10.1607 56.3248 10.296 55.6715 10.296C55.1955 10.296 54.7522 10.2073 54.3415 10.03C53.9308 9.85267 53.5668 9.58201 53.2495 9.21801C52.9415 8.85401 52.6988 8.39667 52.5215 7.84601C52.3535 7.28601 52.2695 6.63267 52.2695 5.88601ZM55.6575 9.26001C56.2455 9.26001 56.7215 9.07334 57.0855 8.70001C57.4495 8.31734 57.6315 7.72934 57.6315 6.93601C57.6315 6.30134 57.4682 5.79734 57.1415 5.42401C56.8242 5.05067 56.3435 4.86401 55.6995 4.86401C55.2608 4.86401 54.8782 4.95734 54.5515 5.14401C54.2248 5.32134 53.9682 5.55001 53.7815 5.83001C53.6042 6.11001 53.5155 6.39934 53.5155 6.69801C53.5155 7.00601 53.5575 7.30934 53.6415 7.60801C53.7348 7.90667 53.8702 8.18201 54.0475 8.43401C54.2342 8.68601 54.4582 8.88667 54.7195 9.03601C54.9902 9.18534 55.3028 9.26001 55.6575 9.26001ZM66.7912 4.43001C66.7912 4.99934 66.7492 5.56867 66.6652 6.13801C66.5906 6.69801 66.4552 7.23001 66.2592 7.73401C66.0632 8.22867 65.7926 8.67201 65.4472 9.06401C65.1019 9.44667 64.6632 9.75001 64.1312 9.97401C63.5992 10.1887 62.9552 10.296 62.1992 10.296C62.0126 10.296 61.7932 10.282 61.5412 10.254C61.2986 10.2353 61.0979 10.2027 60.9392 10.156V9.10601C61.1072 9.16201 61.3032 9.20867 61.5272 9.24601C61.7512 9.27401 61.9659 9.28801 62.1712 9.28801C62.8246 9.28801 63.3612 9.18067 63.7812 8.96601C64.2106 8.75134 64.5512 8.46201 64.8032 8.09801C65.0552 7.72467 65.2372 7.29534 65.3492 6.81001C65.4612 6.31534 65.5266 5.79734 65.5452 5.25601H65.4612C65.3212 5.47067 65.1439 5.66667 64.9292 5.84401C64.7146 6.02134 64.4532 6.16134 64.1452 6.26401C63.8466 6.36667 63.4919 6.41801 63.0812 6.41801C62.5119 6.41801 62.0079 6.30134 61.5692 6.06801C61.1399 5.82534 60.8039 5.48001 60.5612 5.03201C60.3279 4.58401 60.2112 4.03801 60.2112 3.39401C60.2112 2.69401 60.3419 2.09201 60.6032 1.58801C60.8739 1.08401 61.2472 0.696672 61.7232 0.426005C62.1992 0.155339 62.7592 0.0200053 63.4032 0.0200053C63.8792 0.0200053 64.3226 0.113339 64.7332 0.300005C65.1439 0.477338 65.5032 0.748005 65.8112 1.11201C66.1192 1.47601 66.3572 1.93334 66.5252 2.48401C66.7026 3.03467 66.7912 3.68334 66.7912 4.43001ZM63.4032 1.05601C62.8246 1.05601 62.3486 1.24734 61.9752 1.63001C61.6112 2.01267 61.4292 2.59601 61.4292 3.38001C61.4292 4.02401 61.5832 4.53267 61.8912 4.90601C62.2086 5.27001 62.6939 5.45201 63.3472 5.45201C63.7952 5.45201 64.1826 5.36334 64.5092 5.18601C64.8359 4.99934 65.0879 4.76601 65.2652 4.48601C65.4519 4.20601 65.5452 3.91667 65.5452 3.61801C65.5452 3.31934 65.4986 3.02067 65.4052 2.72201C65.3212 2.41401 65.1906 2.13401 65.0132 1.88201C64.8359 1.63001 64.6119 1.42934 64.3412 1.28001C64.0706 1.13067 63.7579 1.05601 63.4032 1.05601ZM75.2509 7.88801H73.7949V10.156H72.6049V7.88801H67.8169V6.83801L72.5209 0.104005H73.7949V6.78201H75.2509V7.88801ZM72.6049 3.63201C72.6049 3.38934 72.6049 3.17001 72.6049 2.97401C72.6143 2.76867 72.6236 2.57734 72.6329 2.40001C72.6423 2.22267 72.6469 2.05467 72.6469 1.89601C72.6563 1.72801 72.6656 1.56934 72.6749 1.42001H72.6189C72.5443 1.59734 72.4509 1.78867 72.3389 1.99401C72.2269 2.19934 72.1196 2.37201 72.0169 2.51201L69.0209 6.78201H72.6049V3.63201ZM76.3047 5.88601C76.3047 5.30734 76.342 4.73801 76.4167 4.17801C76.5007 3.61801 76.6407 3.09067 76.8367 2.59601C77.0327 2.09201 77.3033 1.64867 77.6487 1.26601C77.994 0.874005 78.428 0.570672 78.9507 0.356005C79.4827 0.132005 80.1267 0.0200053 80.8827 0.0200053C81.0787 0.0200053 81.2933 0.0293386 81.5267 0.048005C81.7693 0.066672 81.9653 0.0993388 82.1147 0.146005V1.19601C81.9467 1.14001 81.7553 1.09801 81.5407 1.07001C81.3353 1.04201 81.1253 1.02801 80.9107 1.02801C80.2667 1.02801 79.73 1.13534 79.3007 1.35001C78.8713 1.56467 78.5307 1.85867 78.2787 2.23201C78.036 2.60534 77.8587 3.03467 77.7467 3.52001C77.6347 4.00534 77.5647 4.52334 77.5367 5.07401H77.6207C77.7607 4.85001 77.938 4.64934 78.1527 4.47201C78.3673 4.29467 78.624 4.15467 78.9227 4.05201C79.2307 3.94934 79.5853 3.89801 79.9867 3.89801C80.5653 3.89801 81.0693 4.01934 81.4987 4.26201C81.9373 4.49534 82.278 4.84067 82.5207 5.29801C82.7633 5.74601 82.8847 6.29201 82.8847 6.93601C82.8847 7.62667 82.754 8.22401 82.4927 8.72801C82.2313 9.23201 81.8627 9.61934 81.3867 9.89001C80.92 10.1607 80.36 10.296 79.7067 10.296C79.2307 10.296 78.7873 10.2073 78.3767 10.03C77.966 9.85267 77.602 9.58201 77.2847 9.21801C76.9767 8.85401 76.734 8.39667 76.5567 7.84601C76.3887 7.28601 76.3047 6.63267 76.3047 5.88601ZM79.6927 9.26001C80.2807 9.26001 80.7567 9.07334 81.1207 8.70001C81.4847 8.31734 81.6667 7.72934 81.6667 6.93601C81.6667 6.30134 81.5033 5.79734 81.1767 5.42401C80.8593 5.05067 80.3787 4.86401 79.7347 4.86401C79.296 4.86401 78.9133 4.95734 78.5867 5.14401C78.26 5.32134 78.0033 5.55001 77.8167 5.83001C77.6393 6.11001 77.5507 6.39934 77.5507 6.69801C77.5507 7.00601 77.5927 7.30934 77.6767 7.60801C77.77 7.90667 77.9053 8.18201 78.0827 8.43401C78.2693 8.68601 78.4933 8.88667 78.7547 9.03601C79.0253 9.18534 79.338 9.26001 79.6927 9.26001ZM84.1064 6.95001V5.85801H87.4944V6.95001H84.1064ZM91.9081 4.02401C92.5894 4.02401 93.1821 4.14067 93.6861 4.37401C94.1901 4.60734 94.5774 4.94334 94.8481 5.38201C95.1281 5.81134 95.2681 6.33867 95.2681 6.96401C95.2681 7.65467 95.1188 8.25201 94.8201 8.75601C94.5214 9.25067 94.0921 9.63334 93.5321 9.90401C92.9814 10.1653 92.3141 10.296 91.5301 10.296C91.0168 10.296 90.5314 10.2493 90.0741 10.156C89.6261 10.0627 89.2481 9.92734 88.9401 9.75001V8.58801C89.2761 8.79334 89.6821 8.95667 90.1581 9.07801C90.6434 9.19001 91.1054 9.24601 91.5441 9.24601C92.0388 9.24601 92.4681 9.17134 92.8321 9.02201C93.2054 8.86334 93.4948 8.62534 93.7001 8.30801C93.9054 7.98134 94.0081 7.57534 94.0081 7.09001C94.0081 6.43667 93.8074 5.93734 93.4061 5.59201C93.0048 5.23734 92.3701 5.06001 91.5021 5.06001C91.2408 5.06001 90.9421 5.08334 90.6061 5.13001C90.2701 5.17667 89.9994 5.22334 89.7941 5.27001L89.1781 4.87801L89.5561 0.160005H94.5681V1.28001H90.6061L90.3681 4.17801C90.5268 4.15001 90.7414 4.11734 91.0121 4.08001C91.2828 4.04267 91.5814 4.02401 91.9081 4.02401ZM100.06 0.0200053C100.648 0.0200053 101.166 0.113339 101.614 0.300005C102.062 0.477338 102.412 0.743339 102.664 1.09801C102.925 1.45267 103.056 1.89134 103.056 2.41401C103.056 2.81534 102.967 3.16534 102.79 3.46401C102.622 3.76267 102.393 4.02867 102.104 4.26201C101.814 4.48601 101.497 4.68667 101.152 4.86401C101.562 5.06001 101.936 5.28401 102.272 5.53601C102.608 5.77867 102.874 6.06334 103.07 6.39001C103.275 6.71667 103.378 7.10867 103.378 7.56601C103.378 8.12601 103.242 8.61134 102.972 9.02201C102.701 9.42334 102.318 9.73601 101.824 9.96001C101.338 10.184 100.764 10.296 100.102 10.296C99.3832 10.296 98.7718 10.1887 98.2678 9.97401C97.7732 9.75934 97.3952 9.45601 97.1338 9.06401C96.8818 8.66267 96.7558 8.17734 96.7558 7.60801C96.7558 7.15067 96.8492 6.75401 97.0358 6.41801C97.2318 6.08201 97.4885 5.79267 97.8058 5.55001C98.1232 5.30734 98.4638 5.10201 98.8278 4.93401C98.5012 4.74734 98.2025 4.53734 97.9318 4.30401C97.6705 4.06134 97.4605 3.78601 97.3018 3.47801C97.1525 3.17001 97.0778 2.81067 97.0778 2.40001C97.0778 1.88667 97.2085 1.45734 97.4698 1.11201C97.7312 0.757339 98.0858 0.486672 98.5338 0.300005C98.9818 0.113339 99.4905 0.0200053 100.06 0.0200053ZM97.9598 7.62201C97.9598 8.10734 98.1325 8.51334 98.4778 8.84001C98.8232 9.15734 99.3552 9.31601 100.074 9.31601C100.531 9.31601 100.914 9.24134 101.222 9.09201C101.53 8.94267 101.763 8.73734 101.922 8.47601C102.09 8.21467 102.174 7.91601 102.174 7.58001C102.174 7.25334 102.085 6.96867 101.908 6.72601C101.74 6.47401 101.497 6.25001 101.18 6.05401C100.872 5.85801 100.503 5.68067 100.074 5.52201L99.8498 5.43801C99.4392 5.61534 99.0938 5.80667 98.8138 6.01201C98.5338 6.21734 98.3192 6.45067 98.1698 6.71201C98.0298 6.97334 97.9598 7.27667 97.9598 7.62201ZM100.046 1.01401C99.5325 1.01401 99.1078 1.14001 98.7718 1.39201C98.4452 1.63467 98.2818 1.98934 98.2818 2.45601C98.2818 2.80134 98.3612 3.09067 98.5198 3.32401C98.6878 3.55734 98.9118 3.75801 99.1918 3.92601C99.4718 4.08467 99.7798 4.23867 100.116 4.38801C100.442 4.24801 100.732 4.09401 100.984 3.92601C101.245 3.75801 101.45 3.55734 101.6 3.32401C101.758 3.08134 101.838 2.79201 101.838 2.45601C101.838 1.98934 101.674 1.63467 101.348 1.39201C101.021 1.14001 100.587 1.01401 100.046 1.01401ZM111.362 10.156H104.754V9.13401L107.372 6.48801C107.876 5.98401 108.3 5.53601 108.646 5.14401C108.991 4.75201 109.252 4.36934 109.43 3.99601C109.607 3.61334 109.696 3.19801 109.696 2.75001C109.696 2.19934 109.532 1.78401 109.206 1.50401C108.879 1.21467 108.454 1.07001 107.932 1.07001C107.446 1.07001 107.017 1.15401 106.644 1.32201C106.28 1.49001 105.906 1.72334 105.524 2.02201L104.866 1.19601C105.127 0.972005 105.412 0.771339 105.72 0.594005C106.037 0.416672 106.378 0.276672 106.742 0.174005C107.115 0.0713386 107.512 0.0200053 107.932 0.0200053C108.557 0.0200053 109.094 0.127339 109.542 0.342005C109.99 0.556672 110.335 0.864672 110.578 1.26601C110.83 1.65801 110.956 2.12934 110.956 2.68001C110.956 3.07201 110.895 3.44534 110.774 3.80001C110.652 4.14534 110.48 4.48601 110.256 4.82201C110.032 5.15801 109.761 5.49867 109.444 5.84401C109.126 6.18934 108.776 6.54867 108.394 6.92201L106.308 8.98001V9.03601H111.362V10.156ZM119.415 5.14401C119.415 5.95601 119.355 6.67934 119.233 7.31401C119.112 7.94867 118.916 8.49001 118.645 8.93801C118.384 9.37667 118.039 9.71267 117.609 9.94601C117.189 10.1793 116.681 10.296 116.083 10.296C115.337 10.296 114.716 10.0907 114.221 9.68001C113.736 9.26934 113.372 8.68134 113.129 7.91601C112.896 7.14134 112.779 6.21734 112.779 5.14401C112.779 4.06134 112.887 3.13734 113.101 2.37201C113.325 1.60667 113.68 1.02334 114.165 0.622005C114.651 0.211339 115.29 0.00600553 116.083 0.00600553C116.83 0.00600553 117.451 0.211339 117.945 0.622005C118.44 1.02334 118.809 1.60667 119.051 2.37201C119.294 3.13734 119.415 4.06134 119.415 5.14401ZM114.011 5.14401C114.011 6.05867 114.077 6.81934 114.207 7.42601C114.347 8.03267 114.567 8.49001 114.865 8.79801C115.173 9.09667 115.579 9.24601 116.083 9.24601C116.587 9.24601 116.989 9.09667 117.287 8.79801C117.595 8.49934 117.819 8.04667 117.959 7.44001C118.099 6.82401 118.169 6.05867 118.169 5.14401C118.169 4.22934 118.099 3.47334 117.959 2.87601C117.819 2.26934 117.595 1.81667 117.287 1.51801C116.989 1.21001 116.587 1.05601 116.083 1.05601C115.579 1.05601 115.173 1.21001 114.865 1.51801C114.567 1.81667 114.347 2.26934 114.207 2.87601C114.077 3.47334 114.011 4.22934 114.011 5.14401ZM125.173 0.160005L121.449 10.156H120.245L123.969 0.160005H125.173ZM131.569 10.156H130.309V0.160005H135.895V1.26601H131.569V4.80801H135.629V5.91401H131.569V10.156ZM143.567 10.156L142.363 7.06201H138.401L137.211 10.156H135.937L139.843 0.118006H140.977L144.869 10.156H143.567ZM140.865 2.91801C140.837 2.84334 140.79 2.70801 140.725 2.51201C140.66 2.31601 140.594 2.11534 140.529 1.91001C140.473 1.69534 140.426 1.53201 140.389 1.42001C140.342 1.60667 140.291 1.79801 140.235 1.99401C140.188 2.18067 140.137 2.35334 140.081 2.51201C140.034 2.67067 139.992 2.80601 139.955 2.91801L138.821 5.94201H141.985L140.865 2.91801ZM153.026 10.156H151.598L148.952 5.81601L146.264 10.156H144.934L148.252 4.94801L145.144 0.160005H146.544L148.994 4.08001L151.458 0.160005H152.788L149.694 4.92001L153.026 10.156ZM154.09 9.40001C154.09 9.05467 154.174 8.81201 154.342 8.67201C154.51 8.53201 154.71 8.46201 154.944 8.46201C155.186 8.46201 155.392 8.53201 155.56 8.67201C155.737 8.81201 155.826 9.05467 155.826 9.40001C155.826 9.73601 155.737 9.97867 155.56 10.128C155.392 10.2773 155.186 10.352 154.944 10.352C154.71 10.352 154.51 10.2773 154.342 10.128C154.174 9.97867 154.09 9.73601 154.09 9.40001ZM154.09 3.40801C154.09 3.05334 154.174 2.80601 154.342 2.66601C154.51 2.52601 154.71 2.45601 154.944 2.45601C155.186 2.45601 155.392 2.52601 155.56 2.66601C155.737 2.80601 155.826 3.05334 155.826 3.40801C155.826 3.74401 155.737 3.98667 155.56 4.13601C155.392 4.28534 155.186 4.36001 154.944 4.36001C154.71 4.36001 154.51 4.28534 154.342 4.13601C154.174 3.98667 154.09 3.74401 154.09 3.40801ZM167.786 5.14401C167.786 5.95601 167.726 6.67934 167.604 7.31401C167.483 7.94867 167.287 8.49001 167.016 8.93801C166.755 9.37667 166.41 9.71267 165.98 9.94601C165.56 10.1793 165.052 10.296 164.454 10.296C163.708 10.296 163.087 10.0907 162.592 9.68001C162.107 9.26934 161.743 8.68134 161.5 7.91601C161.267 7.14134 161.15 6.21734 161.15 5.14401C161.15 4.06134 161.258 3.13734 161.472 2.37201C161.696 1.60667 162.051 1.02334 162.536 0.622005C163.022 0.211339 163.661 0.00600553 164.454 0.00600553C165.201 0.00600553 165.822 0.211339 166.316 0.622005C166.811 1.02334 167.18 1.60667 167.422 2.37201C167.665 3.13734 167.786 4.06134 167.786 5.14401ZM162.382 5.14401C162.382 6.05867 162.448 6.81934 162.578 7.42601C162.718 8.03267 162.938 8.49001 163.236 8.79801C163.544 9.09667 163.95 9.24601 164.454 9.24601C164.958 9.24601 165.36 9.09667 165.658 8.79801C165.966 8.49934 166.19 8.04667 166.33 7.44001C166.47 6.82401 166.54 6.05867 166.54 5.14401C166.54 4.22934 166.47 3.47334 166.33 2.87601C166.19 2.26934 165.966 1.81667 165.658 1.51801C165.36 1.21001 164.958 1.05601 164.454 1.05601C163.95 1.05601 163.544 1.21001 163.236 1.51801C162.938 1.81667 162.718 2.26934 162.578 2.87601C162.448 3.47334 162.382 4.22934 162.382 5.14401ZM169.246 5.88601C169.246 5.30734 169.283 4.73801 169.358 4.17801C169.442 3.61801 169.582 3.09067 169.778 2.59601C169.974 2.09201 170.245 1.64867 170.59 1.26601C170.935 0.874005 171.369 0.570672 171.892 0.356005C172.424 0.132005 173.068 0.0200053 173.824 0.0200053C174.02 0.0200053 174.235 0.0293386 174.468 0.048005C174.711 0.066672 174.907 0.0993388 175.056 0.146005V1.19601C174.888 1.14001 174.697 1.09801 174.482 1.07001C174.277 1.04201 174.067 1.02801 173.852 1.02801C173.208 1.02801 172.671 1.13534 172.242 1.35001C171.813 1.56467 171.472 1.85867 171.22 2.23201C170.977 2.60534 170.8 3.03467 170.688 3.52001C170.576 4.00534 170.506 4.52334 170.478 5.07401H170.562C170.702 4.85001 170.879 4.64934 171.094 4.47201C171.309 4.29467 171.565 4.15467 171.864 4.05201C172.172 3.94934 172.527 3.89801 172.928 3.89801C173.507 3.89801 174.011 4.01934 174.44 4.26201C174.879 4.49534 175.219 4.84067 175.462 5.29801C175.705 5.74601 175.826 6.29201 175.826 6.93601C175.826 7.62667 175.695 8.22401 175.434 8.72801C175.173 9.23201 174.804 9.61934 174.328 9.89001C173.861 10.1607 173.301 10.296 172.648 10.296C172.172 10.296 171.729 10.2073 171.318 10.03C170.907 9.85267 170.543 9.58201 170.226 9.21801C169.918 8.85401 169.675 8.39667 169.498 7.84601C169.33 7.28601 169.246 6.63267 169.246 5.88601ZM172.634 9.26001C173.222 9.26001 173.698 9.07334 174.062 8.70001C174.426 8.31734 174.608 7.72934 174.608 6.93601C174.608 6.30134 174.445 5.79734 174.118 5.42401C173.801 5.05067 173.32 4.86401 172.676 4.86401C172.237 4.86401 171.855 4.95734 171.528 5.14401C171.201 5.32134 170.945 5.55001 170.758 5.83001C170.581 6.11001 170.492 6.39934 170.492 6.69801C170.492 7.00601 170.534 7.30934 170.618 7.60801C170.711 7.90667 170.847 8.18201 171.024 8.43401C171.211 8.68601 171.435 8.88667 171.696 9.03601C171.967 9.18534 172.279 9.26001 172.634 9.26001ZM177.048 6.95001V5.85801H180.436V6.95001H177.048ZM182.904 10.156L187.006 1.28001H181.616V0.160005H188.322V1.11201L184.262 10.156H182.904ZM189.781 5.88601C189.781 5.30734 189.819 4.73801 189.893 4.17801C189.977 3.61801 190.117 3.09067 190.313 2.59601C190.509 2.09201 190.78 1.64867 191.125 1.26601C191.471 0.874005 191.905 0.570672 192.427 0.356005C192.959 0.132005 193.603 0.0200053 194.359 0.0200053C194.555 0.0200053 194.77 0.0293386 195.003 0.048005C195.246 0.066672 195.442 0.0993388 195.591 0.146005V1.19601C195.423 1.14001 195.232 1.09801 195.017 1.07001C194.812 1.04201 194.602 1.02801 194.387 1.02801C193.743 1.02801 193.207 1.13534 192.777 1.35001C192.348 1.56467 192.007 1.85867 191.755 2.23201C191.513 2.60534 191.335 3.03467 191.223 3.52001C191.111 4.00534 191.041 4.52334 191.013 5.07401H191.097C191.237 4.85001 191.415 4.64934 191.629 4.47201C191.844 4.29467 192.101 4.15467 192.399 4.05201C192.707 3.94934 193.062 3.89801 193.463 3.89801C194.042 3.89801 194.546 4.01934 194.975 4.26201C195.414 4.49534 195.755 4.84067 195.997 5.29801C196.24 5.74601 196.361 6.29201 196.361 6.93601C196.361 7.62667 196.231 8.22401 195.969 8.72801C195.708 9.23201 195.339 9.61934 194.863 9.89001C194.397 10.1607 193.837 10.296 193.183 10.296C192.707 10.296 192.264 10.2073 191.853 10.03C191.443 9.85267 191.079 9.58201 190.761 9.21801C190.453 8.85401 190.211 8.39667 190.033 7.84601C189.865 7.28601 189.781 6.63267 189.781 5.88601ZM193.169 9.26001C193.757 9.26001 194.233 9.07334 194.597 8.70001C194.961 8.31734 195.143 7.72934 195.143 6.93601C195.143 6.30134 194.98 5.79734 194.653 5.42401C194.336 5.05067 193.855 4.86401 193.211 4.86401C192.773 4.86401 192.39 4.95734 192.063 5.14401C191.737 5.32134 191.48 5.55001 191.293 5.83001C191.116 6.11001 191.027 6.39934 191.027 6.69801C191.027 7.00601 191.069 7.30934 191.153 7.60801C191.247 7.90667 191.382 8.18201 191.559 8.43401C191.746 8.68601 191.97 8.88667 192.231 9.03601C192.502 9.18534 192.815 9.26001 193.169 9.26001ZM203.925 2.49801C203.925 2.94601 203.841 3.33334 203.673 3.66001C203.505 3.98667 203.262 4.25267 202.945 4.45801C202.637 4.66334 202.273 4.80801 201.853 4.89201V4.94801C202.656 5.04134 203.253 5.29334 203.645 5.70401C204.037 6.11467 204.233 6.65134 204.233 7.31401C204.233 7.89267 204.098 8.41067 203.827 8.86801C203.556 9.31601 203.136 9.66601 202.567 9.91801C202.007 10.17 201.284 10.296 200.397 10.296C199.874 10.296 199.389 10.254 198.941 10.17C198.493 10.0953 198.064 9.95534 197.653 9.75001V8.60201C198.073 8.80734 198.526 8.97067 199.011 9.09201C199.496 9.20401 199.963 9.26001 200.411 9.26001C201.307 9.26001 201.951 9.08734 202.343 8.74201C202.744 8.38734 202.945 7.90201 202.945 7.28601C202.945 6.86601 202.833 6.53001 202.609 6.27801C202.394 6.01667 202.077 5.82534 201.657 5.70401C201.237 5.58267 200.733 5.52201 200.145 5.52201H199.179V4.47201H200.159C200.71 4.47201 201.167 4.39267 201.531 4.23401C201.904 4.07534 202.184 3.85601 202.371 3.57601C202.567 3.28667 202.665 2.95534 202.665 2.58201C202.665 2.09667 202.502 1.72334 202.175 1.46201C201.848 1.19134 201.405 1.05601 200.845 1.05601C200.49 1.05601 200.168 1.09334 199.879 1.16801C199.59 1.23334 199.319 1.33134 199.067 1.46201C198.824 1.58334 198.577 1.72801 198.325 1.89601L197.709 1.05601C197.952 0.869339 198.227 0.696672 198.535 0.538005C198.852 0.379339 199.202 0.253338 199.585 0.160005C199.968 0.066672 200.383 0.0200053 200.831 0.0200053C201.876 0.0200053 202.651 0.253339 203.155 0.720006C203.668 1.18667 203.925 1.77934 203.925 2.49801ZM208.885 4.02401C209.566 4.02401 210.159 4.14067 210.663 4.37401C211.167 4.60734 211.554 4.94334 211.825 5.38201C212.105 5.81134 212.245 6.33867 212.245 6.96401C212.245 7.65467 212.095 8.25201 211.797 8.75601C211.498 9.25067 211.069 9.63334 210.509 9.90401C209.958 10.1653 209.291 10.296 208.507 10.296C207.993 10.296 207.508 10.2493 207.051 10.156C206.603 10.0627 206.225 9.92734 205.917 9.75001V8.58801C206.253 8.79334 206.659 8.95667 207.135 9.07801C207.62 9.19001 208.082 9.24601 208.521 9.24601C209.015 9.24601 209.445 9.17134 209.809 9.02201C210.182 8.86334 210.471 8.62534 210.677 8.30801C210.882 7.98134 210.985 7.57534 210.985 7.09001C210.985 6.43667 210.784 5.93734 210.383 5.59201C209.981 5.23734 209.347 5.06001 208.479 5.06001C208.217 5.06001 207.919 5.08334 207.583 5.13001C207.247 5.17667 206.976 5.22334 206.771 5.27001L206.155 4.87801L206.533 0.160005H211.545V1.28001H207.583L207.345 4.17801C207.503 4.15001 207.718 4.11734 207.989 4.08001C208.259 4.04267 208.558 4.02401 208.885 4.02401ZM213.606 6.95001V5.85801H216.994V6.95001H213.606ZM221.548 0.0200053C222.136 0.0200053 222.654 0.113339 223.102 0.300005C223.55 0.477338 223.9 0.743339 224.152 1.09801C224.413 1.45267 224.544 1.89134 224.544 2.41401C224.544 2.81534 224.455 3.16534 224.278 3.46401C224.11 3.76267 223.881 4.02867 223.592 4.26201C223.303 4.48601 222.985 4.68667 222.64 4.86401C223.051 5.06001 223.424 5.28401 223.76 5.53601C224.096 5.77867 224.362 6.06334 224.558 6.39001C224.763 6.71667 224.866 7.10867 224.866 7.56601C224.866 8.12601 224.731 8.61134 224.46 9.02201C224.189 9.42334 223.807 9.73601 223.312 9.96001C222.827 10.184 222.253 10.296 221.59 10.296C220.871 10.296 220.26 10.1887 219.756 9.97401C219.261 9.75934 218.883 9.45601 218.622 9.06401C218.37 8.66267 218.244 8.17734 218.244 7.60801C218.244 7.15067 218.337 6.75401 218.524 6.41801C218.72 6.08201 218.977 5.79267 219.294 5.55001C219.611 5.30734 219.952 5.10201 220.316 4.93401C219.989 4.74734 219.691 4.53734 219.42 4.30401C219.159 4.06134 218.949 3.78601 218.79 3.47801C218.641 3.17001 218.566 2.81067 218.566 2.40001C218.566 1.88667 218.697 1.45734 218.958 1.11201C219.219 0.757339 219.574 0.486672 220.022 0.300005C220.47 0.113339 220.979 0.0200053 221.548 0.0200053ZM219.448 7.62201C219.448 8.10734 219.621 8.51334 219.966 8.84001C220.311 9.15734 220.843 9.31601 221.562 9.31601C222.019 9.31601 222.402 9.24134 222.71 9.09201C223.018 8.94267 223.251 8.73734 223.41 8.47601C223.578 8.21467 223.662 7.91601 223.662 7.58001C223.662 7.25334 223.573 6.96867 223.396 6.72601C223.228 6.47401 222.985 6.25001 222.668 6.05401C222.36 5.85801 221.991 5.68067 221.562 5.52201L221.338 5.43801C220.927 5.61534 220.582 5.80667 220.302 6.01201C220.022 6.21734 219.807 6.45067 219.658 6.71201C219.518 6.97334 219.448 7.27667 219.448 7.62201ZM221.534 1.01401C221.021 1.01401 220.596 1.14001 220.26 1.39201C219.933 1.63467 219.77 1.98934 219.77 2.45601C219.77 2.80134 219.849 3.09067 220.008 3.32401C220.176 3.55734 220.4 3.75801 220.68 3.92601C220.96 4.08467 221.268 4.23867 221.604 4.38801C221.931 4.24801 222.22 4.09401 222.472 3.92601C222.733 3.75801 222.939 3.55734 223.088 3.32401C223.247 3.08134 223.326 2.79201 223.326 2.45601C223.326 1.98934 223.163 1.63467 222.836 1.39201C222.509 1.14001 222.075 1.01401 221.534 1.01401ZM232.892 5.14401C232.892 5.95601 232.831 6.67934 232.71 7.31401C232.588 7.94867 232.392 8.49001 232.122 8.93801C231.86 9.37667 231.515 9.71267 231.086 9.94601C230.666 10.1793 230.157 10.296 229.56 10.296C228.813 10.296 228.192 10.0907 227.698 9.68001C227.212 9.26934 226.848 8.68134 226.606 7.91601C226.372 7.14134 226.256 6.21734 226.256 5.14401C226.256 4.06134 226.363 3.13734 226.578 2.37201C226.802 1.60667 227.156 1.02334 227.642 0.622005C228.127 0.211339 228.766 0.00600553 229.56 0.00600553C230.306 0.00600553 230.927 0.211339 231.422 0.622005C231.916 1.02334 232.285 1.60667 232.528 2.37201C232.77 3.13734 232.892 4.06134 232.892 5.14401ZM227.488 5.14401C227.488 6.05867 227.553 6.81934 227.684 7.42601C227.824 8.03267 228.043 8.49001 228.342 8.79801C228.65 9.09667 229.056 9.24601 229.56 9.24601C230.064 9.24601 230.465 9.09667 230.764 8.79801C231.072 8.49934 231.296 8.04667 231.436 7.44001C231.576 6.82401 231.646 6.05867 231.646 5.14401C231.646 4.22934 231.576 3.47334 231.436 2.87601C231.296 2.26934 231.072 1.81667 230.764 1.51801C230.465 1.21001 230.064 1.05601 229.56 1.05601C229.056 1.05601 228.65 1.21001 228.342 1.51801C228.043 1.81667 227.824 2.26934 227.684 2.87601C227.553 3.47334 227.488 4.22934 227.488 5.14401ZM235.486 10.156L239.588 1.28001H234.198V0.160005H240.904V1.11201L236.844 10.156H235.486ZM245.443 4.02401C246.125 4.02401 246.717 4.14067 247.221 4.37401C247.725 4.60734 248.113 4.94334 248.383 5.38201C248.663 5.81134 248.803 6.33867 248.803 6.96401C248.803 7.65467 248.654 8.25201 248.355 8.75601C248.057 9.25067 247.627 9.63334 247.067 9.90401C246.517 10.1653 245.849 10.296 245.065 10.296C244.552 10.296 244.067 10.2493 243.609 10.156C243.161 10.0627 242.783 9.92734 242.475 9.75001V8.58801C242.811 8.79334 243.217 8.95667 243.693 9.07801C244.179 9.19001 244.641 9.24601 245.079 9.24601C245.574 9.24601 246.003 9.17134 246.367 9.02201C246.741 8.86334 247.03 8.62534 247.235 8.30801C247.441 7.98134 247.543 7.57534 247.543 7.09001C247.543 6.43667 247.343 5.93734 246.941 5.59201C246.54 5.23734 245.905 5.06001 245.037 5.06001C244.776 5.06001 244.477 5.08334 244.141 5.13001C243.805 5.17667 243.535 5.22334 243.329 5.27001L242.713 4.87801L243.091 0.160005H248.103V1.28001H244.141L243.903 4.17801C244.062 4.15001 244.277 4.11734 244.547 4.08001C244.818 4.04267 245.117 4.02401 245.443 4.02401ZM6.44915 34.156L3.15915 25.392H3.10315C3.12182 25.5787 3.13582 25.8167 3.14515 26.106C3.16382 26.3953 3.17782 26.7127 3.18715 27.058C3.19649 27.394 3.20115 27.7393 3.20115 28.094V34.156H2.03915V24.16H3.90115L6.98115 32.35H7.03715L10.1732 24.16H12.0212V34.156H10.7752V28.01C10.7752 27.6833 10.7798 27.3613 10.7892 27.044C10.7985 26.7173 10.8125 26.414 10.8312 26.134C10.8498 25.8447 10.8638 25.602 10.8732 25.406H10.8172L7.48515 34.156H6.44915ZM21.0123 34.156L19.8083 31.062H15.8463L14.6563 34.156H13.3823L17.2883 24.118H18.4223L22.3143 34.156H21.0123ZM18.3103 26.918C18.2823 26.8433 18.2357 26.708 18.1703 26.512C18.105 26.316 18.0397 26.1153 17.9743 25.91C17.9183 25.6953 17.8717 25.532 17.8343 25.42C17.7877 25.6067 17.7363 25.798 17.6803 25.994C17.6337 26.1807 17.5823 26.3533 17.5263 26.512C17.4797 26.6707 17.4377 26.806 17.4003 26.918L16.2663 29.942H19.4303L18.3103 26.918ZM26.4957 34.156H22.8837V33.428L24.0597 33.162V25.168L22.8837 24.888V24.16H26.4957V24.888L25.3197 25.168V33.162L26.4957 33.428V34.156ZM28.4259 34.156V24.16H29.6859V33.036H34.0539V34.156H28.4259ZM35.4177 33.4C35.4177 33.0547 35.5017 32.812 35.6697 32.672C35.8377 32.532 36.0383 32.462 36.2717 32.462C36.5143 32.462 36.7197 32.532 36.8877 32.672C37.065 32.812 37.1537 33.0547 37.1537 33.4C37.1537 33.736 37.065 33.9787 36.8877 34.128C36.7197 34.2773 36.5143 34.352 36.2717 34.352C36.0383 34.352 35.8377 34.2773 35.6697 34.128C35.5017 33.9787 35.4177 33.736 35.4177 33.4ZM35.4177 27.408C35.4177 27.0533 35.5017 26.806 35.6697 26.666C35.8377 26.526 36.0383 26.456 36.2717 26.456C36.5143 26.456 36.7197 26.526 36.8877 26.666C37.065 26.806 37.1537 27.0533 37.1537 27.408C37.1537 27.744 37.065 27.9867 36.8877 28.136C36.7197 28.2853 36.5143 28.36 36.2717 28.36C36.0383 28.36 35.8377 28.2853 35.6697 28.136C35.5017 27.9867 35.4177 27.744 35.4177 27.408ZM47.8685 32.084C47.8685 32.5693 47.7471 32.9753 47.5045 33.302C47.2618 33.6287 46.9165 33.876 46.4685 34.044C46.0205 34.212 45.4885 34.296 44.8725 34.296C44.3498 34.296 43.8971 34.254 43.5145 34.17C43.1411 34.086 42.8098 33.9693 42.5205 33.82V32.7C42.8191 32.8493 43.1785 32.9893 43.5985 33.12C44.0278 33.2413 44.4618 33.302 44.9005 33.302C45.5258 33.302 45.9785 33.204 46.2585 33.008C46.5385 32.8027 46.6785 32.532 46.6785 32.196C46.6785 32.0093 46.6271 31.8413 46.5245 31.692C46.4218 31.5427 46.2351 31.3933 45.9645 31.244C45.7031 31.0947 45.3251 30.9267 44.8305 30.74C44.3451 30.5533 43.9298 30.3667 43.5845 30.18C43.2391 29.9933 42.9731 29.7693 42.7865 29.508C42.5998 29.2467 42.5065 28.9107 42.5065 28.5C42.5065 27.8653 42.7631 27.3753 43.2765 27.03C43.7991 26.6847 44.4805 26.512 45.3205 26.512C45.7778 26.512 46.2025 26.5587 46.5945 26.652C46.9958 26.736 47.3691 26.8573 47.7145 27.016L47.2945 27.996C47.0891 27.9027 46.8698 27.8233 46.6365 27.758C46.4125 27.6833 46.1838 27.6273 45.9505 27.59C45.7171 27.5433 45.4791 27.52 45.2365 27.52C44.7325 27.52 44.3451 27.604 44.0745 27.772C43.8131 27.9307 43.6825 28.15 43.6825 28.43C43.6825 28.6353 43.7431 28.8127 43.8645 28.962C43.9858 29.102 44.1865 29.242 44.4665 29.382C44.7558 29.5127 45.1385 29.6713 45.6145 29.858C46.0905 30.0353 46.4965 30.2173 46.8325 30.404C47.1685 30.5907 47.4251 30.8193 47.6025 31.09C47.7798 31.3513 47.8685 31.6827 47.8685 32.084ZM52.5797 26.512C53.2237 26.512 53.7744 26.652 54.2317 26.932C54.6984 27.212 55.053 27.6087 55.2957 28.122C55.5477 28.626 55.6737 29.2187 55.6737 29.9V30.642H50.5357C50.5544 31.4913 50.769 32.14 51.1797 32.588C51.5997 33.0267 52.183 33.246 52.9297 33.246C53.4057 33.246 53.8257 33.204 54.1897 33.12C54.563 33.0267 54.9457 32.896 55.3377 32.728V33.806C54.955 33.974 54.577 34.0953 54.2037 34.17C53.8304 34.254 53.387 34.296 52.8737 34.296C52.1644 34.296 51.5344 34.1513 50.9837 33.862C50.4424 33.5727 50.0177 33.1433 49.7097 32.574C49.411 31.9953 49.2617 31.2907 49.2617 30.46C49.2617 29.6387 49.397 28.934 49.6677 28.346C49.9477 27.758 50.335 27.3053 50.8297 26.988C51.3337 26.6707 51.917 26.512 52.5797 26.512ZM52.5657 27.52C51.9777 27.52 51.511 27.7113 51.1657 28.094C50.8297 28.4673 50.629 28.99 50.5637 29.662H54.3857C54.3857 29.2327 54.3204 28.8593 54.1897 28.542C54.059 28.2247 53.8584 27.9773 53.5877 27.8C53.3264 27.6133 52.9857 27.52 52.5657 27.52ZM61.084 26.512C61.224 26.512 61.3734 26.5213 61.532 26.54C61.7 26.5493 61.8447 26.568 61.966 26.596L61.812 27.73C61.6907 27.702 61.5554 27.6787 61.406 27.66C61.266 27.6413 61.1307 27.632 61 27.632C60.7107 27.632 60.4354 27.6927 60.174 27.814C59.9127 27.9353 59.6794 28.108 59.474 28.332C59.2687 28.5467 59.1054 28.808 58.984 29.116C58.872 29.424 58.816 29.7693 58.816 30.152V34.156H57.584V26.652H58.592L58.732 28.024H58.788C58.9467 27.744 59.138 27.492 59.362 27.268C59.586 27.0347 59.8427 26.8527 60.132 26.722C60.4214 26.582 60.7387 26.512 61.084 26.512ZM65.0192 34.156L62.1772 26.652H63.4932L65.0892 31.076C65.1639 31.2813 65.2432 31.51 65.3272 31.762C65.4112 32.014 65.4859 32.2567 65.5512 32.49C65.6166 32.714 65.6632 32.9053 65.6912 33.064H65.7472C65.7846 32.9053 65.8359 32.7093 65.9012 32.476C65.9759 32.2427 66.0552 32 66.1392 31.748C66.2326 31.496 66.3119 31.272 66.3772 31.076L67.9732 26.652H69.2892L66.4332 34.156H65.0192ZM71.7086 26.652V34.156H70.4766V26.652H71.7086ZM71.1066 23.838C71.2933 23.838 71.4566 23.9033 71.5966 24.034C71.746 24.1553 71.8206 24.3513 71.8206 24.622C71.8206 24.8833 71.746 25.0793 71.5966 25.21C71.4566 25.3407 71.2933 25.406 71.1066 25.406C70.9013 25.406 70.7286 25.3407 70.5886 25.21C70.4486 25.0793 70.3786 24.8833 70.3786 24.622C70.3786 24.3513 70.4486 24.1553 70.5886 24.034C70.7286 23.9033 70.9013 23.838 71.1066 23.838ZM77.096 34.296C76.4333 34.296 75.8407 34.1607 75.318 33.89C74.8047 33.6193 74.3987 33.1993 74.1 32.63C73.8107 32.0607 73.666 31.3327 73.666 30.446C73.666 29.522 73.82 28.7707 74.128 28.192C74.436 27.6133 74.8513 27.1887 75.374 26.918C75.906 26.6473 76.508 26.512 77.18 26.512C77.5627 26.512 77.9313 26.554 78.286 26.638C78.6407 26.7127 78.93 26.806 79.154 26.918L78.776 27.94C78.552 27.856 78.2907 27.7767 77.992 27.702C77.6933 27.6273 77.4133 27.59 77.152 27.59C76.648 27.59 76.2327 27.6973 75.906 27.912C75.5793 28.1267 75.3367 28.444 75.178 28.864C75.0193 29.284 74.94 29.8067 74.94 30.432C74.94 31.0293 75.0193 31.538 75.178 31.958C75.3367 32.378 75.5747 32.6953 75.892 32.91C76.2093 33.1247 76.606 33.232 77.082 33.232C77.4927 33.232 77.852 33.19 78.16 33.106C78.4773 33.022 78.7667 32.9193 79.028 32.798V33.89C78.776 34.0207 78.496 34.1187 78.188 34.184C77.8893 34.2587 77.5253 34.296 77.096 34.296ZM83.7106 26.512C84.3546 26.512 84.9052 26.652 85.3626 26.932C85.8292 27.212 86.1839 27.6087 86.4266 28.122C86.6786 28.626 86.8046 29.2187 86.8046 29.9V30.642H81.6666C81.6852 31.4913 81.8999 32.14 82.3106 32.588C82.7306 33.0267 83.3139 33.246 84.0606 33.246C84.5366 33.246 84.9566 33.204 85.3206 33.12C85.6939 33.0267 86.0766 32.896 86.4686 32.728V33.806C86.0859 33.974 85.7079 34.0953 85.3346 34.17C84.9612 34.254 84.5179 34.296 84.0046 34.296C83.2952 34.296 82.6652 34.1513 82.1146 33.862C81.5732 33.5727 81.1486 33.1433 80.8406 32.574C80.5419 31.9953 80.3926 31.2907 80.3926 30.46C80.3926 29.6387 80.5279 28.934 80.7986 28.346C81.0786 27.758 81.4659 27.3053 81.9606 26.988C82.4646 26.6707 83.0479 26.512 83.7106 26.512ZM83.6966 27.52C83.1086 27.52 82.6419 27.7113 82.2966 28.094C81.9606 28.4673 81.7599 28.99 81.6946 29.662H85.5166C85.5166 29.2327 85.4512 28.8593 85.3206 28.542C85.1899 28.2247 84.9892 27.9773 84.7186 27.8C84.4572 27.6133 84.1166 27.52 83.6966 27.52ZM99.2989 29.158C99.2989 29.5873 99.2476 30.0073 99.1449 30.418C99.0516 30.8287 98.9022 31.202 98.6969 31.538C98.4916 31.8647 98.2396 32.1307 97.9409 32.336C97.6422 32.532 97.2876 32.63 96.8769 32.63C96.4476 32.63 96.1069 32.5087 95.8549 32.266C95.6122 32.014 95.4629 31.7293 95.4069 31.412H95.3369C95.1689 31.7573 94.9216 32.0467 94.5949 32.28C94.2682 32.5133 93.8576 32.63 93.3629 32.63C92.6536 32.63 92.1029 32.392 91.7109 31.916C91.3282 31.44 91.1369 30.81 91.1369 30.026C91.1369 29.41 91.2582 28.8687 91.5009 28.402C91.7436 27.926 92.0842 27.5527 92.5229 27.282C92.9709 27.0113 93.4982 26.876 94.1049 26.876C94.5156 26.876 94.9169 26.9133 95.3089 26.988C95.7102 27.0533 96.0229 27.128 96.2469 27.212L96.1069 30.054C96.0976 30.222 96.0929 30.3433 96.0929 30.418C96.0929 30.4833 96.0929 30.53 96.0929 30.558C96.0929 31.0433 96.1769 31.3653 96.3449 31.524C96.5222 31.6827 96.7276 31.762 96.9609 31.762C97.2502 31.762 97.4929 31.6453 97.6889 31.412C97.8942 31.1693 98.0482 30.852 98.1509 30.46C98.2629 30.0587 98.3189 29.62 98.3189 29.144C98.3189 28.276 98.1416 27.5433 97.7869 26.946C97.4416 26.3393 96.9609 25.8773 96.3449 25.56C95.7382 25.2427 95.0476 25.084 94.2729 25.084C93.4796 25.084 92.7749 25.21 92.1589 25.462C91.5429 25.714 91.0249 26.0687 90.6049 26.526C90.1942 26.9833 89.8816 27.5247 89.6669 28.15C89.4522 28.766 89.3449 29.4473 89.3449 30.194C89.3449 31.1087 89.5082 31.888 89.8349 32.532C90.1616 33.1667 90.6376 33.652 91.2629 33.988C91.8976 34.3147 92.6722 34.478 93.5869 34.478C94.1562 34.478 94.6976 34.4127 95.2109 34.282C95.7336 34.1607 96.1956 34.0253 96.5969 33.876V34.828C96.1956 34.996 95.7429 35.1313 95.2389 35.234C94.7442 35.346 94.1936 35.402 93.5869 35.402C92.4856 35.402 91.5429 35.1967 90.7589 34.786C89.9749 34.3753 89.3729 33.7873 88.9529 33.022C88.5422 32.2473 88.3369 31.3187 88.3369 30.236C88.3369 29.368 88.4722 28.5653 88.7429 27.828C89.0136 27.0813 89.4056 26.4373 89.9189 25.896C90.4322 25.3453 91.0529 24.9207 91.7809 24.622C92.5182 24.314 93.3489 24.16 94.2729 24.16C95.0009 24.16 95.6682 24.2767 96.2749 24.51C96.8909 24.734 97.4229 25.0653 97.8709 25.504C98.3282 25.9333 98.6782 26.456 98.9209 27.072C99.1729 27.688 99.2989 28.3833 99.2989 29.158ZM92.2289 30.054C92.2289 30.6513 92.3456 31.0853 92.5789 31.356C92.8216 31.6267 93.1436 31.762 93.5449 31.762C94.0676 31.762 94.4409 31.566 94.6649 31.174C94.8982 30.782 95.0336 30.2733 95.0709 29.648L95.1549 27.898C95.0336 27.8607 94.8796 27.828 94.6929 27.8C94.5062 27.772 94.3149 27.758 94.1189 27.758C93.6616 27.758 93.2929 27.87 93.0129 28.094C92.7329 28.318 92.5322 28.6073 92.4109 28.962C92.2896 29.3073 92.2289 29.6713 92.2289 30.054ZM103.967 26.512C104.461 26.512 104.905 26.6053 105.297 26.792C105.698 26.9787 106.039 27.2633 106.319 27.646H106.389L106.557 26.652H107.537V34.282C107.537 34.9913 107.415 35.584 107.173 36.06C106.93 36.5453 106.561 36.9093 106.067 37.152C105.572 37.3947 104.942 37.516 104.177 37.516C103.635 37.516 103.136 37.474 102.679 37.39C102.231 37.3153 101.829 37.1987 101.475 37.04V35.906C101.717 36.0273 101.983 36.13 102.273 36.214C102.562 36.3073 102.875 36.3773 103.211 36.424C103.547 36.4707 103.892 36.494 104.247 36.494C104.891 36.494 105.395 36.3027 105.759 35.92C106.132 35.5467 106.319 35.0333 106.319 34.38V34.086C106.319 33.974 106.323 33.8153 106.333 33.61C106.342 33.3953 106.351 33.246 106.361 33.162H106.305C106.043 33.5447 105.717 33.8293 105.325 34.016C104.942 34.2027 104.494 34.296 103.981 34.296C103.01 34.296 102.249 33.9553 101.699 33.274C101.157 32.5927 100.887 31.6407 100.887 30.418C100.887 29.6153 101.008 28.9247 101.251 28.346C101.503 27.758 101.857 27.3053 102.315 26.988C102.772 26.6707 103.323 26.512 103.967 26.512ZM104.135 27.548C103.715 27.548 103.355 27.66 103.057 27.884C102.767 28.108 102.543 28.4347 102.385 28.864C102.235 29.2933 102.161 29.816 102.161 30.432C102.161 31.356 102.329 32.0653 102.665 32.56C103.01 33.0453 103.509 33.288 104.163 33.288C104.545 33.288 104.872 33.2413 105.143 33.148C105.413 33.0453 105.637 32.8913 105.815 32.686C105.992 32.4713 106.123 32.2007 106.207 31.874C106.291 31.5473 106.333 31.16 106.333 30.712V30.418C106.333 29.7367 106.253 29.186 106.095 28.766C105.945 28.346 105.707 28.038 105.381 27.842C105.054 27.646 104.639 27.548 104.135 27.548ZM118.152 26.512C119.001 26.512 119.636 26.7313 120.056 27.17C120.476 27.5993 120.686 28.2993 120.686 29.27V34.156H119.468V29.326C119.468 28.738 119.342 28.2947 119.09 27.996C118.847 27.6973 118.465 27.548 117.942 27.548C117.214 27.548 116.691 27.758 116.374 28.178C116.066 28.598 115.912 29.2093 115.912 30.012V34.156H114.694V29.326C114.694 28.934 114.638 28.6073 114.526 28.346C114.414 28.0753 114.246 27.8747 114.022 27.744C113.798 27.6133 113.509 27.548 113.154 27.548C112.65 27.548 112.253 27.6553 111.964 27.87C111.675 28.0753 111.465 28.3787 111.334 28.78C111.213 29.1813 111.152 29.676 111.152 30.264V34.156H109.92V26.652H110.914L111.096 27.674H111.166C111.325 27.4127 111.516 27.198 111.74 27.03C111.973 26.8527 112.23 26.722 112.51 26.638C112.79 26.554 113.079 26.512 113.378 26.512C113.957 26.512 114.437 26.6147 114.82 26.82C115.212 27.0253 115.497 27.3427 115.674 27.772H115.744C115.996 27.3427 116.337 27.0253 116.766 26.82C117.205 26.6147 117.667 26.512 118.152 26.512ZM125.846 26.526C126.761 26.526 127.437 26.7267 127.876 27.128C128.315 27.5293 128.534 28.1687 128.534 29.046V34.156H127.638L127.4 33.092H127.344C127.129 33.3627 126.905 33.5913 126.672 33.778C126.448 33.9553 126.187 34.086 125.888 34.17C125.599 34.254 125.244 34.296 124.824 34.296C124.376 34.296 123.97 34.2167 123.606 34.058C123.251 33.8993 122.971 33.6567 122.766 33.33C122.561 32.994 122.458 32.574 122.458 32.07C122.458 31.3233 122.752 30.7493 123.34 30.348C123.928 29.9373 124.833 29.7133 126.056 29.676L127.33 29.634V29.186C127.33 28.5607 127.195 28.1267 126.924 27.884C126.653 27.6413 126.271 27.52 125.776 27.52C125.384 27.52 125.011 27.5807 124.656 27.702C124.301 27.814 123.97 27.9447 123.662 28.094L123.284 27.17C123.611 26.9927 123.998 26.8433 124.446 26.722C124.894 26.5913 125.361 26.526 125.846 26.526ZM126.21 30.53C125.277 30.5673 124.628 30.7167 124.264 30.978C123.909 31.2393 123.732 31.608 123.732 32.084C123.732 32.504 123.858 32.812 124.11 33.008C124.371 33.204 124.703 33.302 125.104 33.302C125.739 33.302 126.266 33.1293 126.686 32.784C127.106 32.4293 127.316 31.888 127.316 31.16V30.488L126.21 30.53ZM132.084 26.652V34.156H130.852V26.652H132.084ZM131.482 23.838C131.668 23.838 131.832 23.9033 131.972 24.034C132.121 24.1553 132.196 24.3513 132.196 24.622C132.196 24.8833 132.121 25.0793 131.972 25.21C131.832 25.3407 131.668 25.406 131.482 25.406C131.276 25.406 131.104 25.3407 130.964 25.21C130.824 25.0793 130.754 24.8833 130.754 24.622C130.754 24.3513 130.824 24.1553 130.964 24.034C131.104 23.9033 131.276 23.838 131.482 23.838ZM135.693 34.156H134.461V23.516H135.693V34.156ZM137.888 33.4C137.888 33.0547 137.972 32.812 138.14 32.672C138.308 32.532 138.509 32.462 138.742 32.462C138.985 32.462 139.19 32.532 139.358 32.672C139.536 32.812 139.624 33.0547 139.624 33.4C139.624 33.736 139.536 33.9787 139.358 34.128C139.19 34.2773 138.985 34.352 138.742 34.352C138.509 34.352 138.308 34.2773 138.14 34.128C137.972 33.9787 137.888 33.736 137.888 33.4ZM144.826 34.296C144.164 34.296 143.571 34.1607 143.048 33.89C142.535 33.6193 142.129 33.1993 141.83 32.63C141.541 32.0607 141.396 31.3327 141.396 30.446C141.396 29.522 141.55 28.7707 141.858 28.192C142.166 27.6133 142.582 27.1887 143.104 26.918C143.636 26.6473 144.238 26.512 144.91 26.512C145.293 26.512 145.662 26.554 146.016 26.638C146.371 26.7127 146.66 26.806 146.884 26.918L146.506 27.94C146.282 27.856 146.021 27.7767 145.722 27.702C145.424 27.6273 145.144 27.59 144.882 27.59C144.378 27.59 143.963 27.6973 143.636 27.912C143.31 28.1267 143.067 28.444 142.908 28.864C142.75 29.284 142.67 29.8067 142.67 30.432C142.67 31.0293 142.75 31.538 142.908 31.958C143.067 32.378 143.305 32.6953 143.622 32.91C143.94 33.1247 144.336 33.232 144.812 33.232C145.223 33.232 145.582 33.19 145.89 33.106C146.208 33.022 146.497 32.9193 146.758 32.798V33.89C146.506 34.0207 146.226 34.1187 145.918 34.184C145.62 34.2587 145.256 34.296 144.826 34.296ZM155.067 30.39C155.067 31.0153 154.983 31.5707 154.815 32.056C154.656 32.532 154.423 32.938 154.115 33.274C153.816 33.61 153.448 33.8667 153.009 34.044C152.58 34.212 152.099 34.296 151.567 34.296C151.072 34.296 150.615 34.212 150.195 34.044C149.775 33.8667 149.411 33.61 149.103 33.274C148.795 32.938 148.552 32.532 148.375 32.056C148.207 31.5707 148.123 31.0153 148.123 30.39C148.123 29.5593 148.263 28.8593 148.543 28.29C148.823 27.7113 149.224 27.2727 149.747 26.974C150.27 26.666 150.89 26.512 151.609 26.512C152.29 26.512 152.888 26.666 153.401 26.974C153.924 27.2727 154.33 27.7113 154.619 28.29C154.918 28.8593 155.067 29.5593 155.067 30.39ZM149.397 30.39C149.397 30.978 149.472 31.4913 149.621 31.93C149.78 32.3593 150.022 32.6907 150.349 32.924C150.676 33.1573 151.091 33.274 151.595 33.274C152.099 33.274 152.514 33.1573 152.841 32.924C153.168 32.6907 153.406 32.3593 153.555 31.93C153.714 31.4913 153.793 30.978 153.793 30.39C153.793 29.7927 153.714 29.284 153.555 28.864C153.396 28.444 153.154 28.122 152.827 27.898C152.51 27.6647 152.094 27.548 151.581 27.548C150.816 27.548 150.26 27.8 149.915 28.304C149.57 28.808 149.397 29.5033 149.397 30.39ZM165.252 26.512C166.101 26.512 166.736 26.7313 167.156 27.17C167.576 27.5993 167.786 28.2993 167.786 29.27V34.156H166.568V29.326C166.568 28.738 166.442 28.2947 166.19 27.996C165.947 27.6973 165.564 27.548 165.042 27.548C164.314 27.548 163.791 27.758 163.474 28.178C163.166 28.598 163.012 29.2093 163.012 30.012V34.156H161.794V29.326C161.794 28.934 161.738 28.6073 161.626 28.346C161.514 28.0753 161.346 27.8747 161.122 27.744C160.898 27.6133 160.608 27.548 160.254 27.548C159.75 27.548 159.353 27.6553 159.064 27.87C158.774 28.0753 158.564 28.3787 158.434 28.78C158.312 29.1813 158.252 29.676 158.252 30.264V34.156H157.02V26.652H158.014L158.196 27.674H158.266C158.424 27.4127 158.616 27.198 158.84 27.03C159.073 26.8527 159.33 26.722 159.61 26.638C159.89 26.554 160.179 26.512 160.478 26.512C161.056 26.512 161.537 26.6147 161.92 26.82C162.312 27.0253 162.596 27.3427 162.774 27.772H162.844C163.096 27.3427 163.436 27.0253 163.866 26.82C164.304 26.6147 164.766 26.512 165.252 26.512ZM6.44915 58.156L3.15915 49.392H3.10315C3.12182 49.5787 3.13582 49.8167 3.14515 50.106C3.16382 50.3953 3.17782 50.7127 3.18715 51.058C3.19649 51.394 3.20115 51.7393 3.20115 52.094V58.156H2.03915V48.16H3.90115L6.98115 56.35H7.03715L10.1732 48.16H12.0212V58.156H10.7752V52.01C10.7752 51.6833 10.7798 51.3613 10.7892 51.044C10.7985 50.7173 10.8125 50.414 10.8312 50.134C10.8498 49.8447 10.8638 49.602 10.8732 49.406H10.8172L7.48515 58.156H6.44915ZM23.4623 53.144C23.4623 53.9187 23.3643 54.6233 23.1683 55.258C22.9723 55.8833 22.6783 56.4247 22.2863 56.882C21.9037 57.3393 21.423 57.6893 20.8443 57.932C20.275 58.1747 19.6123 58.296 18.8563 58.296C18.0723 58.296 17.391 58.1747 16.8123 57.932C16.2337 57.68 15.753 57.33 15.3703 56.882C14.9877 56.4247 14.703 55.8787 14.5163 55.244C14.3297 54.6093 14.2363 53.9047 14.2363 53.13C14.2363 52.1033 14.4043 51.2073 14.7403 50.442C15.0763 49.6767 15.585 49.0793 16.2663 48.65C16.957 48.2207 17.825 48.006 18.8703 48.006C19.869 48.006 20.709 48.2207 21.3903 48.65C22.0717 49.07 22.585 49.6673 22.9303 50.442C23.285 51.2073 23.4623 52.108 23.4623 53.144ZM15.5663 53.144C15.5663 53.984 15.683 54.7073 15.9163 55.314C16.1497 55.9207 16.509 56.3873 16.9943 56.714C17.489 57.0407 18.1097 57.204 18.8563 57.204C19.6123 57.204 20.2283 57.0407 20.7043 56.714C21.1897 56.3873 21.549 55.9207 21.7823 55.314C22.0157 54.7073 22.1323 53.984 22.1323 53.144C22.1323 51.884 21.871 50.8993 21.3483 50.19C20.8257 49.4713 19.9997 49.112 18.8703 49.112C18.1143 49.112 17.489 49.2753 16.9943 49.602C16.509 49.9193 16.1497 50.3813 15.9163 50.988C15.683 51.5853 15.5663 52.304 15.5663 53.144ZM33.6018 58.156H32.1318L26.7838 49.854H26.7278C26.7372 50.022 26.7465 50.2087 26.7558 50.414C26.7745 50.6193 26.7885 50.8433 26.7978 51.086C26.8072 51.3193 26.8165 51.562 26.8258 51.814C26.8352 52.066 26.8398 52.318 26.8398 52.57V58.156H25.6778V48.16H27.1338L32.4678 56.434H32.5238C32.5145 56.322 32.5052 56.168 32.4958 55.972C32.4865 55.7667 32.4772 55.5427 32.4678 55.3C32.4585 55.048 32.4492 54.7913 32.4398 54.53C32.4305 54.2687 32.4258 54.026 32.4258 53.802V48.16H33.6018V58.156ZM35.9645 57.4C35.9645 57.0547 36.0485 56.812 36.2165 56.672C36.3845 56.532 36.5852 56.462 36.8185 56.462C37.0612 56.462 37.2665 56.532 37.4345 56.672C37.6119 56.812 37.7005 57.0547 37.7005 57.4C37.7005 57.736 37.6119 57.9787 37.4345 58.128C37.2665 58.2773 37.0612 58.352 36.8185 58.352C36.5852 58.352 36.3845 58.2773 36.2165 58.128C36.0485 57.9787 35.9645 57.736 35.9645 57.4ZM39.2626 54.95V53.858H42.6506V54.95H39.2626ZM45.8324 58.156H44.5724V48.16H50.1584V49.266H45.8324V52.808H49.8924V53.914H45.8324V58.156ZM54.5901 48.16C55.4208 48.16 56.1021 48.2673 56.6341 48.482C57.1755 48.6873 57.5768 49 57.8381 49.42C58.0995 49.84 58.2301 50.3673 58.2301 51.002C58.2301 51.534 58.1321 51.9773 57.9361 52.332C57.7401 52.6867 57.4881 52.9713 57.1801 53.186C56.8815 53.3913 56.5641 53.5547 56.2281 53.676L58.9721 58.156H57.5021L55.0801 54.026H53.0921V58.156H51.8321V48.16H54.5901ZM54.5201 49.252H53.0921V52.962H54.5901C55.1315 52.962 55.5748 52.892 55.9201 52.752C56.2655 52.6027 56.5175 52.388 56.6761 52.108C56.8441 51.828 56.9281 51.478 56.9281 51.058C56.9281 50.6193 56.8395 50.2693 56.6621 50.008C56.4941 49.7467 56.2328 49.5553 55.8781 49.434C55.5235 49.3127 55.0708 49.252 54.5201 49.252ZM63.3551 58.156H59.7431V57.428L60.9191 57.162V49.168L59.7431 48.888V48.16H63.3551V48.888L62.1791 49.168V57.162L63.3551 57.428V58.156ZM64.9352 57.4C64.9352 57.0547 65.0192 56.812 65.1872 56.672C65.3552 56.532 65.5559 56.462 65.7892 56.462C66.0319 56.462 66.2372 56.532 66.4052 56.672C66.5826 56.812 66.6712 57.0547 66.6712 57.4C66.6712 57.736 66.5826 57.9787 66.4052 58.128C66.2372 58.2773 66.0319 58.352 65.7892 58.352C65.5559 58.352 65.3552 58.2773 65.1872 58.128C65.0192 57.9787 64.9352 57.736 64.9352 57.4ZM78.6321 53.144C78.6321 53.956 78.5714 54.6793 78.4501 55.314C78.3287 55.9487 78.1327 56.49 77.8621 56.938C77.6007 57.3767 77.2554 57.7127 76.8261 57.946C76.4061 58.1793 75.8974 58.296 75.3001 58.296C74.5534 58.296 73.9327 58.0907 73.4381 57.68C72.9527 57.2693 72.5887 56.6813 72.3461 55.916C72.1127 55.1413 71.9961 54.2173 71.9961 53.144C71.9961 52.0613 72.1034 51.1373 72.3181 50.372C72.5421 49.6067 72.8967 49.0233 73.3821 48.622C73.8674 48.2113 74.5067 48.006 75.3001 48.006C76.0467 48.006 76.6674 48.2113 77.1621 48.622C77.6567 49.0233 78.0254 49.6067 78.2681 50.372C78.5107 51.1373 78.6321 52.0613 78.6321 53.144ZM73.2281 53.144C73.2281 54.0587 73.2934 54.8193 73.4241 55.426C73.5641 56.0327 73.7834 56.49 74.0821 56.798C74.3901 57.0967 74.7961 57.246 75.3001 57.246C75.8041 57.246 76.2054 57.0967 76.5041 56.798C76.8121 56.4993 77.0361 56.0467 77.1761 55.44C77.3161 54.824 77.3861 54.0587 77.3861 53.144C77.3861 52.2293 77.3161 51.4733 77.1761 50.876C77.0361 50.2693 76.8121 49.8167 76.5041 49.518C76.2054 49.21 75.8041 49.056 75.3001 49.056C74.7961 49.056 74.3901 49.21 74.0821 49.518C73.7834 49.8167 73.5641 50.2693 73.4241 50.876C73.2934 51.4733 73.2281 52.2293 73.2281 53.144ZM86.6018 52.43C86.6018 52.9993 86.5598 53.5687 86.4758 54.138C86.4011 54.698 86.2658 55.23 86.0698 55.734C85.8738 56.2287 85.6031 56.672 85.2578 57.064C84.9124 57.4467 84.4738 57.75 83.9418 57.974C83.4098 58.1887 82.7658 58.296 82.0098 58.296C81.8231 58.296 81.6038 58.282 81.3518 58.254C81.1091 58.2353 80.9084 58.2027 80.7498 58.156V57.106C80.9178 57.162 81.1138 57.2087 81.3378 57.246C81.5618 57.274 81.7764 57.288 81.9818 57.288C82.6351 57.288 83.1718 57.1807 83.5918 56.966C84.0211 56.7513 84.3618 56.462 84.6138 56.098C84.8658 55.7247 85.0478 55.2953 85.1598 54.81C85.2718 54.3153 85.3371 53.7973 85.3558 53.256H85.2718C85.1318 53.4707 84.9544 53.6667 84.7398 53.844C84.5251 54.0213 84.2638 54.1613 83.9558 54.264C83.6571 54.3667 83.3024 54.418 82.8918 54.418C82.3224 54.418 81.8184 54.3013 81.3798 54.068C80.9504 53.8253 80.6144 53.48 80.3718 53.032C80.1384 52.584 80.0218 52.038 80.0218 51.394C80.0218 50.694 80.1524 50.092 80.4138 49.588C80.6844 49.084 81.0578 48.6967 81.5338 48.426C82.0098 48.1553 82.5698 48.02 83.2138 48.02C83.6898 48.02 84.1331 48.1133 84.5438 48.3C84.9544 48.4773 85.3138 48.748 85.6218 49.112C85.9298 49.476 86.1678 49.9333 86.3358 50.484C86.5131 51.0347 86.6018 51.6833 86.6018 52.43ZM83.2138 49.056C82.6351 49.056 82.1591 49.2473 81.7858 49.63C81.4218 50.0127 81.2398 50.596 81.2398 51.38C81.2398 52.024 81.3938 52.5327 81.7018 52.906C82.0191 53.27 82.5044 53.452 83.1578 53.452C83.6058 53.452 83.9931 53.3633 84.3198 53.186C84.6464 52.9993 84.8984 52.766 85.0758 52.486C85.2624 52.206 85.3558 51.9167 85.3558 51.618C85.3558 51.3193 85.3091 51.0207 85.2158 50.722C85.1318 50.414 85.0011 50.134 84.8238 49.882C84.6464 49.63 84.4224 49.4293 84.1518 49.28C83.8811 49.1307 83.5684 49.056 83.2138 49.056ZM88.3415 57.4C88.3415 57.0547 88.4255 56.812 88.5935 56.672C88.7615 56.532 88.9622 56.462 89.1955 56.462C89.4382 56.462 89.6435 56.532 89.8115 56.672C89.9888 56.812 90.0775 57.0547 90.0775 57.4C90.0775 57.736 89.9888 57.9787 89.8115 58.128C89.6435 58.2773 89.4382 58.352 89.1955 58.352C88.9622 58.352 88.7615 58.2773 88.5935 58.128C88.4255 57.9787 88.3415 57.736 88.3415 57.4ZM88.3415 51.408C88.3415 51.0533 88.4255 50.806 88.5935 50.666C88.7615 50.526 88.9622 50.456 89.1955 50.456C89.4382 50.456 89.6435 50.526 89.8115 50.666C89.9888 50.806 90.0775 51.0533 90.0775 51.408C90.0775 51.744 89.9888 51.9867 89.8115 52.136C89.6435 52.2853 89.4382 52.36 89.1955 52.36C88.9622 52.36 88.7615 52.2853 88.5935 52.136C88.4255 51.9867 88.3415 51.744 88.3415 51.408ZM98.4016 53.144C98.4016 53.956 98.3409 54.6793 98.2196 55.314C98.0983 55.9487 97.9023 56.49 97.6316 56.938C97.3703 57.3767 97.0249 57.7127 96.5956 57.946C96.1756 58.1793 95.6669 58.296 95.0696 58.296C94.3229 58.296 93.7023 58.0907 93.2076 57.68C92.7223 57.2693 92.3583 56.6813 92.1156 55.916C91.8823 55.1413 91.7656 54.2173 91.7656 53.144C91.7656 52.0613 91.8729 51.1373 92.0876 50.372C92.3116 49.6067 92.6663 49.0233 93.1516 48.622C93.6369 48.2113 94.2763 48.006 95.0696 48.006C95.8163 48.006 96.4369 48.2113 96.9316 48.622C97.4263 49.0233 97.7949 49.6067 98.0376 50.372C98.2803 51.1373 98.4016 52.0613 98.4016 53.144ZM92.9976 53.144C92.9976 54.0587 93.0629 54.8193 93.1936 55.426C93.3336 56.0327 93.5529 56.49 93.8516 56.798C94.1596 57.0967 94.5656 57.246 95.0696 57.246C95.5736 57.246 95.9749 57.0967 96.2736 56.798C96.5816 56.4993 96.8056 56.0467 96.9456 55.44C97.0856 54.824 97.1556 54.0587 97.1556 53.144C97.1556 52.2293 97.0856 51.4733 96.9456 50.876C96.8056 50.2693 96.5816 49.8167 96.2736 49.518C95.9749 49.21 95.5736 49.056 95.0696 49.056C94.5656 49.056 94.1596 49.21 93.8516 49.518C93.5529 49.8167 93.3336 50.2693 93.1936 50.876C93.0629 51.4733 92.9976 52.2293 92.9976 53.144ZM106.413 53.144C106.413 53.956 106.353 54.6793 106.231 55.314C106.11 55.9487 105.914 56.49 105.643 56.938C105.382 57.3767 105.037 57.7127 104.607 57.946C104.187 58.1793 103.679 58.296 103.081 58.296C102.335 58.296 101.714 58.0907 101.219 57.68C100.734 57.2693 100.37 56.6813 100.127 55.916C99.894 55.1413 99.7773 54.2173 99.7773 53.144C99.7773 52.0613 99.8846 51.1373 100.099 50.372C100.323 49.6067 100.678 49.0233 101.163 48.622C101.649 48.2113 102.288 48.006 103.081 48.006C103.828 48.006 104.449 48.2113 104.943 48.622C105.438 49.0233 105.807 49.6067 106.049 50.372C106.292 51.1373 106.413 52.0613 106.413 53.144ZM101.009 53.144C101.009 54.0587 101.075 54.8193 101.205 55.426C101.345 56.0327 101.565 56.49 101.863 56.798C102.171 57.0967 102.577 57.246 103.081 57.246C103.585 57.246 103.987 57.0967 104.285 56.798C104.593 56.4993 104.817 56.0467 104.957 55.44C105.097 54.824 105.167 54.0587 105.167 53.144C105.167 52.2293 105.097 51.4733 104.957 50.876C104.817 50.2693 104.593 49.8167 104.285 49.518C103.987 49.21 103.585 49.056 103.081 49.056C102.577 49.056 102.171 49.21 101.863 49.518C101.565 49.8167 101.345 50.2693 101.205 50.876C101.075 51.4733 101.009 52.2293 101.009 53.144ZM107.663 54.95V53.858H111.051V54.95H107.663ZM116.585 58.156H115.381V51.17C115.381 50.8993 115.381 50.6707 115.381 50.484C115.39 50.2973 115.399 50.1247 115.409 49.966C115.418 49.798 115.427 49.6253 115.437 49.448C115.287 49.5973 115.152 49.7233 115.031 49.826C114.909 49.9287 114.755 50.0593 114.569 50.218L113.505 51.086L112.861 50.26L115.563 48.16H116.585V58.156ZM126.906 58.156H120.298V57.134L122.916 54.488C123.42 53.984 123.845 53.536 124.19 53.144C124.536 52.752 124.797 52.3693 124.974 51.996C125.152 51.6133 125.24 51.198 125.24 50.75C125.24 50.1993 125.077 49.784 124.75 49.504C124.424 49.2147 123.999 49.07 123.476 49.07C122.991 49.07 122.562 49.154 122.188 49.322C121.824 49.49 121.451 49.7233 121.068 50.022L120.41 49.196C120.672 48.972 120.956 48.7713 121.264 48.594C121.582 48.4167 121.922 48.2767 122.286 48.174C122.66 48.0713 123.056 48.02 123.476 48.02C124.102 48.02 124.638 48.1273 125.086 48.342C125.534 48.5567 125.88 48.8647 126.122 49.266C126.374 49.658 126.5 50.1293 126.5 50.68C126.5 51.072 126.44 51.4453 126.318 51.8C126.197 52.1453 126.024 52.486 125.8 52.822C125.576 53.158 125.306 53.4987 124.988 53.844C124.671 54.1893 124.321 54.5487 123.938 54.922L121.852 56.98V57.036H126.906V58.156ZM128.646 57.4C128.646 57.0547 128.73 56.812 128.898 56.672C129.066 56.532 129.267 56.462 129.5 56.462C129.743 56.462 129.948 56.532 130.116 56.672C130.294 56.812 130.382 57.0547 130.382 57.4C130.382 57.736 130.294 57.9787 130.116 58.128C129.948 58.2773 129.743 58.352 129.5 58.352C129.267 58.352 129.066 58.2773 128.898 58.128C128.73 57.9787 128.646 57.736 128.646 57.4ZM128.646 51.408C128.646 51.0533 128.73 50.806 128.898 50.666C129.066 50.526 129.267 50.456 129.5 50.456C129.743 50.456 129.948 50.526 130.116 50.666C130.294 50.806 130.382 51.0533 130.382 51.408C130.382 51.744 130.294 51.9867 130.116 52.136C129.948 52.2853 129.743 52.36 129.5 52.36C129.267 52.36 129.066 52.2853 128.898 52.136C128.73 51.9867 128.646 51.744 128.646 51.408ZM138.706 53.144C138.706 53.956 138.646 54.6793 138.524 55.314C138.403 55.9487 138.207 56.49 137.936 56.938C137.675 57.3767 137.33 57.7127 136.9 57.946C136.48 58.1793 135.972 58.296 135.374 58.296C134.628 58.296 134.007 58.0907 133.512 57.68C133.027 57.2693 132.663 56.6813 132.42 55.916C132.187 55.1413 132.07 54.2173 132.07 53.144C132.07 52.0613 132.178 51.1373 132.392 50.372C132.616 49.6067 132.971 49.0233 133.456 48.622C133.942 48.2113 134.581 48.006 135.374 48.006C136.121 48.006 136.742 48.2113 137.236 48.622C137.731 49.0233 138.1 49.6067 138.342 50.372C138.585 51.1373 138.706 52.0613 138.706 53.144ZM133.302 53.144C133.302 54.0587 133.368 54.8193 133.498 55.426C133.638 56.0327 133.858 56.49 134.156 56.798C134.464 57.0967 134.87 57.246 135.374 57.246C135.878 57.246 136.28 57.0967 136.578 56.798C136.886 56.4993 137.11 56.0467 137.25 55.44C137.39 54.824 137.46 54.0587 137.46 53.144C137.46 52.2293 137.39 51.4733 137.25 50.876C137.11 50.2693 136.886 49.8167 136.578 49.518C136.28 49.21 135.878 49.056 135.374 49.056C134.87 49.056 134.464 49.21 134.156 49.518C133.858 49.8167 133.638 50.2693 133.498 50.876C133.368 51.4733 133.302 52.2293 133.302 53.144ZM146.718 53.144C146.718 53.956 146.657 54.6793 146.536 55.314C146.415 55.9487 146.219 56.49 145.948 56.938C145.687 57.3767 145.341 57.7127 144.912 57.946C144.492 58.1793 143.983 58.296 143.386 58.296C142.639 58.296 142.019 58.0907 141.524 57.68C141.039 57.2693 140.675 56.6813 140.432 55.916C140.199 55.1413 140.082 54.2173 140.082 53.144C140.082 52.0613 140.189 51.1373 140.404 50.372C140.628 49.6067 140.983 49.0233 141.468 48.622C141.953 48.2113 142.593 48.006 143.386 48.006C144.133 48.006 144.753 48.2113 145.248 48.622C145.743 49.0233 146.111 49.6067 146.354 50.372C146.597 51.1373 146.718 52.0613 146.718 53.144ZM141.314 53.144C141.314 54.0587 141.379 54.8193 141.51 55.426C141.65 56.0327 141.869 56.49 142.168 56.798C142.476 57.0967 142.882 57.246 143.386 57.246C143.89 57.246 144.291 57.0967 144.59 56.798C144.898 56.4993 145.122 56.0467 145.262 55.44C145.402 54.824 145.472 54.0587 145.472 53.144C145.472 52.2293 145.402 51.4733 145.262 50.876C145.122 50.2693 144.898 49.8167 144.59 49.518C144.291 49.21 143.89 49.056 143.386 49.056C142.882 49.056 142.476 49.21 142.168 49.518C141.869 49.8167 141.65 50.2693 141.51 50.876C141.379 51.4733 141.314 52.2293 141.314 53.144ZM156.112 48.16L152.388 58.156H151.184L154.908 48.16H156.112ZM164.86 58.156H163.656V51.17C163.656 50.8993 163.656 50.6707 163.656 50.484C163.665 50.2973 163.675 50.1247 163.684 49.966C163.693 49.798 163.703 49.6253 163.712 49.448C163.563 49.5973 163.427 49.7233 163.306 49.826C163.185 49.9287 163.031 50.0593 162.844 50.218L161.78 51.086L161.136 50.26L163.838 48.16H164.86V58.156ZM174.804 50.498C174.804 50.946 174.72 51.3333 174.552 51.66C174.384 51.9867 174.141 52.2527 173.824 52.458C173.516 52.6633 173.152 52.808 172.732 52.892V52.948C173.535 53.0413 174.132 53.2933 174.524 53.704C174.916 54.1147 175.112 54.6513 175.112 55.314C175.112 55.8927 174.977 56.4107 174.706 56.868C174.435 57.316 174.015 57.666 173.446 57.918C172.886 58.17 172.163 58.296 171.276 58.296C170.753 58.296 170.268 58.254 169.82 58.17C169.372 58.0953 168.943 57.9553 168.532 57.75V56.602C168.952 56.8073 169.405 56.9707 169.89 57.092C170.375 57.204 170.842 57.26 171.29 57.26C172.186 57.26 172.83 57.0873 173.222 56.742C173.623 56.3873 173.824 55.902 173.824 55.286C173.824 54.866 173.712 54.53 173.488 54.278C173.273 54.0167 172.956 53.8253 172.536 53.704C172.116 53.5827 171.612 53.522 171.024 53.522H170.058V52.472H171.038C171.589 52.472 172.046 52.3927 172.41 52.234C172.783 52.0753 173.063 51.856 173.25 51.576C173.446 51.2867 173.544 50.9553 173.544 50.582C173.544 50.0967 173.381 49.7233 173.054 49.462C172.727 49.1913 172.284 49.056 171.724 49.056C171.369 49.056 171.047 49.0933 170.758 49.168C170.469 49.2333 170.198 49.3313 169.946 49.462C169.703 49.5833 169.456 49.728 169.204 49.896L168.588 49.056C168.831 48.8693 169.106 48.6967 169.414 48.538C169.731 48.3793 170.081 48.2533 170.464 48.16C170.847 48.0667 171.262 48.02 171.71 48.02C172.755 48.02 173.53 48.2533 174.034 48.72C174.547 49.1867 174.804 49.7793 174.804 50.498ZM176.922 57.4C176.922 57.0547 177.006 56.812 177.174 56.672C177.342 56.532 177.542 56.462 177.776 56.462C178.018 56.462 178.224 56.532 178.392 56.672C178.569 56.812 178.658 57.0547 178.658 57.4C178.658 57.736 178.569 57.9787 178.392 58.128C178.224 58.2773 178.018 58.352 177.776 58.352C177.542 58.352 177.342 58.2773 177.174 58.128C177.006 57.9787 176.922 57.736 176.922 57.4ZM176.922 51.408C176.922 51.0533 177.006 50.806 177.174 50.666C177.342 50.526 177.542 50.456 177.776 50.456C178.018 50.456 178.224 50.526 178.392 50.666C178.569 50.806 178.658 51.0533 178.658 51.408C178.658 51.744 178.569 51.9867 178.392 52.136C178.224 52.2853 178.018 52.36 177.776 52.36C177.542 52.36 177.342 52.2853 177.174 52.136C177.006 51.9867 176.922 51.744 176.922 51.408ZM186.982 53.144C186.982 53.956 186.921 54.6793 186.8 55.314C186.678 55.9487 186.482 56.49 186.212 56.938C185.95 57.3767 185.605 57.7127 185.176 57.946C184.756 58.1793 184.247 58.296 183.65 58.296C182.903 58.296 182.282 58.0907 181.788 57.68C181.302 57.2693 180.938 56.6813 180.696 55.916C180.462 55.1413 180.346 54.2173 180.346 53.144C180.346 52.0613 180.453 51.1373 180.668 50.372C180.892 49.6067 181.246 49.0233 181.732 48.622C182.217 48.2113 182.856 48.006 183.65 48.006C184.396 48.006 185.017 48.2113 185.512 48.622C186.006 49.0233 186.375 49.6067 186.618 50.372C186.86 51.1373 186.982 52.0613 186.982 53.144ZM181.578 53.144C181.578 54.0587 181.643 54.8193 181.774 55.426C181.914 56.0327 182.133 56.49 182.432 56.798C182.74 57.0967 183.146 57.246 183.65 57.246C184.154 57.246 184.555 57.0967 184.854 56.798C185.162 56.4993 185.386 56.0467 185.526 55.44C185.666 54.824 185.736 54.0587 185.736 53.144C185.736 52.2293 185.666 51.4733 185.526 50.876C185.386 50.2693 185.162 49.8167 184.854 49.518C184.555 49.21 184.154 49.056 183.65 49.056C183.146 49.056 182.74 49.21 182.432 49.518C182.133 49.8167 181.914 50.2693 181.774 50.876C181.643 51.4733 181.578 52.2293 181.578 53.144ZM194.993 53.144C194.993 53.956 194.933 54.6793 194.811 55.314C194.69 55.9487 194.494 56.49 194.223 56.938C193.962 57.3767 193.617 57.7127 193.187 57.946C192.767 58.1793 192.259 58.296 191.661 58.296C190.915 58.296 190.294 58.0907 189.799 57.68C189.314 57.2693 188.95 56.6813 188.707 55.916C188.474 55.1413 188.357 54.2173 188.357 53.144C188.357 52.0613 188.465 51.1373 188.679 50.372C188.903 49.6067 189.258 49.0233 189.743 48.622C190.229 48.2113 190.868 48.006 191.661 48.006C192.408 48.006 193.029 48.2113 193.523 48.622C194.018 49.0233 194.387 49.6067 194.629 50.372C194.872 51.1373 194.993 52.0613 194.993 53.144ZM189.589 53.144C189.589 54.0587 189.655 54.8193 189.785 55.426C189.925 56.0327 190.145 56.49 190.443 56.798C190.751 57.0967 191.157 57.246 191.661 57.246C192.165 57.246 192.567 57.0967 192.865 56.798C193.173 56.4993 193.397 56.0467 193.537 55.44C193.677 54.824 193.747 54.0587 193.747 53.144C193.747 52.2293 193.677 51.4733 193.537 50.876C193.397 50.2693 193.173 49.8167 192.865 49.518C192.567 49.21 192.165 49.056 191.661 49.056C191.157 49.056 190.751 49.21 190.443 49.518C190.145 49.8167 189.925 50.2693 189.785 50.876C189.655 51.4733 189.589 52.2293 189.589 53.144ZM196.243 54.95V53.858H199.631V54.95H196.243ZM205.165 58.156H203.961V51.17C203.961 50.8993 203.961 50.6707 203.961 50.484C203.97 50.2973 203.979 50.1247 203.989 49.966C203.998 49.798 204.007 49.6253 204.017 49.448C203.867 49.5973 203.732 49.7233 203.611 49.826C203.489 49.9287 203.335 50.0593 203.149 50.218L202.085 51.086L201.441 50.26L204.143 48.16H205.165V58.156ZM212.197 48.02C212.785 48.02 213.303 48.1133 213.751 48.3C214.199 48.4773 214.549 48.7433 214.801 49.098C215.062 49.4527 215.193 49.8913 215.193 50.414C215.193 50.8153 215.104 51.1653 214.927 51.464C214.759 51.7627 214.53 52.0287 214.241 52.262C213.951 52.486 213.634 52.6867 213.289 52.864C213.699 53.06 214.073 53.284 214.409 53.536C214.745 53.7787 215.011 54.0633 215.207 54.39C215.412 54.7167 215.515 55.1087 215.515 55.566C215.515 56.126 215.379 56.6113 215.109 57.022C214.838 57.4233 214.455 57.736 213.961 57.96C213.475 58.184 212.901 58.296 212.239 58.296C211.52 58.296 210.909 58.1887 210.405 57.974C209.91 57.7593 209.532 57.456 209.271 57.064C209.019 56.6627 208.893 56.1773 208.893 55.608C208.893 55.1507 208.986 54.754 209.173 54.418C209.369 54.082 209.625 53.7927 209.943 53.55C210.26 53.3073 210.601 53.102 210.965 52.934C210.638 52.7473 210.339 52.5373 210.069 52.304C209.807 52.0613 209.597 51.786 209.439 51.478C209.289 51.17 209.215 50.8107 209.215 50.4C209.215 49.8867 209.345 49.4573 209.607 49.112C209.868 48.7573 210.223 48.4867 210.671 48.3C211.119 48.1133 211.627 48.02 212.197 48.02ZM210.097 55.622C210.097 56.1073 210.269 56.5133 210.615 56.84C210.96 57.1573 211.492 57.316 212.211 57.316C212.668 57.316 213.051 57.2413 213.359 57.092C213.667 56.9427 213.9 56.7373 214.059 56.476C214.227 56.2147 214.311 55.916 214.311 55.58C214.311 55.2533 214.222 54.9687 214.045 54.726C213.877 54.474 213.634 54.25 213.317 54.054C213.009 53.858 212.64 53.6807 212.211 53.522L211.987 53.438C211.576 53.6153 211.231 53.8067 210.951 54.012C210.671 54.2173 210.456 54.4507 210.307 54.712C210.167 54.9733 210.097 55.2767 210.097 55.622ZM212.183 49.014C211.669 49.014 211.245 49.14 210.909 49.392C210.582 49.6347 210.419 49.9893 210.419 50.456C210.419 50.8013 210.498 51.0907 210.657 51.324C210.825 51.5573 211.049 51.758 211.329 51.926C211.609 52.0847 211.917 52.2387 212.253 52.388C212.579 52.248 212.869 52.094 213.121 51.926C213.382 51.758 213.587 51.5573 213.737 51.324C213.895 51.0813 213.975 50.792 213.975 50.456C213.975 49.9893 213.811 49.6347 213.485 49.392C213.158 49.14 212.724 49.014 212.183 49.014ZM217.226 57.4C217.226 57.0547 217.31 56.812 217.478 56.672C217.646 56.532 217.847 56.462 218.08 56.462C218.323 56.462 218.528 56.532 218.696 56.672C218.874 56.812 218.962 57.0547 218.962 57.4C218.962 57.736 218.874 57.9787 218.696 58.128C218.528 58.2773 218.323 58.352 218.08 58.352C217.847 58.352 217.646 58.2773 217.478 58.128C217.31 57.9787 217.226 57.736 217.226 57.4ZM217.226 51.408C217.226 51.0533 217.31 50.806 217.478 50.666C217.646 50.526 217.847 50.456 218.08 50.456C218.323 50.456 218.528 50.526 218.696 50.666C218.874 50.806 218.962 51.0533 218.962 51.408C218.962 51.744 218.874 51.9867 218.696 52.136C218.528 52.2853 218.323 52.36 218.08 52.36C217.847 52.36 217.646 52.2853 217.478 52.136C217.31 51.9867 217.226 51.744 217.226 51.408ZM227.286 53.144C227.286 53.956 227.226 54.6793 227.104 55.314C226.983 55.9487 226.787 56.49 226.516 56.938C226.255 57.3767 225.91 57.7127 225.48 57.946C225.06 58.1793 224.552 58.296 223.954 58.296C223.208 58.296 222.587 58.0907 222.092 57.68C221.607 57.2693 221.243 56.6813 221 55.916C220.767 55.1413 220.65 54.2173 220.65 53.144C220.65 52.0613 220.758 51.1373 220.972 50.372C221.196 49.6067 221.551 49.0233 222.036 48.622C222.522 48.2113 223.161 48.006 223.954 48.006C224.701 48.006 225.322 48.2113 225.816 48.622C226.311 49.0233 226.68 49.6067 226.922 50.372C227.165 51.1373 227.286 52.0613 227.286 53.144ZM221.882 53.144C221.882 54.0587 221.948 54.8193 222.078 55.426C222.218 56.0327 222.438 56.49 222.736 56.798C223.044 57.0967 223.45 57.246 223.954 57.246C224.458 57.246 224.86 57.0967 225.158 56.798C225.466 56.4993 225.69 56.0467 225.83 55.44C225.97 54.824 226.04 54.0587 226.04 53.144C226.04 52.2293 225.97 51.4733 225.83 50.876C225.69 50.2693 225.466 49.8167 225.158 49.518C224.86 49.21 224.458 49.056 223.954 49.056C223.45 49.056 223.044 49.21 222.736 49.518C222.438 49.8167 222.218 50.2693 222.078 50.876C221.948 51.4733 221.882 52.2293 221.882 53.144ZM235.298 53.144C235.298 53.956 235.237 54.6793 235.116 55.314C234.995 55.9487 234.799 56.49 234.528 56.938C234.267 57.3767 233.921 57.7127 233.492 57.946C233.072 58.1793 232.563 58.296 231.966 58.296C231.219 58.296 230.599 58.0907 230.104 57.68C229.619 57.2693 229.255 56.6813 229.012 55.916C228.779 55.1413 228.662 54.2173 228.662 53.144C228.662 52.0613 228.769 51.1373 228.984 50.372C229.208 49.6067 229.563 49.0233 230.048 48.622C230.533 48.2113 231.173 48.006 231.966 48.006C232.713 48.006 233.333 48.2113 233.828 48.622C234.323 49.0233 234.691 49.6067 234.934 50.372C235.177 51.1373 235.298 52.0613 235.298 53.144ZM229.894 53.144C229.894 54.0587 229.959 54.8193 230.09 55.426C230.23 56.0327 230.449 56.49 230.748 56.798C231.056 57.0967 231.462 57.246 231.966 57.246C232.47 57.246 232.871 57.0967 233.17 56.798C233.478 56.4993 233.702 56.0467 233.842 55.44C233.982 54.824 234.052 54.0587 234.052 53.144C234.052 52.2293 233.982 51.4733 233.842 50.876C233.702 50.2693 233.478 49.8167 233.17 49.518C232.871 49.21 232.47 49.056 231.966 49.056C231.462 49.056 231.056 49.21 230.748 49.518C230.449 49.8167 230.23 50.2693 230.09 50.876C229.959 51.4733 229.894 52.2293 229.894 53.144Z" fill="#BABABA"/>
</svg>
