<svg width="333" height="116" viewBox="0 0 333 116" fill="none" xmlns="http://www.w3.org/2000/svg">
<path d="M27.8306 11.9296H15.2216V0.84375H11.6797V28.1555H15.2216V15.4053H27.8306V28.1555H31.377V0.84375H27.8306V11.9296Z" fill="#BABABA"/>
<path d="M54.6593 0.84375L41.7109 28.1555H45.6549L49.7864 19.464H60.6445L64.8162 28.1555H68.6618L55.8787 0.84375H54.6638H54.6593ZM59.0767 16.0194H51.4211L55.2578 7.94204L59.0767 16.0194Z" fill="#BABABA"/>
<path d="M103.654 0.84375L93.2555 21.9651L82.8798 1.09297L82.7547 0.84375H81.6604L77.7344 28.1555H81.2004L83.6614 10.1672L92.6257 28.1555H93.8585L102.711 10.3096L105.186 28.1555H108.687L104.743 0.84375H103.654Z" fill="#BABABA"/>
<path d="M130.667 0.84375L117.719 28.1555H121.663L125.794 19.464H136.652L140.824 28.1555H144.67L131.887 0.84375H130.672H130.667ZM135.085 16.0194H127.429L131.266 7.94204L135.085 16.0194Z" fill="#BABABA"/>
<path d="M163.201 11.3376L156.667 0.84375H152.566L161.486 15.2094V28.1555H164.992V15.2094L173.738 0.84375H169.628L163.201 11.3376Z" fill="#BABABA"/>
<path d="M195.816 0.84375H194.601L181.652 28.1555H185.596L189.728 19.464H200.586L204.758 28.1555H208.603L195.82 0.84375H195.816ZM199.014 16.0194H191.358L195.195 7.94204L199.014 16.0194Z" fill="#BABABA"/>
<path d="M234.602 27.7331L236.946 11.4004H237.214L243.878 24.8048L250.48 11.4004H250.744L253.102 27.7331H251.494L249.873 16.051L244.075 27.7331H243.655L237.791 15.962L236.183 27.7331H234.602Z" fill="#BABABA"/>
<path d="M260.945 11.4004H262.585V21.2623C262.585 22.4328 262.607 23.1626 262.652 23.4519C262.732 24.0972 262.924 24.6357 263.219 25.0674C263.518 25.4991 263.974 25.864 264.59 26.1577C265.206 26.4514 265.827 26.5983 266.453 26.5983C266.993 26.5983 267.516 26.4826 268.011 26.2556C268.507 26.0287 268.927 25.7082 269.257 25.2988C269.592 24.8938 269.838 24.3998 269.994 23.8213C270.106 23.4074 270.16 22.5574 270.16 21.2668V11.4048H271.799V21.2668C271.799 22.7265 271.656 23.9058 271.37 24.8048C271.084 25.7038 270.513 26.487 269.655 27.1546C268.797 27.8221 267.757 28.1559 266.542 28.1559C265.22 28.1559 264.085 27.8399 263.143 27.2124C262.2 26.5849 261.566 25.7483 261.249 24.7158C261.048 24.0794 260.95 22.9312 260.95 21.2757V11.4137L260.945 11.4004Z" fill="#BABABA"/>
<path d="M278.699 24.6938L280.093 23.8616C281.075 25.6595 282.205 26.5585 283.492 26.5585C284.041 26.5585 284.559 26.4294 285.042 26.1758C285.524 25.9221 285.89 25.5794 286.145 25.1477C286.399 24.7205 286.525 24.2621 286.525 23.7815C286.525 23.2341 286.337 22.6956 285.966 22.1705C285.453 21.4451 284.519 20.5728 283.157 19.5492C281.79 18.5212 280.937 17.778 280.606 17.3196C280.026 16.5497 279.735 15.7175 279.735 14.823C279.735 14.1109 279.905 13.4656 280.249 12.8782C280.589 12.2952 281.071 11.8323 281.692 11.4941C282.313 11.1559 282.987 10.9912 283.715 10.9912C284.488 10.9912 285.211 11.1826 285.881 11.5653C286.556 11.948 287.266 12.6467 288.016 13.6703L286.681 14.6805C286.064 13.8661 285.537 13.3276 285.104 13.0695C284.671 12.8114 284.197 12.6823 283.684 12.6823C283.023 12.6823 282.482 12.8826 282.062 13.2831C281.643 13.6837 281.433 14.1732 281.433 14.7607C281.433 15.1167 281.509 15.4594 281.656 15.7931C281.803 16.1269 282.076 16.4874 282.469 16.8835C282.683 17.0926 283.389 17.6356 284.586 18.5167C286.006 19.5581 286.98 20.4882 287.507 21.3027C288.034 22.1171 288.298 22.9359 288.298 23.7548C288.298 24.9386 287.847 25.9666 286.944 26.8433C286.042 27.7156 284.943 28.1517 283.653 28.1517C282.657 28.1517 281.754 27.8892 280.946 27.3596C280.137 26.83 279.392 25.9444 278.708 24.6983L278.699 24.6938Z" fill="#BABABA"/>
<path d="M296.09 11.4004H297.729V27.7331H296.09V11.4004Z" fill="#BABABA"/>
<path d="M321.319 14.4313L320.028 15.4193C319.313 14.4936 318.46 13.7905 317.46 13.3143C316.459 12.8381 315.36 12.5978 314.168 12.5978C312.859 12.5978 311.649 12.9093 310.537 13.5368C309.42 14.1643 308.558 15.001 307.946 16.0557C307.334 17.1104 307.026 18.2987 307.026 19.616C307.026 21.6053 307.709 23.2697 309.081 24.6004C310.452 25.931 312.18 26.5986 314.266 26.5986C316.562 26.5986 318.483 25.704 320.028 23.9106L321.319 24.8896C320.501 25.9266 319.483 26.7276 318.259 27.2928C317.035 27.858 315.673 28.1428 314.163 28.1428C311.296 28.1428 309.031 27.1905 307.379 25.2902C305.99 23.6836 305.293 21.7432 305.293 19.4736C305.293 17.0837 306.133 15.0722 307.817 13.4389C309.5 11.8056 311.609 10.9912 314.141 10.9912C315.673 10.9912 317.053 11.2938 318.286 11.8946C319.519 12.4999 320.528 13.3454 321.319 14.4313Z" fill="#BABABA"/>
<path d="M5.20169 63.1553H3.94169V54.2653H0.819688V53.1593H8.30969V54.2653H5.20169V63.1553ZM15.403 63.1553H9.81698V53.1593H15.403V54.2653H11.077V57.3873H15.151V58.4793H11.077V62.0493H15.403V63.1553ZM17.5963 63.1553V53.1593H18.8563V62.0353H23.2243V63.1553H17.5963ZM24.5881 62.3993C24.5881 62.0539 24.6721 61.8113 24.8401 61.6713C25.0081 61.5313 25.2087 61.4613 25.4421 61.4613C25.6847 61.4613 25.8901 61.5313 26.0581 61.6713C26.2354 61.8113 26.3241 62.0539 26.3241 62.3993C26.3241 62.7353 26.2354 62.9779 26.0581 63.1273C25.8901 63.2766 25.6847 63.3513 25.4421 63.3513C25.2087 63.3513 25.0081 63.2766 24.8401 63.1273C24.6721 62.9779 24.5881 62.7353 24.5881 62.3993ZM24.5881 56.4073C24.5881 56.0526 24.6721 55.8053 24.8401 55.6653C25.0081 55.5253 25.2087 55.4553 25.4421 55.4553C25.6847 55.4553 25.8901 55.5253 26.0581 55.6653C26.2354 55.8053 26.3241 56.0526 26.3241 56.4073C26.3241 56.7433 26.2354 56.9859 26.0581 57.1353C25.8901 57.2846 25.6847 57.3593 25.4421 57.3593C25.2087 57.3593 25.0081 57.2846 24.8401 57.1353C24.6721 56.9859 24.5881 56.7433 24.5881 56.4073ZM38.2849 58.1433C38.2849 58.9553 38.2242 59.6786 38.1029 60.3133C37.9816 60.9479 37.7856 61.4893 37.5149 61.9373C37.2536 62.3759 36.9082 62.7119 36.4789 62.9453C36.0589 63.1786 35.5502 63.2953 34.9529 63.2953C34.2062 63.2953 33.5856 63.0899 33.0909 62.6793C32.6056 62.2686 32.2416 61.6806 31.9989 60.9153C31.7656 60.1406 31.6489 59.2166 31.6489 58.1433C31.6489 57.0606 31.7562 56.1366 31.9709 55.3713C32.1949 54.6059 32.5496 54.0226 33.0349 53.6213C33.5202 53.2106 34.1596 53.0053 34.9529 53.0053C35.6996 53.0053 36.3202 53.2106 36.8149 53.6213C37.3096 54.0226 37.6782 54.6059 37.9209 55.3713C38.1636 56.1366 38.2849 57.0606 38.2849 58.1433ZM32.8809 58.1433C32.8809 59.0579 32.9462 59.8186 33.0769 60.4253C33.2169 61.0319 33.4362 61.4893 33.7349 61.7973C34.0429 62.0959 34.4489 62.2453 34.9529 62.2453C35.4569 62.2453 35.8582 62.0959 36.1569 61.7973C36.4649 61.4986 36.6889 61.0459 36.8289 60.4393C36.9689 59.8233 37.0389 59.0579 37.0389 58.1433C37.0389 57.2286 36.9689 56.4726 36.8289 55.8753C36.6889 55.2686 36.4649 54.8159 36.1569 54.5173C35.8582 54.2093 35.4569 54.0553 34.9529 54.0553C34.4489 54.0553 34.0429 54.2093 33.7349 54.5173C33.4362 54.8159 33.2169 55.2686 33.0769 55.8753C32.9462 56.4726 32.8809 57.2286 32.8809 58.1433ZM39.7446 58.8853C39.7446 58.3066 39.7819 57.7373 39.8566 57.1773C39.9406 56.6173 40.0806 56.0899 40.2766 55.5953C40.4726 55.0913 40.7433 54.6479 41.0886 54.2653C41.4339 53.8733 41.8679 53.5699 42.3906 53.3553C42.9226 53.1313 43.5666 53.0193 44.3226 53.0193C44.5186 53.0193 44.7333 53.0286 44.9666 53.0473C45.2093 53.0659 45.4053 53.0986 45.5546 53.1453V54.1953C45.3866 54.1393 45.1953 54.0973 44.9806 54.0693C44.7753 54.0413 44.5653 54.0273 44.3506 54.0273C43.7066 54.0273 43.1699 54.1346 42.7406 54.3493C42.3113 54.5639 41.9706 54.8579 41.7186 55.2313C41.4759 55.6046 41.2986 56.0339 41.1866 56.5193C41.0746 57.0046 41.0046 57.5226 40.9766 58.0733H41.0606C41.2006 57.8493 41.3779 57.6486 41.5926 57.4713C41.8073 57.2939 42.0639 57.1539 42.3626 57.0513C42.6706 56.9486 43.0253 56.8973 43.4266 56.8973C44.0053 56.8973 44.5093 57.0186 44.9386 57.2613C45.3773 57.4946 45.7179 57.8399 45.9606 58.2973C46.2033 58.7453 46.3246 59.2913 46.3246 59.9353C46.3246 60.6259 46.1939 61.2233 45.9326 61.7273C45.6713 62.2313 45.3026 62.6186 44.8266 62.8893C44.3599 63.1599 43.7999 63.2953 43.1466 63.2953C42.6706 63.2953 42.2273 63.2066 41.8166 63.0293C41.4059 62.8519 41.0419 62.5813 40.7246 62.2173C40.4166 61.8533 40.1739 61.3959 39.9966 60.8453C39.8286 60.2853 39.7446 59.6319 39.7446 58.8853ZM43.1326 62.2593C43.7206 62.2593 44.1966 62.0726 44.5606 61.6993C44.9246 61.3166 45.1066 60.7286 45.1066 59.9353C45.1066 59.3006 44.9433 58.7966 44.6166 58.4233C44.2993 58.0499 43.8186 57.8633 43.1746 57.8633C42.7359 57.8633 42.3533 57.9566 42.0266 58.1433C41.6999 58.3206 41.4433 58.5493 41.2566 58.8293C41.0793 59.1093 40.9906 59.3986 40.9906 59.6973C40.9906 60.0053 41.0326 60.3086 41.1166 60.6073C41.2099 60.9059 41.3453 61.1813 41.5226 61.4333C41.7093 61.6853 41.9333 61.8859 42.1946 62.0353C42.4653 62.1846 42.7779 62.2593 43.1326 62.2593ZM47.5463 59.9493V58.8573H50.9343V59.9493H47.5463ZM52.268 58.8853C52.268 58.3066 52.3054 57.7373 52.38 57.1773C52.464 56.6173 52.604 56.0899 52.8 55.5953C52.996 55.0913 53.2667 54.6479 53.612 54.2653C53.9574 53.8733 54.3914 53.5699 54.914 53.3553C55.446 53.1313 56.09 53.0193 56.846 53.0193C57.042 53.0193 57.2567 53.0286 57.49 53.0473C57.7327 53.0659 57.9287 53.0986 58.078 53.1453V54.1953C57.91 54.1393 57.7187 54.0973 57.504 54.0693C57.2987 54.0413 57.0887 54.0273 56.874 54.0273C56.23 54.0273 55.6934 54.1346 55.264 54.3493C54.8347 54.5639 54.494 54.8579 54.242 55.2313C53.9994 55.6046 53.822 56.0339 53.71 56.5193C53.598 57.0046 53.528 57.5226 53.5 58.0733H53.584C53.724 57.8493 53.9014 57.6486 54.116 57.4713C54.3307 57.2939 54.5874 57.1539 54.886 57.0513C55.194 56.9486 55.5487 56.8973 55.95 56.8973C56.5287 56.8973 57.0327 57.0186 57.462 57.2613C57.9007 57.4946 58.2414 57.8399 58.484 58.2973C58.7267 58.7453 58.848 59.2913 58.848 59.9353C58.848 60.6259 58.7174 61.2233 58.456 61.7273C58.1947 62.2313 57.826 62.6186 57.35 62.8893C56.8834 63.1599 56.3234 63.2953 55.67 63.2953C55.194 63.2953 54.7507 63.2066 54.34 63.0293C53.9294 62.8519 53.5654 62.5813 53.248 62.2173C52.94 61.8533 52.6974 61.3959 52.52 60.8453C52.352 60.2853 52.268 59.6319 52.268 58.8853ZM55.656 62.2593C56.244 62.2593 56.72 62.0726 57.084 61.6993C57.448 61.3166 57.63 60.7286 57.63 59.9353C57.63 59.3006 57.4667 58.7966 57.14 58.4233C56.8227 58.0499 56.342 57.8633 55.698 57.8633C55.2594 57.8633 54.8767 57.9566 54.55 58.1433C54.2234 58.3206 53.9667 58.5493 53.78 58.8293C53.6027 59.1093 53.514 59.3986 53.514 59.6973C53.514 60.0053 53.556 60.3086 53.64 60.6073C53.7334 60.9059 53.8687 61.1813 54.046 61.4333C54.2327 61.6853 54.4567 61.8859 54.718 62.0353C54.9887 62.1846 55.3014 62.2593 55.656 62.2593ZM66.7898 57.4293C66.7898 57.9986 66.7478 58.5679 66.6638 59.1373C66.5891 59.6973 66.4538 60.2293 66.2578 60.7333C66.0618 61.2279 65.7911 61.6713 65.4458 62.0633C65.1004 62.4459 64.6618 62.7493 64.1298 62.9733C63.5978 63.1879 62.9538 63.2953 62.1978 63.2953C62.0111 63.2953 61.7918 63.2813 61.5398 63.2533C61.2971 63.2346 61.0964 63.2019 60.9378 63.1553V62.1053C61.1058 62.1613 61.3018 62.2079 61.5258 62.2453C61.7498 62.2733 61.9644 62.2873 62.1698 62.2873C62.8231 62.2873 63.3598 62.1799 63.7798 61.9653C64.2091 61.7506 64.5498 61.4613 64.8018 61.0973C65.0538 60.7239 65.2358 60.2946 65.3478 59.8093C65.4598 59.3146 65.5251 58.7966 65.5438 58.2553H65.4598C65.3198 58.4699 65.1424 58.6659 64.9278 58.8433C64.7131 59.0206 64.4518 59.1606 64.1438 59.2633C63.8451 59.3659 63.4904 59.4173 63.0798 59.4173C62.5104 59.4173 62.0064 59.3006 61.5678 59.0673C61.1384 58.8246 60.8024 58.4793 60.5598 58.0313C60.3264 57.5833 60.2098 57.0373 60.2098 56.3933C60.2098 55.6933 60.3404 55.0913 60.6018 54.5873C60.8724 54.0833 61.2458 53.6959 61.7218 53.4253C62.1978 53.1546 62.7578 53.0193 63.4018 53.0193C63.8778 53.0193 64.3211 53.1126 64.7318 53.2993C65.1424 53.4766 65.5018 53.7473 65.8098 54.1113C66.1178 54.4753 66.3558 54.9326 66.5238 55.4833C66.7011 56.0339 66.7898 56.6826 66.7898 57.4293ZM63.4018 54.0553C62.8231 54.0553 62.3471 54.2466 61.9738 54.6293C61.6098 55.0119 61.4278 55.5953 61.4278 56.3793C61.4278 57.0233 61.5818 57.5319 61.8898 57.9053C62.2071 58.2693 62.6924 58.4513 63.3458 58.4513C63.7938 58.4513 64.1811 58.3626 64.5078 58.1853C64.8344 57.9986 65.0864 57.7653 65.2638 57.4853C65.4504 57.2053 65.5438 56.9159 65.5438 56.6173C65.5438 56.3186 65.4971 56.0199 65.4038 55.7213C65.3198 55.4133 65.1891 55.1333 65.0118 54.8813C64.8344 54.6293 64.6104 54.4286 64.3398 54.2793C64.0691 54.1299 63.7564 54.0553 63.4018 54.0553ZM75.2495 60.8873H73.7935V63.1553H72.6035V60.8873H67.8155V59.8373L72.5195 53.1033H73.7935V59.7813H75.2495V60.8873ZM72.6035 56.6313C72.6035 56.3886 72.6035 56.1693 72.6035 55.9733C72.6128 55.7679 72.6222 55.5766 72.6315 55.3993C72.6408 55.2219 72.6455 55.0539 72.6455 54.8953C72.6548 54.7273 72.6642 54.5686 72.6735 54.4193H72.6175C72.5428 54.5966 72.4495 54.7879 72.3375 54.9933C72.2255 55.1986 72.1182 55.3713 72.0155 55.5113L69.0195 59.7813H72.6035V56.6313ZM76.3032 58.8853C76.3032 58.3066 76.3405 57.7373 76.4152 57.1773C76.4992 56.6173 76.6392 56.0899 76.8352 55.5953C77.0312 55.0913 77.3019 54.6479 77.6472 54.2653C77.9925 53.8733 78.4265 53.5699 78.9492 53.3553C79.4812 53.1313 80.1252 53.0193 80.8812 53.0193C81.0772 53.0193 81.2919 53.0286 81.5252 53.0473C81.7679 53.0659 81.9639 53.0986 82.1132 53.1453V54.1953C81.9452 54.1393 81.7539 54.0973 81.5392 54.0693C81.3339 54.0413 81.1239 54.0273 80.9092 54.0273C80.2652 54.0273 79.7285 54.1346 79.2992 54.3493C78.8699 54.5639 78.5292 54.8579 78.2772 55.2313C78.0345 55.6046 77.8572 56.0339 77.7452 56.5193C77.6332 57.0046 77.5632 57.5226 77.5352 58.0733H77.6192C77.7592 57.8493 77.9365 57.6486 78.1512 57.4713C78.3659 57.2939 78.6225 57.1539 78.9212 57.0513C79.2292 56.9486 79.5839 56.8973 79.9852 56.8973C80.5639 56.8973 81.0679 57.0186 81.4972 57.2613C81.9359 57.4946 82.2765 57.8399 82.5192 58.2973C82.7619 58.7453 82.8832 59.2913 82.8832 59.9353C82.8832 60.6259 82.7525 61.2233 82.4912 61.7273C82.2299 62.2313 81.8612 62.6186 81.3852 62.8893C80.9185 63.1599 80.3585 63.2953 79.7052 63.2953C79.2292 63.2953 78.7859 63.2066 78.3752 63.0293C77.9645 62.8519 77.6005 62.5813 77.2832 62.2173C76.9752 61.8533 76.7325 61.3959 76.5552 60.8453C76.3872 60.2853 76.3032 59.6319 76.3032 58.8853ZM79.6912 62.2593C80.2792 62.2593 80.7552 62.0726 81.1192 61.6993C81.4832 61.3166 81.6652 60.7286 81.6652 59.9353C81.6652 59.3006 81.5019 58.7966 81.1752 58.4233C80.8579 58.0499 80.3772 57.8633 79.7332 57.8633C79.2945 57.8633 78.9119 57.9566 78.5852 58.1433C78.2585 58.3206 78.0019 58.5493 77.8152 58.8293C77.6379 59.1093 77.5492 59.3986 77.5492 59.6973C77.5492 60.0053 77.5912 60.3086 77.6752 60.6073C77.7685 60.9059 77.9039 61.1813 78.0812 61.4333C78.2679 61.6853 78.4919 61.8859 78.7532 62.0353C79.0239 62.1846 79.3365 62.2593 79.6912 62.2593ZM84.1049 59.9493V58.8573H87.4929V59.9493H84.1049ZM91.9066 57.0233C92.588 57.0233 93.1806 57.1399 93.6846 57.3733C94.1886 57.6066 94.576 57.9426 94.8466 58.3813C95.1266 58.8106 95.2666 59.3379 95.2666 59.9633C95.2666 60.6539 95.1173 61.2513 94.8186 61.7553C94.52 62.2499 94.0906 62.6326 93.5306 62.9033C92.98 63.1646 92.3126 63.2953 91.5286 63.2953C91.0153 63.2953 90.53 63.2486 90.0726 63.1553C89.6246 63.0619 89.2466 62.9266 88.9386 62.7493V61.5873C89.2746 61.7926 89.6806 61.9559 90.1566 62.0773C90.642 62.1893 91.104 62.2453 91.5426 62.2453C92.0373 62.2453 92.4666 62.1706 92.8306 62.0213C93.204 61.8626 93.4933 61.6246 93.6986 61.3073C93.904 60.9806 94.0066 60.5746 94.0066 60.0893C94.0066 59.4359 93.806 58.9366 93.4046 58.5913C93.0033 58.2366 92.3686 58.0593 91.5006 58.0593C91.2393 58.0593 90.9406 58.0826 90.6046 58.1293C90.2686 58.1759 89.998 58.2226 89.7926 58.2693L89.1766 57.8773L89.5546 53.1593H94.5666V54.2793H90.6046L90.3666 57.1773C90.5253 57.1493 90.74 57.1166 91.0106 57.0793C91.2813 57.0419 91.58 57.0233 91.9066 57.0233ZM100.058 53.0193C100.646 53.0193 101.164 53.1126 101.612 53.2993C102.06 53.4766 102.41 53.7426 102.662 54.0973C102.924 54.4519 103.054 54.8906 103.054 55.4133C103.054 55.8146 102.966 56.1646 102.788 56.4633C102.62 56.7619 102.392 57.0279 102.102 57.2613C101.813 57.4853 101.496 57.6859 101.15 57.8633C101.561 58.0593 101.934 58.2833 102.27 58.5353C102.606 58.7779 102.872 59.0626 103.068 59.3893C103.274 59.7159 103.376 60.1079 103.376 60.5653C103.376 61.1253 103.241 61.6106 102.97 62.0213C102.7 62.4226 102.317 62.7353 101.822 62.9593C101.337 63.1833 100.763 63.2953 100.1 63.2953C99.3817 63.2953 98.7704 63.1879 98.2664 62.9733C97.7717 62.7586 97.3937 62.4553 97.1324 62.0633C96.8804 61.6619 96.7544 61.1766 96.7544 60.6073C96.7544 60.1499 96.8477 59.7533 97.0344 59.4173C97.2304 59.0813 97.487 58.7919 97.8044 58.5493C98.1217 58.3066 98.4624 58.1013 98.8264 57.9333C98.4997 57.7466 98.201 57.5366 97.9304 57.3033C97.669 57.0606 97.459 56.7853 97.3004 56.4773C97.151 56.1693 97.0764 55.8099 97.0764 55.3993C97.0764 54.8859 97.207 54.4566 97.4684 54.1113C97.7297 53.7566 98.0844 53.4859 98.5324 53.2993C98.9804 53.1126 99.489 53.0193 100.058 53.0193ZM97.9584 60.6213C97.9584 61.1066 98.131 61.5126 98.4764 61.8393C98.8217 62.1566 99.3537 62.3153 100.072 62.3153C100.53 62.3153 100.912 62.2406 101.22 62.0913C101.528 61.9419 101.762 61.7366 101.92 61.4753C102.088 61.2139 102.172 60.9153 102.172 60.5793C102.172 60.2526 102.084 59.9679 101.906 59.7253C101.738 59.4733 101.496 59.2493 101.178 59.0533C100.87 58.8573 100.502 58.6799 100.072 58.5213L99.8484 58.4373C99.4377 58.6146 99.0924 58.8059 98.8124 59.0113C98.5324 59.2166 98.3177 59.4499 98.1684 59.7113C98.0284 59.9726 97.9584 60.2759 97.9584 60.6213ZM100.044 54.0133C99.531 54.0133 99.1064 54.1393 98.7704 54.3913C98.4437 54.6339 98.2804 54.9886 98.2804 55.4553C98.2804 55.8006 98.3597 56.0899 98.5184 56.3233C98.6864 56.5566 98.9104 56.7573 99.1904 56.9253C99.4704 57.0839 99.7784 57.2379 100.114 57.3873C100.441 57.2473 100.73 57.0933 100.982 56.9253C101.244 56.7573 101.449 56.5566 101.598 56.3233C101.757 56.0806 101.836 55.7913 101.836 55.4553C101.836 54.9886 101.673 54.6339 101.346 54.3913C101.02 54.1393 100.586 54.0133 100.044 54.0133ZM111.36 63.1553H104.752V62.1333L107.37 59.4873C107.874 58.9833 108.299 58.5353 108.644 58.1433C108.989 57.7513 109.251 57.3686 109.428 56.9953C109.605 56.6126 109.694 56.1973 109.694 55.7493C109.694 55.1986 109.531 54.7833 109.204 54.5033C108.877 54.2139 108.453 54.0693 107.93 54.0693C107.445 54.0693 107.015 54.1533 106.642 54.3213C106.278 54.4893 105.905 54.7226 105.522 55.0213L104.864 54.1953C105.125 53.9713 105.41 53.7706 105.718 53.5933C106.035 53.4159 106.376 53.2759 106.74 53.1733C107.113 53.0706 107.51 53.0193 107.93 53.0193C108.555 53.0193 109.092 53.1266 109.54 53.3413C109.988 53.5559 110.333 53.8639 110.576 54.2653C110.828 54.6573 110.954 55.1286 110.954 55.6793C110.954 56.0713 110.893 56.4446 110.772 56.7993C110.651 57.1446 110.478 57.4853 110.254 57.8213C110.03 58.1573 109.759 58.4979 109.442 58.8433C109.125 59.1886 108.775 59.5479 108.392 59.9213L106.306 61.9793V62.0353H111.36V63.1553ZM119.414 58.1433C119.414 58.9553 119.353 59.6786 119.232 60.3133C119.11 60.9479 118.914 61.4893 118.644 61.9373C118.382 62.3759 118.037 62.7119 117.608 62.9453C117.188 63.1786 116.679 63.2953 116.082 63.2953C115.335 63.2953 114.714 63.0899 114.22 62.6793C113.734 62.2686 113.37 61.6806 113.128 60.9153C112.894 60.1406 112.778 59.2166 112.778 58.1433C112.778 57.0606 112.885 56.1366 113.1 55.3713C113.324 54.6059 113.678 54.0226 114.164 53.6213C114.649 53.2106 115.288 53.0053 116.082 53.0053C116.828 53.0053 117.449 53.2106 117.944 53.6213C118.438 54.0226 118.807 54.6059 119.05 55.3713C119.292 56.1366 119.414 57.0606 119.414 58.1433ZM114.01 58.1433C114.01 59.0579 114.075 59.8186 114.206 60.4253C114.346 61.0319 114.565 61.4893 114.864 61.7973C115.172 62.0959 115.578 62.2453 116.082 62.2453C116.586 62.2453 116.987 62.0959 117.286 61.7973C117.594 61.4986 117.818 61.0459 117.958 60.4393C118.098 59.8233 118.168 59.0579 118.168 58.1433C118.168 57.2286 118.098 56.4726 117.958 55.8753C117.818 55.2686 117.594 54.8159 117.286 54.5173C116.987 54.2093 116.586 54.0553 116.082 54.0553C115.578 54.0553 115.172 54.2093 114.864 54.5173C114.565 54.8159 114.346 55.2686 114.206 55.8753C114.075 56.4726 114.01 57.2286 114.01 58.1433ZM125.172 53.1593L121.448 63.1553H120.244L123.968 53.1593H125.172ZM131.567 63.1553H130.307V53.1593H135.893V54.2653H131.567V57.8073H135.627V58.9133H131.567V63.1553ZM143.566 63.1553L142.362 60.0613H138.4L137.21 63.1553H135.936L139.842 53.1173H140.976L144.868 63.1553H143.566ZM140.864 55.9173C140.836 55.8426 140.789 55.7073 140.724 55.5113C140.658 55.3153 140.593 55.1146 140.528 54.9093C140.472 54.6946 140.425 54.5313 140.388 54.4193C140.341 54.6059 140.29 54.7973 140.234 54.9933C140.187 55.1799 140.136 55.3526 140.08 55.5113C140.033 55.6699 139.991 55.8053 139.954 55.9173L138.82 58.9413H141.984L140.864 55.9173ZM153.025 63.1553H151.597L148.951 58.8153L146.263 63.1553H144.933L148.251 57.9473L145.143 53.1593H146.543L148.993 57.0793L151.457 53.1593H152.787L149.693 57.9193L153.025 63.1553ZM154.088 62.3993C154.088 62.0539 154.172 61.8113 154.34 61.6713C154.508 61.5313 154.709 61.4613 154.942 61.4613C155.185 61.4613 155.39 61.5313 155.558 61.6713C155.735 61.8113 155.824 62.0539 155.824 62.3993C155.824 62.7353 155.735 62.9779 155.558 63.1273C155.39 63.2766 155.185 63.3513 154.942 63.3513C154.709 63.3513 154.508 63.2766 154.34 63.1273C154.172 62.9779 154.088 62.7353 154.088 62.3993ZM154.088 56.4073C154.088 56.0526 154.172 55.8053 154.34 55.6653C154.508 55.5253 154.709 55.4553 154.942 55.4553C155.185 55.4553 155.39 55.5253 155.558 55.6653C155.735 55.8053 155.824 56.0526 155.824 56.4073C155.824 56.7433 155.735 56.9859 155.558 57.1353C155.39 57.2846 155.185 57.3593 154.942 57.3593C154.709 57.3593 154.508 57.2846 154.34 57.1353C154.172 56.9859 154.088 56.7433 154.088 56.4073ZM167.785 58.1433C167.785 58.9553 167.724 59.6786 167.603 60.3133C167.482 60.9479 167.286 61.4893 167.015 61.9373C166.754 62.3759 166.408 62.7119 165.979 62.9453C165.559 63.1786 165.05 63.2953 164.453 63.2953C163.706 63.2953 163.086 63.0899 162.591 62.6793C162.106 62.2686 161.742 61.6806 161.499 60.9153C161.266 60.1406 161.149 59.2166 161.149 58.1433C161.149 57.0606 161.256 56.1366 161.471 55.3713C161.695 54.6059 162.05 54.0226 162.535 53.6213C163.02 53.2106 163.66 53.0053 164.453 53.0053C165.2 53.0053 165.82 53.2106 166.315 53.6213C166.81 54.0226 167.178 54.6059 167.421 55.3713C167.664 56.1366 167.785 57.0606 167.785 58.1433ZM162.381 58.1433C162.381 59.0579 162.446 59.8186 162.577 60.4253C162.717 61.0319 162.936 61.4893 163.235 61.7973C163.543 62.0959 163.949 62.2453 164.453 62.2453C164.957 62.2453 165.358 62.0959 165.657 61.7973C165.965 61.4986 166.189 61.0459 166.329 60.4393C166.469 59.8233 166.539 59.0579 166.539 58.1433C166.539 57.2286 166.469 56.4726 166.329 55.8753C166.189 55.2686 165.965 54.8159 165.657 54.5173C165.358 54.2093 164.957 54.0553 164.453 54.0553C163.949 54.0553 163.543 54.2093 163.235 54.5173C162.936 54.8159 162.717 55.2686 162.577 55.8753C162.446 56.4726 162.381 57.2286 162.381 58.1433ZM169.245 58.8853C169.245 58.3066 169.282 57.7373 169.357 57.1773C169.441 56.6173 169.581 56.0899 169.777 55.5953C169.973 55.0913 170.243 54.6479 170.589 54.2653C170.934 53.8733 171.368 53.5699 171.891 53.3553C172.423 53.1313 173.067 53.0193 173.823 53.0193C174.019 53.0193 174.233 53.0286 174.467 53.0473C174.709 53.0659 174.905 53.0986 175.055 53.1453V54.1953C174.887 54.1393 174.695 54.0973 174.481 54.0693C174.275 54.0413 174.065 54.0273 173.851 54.0273C173.207 54.0273 172.67 54.1346 172.241 54.3493C171.811 54.5639 171.471 54.8579 171.219 55.2313C170.976 55.6046 170.799 56.0339 170.687 56.5193C170.575 57.0046 170.505 57.5226 170.477 58.0733H170.561C170.701 57.8493 170.878 57.6486 171.093 57.4713C171.307 57.2939 171.564 57.1539 171.863 57.0513C172.171 56.9486 172.525 56.8973 172.927 56.8973C173.505 56.8973 174.009 57.0186 174.439 57.2613C174.877 57.4946 175.218 57.8399 175.461 58.2973C175.703 58.7453 175.825 59.2913 175.825 59.9353C175.825 60.6259 175.694 61.2233 175.433 61.7273C175.171 62.2313 174.803 62.6186 174.327 62.8893C173.86 63.1599 173.3 63.2953 172.647 63.2953C172.171 63.2953 171.727 63.2066 171.317 63.0293C170.906 62.8519 170.542 62.5813 170.225 62.2173C169.917 61.8533 169.674 61.3959 169.497 60.8453C169.329 60.2853 169.245 59.6319 169.245 58.8853ZM172.633 62.2593C173.221 62.2593 173.697 62.0726 174.061 61.6993C174.425 61.3166 174.607 60.7286 174.607 59.9353C174.607 59.3006 174.443 58.7966 174.117 58.4233C173.799 58.0499 173.319 57.8633 172.675 57.8633C172.236 57.8633 171.853 57.9566 171.527 58.1433C171.2 58.3206 170.943 58.5493 170.757 58.8293C170.579 59.1093 170.491 59.3986 170.491 59.6973C170.491 60.0053 170.533 60.3086 170.617 60.6073C170.71 60.9059 170.845 61.1813 171.023 61.4333C171.209 61.6853 171.433 61.8859 171.695 62.0353C171.965 62.1846 172.278 62.2593 172.633 62.2593ZM177.046 59.9493V58.8573H180.434V59.9493H177.046ZM182.902 63.1553L187.004 54.2793H181.614V53.1593H188.32V54.1113L184.26 63.1553H182.902ZM189.78 58.8853C189.78 58.3066 189.817 57.7373 189.892 57.1773C189.976 56.6173 190.116 56.0899 190.312 55.5953C190.508 55.0913 190.778 54.6479 191.124 54.2653C191.469 53.8733 191.903 53.5699 192.426 53.3553C192.958 53.1313 193.602 53.0193 194.358 53.0193C194.554 53.0193 194.768 53.0286 195.002 53.0473C195.244 53.0659 195.44 53.0986 195.59 53.1453V54.1953C195.422 54.1393 195.23 54.0973 195.016 54.0693C194.81 54.0413 194.6 54.0273 194.386 54.0273C193.742 54.0273 193.205 54.1346 192.776 54.3493C192.346 54.5639 192.006 54.8579 191.754 55.2313C191.511 55.6046 191.334 56.0339 191.222 56.5193C191.11 57.0046 191.04 57.5226 191.012 58.0733H191.096C191.236 57.8493 191.413 57.6486 191.628 57.4713C191.842 57.2939 192.099 57.1539 192.398 57.0513C192.706 56.9486 193.06 56.8973 193.462 56.8973C194.04 56.8973 194.544 57.0186 194.974 57.2613C195.412 57.4946 195.753 57.8399 195.996 58.2973C196.238 58.7453 196.36 59.2913 196.36 59.9353C196.36 60.6259 196.229 61.2233 195.968 61.7273C195.706 62.2313 195.338 62.6186 194.862 62.8893C194.395 63.1599 193.835 63.2953 193.182 63.2953C192.706 63.2953 192.262 63.2066 191.852 63.0293C191.441 62.8519 191.077 62.5813 190.76 62.2173C190.452 61.8533 190.209 61.3959 190.032 60.8453C189.864 60.2853 189.78 59.6319 189.78 58.8853ZM193.168 62.2593C193.756 62.2593 194.232 62.0726 194.596 61.6993C194.96 61.3166 195.142 60.7286 195.142 59.9353C195.142 59.3006 194.978 58.7966 194.652 58.4233C194.334 58.0499 193.854 57.8633 193.21 57.8633C192.771 57.8633 192.388 57.9566 192.062 58.1433C191.735 58.3206 191.478 58.5493 191.292 58.8293C191.114 59.1093 191.026 59.3986 191.026 59.6973C191.026 60.0053 191.068 60.3086 191.152 60.6073C191.245 60.9059 191.38 61.1813 191.558 61.4333C191.744 61.6853 191.968 61.8859 192.23 62.0353C192.5 62.1846 192.813 62.2593 193.168 62.2593ZM203.923 55.4973C203.923 55.9453 203.839 56.3326 203.671 56.6593C203.503 56.9859 203.261 57.2519 202.943 57.4573C202.635 57.6626 202.271 57.8073 201.851 57.8913V57.9473C202.654 58.0406 203.251 58.2926 203.643 58.7033C204.035 59.1139 204.231 59.6506 204.231 60.3133C204.231 60.8919 204.096 61.4099 203.825 61.8673C203.555 62.3153 203.135 62.6653 202.565 62.9173C202.005 63.1693 201.282 63.2953 200.395 63.2953C199.873 63.2953 199.387 63.2533 198.939 63.1693C198.491 63.0946 198.062 62.9546 197.651 62.7493V61.6013C198.071 61.8066 198.524 61.9699 199.009 62.0913C199.495 62.2033 199.961 62.2593 200.409 62.2593C201.305 62.2593 201.949 62.0866 202.341 61.7413C202.743 61.3866 202.943 60.9013 202.943 60.2853C202.943 59.8653 202.831 59.5293 202.607 59.2773C202.393 59.0159 202.075 58.8246 201.655 58.7033C201.235 58.5819 200.731 58.5213 200.143 58.5213H199.177V57.4713H200.157C200.708 57.4713 201.165 57.3919 201.529 57.2333C201.903 57.0746 202.183 56.8553 202.369 56.5753C202.565 56.2859 202.663 55.9546 202.663 55.5813C202.663 55.0959 202.5 54.7226 202.173 54.4613C201.847 54.1906 201.403 54.0553 200.843 54.0553C200.489 54.0553 200.167 54.0926 199.877 54.1673C199.588 54.2326 199.317 54.3306 199.065 54.4613C198.823 54.5826 198.575 54.7273 198.323 54.8953L197.707 54.0553C197.95 53.8686 198.225 53.6959 198.533 53.5373C198.851 53.3786 199.201 53.2526 199.583 53.1593C199.966 53.0659 200.381 53.0193 200.829 53.0193C201.875 53.0193 202.649 53.2526 203.153 53.7193C203.667 54.1859 203.923 54.7786 203.923 55.4973ZM208.883 57.0233C209.565 57.0233 210.157 57.1399 210.661 57.3733C211.165 57.6066 211.553 57.9426 211.823 58.3813C212.103 58.8106 212.243 59.3379 212.243 59.9633C212.243 60.6539 212.094 61.2513 211.795 61.7553C211.497 62.2499 211.067 62.6326 210.507 62.9033C209.957 63.1646 209.289 63.2953 208.505 63.2953C207.992 63.2953 207.507 63.2486 207.049 63.1553C206.601 63.0619 206.223 62.9266 205.915 62.7493V61.5873C206.251 61.7926 206.657 61.9559 207.133 62.0773C207.619 62.1893 208.081 62.2453 208.519 62.2453C209.014 62.2453 209.443 62.1706 209.807 62.0213C210.181 61.8626 210.47 61.6246 210.675 61.3073C210.881 60.9806 210.983 60.5746 210.983 60.0893C210.983 59.4359 210.783 58.9366 210.381 58.5913C209.98 58.2366 209.345 58.0593 208.477 58.0593C208.216 58.0593 207.917 58.0826 207.581 58.1293C207.245 58.1759 206.975 58.2226 206.769 58.2693L206.153 57.8773L206.531 53.1593H211.543V54.2793H207.581L207.343 57.1773C207.502 57.1493 207.717 57.1166 207.987 57.0793C208.258 57.0419 208.557 57.0233 208.883 57.0233ZM213.605 59.9493V58.8573H216.993V59.9493H213.605ZM221.547 53.0193C222.135 53.0193 222.653 53.1126 223.101 53.2993C223.549 53.4766 223.899 53.7426 224.151 54.0973C224.412 54.4519 224.543 54.8906 224.543 55.4133C224.543 55.8146 224.454 56.1646 224.277 56.4633C224.109 56.7619 223.88 57.0279 223.591 57.2613C223.301 57.4853 222.984 57.6859 222.639 57.8633C223.049 58.0593 223.423 58.2833 223.759 58.5353C224.095 58.7779 224.361 59.0626 224.557 59.3893C224.762 59.7159 224.865 60.1079 224.865 60.5653C224.865 61.1253 224.729 61.6106 224.459 62.0213C224.188 62.4226 223.805 62.7353 223.311 62.9593C222.825 63.1833 222.251 63.2953 221.589 63.2953C220.87 63.2953 220.259 63.1879 219.755 62.9733C219.26 62.7586 218.882 62.4553 218.621 62.0633C218.369 61.6619 218.243 61.1766 218.243 60.6073C218.243 60.1499 218.336 59.7533 218.523 59.4173C218.719 59.0813 218.975 58.7919 219.293 58.5493C219.61 58.3066 219.951 58.1013 220.315 57.9333C219.988 57.7466 219.689 57.5366 219.419 57.3033C219.157 57.0606 218.947 56.7853 218.789 56.4773C218.639 56.1693 218.565 55.8099 218.565 55.3993C218.565 54.8859 218.695 54.4566 218.957 54.1113C219.218 53.7566 219.573 53.4859 220.021 53.2993C220.469 53.1126 220.977 53.0193 221.547 53.0193ZM219.447 60.6213C219.447 61.1066 219.619 61.5126 219.965 61.8393C220.31 62.1566 220.842 62.3153 221.561 62.3153C222.018 62.3153 222.401 62.2406 222.709 62.0913C223.017 61.9419 223.25 61.7366 223.409 61.4753C223.577 61.2139 223.661 60.9153 223.661 60.5793C223.661 60.2526 223.572 59.9679 223.395 59.7253C223.227 59.4733 222.984 59.2493 222.667 59.0533C222.359 58.8573 221.99 58.6799 221.561 58.5213L221.337 58.4373C220.926 58.6146 220.581 58.8059 220.301 59.0113C220.021 59.2166 219.806 59.4499 219.657 59.7113C219.517 59.9726 219.447 60.2759 219.447 60.6213ZM221.533 54.0133C221.019 54.0133 220.595 54.1393 220.259 54.3913C219.932 54.6339 219.769 54.9886 219.769 55.4553C219.769 55.8006 219.848 56.0899 220.007 56.3233C220.175 56.5566 220.399 56.7573 220.679 56.9253C220.959 57.0839 221.267 57.2379 221.603 57.3873C221.929 57.2473 222.219 57.0933 222.471 56.9253C222.732 56.7573 222.937 56.5566 223.087 56.3233C223.245 56.0806 223.325 55.7913 223.325 55.4553C223.325 54.9886 223.161 54.6339 222.835 54.3913C222.508 54.1393 222.074 54.0133 221.533 54.0133ZM232.89 58.1433C232.89 58.9553 232.83 59.6786 232.708 60.3133C232.587 60.9479 232.391 61.4893 232.12 61.9373C231.859 62.3759 231.514 62.7119 231.084 62.9453C230.664 63.1786 230.156 63.2953 229.558 63.2953C228.812 63.2953 228.191 63.0899 227.696 62.6793C227.211 62.2686 226.847 61.6806 226.604 60.9153C226.371 60.1406 226.254 59.2166 226.254 58.1433C226.254 57.0606 226.362 56.1366 226.576 55.3713C226.8 54.6059 227.155 54.0226 227.64 53.6213C228.126 53.2106 228.765 53.0053 229.558 53.0053C230.305 53.0053 230.926 53.2106 231.42 53.6213C231.915 54.0226 232.284 54.6059 232.526 55.3713C232.769 56.1366 232.89 57.0606 232.89 58.1433ZM227.486 58.1433C227.486 59.0579 227.552 59.8186 227.682 60.4253C227.822 61.0319 228.042 61.4893 228.34 61.7973C228.648 62.0959 229.054 62.2453 229.558 62.2453C230.062 62.2453 230.464 62.0959 230.762 61.7973C231.07 61.4986 231.294 61.0459 231.434 60.4393C231.574 59.8233 231.644 59.0579 231.644 58.1433C231.644 57.2286 231.574 56.4726 231.434 55.8753C231.294 55.2686 231.07 54.8159 230.762 54.5173C230.464 54.2093 230.062 54.0553 229.558 54.0553C229.054 54.0553 228.648 54.2093 228.34 54.5173C228.042 54.8159 227.822 55.2686 227.682 55.8753C227.552 56.4726 227.486 57.2286 227.486 58.1433ZM235.484 63.1553L239.586 54.2793H234.196V53.1593H240.902V54.1113L236.842 63.1553H235.484ZM245.442 57.0233C246.123 57.0233 246.716 57.1399 247.22 57.3733C247.724 57.6066 248.111 57.9426 248.382 58.3813C248.662 58.8106 248.802 59.3379 248.802 59.9633C248.802 60.6539 248.652 61.2513 248.354 61.7553C248.055 62.2499 247.626 62.6326 247.066 62.9033C246.515 63.1646 245.848 63.2953 245.064 63.2953C244.55 63.2953 244.065 63.2486 243.608 63.1553C243.16 63.0619 242.782 62.9266 242.474 62.7493V61.5873C242.81 61.7926 243.216 61.9559 243.692 62.0773C244.177 62.1893 244.639 62.2453 245.078 62.2453C245.572 62.2453 246.002 62.1706 246.366 62.0213C246.739 61.8626 247.028 61.6246 247.234 61.3073C247.439 60.9806 247.542 60.5746 247.542 60.0893C247.542 59.4359 247.341 58.9366 246.94 58.5913C246.538 58.2366 245.904 58.0593 245.036 58.0593C244.774 58.0593 244.476 58.0826 244.14 58.1293C243.804 58.1759 243.533 58.2226 243.328 58.2693L242.712 57.8773L243.09 53.1593H248.102V54.2793H244.14L243.902 57.1773C244.06 57.1493 244.275 57.1166 244.546 57.0793C244.816 57.0419 245.115 57.0233 245.442 57.0233ZM6.44769 87.1553L3.15769 78.3913H3.10169C3.12035 78.5779 3.13435 78.8159 3.14369 79.1053C3.16235 79.3946 3.17635 79.7119 3.18569 80.0573C3.19502 80.3933 3.19969 80.7386 3.19969 81.0933V87.1553H2.03769V77.1593H3.89969L6.97969 85.3493H7.03569L10.1717 77.1593H12.0197V87.1553H10.7737V81.0093C10.7737 80.6826 10.7784 80.3606 10.7877 80.0433C10.797 79.7166 10.811 79.4133 10.8297 79.1333C10.8484 78.8439 10.8624 78.6013 10.8717 78.4053H10.8157L7.48369 87.1553H6.44769ZM21.0109 87.1553L19.8069 84.0613H15.8449L14.6549 87.1553H13.3809L17.2869 77.1173H18.4209L22.3129 87.1553H21.0109ZM18.3089 79.9173C18.2809 79.8426 18.2342 79.7073 18.1689 79.5113C18.1035 79.3153 18.0382 79.1146 17.9729 78.9093C17.9169 78.6946 17.8702 78.5313 17.8329 78.4193C17.7862 78.6059 17.7349 78.7973 17.6789 78.9933C17.6322 79.1799 17.5809 79.3526 17.5249 79.5113C17.4782 79.6699 17.4362 79.8053 17.3989 79.9173L16.2649 82.9413H19.4289L18.3089 79.9173ZM26.4943 87.1553H22.8823V86.4273L24.0583 86.1613V78.1673L22.8823 77.8873V77.1593H26.4943V77.8873L25.3183 78.1673V86.1613L26.4943 86.4273V87.1553ZM28.4244 87.1553V77.1593H29.6844V86.0353H34.0524V87.1553H28.4244ZM35.4162 86.3993C35.4162 86.0539 35.5002 85.8113 35.6682 85.6713C35.8362 85.5313 36.0369 85.4613 36.2702 85.4613C36.5129 85.4613 36.7182 85.5313 36.8862 85.6713C37.0635 85.8113 37.1522 86.0539 37.1522 86.3993C37.1522 86.7353 37.0635 86.9779 36.8862 87.1273C36.7182 87.2766 36.5129 87.3513 36.2702 87.3513C36.0369 87.3513 35.8362 87.2766 35.6682 87.1273C35.5002 86.9779 35.4162 86.7353 35.4162 86.3993ZM35.4162 80.4073C35.4162 80.0526 35.5002 79.8053 35.6682 79.6653C35.8362 79.5253 36.0369 79.4553 36.2702 79.4553C36.5129 79.4553 36.7182 79.5253 36.8862 79.6653C37.0635 79.8053 37.1522 80.0526 37.1522 80.4073C37.1522 80.7433 37.0635 80.9859 36.8862 81.1353C36.7182 81.2846 36.5129 81.3593 36.2702 81.3593C36.0369 81.3593 35.8362 81.2846 35.6682 81.1353C35.5002 80.9859 35.4162 80.7433 35.4162 80.4073ZM47.867 85.0833C47.867 85.5686 47.7457 85.9746 47.503 86.3013C47.2603 86.6279 46.915 86.8753 46.467 87.0433C46.019 87.2113 45.487 87.2953 44.871 87.2953C44.3483 87.2953 43.8957 87.2533 43.513 87.1693C43.1397 87.0853 42.8083 86.9686 42.519 86.8193V85.6993C42.8177 85.8486 43.177 85.9886 43.597 86.1193C44.0263 86.2406 44.4603 86.3013 44.899 86.3013C45.5243 86.3013 45.977 86.2033 46.257 86.0073C46.537 85.8019 46.677 85.5313 46.677 85.1953C46.677 85.0086 46.6257 84.8406 46.523 84.6913C46.4203 84.5419 46.2337 84.3926 45.963 84.2433C45.7017 84.0939 45.3237 83.9259 44.829 83.7393C44.3437 83.5526 43.9283 83.3659 43.583 83.1793C43.2377 82.9926 42.9717 82.7686 42.785 82.5073C42.5983 82.2459 42.505 81.9099 42.505 81.4993C42.505 80.8646 42.7617 80.3746 43.275 80.0293C43.7977 79.6839 44.479 79.5113 45.319 79.5113C45.7763 79.5113 46.201 79.5579 46.593 79.6513C46.9943 79.7353 47.3677 79.8566 47.713 80.0153L47.293 80.9953C47.0877 80.9019 46.8683 80.8226 46.635 80.7573C46.411 80.6826 46.1823 80.6266 45.949 80.5893C45.7157 80.5426 45.4777 80.5193 45.235 80.5193C44.731 80.5193 44.3437 80.6033 44.073 80.7713C43.8117 80.9299 43.681 81.1493 43.681 81.4293C43.681 81.6346 43.7417 81.8119 43.863 81.9613C43.9843 82.1013 44.185 82.2413 44.465 82.3813C44.7543 82.5119 45.137 82.6706 45.613 82.8573C46.089 83.0346 46.495 83.2166 46.831 83.4033C47.167 83.5899 47.4237 83.8186 47.601 84.0893C47.7783 84.3506 47.867 84.6819 47.867 85.0833ZM52.5782 79.5113C53.2222 79.5113 53.7729 79.6513 54.2302 79.9313C54.6969 80.2113 55.0516 80.6079 55.2942 81.1213C55.5462 81.6253 55.6722 82.2179 55.6722 82.8993V83.6413H50.5342C50.5529 84.4906 50.7676 85.1393 51.1782 85.5873C51.5982 86.0259 52.1816 86.2453 52.9282 86.2453C53.4042 86.2453 53.8242 86.2033 54.1882 86.1193C54.5616 86.0259 54.9442 85.8953 55.3362 85.7273V86.8053C54.9536 86.9733 54.5756 87.0946 54.2022 87.1693C53.8289 87.2533 53.3856 87.2953 52.8722 87.2953C52.1629 87.2953 51.5329 87.1506 50.9822 86.8613C50.4409 86.5719 50.0162 86.1426 49.7082 85.5733C49.4096 84.9946 49.2602 84.2899 49.2602 83.4593C49.2602 82.6379 49.3956 81.9333 49.6662 81.3453C49.9462 80.7573 50.3336 80.3046 50.8282 79.9873C51.3322 79.6699 51.9156 79.5113 52.5782 79.5113ZM52.5642 80.5193C51.9762 80.5193 51.5096 80.7106 51.1642 81.0933C50.8282 81.4666 50.6276 81.9893 50.5622 82.6613H54.3842C54.3842 82.2319 54.3189 81.8586 54.1882 81.5413C54.0576 81.2239 53.8569 80.9766 53.5862 80.7993C53.3249 80.6126 52.9842 80.5193 52.5642 80.5193ZM61.0826 79.5113C61.2226 79.5113 61.3719 79.5206 61.5306 79.5393C61.6986 79.5486 61.8432 79.5673 61.9646 79.5953L61.8106 80.7293C61.6892 80.7013 61.5539 80.6779 61.4046 80.6593C61.2646 80.6406 61.1292 80.6313 60.9986 80.6313C60.7092 80.6313 60.4339 80.6919 60.1726 80.8133C59.9112 80.9346 59.6779 81.1073 59.4726 81.3313C59.2672 81.5459 59.1039 81.8073 58.9826 82.1153C58.8706 82.4233 58.8146 82.7686 58.8146 83.1513V87.1553H57.5826V79.6513H58.5906L58.7306 81.0233H58.7866C58.9452 80.7433 59.1366 80.4913 59.3606 80.2673C59.5846 80.0339 59.8412 79.8519 60.1306 79.7213C60.4199 79.5813 60.7372 79.5113 61.0826 79.5113ZM65.0178 87.1553L62.1758 79.6513H63.4918L65.0878 84.0753C65.1624 84.2806 65.2418 84.5093 65.3258 84.7613C65.4098 85.0133 65.4844 85.2559 65.5498 85.4893C65.6151 85.7133 65.6618 85.9046 65.6898 86.0633H65.7458C65.7831 85.9046 65.8344 85.7086 65.8998 85.4753C65.9744 85.2419 66.0538 84.9993 66.1378 84.7473C66.2311 84.4953 66.3104 84.2713 66.3758 84.0753L67.9718 79.6513H69.2878L66.4318 87.1553H65.0178ZM71.7072 79.6513V87.1553H70.4752V79.6513H71.7072ZM71.1052 76.8373C71.2918 76.8373 71.4552 76.9026 71.5952 77.0333C71.7445 77.1546 71.8192 77.3506 71.8192 77.6213C71.8192 77.8826 71.7445 78.0786 71.5952 78.2093C71.4552 78.3399 71.2918 78.4053 71.1052 78.4053C70.8998 78.4053 70.7272 78.3399 70.5872 78.2093C70.4472 78.0786 70.3772 77.8826 70.3772 77.6213C70.3772 77.3506 70.4472 77.1546 70.5872 77.0333C70.7272 76.9026 70.8998 76.8373 71.1052 76.8373ZM77.0945 87.2953C76.4319 87.2953 75.8392 87.1599 75.3165 86.8893C74.8032 86.6186 74.3972 86.1986 74.0985 85.6293C73.8092 85.0599 73.6645 84.3319 73.6645 83.4453C73.6645 82.5213 73.8185 81.7699 74.1265 81.1913C74.4345 80.6126 74.8499 80.1879 75.3725 79.9173C75.9045 79.6466 76.5065 79.5113 77.1785 79.5113C77.5612 79.5113 77.9299 79.5533 78.2845 79.6373C78.6392 79.7119 78.9285 79.8053 79.1525 79.9173L78.7745 80.9393C78.5505 80.8553 78.2892 80.7759 77.9905 80.7013C77.6919 80.6266 77.4119 80.5893 77.1505 80.5893C76.6465 80.5893 76.2312 80.6966 75.9045 80.9113C75.5779 81.1259 75.3352 81.4433 75.1765 81.8633C75.0179 82.2833 74.9385 82.8059 74.9385 83.4313C74.9385 84.0286 75.0179 84.5373 75.1765 84.9573C75.3352 85.3773 75.5732 85.6946 75.8905 85.9093C76.2079 86.1239 76.6045 86.2313 77.0805 86.2313C77.4912 86.2313 77.8505 86.1893 78.1585 86.1053C78.4759 86.0213 78.7652 85.9186 79.0265 85.7973V86.8893C78.7745 87.0199 78.4945 87.1179 78.1865 87.1833C77.8879 87.2579 77.5239 87.2953 77.0945 87.2953ZM83.7091 79.5113C84.3531 79.5113 84.9038 79.6513 85.3611 79.9313C85.8278 80.2113 86.1824 80.6079 86.4251 81.1213C86.6771 81.6253 86.8031 82.2179 86.8031 82.8993V83.6413H81.6651C81.6838 84.4906 81.8984 85.1393 82.3091 85.5873C82.7291 86.0259 83.3124 86.2453 84.0591 86.2453C84.5351 86.2453 84.9551 86.2033 85.3191 86.1193C85.6924 86.0259 86.0751 85.8953 86.4671 85.7273V86.8053C86.0844 86.9733 85.7064 87.0946 85.3331 87.1693C84.9598 87.2533 84.5164 87.2953 84.0031 87.2953C83.2938 87.2953 82.6638 87.1506 82.1131 86.8613C81.5718 86.5719 81.1471 86.1426 80.8391 85.5733C80.5404 84.9946 80.3911 84.2899 80.3911 83.4593C80.3911 82.6379 80.5264 81.9333 80.7971 81.3453C81.0771 80.7573 81.4644 80.3046 81.9591 79.9873C82.4631 79.6699 83.0464 79.5113 83.7091 79.5113ZM83.6951 80.5193C83.1071 80.5193 82.6404 80.7106 82.2951 81.0933C81.9591 81.4666 81.7584 81.9893 81.6931 82.6613H85.5151C85.5151 82.2319 85.4498 81.8586 85.3191 81.5413C85.1884 81.2239 84.9878 80.9766 84.7171 80.7993C84.4558 80.6126 84.1151 80.5193 83.6951 80.5193ZM99.2974 82.1573C99.2974 82.5866 99.2461 83.0066 99.1434 83.4173C99.0501 83.8279 98.9008 84.2013 98.6954 84.5373C98.4901 84.8639 98.2381 85.1299 97.9394 85.3353C97.6408 85.5313 97.2861 85.6293 96.8754 85.6293C96.4461 85.6293 96.1054 85.5079 95.8534 85.2653C95.6108 85.0133 95.4614 84.7286 95.4054 84.4113H95.3354C95.1674 84.7566 94.9201 85.0459 94.5934 85.2793C94.2668 85.5126 93.8561 85.6293 93.3614 85.6293C92.6521 85.6293 92.1014 85.3913 91.7094 84.9153C91.3268 84.4393 91.1354 83.8093 91.1354 83.0253C91.1354 82.4093 91.2568 81.8679 91.4994 81.4013C91.7421 80.9253 92.0828 80.5519 92.5214 80.2813C92.9694 80.0106 93.4968 79.8753 94.1034 79.8753C94.5141 79.8753 94.9154 79.9126 95.3074 79.9873C95.7088 80.0526 96.0214 80.1273 96.2454 80.2113L96.1054 83.0533C96.0961 83.2213 96.0914 83.3426 96.0914 83.4173C96.0914 83.4826 96.0914 83.5293 96.0914 83.5573C96.0914 84.0426 96.1754 84.3646 96.3434 84.5233C96.5208 84.6819 96.7261 84.7613 96.9594 84.7613C97.2488 84.7613 97.4914 84.6446 97.6874 84.4113C97.8928 84.1686 98.0468 83.8513 98.1494 83.4593C98.2614 83.0579 98.3174 82.6193 98.3174 82.1433C98.3174 81.2753 98.1401 80.5426 97.7854 79.9453C97.4401 79.3386 96.9594 78.8766 96.3434 78.5593C95.7368 78.2419 95.0461 78.0833 94.2714 78.0833C93.4781 78.0833 92.7734 78.2093 92.1574 78.4613C91.5414 78.7133 91.0234 79.0679 90.6034 79.5253C90.1928 79.9826 89.8801 80.5239 89.6654 81.1493C89.4508 81.7653 89.3434 82.4466 89.3434 83.1933C89.3434 84.1079 89.5068 84.8873 89.8334 85.5313C90.1601 86.1659 90.6361 86.6513 91.2614 86.9873C91.8961 87.3139 92.6708 87.4773 93.5854 87.4773C94.1548 87.4773 94.6961 87.4119 95.2094 87.2813C95.7321 87.1599 96.1941 87.0246 96.5954 86.8753V87.8273C96.1941 87.9953 95.7414 88.1306 95.2374 88.2333C94.7428 88.3453 94.1921 88.4013 93.5854 88.4013C92.4841 88.4013 91.5414 88.1959 90.7574 87.7853C89.9734 87.3746 89.3714 86.7866 88.9514 86.0213C88.5408 85.2466 88.3354 84.3179 88.3354 83.2353C88.3354 82.3673 88.4708 81.5646 88.7414 80.8273C89.0121 80.0806 89.4041 79.4366 89.9174 78.8953C90.4308 78.3446 91.0514 77.9199 91.7794 77.6213C92.5168 77.3133 93.3474 77.1593 94.2714 77.1593C94.9994 77.1593 95.6668 77.2759 96.2734 77.5093C96.8894 77.7333 97.4214 78.0646 97.8694 78.5033C98.3268 78.9326 98.6768 79.4553 98.9194 80.0713C99.1714 80.6873 99.2974 81.3826 99.2974 82.1573ZM92.2274 83.0533C92.2274 83.6506 92.3441 84.0846 92.5774 84.3553C92.8201 84.6259 93.1421 84.7613 93.5434 84.7613C94.0661 84.7613 94.4394 84.5653 94.6634 84.1733C94.8968 83.7813 95.0321 83.2726 95.0694 82.6473L95.1534 80.8973C95.0321 80.8599 94.8781 80.8273 94.6914 80.7993C94.5048 80.7713 94.3134 80.7573 94.1174 80.7573C93.6601 80.7573 93.2914 80.8693 93.0114 81.0933C92.7314 81.3173 92.5308 81.6066 92.4094 81.9613C92.2881 82.3066 92.2274 82.6706 92.2274 83.0533ZM103.965 79.5113C104.46 79.5113 104.903 79.6046 105.295 79.7913C105.697 79.9779 106.037 80.2626 106.317 80.6453H106.387L106.555 79.6513H107.535V87.2813C107.535 87.9906 107.414 88.5833 107.171 89.0593C106.929 89.5446 106.56 89.9086 106.065 90.1513C105.571 90.3939 104.941 90.5153 104.175 90.5153C103.634 90.5153 103.135 90.4733 102.677 90.3893C102.229 90.3146 101.828 90.1979 101.473 90.0393V88.9053C101.716 89.0266 101.982 89.1293 102.271 89.2133C102.561 89.3066 102.873 89.3766 103.209 89.4233C103.545 89.4699 103.891 89.4933 104.245 89.4933C104.889 89.4933 105.393 89.3019 105.757 88.9193C106.131 88.5459 106.317 88.0326 106.317 87.3793V87.0853C106.317 86.9733 106.322 86.8146 106.331 86.6093C106.341 86.3946 106.35 86.2453 106.359 86.1613H106.303C106.042 86.5439 105.715 86.8286 105.323 87.0153C104.941 87.2019 104.493 87.2953 103.979 87.2953C103.009 87.2953 102.248 86.9546 101.697 86.2733C101.156 85.5919 100.885 84.6399 100.885 83.4173C100.885 82.6146 101.007 81.9239 101.249 81.3453C101.501 80.7573 101.856 80.3046 102.313 79.9873C102.771 79.6699 103.321 79.5113 103.965 79.5113ZM104.133 80.5473C103.713 80.5473 103.354 80.6593 103.055 80.8833C102.766 81.1073 102.542 81.4339 102.383 81.8633C102.234 82.2926 102.159 82.8153 102.159 83.4313C102.159 84.3553 102.327 85.0646 102.663 85.5593C103.009 86.0446 103.508 86.2873 104.161 86.2873C104.544 86.2873 104.871 86.2406 105.141 86.1473C105.412 86.0446 105.636 85.8906 105.813 85.6853C105.991 85.4706 106.121 85.1999 106.205 84.8733C106.289 84.5466 106.331 84.1593 106.331 83.7113V83.4173C106.331 82.7359 106.252 82.1853 106.093 81.7653C105.944 81.3453 105.706 81.0373 105.379 80.8413C105.053 80.6453 104.637 80.5473 104.133 80.5473ZM118.151 79.5113C119 79.5113 119.635 79.7306 120.055 80.1693C120.475 80.5986 120.685 81.2986 120.685 82.2693V87.1553H119.467V82.3253C119.467 81.7373 119.341 81.2939 119.089 80.9953C118.846 80.6966 118.463 80.5473 117.941 80.5473C117.213 80.5473 116.69 80.7573 116.373 81.1773C116.065 81.5973 115.911 82.2086 115.911 83.0113V87.1553H114.693V82.3253C114.693 81.9333 114.637 81.6066 114.525 81.3453C114.413 81.0746 114.245 80.8739 114.021 80.7433C113.797 80.6126 113.507 80.5473 113.153 80.5473C112.649 80.5473 112.252 80.6546 111.963 80.8693C111.673 81.0746 111.463 81.3779 111.333 81.7793C111.211 82.1806 111.151 82.6753 111.151 83.2633V87.1553H109.919V79.6513H110.913L111.095 80.6733H111.165C111.323 80.4119 111.515 80.1973 111.739 80.0293C111.972 79.8519 112.229 79.7213 112.509 79.6373C112.789 79.5533 113.078 79.5113 113.377 79.5113C113.955 79.5113 114.436 79.6139 114.819 79.8193C115.211 80.0246 115.495 80.3419 115.673 80.7713H115.743C115.995 80.3419 116.335 80.0246 116.765 79.8193C117.203 79.6139 117.665 79.5113 118.151 79.5113ZM125.845 79.5253C126.759 79.5253 127.436 79.7259 127.875 80.1273C128.313 80.5286 128.533 81.1679 128.533 82.0453V87.1553H127.637L127.399 86.0913H127.343C127.128 86.3619 126.904 86.5906 126.671 86.7773C126.447 86.9546 126.185 87.0853 125.887 87.1693C125.597 87.2533 125.243 87.2953 124.823 87.2953C124.375 87.2953 123.969 87.2159 123.605 87.0573C123.25 86.8986 122.97 86.6559 122.765 86.3293C122.559 85.9933 122.457 85.5733 122.457 85.0693C122.457 84.3226 122.751 83.7486 123.339 83.3473C123.927 82.9366 124.832 82.7126 126.055 82.6753L127.329 82.6333V82.1853C127.329 81.5599 127.193 81.1259 126.923 80.8833C126.652 80.6406 126.269 80.5193 125.775 80.5193C125.383 80.5193 125.009 80.5799 124.655 80.7013C124.3 80.8133 123.969 80.9439 123.66 81.0933L123.283 80.1693C123.609 79.9919 123.997 79.8426 124.445 79.7213C124.893 79.5906 125.359 79.5253 125.845 79.5253ZM126.209 83.5293C125.275 83.5666 124.627 83.7159 124.263 83.9773C123.908 84.2386 123.731 84.6073 123.731 85.0833C123.731 85.5033 123.857 85.8113 124.109 86.0073C124.37 86.2033 124.701 86.3013 125.103 86.3013C125.737 86.3013 126.265 86.1286 126.685 85.7833C127.105 85.4286 127.315 84.8873 127.315 84.1593V83.4873L126.209 83.5293ZM132.082 79.6513V87.1553H130.85V79.6513H132.082ZM131.48 76.8373C131.667 76.8373 131.83 76.9026 131.97 77.0333C132.119 77.1546 132.194 77.3506 132.194 77.6213C132.194 77.8826 132.119 78.0786 131.97 78.2093C131.83 78.3399 131.667 78.4053 131.48 78.4053C131.275 78.4053 131.102 78.3399 130.962 78.2093C130.822 78.0786 130.752 77.8826 130.752 77.6213C130.752 77.3506 130.822 77.1546 130.962 77.0333C131.102 76.9026 131.275 76.8373 131.48 76.8373ZM135.692 87.1553H134.46V76.5153H135.692V87.1553ZM137.887 86.3993C137.887 86.0539 137.971 85.8113 138.139 85.6713C138.307 85.5313 138.508 85.4613 138.741 85.4613C138.984 85.4613 139.189 85.5313 139.357 85.6713C139.534 85.8113 139.623 86.0539 139.623 86.3993C139.623 86.7353 139.534 86.9779 139.357 87.1273C139.189 87.2766 138.984 87.3513 138.741 87.3513C138.508 87.3513 138.307 87.2766 138.139 87.1273C137.971 86.9779 137.887 86.7353 137.887 86.3993ZM144.825 87.2953C144.162 87.2953 143.57 87.1599 143.047 86.8893C142.534 86.6186 142.128 86.1986 141.829 85.6293C141.54 85.0599 141.395 84.3319 141.395 83.4453C141.395 82.5213 141.549 81.7699 141.857 81.1913C142.165 80.6126 142.58 80.1879 143.103 79.9173C143.635 79.6466 144.237 79.5113 144.909 79.5113C145.292 79.5113 145.66 79.5533 146.015 79.6373C146.37 79.7119 146.659 79.8053 146.883 79.9173L146.505 80.9393C146.281 80.8553 146.02 80.7759 145.721 80.7013C145.422 80.6266 145.142 80.5893 144.881 80.5893C144.377 80.5893 143.962 80.6966 143.635 80.9113C143.308 81.1259 143.066 81.4433 142.907 81.8633C142.748 82.2833 142.669 82.8059 142.669 83.4313C142.669 84.0286 142.748 84.5373 142.907 84.9573C143.066 85.3773 143.304 85.6946 143.621 85.9093C143.938 86.1239 144.335 86.2313 144.811 86.2313C145.222 86.2313 145.581 86.1893 145.889 86.1053C146.206 86.0213 146.496 85.9186 146.757 85.7973V86.8893C146.505 87.0199 146.225 87.1179 145.917 87.1833C145.618 87.2579 145.254 87.2953 144.825 87.2953ZM155.066 83.3893C155.066 84.0146 154.982 84.5699 154.814 85.0553C154.655 85.5313 154.422 85.9373 154.114 86.2733C153.815 86.6093 153.446 86.8659 153.008 87.0433C152.578 87.2113 152.098 87.2953 151.566 87.2953C151.071 87.2953 150.614 87.2113 150.194 87.0433C149.774 86.8659 149.41 86.6093 149.102 86.2733C148.794 85.9373 148.551 85.5313 148.374 85.0553C148.206 84.5699 148.122 84.0146 148.122 83.3893C148.122 82.5586 148.262 81.8586 148.542 81.2893C148.822 80.7106 149.223 80.2719 149.746 79.9733C150.268 79.6653 150.889 79.5113 151.608 79.5113C152.289 79.5113 152.886 79.6653 153.4 79.9733C153.922 80.2719 154.328 80.7106 154.618 81.2893C154.916 81.8586 155.066 82.5586 155.066 83.3893ZM149.396 83.3893C149.396 83.9773 149.47 84.4906 149.62 84.9293C149.778 85.3586 150.021 85.6899 150.348 85.9233C150.674 86.1566 151.09 86.2733 151.594 86.2733C152.098 86.2733 152.513 86.1566 152.84 85.9233C153.166 85.6899 153.404 85.3586 153.554 84.9293C153.712 84.4906 153.792 83.9773 153.792 83.3893C153.792 82.7919 153.712 82.2833 153.554 81.8633C153.395 81.4433 153.152 81.1213 152.826 80.8973C152.508 80.6639 152.093 80.5473 151.58 80.5473C150.814 80.5473 150.259 80.7993 149.914 81.3033C149.568 81.8073 149.396 82.5026 149.396 83.3893ZM165.25 79.5113C166.099 79.5113 166.734 79.7306 167.154 80.1693C167.574 80.5986 167.784 81.2986 167.784 82.2693V87.1553H166.566V82.3253C166.566 81.7373 166.44 81.2939 166.188 80.9953C165.945 80.6966 165.563 80.5473 165.04 80.5473C164.312 80.5473 163.789 80.7573 163.472 81.1773C163.164 81.5973 163.01 82.2086 163.01 83.0113V87.1553H161.792V82.3253C161.792 81.9333 161.736 81.6066 161.624 81.3453C161.512 81.0746 161.344 80.8739 161.12 80.7433C160.896 80.6126 160.607 80.5473 160.252 80.5473C159.748 80.5473 159.351 80.6546 159.062 80.8693C158.773 81.0746 158.563 81.3779 158.432 81.7793C158.311 82.1806 158.25 82.6753 158.25 83.2633V87.1553H157.018V79.6513H158.012L158.194 80.6733H158.264C158.423 80.4119 158.614 80.1973 158.838 80.0293C159.071 79.8519 159.328 79.7213 159.608 79.6373C159.888 79.5533 160.177 79.5113 160.476 79.5113C161.055 79.5113 161.535 79.6139 161.918 79.8193C162.31 80.0246 162.595 80.3419 162.772 80.7713H162.842C163.094 80.3419 163.435 80.0246 163.864 79.8193C164.303 79.6139 164.765 79.5113 165.25 79.5113ZM6.44769 111.155L3.15769 102.391H3.10169C3.12035 102.578 3.13435 102.816 3.14369 103.105C3.16235 103.395 3.17635 103.712 3.18569 104.057C3.19502 104.393 3.19969 104.739 3.19969 105.093V111.155H2.03769V101.159H3.89969L6.97969 109.349H7.03569L10.1717 101.159H12.0197V111.155H10.7737V105.009C10.7737 104.683 10.7784 104.361 10.7877 104.043C10.797 103.717 10.811 103.413 10.8297 103.133C10.8484 102.844 10.8624 102.601 10.8717 102.405H10.8157L7.48369 111.155H6.44769ZM23.4609 106.143C23.4609 106.918 23.3629 107.623 23.1669 108.257C22.9709 108.883 22.6769 109.424 22.2849 109.881C21.9022 110.339 21.4215 110.689 20.8429 110.931C20.2735 111.174 19.6109 111.295 18.8549 111.295C18.0709 111.295 17.3895 111.174 16.8109 110.931C16.2322 110.679 15.7515 110.329 15.3689 109.881C14.9862 109.424 14.7015 108.878 14.5149 108.243C14.3282 107.609 14.2349 106.904 14.2349 106.129C14.2349 105.103 14.4029 104.207 14.7389 103.441C15.0749 102.676 15.5835 102.079 16.2649 101.649C16.9555 101.22 17.8235 101.005 18.8689 101.005C19.8675 101.005 20.7075 101.22 21.3889 101.649C22.0702 102.069 22.5835 102.667 22.9289 103.441C23.2835 104.207 23.4609 105.107 23.4609 106.143ZM15.5649 106.143C15.5649 106.983 15.6815 107.707 15.9149 108.313C16.1482 108.92 16.5075 109.387 16.9929 109.713C17.4875 110.04 18.1082 110.203 18.8549 110.203C19.6109 110.203 20.2269 110.04 20.7029 109.713C21.1882 109.387 21.5475 108.92 21.7809 108.313C22.0142 107.707 22.1309 106.983 22.1309 106.143C22.1309 104.883 21.8695 103.899 21.3469 103.189C20.8242 102.471 19.9982 102.111 18.8689 102.111C18.1129 102.111 17.4875 102.275 16.9929 102.601C16.5075 102.919 16.1482 103.381 15.9149 103.987C15.6815 104.585 15.5649 105.303 15.5649 106.143ZM33.6004 111.155H32.1304L26.7824 102.853H26.7264C26.7357 103.021 26.745 103.208 26.7544 103.413C26.773 103.619 26.787 103.843 26.7964 104.085C26.8057 104.319 26.815 104.561 26.8244 104.813C26.8337 105.065 26.8384 105.317 26.8384 105.569V111.155H25.6764V101.159H27.1324L32.4664 109.433H32.5224C32.513 109.321 32.5037 109.167 32.4944 108.971C32.485 108.766 32.4757 108.542 32.4664 108.299C32.457 108.047 32.4477 107.791 32.4384 107.529C32.429 107.268 32.4244 107.025 32.4244 106.801V101.159H33.6004V111.155ZM35.9631 110.399C35.9631 110.054 36.0471 109.811 36.2151 109.671C36.3831 109.531 36.5837 109.461 36.8171 109.461C37.0597 109.461 37.2651 109.531 37.4331 109.671C37.6104 109.811 37.6991 110.054 37.6991 110.399C37.6991 110.735 37.6104 110.978 37.4331 111.127C37.2651 111.277 37.0597 111.351 36.8171 111.351C36.5837 111.351 36.3831 111.277 36.2151 111.127C36.0471 110.978 35.9631 110.735 35.9631 110.399ZM39.2612 107.949V106.857H42.6492V107.949H39.2612ZM45.8309 111.155H44.5709V101.159H50.1569V102.265H45.8309V105.807H49.8909V106.913H45.8309V111.155ZM54.5887 101.159C55.4193 101.159 56.1007 101.267 56.6327 101.481C57.174 101.687 57.5753 101.999 57.8367 102.419C58.098 102.839 58.2287 103.367 58.2287 104.001C58.2287 104.533 58.1307 104.977 57.9347 105.331C57.7387 105.686 57.4867 105.971 57.1787 106.185C56.88 106.391 56.5627 106.554 56.2267 106.675L58.9707 111.155H57.5007L55.0787 107.025H53.0907V111.155H51.8307V101.159H54.5887ZM54.5187 102.251H53.0907V105.961H54.5887C55.13 105.961 55.5733 105.891 55.9187 105.751C56.264 105.602 56.516 105.387 56.6747 105.107C56.8427 104.827 56.9267 104.477 56.9267 104.057C56.9267 103.619 56.838 103.269 56.6607 103.007C56.4927 102.746 56.2313 102.555 55.8767 102.433C55.522 102.312 55.0693 102.251 54.5187 102.251ZM63.3536 111.155H59.7416V110.427L60.9176 110.161V102.167L59.7416 101.887V101.159H63.3536V101.887L62.1776 102.167V110.161L63.3536 110.427V111.155ZM64.9338 110.399C64.9338 110.054 65.0178 109.811 65.1858 109.671C65.3538 109.531 65.5544 109.461 65.7878 109.461C66.0304 109.461 66.2358 109.531 66.4038 109.671C66.5811 109.811 66.6698 110.054 66.6698 110.399C66.6698 110.735 66.5811 110.978 66.4038 111.127C66.2358 111.277 66.0304 111.351 65.7878 111.351C65.5544 111.351 65.3538 111.277 65.1858 111.127C65.0178 110.978 64.9338 110.735 64.9338 110.399ZM78.6306 106.143C78.6306 106.955 78.5699 107.679 78.4486 108.313C78.3273 108.948 78.1313 109.489 77.8606 109.937C77.5993 110.376 77.2539 110.712 76.8246 110.945C76.4046 111.179 75.8959 111.295 75.2986 111.295C74.5519 111.295 73.9313 111.09 73.4366 110.679C72.9513 110.269 72.5873 109.681 72.3446 108.915C72.1113 108.141 71.9946 107.217 71.9946 106.143C71.9946 105.061 72.1019 104.137 72.3166 103.371C72.5406 102.606 72.8953 102.023 73.3806 101.621C73.8659 101.211 74.5053 101.005 75.2986 101.005C76.0453 101.005 76.6659 101.211 77.1606 101.621C77.6553 102.023 78.0239 102.606 78.2666 103.371C78.5093 104.137 78.6306 105.061 78.6306 106.143ZM73.2266 106.143C73.2266 107.058 73.2919 107.819 73.4226 108.425C73.5626 109.032 73.7819 109.489 74.0806 109.797C74.3886 110.096 74.7946 110.245 75.2986 110.245C75.8026 110.245 76.2039 110.096 76.5026 109.797C76.8106 109.499 77.0346 109.046 77.1746 108.439C77.3146 107.823 77.3846 107.058 77.3846 106.143C77.3846 105.229 77.3146 104.473 77.1746 103.875C77.0346 103.269 76.8106 102.816 76.5026 102.517C76.2039 102.209 75.8026 102.055 75.2986 102.055C74.7946 102.055 74.3886 102.209 74.0806 102.517C73.7819 102.816 73.5626 103.269 73.4226 103.875C73.2919 104.473 73.2266 105.229 73.2266 106.143ZM86.6003 105.429C86.6003 105.999 86.5583 106.568 86.4743 107.137C86.3996 107.697 86.2643 108.229 86.0683 108.733C85.8723 109.228 85.6016 109.671 85.2563 110.063C84.911 110.446 84.4723 110.749 83.9403 110.973C83.4083 111.188 82.7643 111.295 82.0083 111.295C81.8216 111.295 81.6023 111.281 81.3503 111.253C81.1076 111.235 80.907 111.202 80.7483 111.155V110.105C80.9163 110.161 81.1123 110.208 81.3363 110.245C81.5603 110.273 81.775 110.287 81.9803 110.287C82.6336 110.287 83.1703 110.18 83.5903 109.965C84.0196 109.751 84.3603 109.461 84.6123 109.097C84.8643 108.724 85.0463 108.295 85.1583 107.809C85.2703 107.315 85.3356 106.797 85.3543 106.255H85.2703C85.1303 106.47 84.953 106.666 84.7383 106.843C84.5236 107.021 84.2623 107.161 83.9543 107.263C83.6556 107.366 83.301 107.417 82.8903 107.417C82.321 107.417 81.817 107.301 81.3783 107.067C80.949 106.825 80.613 106.479 80.3703 106.031C80.137 105.583 80.0203 105.037 80.0203 104.393C80.0203 103.693 80.151 103.091 80.4123 102.587C80.683 102.083 81.0563 101.696 81.5323 101.425C82.0083 101.155 82.5683 101.019 83.2123 101.019C83.6883 101.019 84.1316 101.113 84.5423 101.299C84.953 101.477 85.3123 101.747 85.6203 102.111C85.9283 102.475 86.1663 102.933 86.3343 103.483C86.5116 104.034 86.6003 104.683 86.6003 105.429ZM83.2123 102.055C82.6336 102.055 82.1576 102.247 81.7843 102.629C81.4203 103.012 81.2383 103.595 81.2383 104.379C81.2383 105.023 81.3923 105.532 81.7003 105.905C82.0176 106.269 82.503 106.451 83.1563 106.451C83.6043 106.451 83.9916 106.363 84.3183 106.185C84.645 105.999 84.897 105.765 85.0743 105.485C85.261 105.205 85.3543 104.916 85.3543 104.617C85.3543 104.319 85.3076 104.02 85.2143 103.721C85.1303 103.413 84.9996 103.133 84.8223 102.881C84.645 102.629 84.421 102.429 84.1503 102.279C83.8796 102.13 83.567 102.055 83.2123 102.055ZM88.34 110.399C88.34 110.054 88.424 109.811 88.592 109.671C88.76 109.531 88.9607 109.461 89.194 109.461C89.4367 109.461 89.642 109.531 89.81 109.671C89.9874 109.811 90.076 110.054 90.076 110.399C90.076 110.735 89.9874 110.978 89.81 111.127C89.642 111.277 89.4367 111.351 89.194 111.351C88.9607 111.351 88.76 111.277 88.592 111.127C88.424 110.978 88.34 110.735 88.34 110.399ZM88.34 104.407C88.34 104.053 88.424 103.805 88.592 103.665C88.76 103.525 88.9607 103.455 89.194 103.455C89.4367 103.455 89.642 103.525 89.81 103.665C89.9874 103.805 90.076 104.053 90.076 104.407C90.076 104.743 89.9874 104.986 89.81 105.135C89.642 105.285 89.4367 105.359 89.194 105.359C88.9607 105.359 88.76 105.285 88.592 105.135C88.424 104.986 88.34 104.743 88.34 104.407ZM98.4001 106.143C98.4001 106.955 98.3395 107.679 98.2181 108.313C98.0968 108.948 97.9008 109.489 97.6301 109.937C97.3688 110.376 97.0235 110.712 96.5941 110.945C96.1741 111.179 95.6655 111.295 95.0681 111.295C94.3215 111.295 93.7008 111.09 93.2061 110.679C92.7208 110.269 92.3568 109.681 92.1141 108.915C91.8808 108.141 91.7641 107.217 91.7641 106.143C91.7641 105.061 91.8715 104.137 92.0861 103.371C92.3101 102.606 92.6648 102.023 93.1501 101.621C93.6355 101.211 94.2748 101.005 95.0681 101.005C95.8148 101.005 96.4355 101.211 96.9301 101.621C97.4248 102.023 97.7935 102.606 98.0361 103.371C98.2788 104.137 98.4001 105.061 98.4001 106.143ZM92.9961 106.143C92.9961 107.058 93.0615 107.819 93.1921 108.425C93.3321 109.032 93.5515 109.489 93.8501 109.797C94.1581 110.096 94.5641 110.245 95.0681 110.245C95.5721 110.245 95.9735 110.096 96.2721 109.797C96.5801 109.499 96.8041 109.046 96.9441 108.439C97.0841 107.823 97.1541 107.058 97.1541 106.143C97.1541 105.229 97.0841 104.473 96.9441 103.875C96.8041 103.269 96.5801 102.816 96.2721 102.517C95.9735 102.209 95.5721 102.055 95.0681 102.055C94.5641 102.055 94.1581 102.209 93.8501 102.517C93.5515 102.816 93.3321 103.269 93.1921 103.875C93.0615 104.473 92.9961 105.229 92.9961 106.143ZM106.412 106.143C106.412 106.955 106.351 107.679 106.23 108.313C106.109 108.948 105.913 109.489 105.642 109.937C105.381 110.376 105.035 110.712 104.606 110.945C104.186 111.179 103.677 111.295 103.08 111.295C102.333 111.295 101.713 111.09 101.218 110.679C100.733 110.269 100.369 109.681 100.126 108.915C99.8925 108.141 99.7758 107.217 99.7758 106.143C99.7758 105.061 99.8832 104.137 100.098 103.371C100.322 102.606 100.677 102.023 101.162 101.621C101.647 101.211 102.287 101.005 103.08 101.005C103.827 101.005 104.447 101.211 104.942 101.621C105.437 102.023 105.805 102.606 106.048 103.371C106.291 104.137 106.412 105.061 106.412 106.143ZM101.008 106.143C101.008 107.058 101.073 107.819 101.204 108.425C101.344 109.032 101.563 109.489 101.862 109.797C102.17 110.096 102.576 110.245 103.08 110.245C103.584 110.245 103.985 110.096 104.284 109.797C104.592 109.499 104.816 109.046 104.956 108.439C105.096 107.823 105.166 107.058 105.166 106.143C105.166 105.229 105.096 104.473 104.956 103.875C104.816 103.269 104.592 102.816 104.284 102.517C103.985 102.209 103.584 102.055 103.08 102.055C102.576 102.055 102.17 102.209 101.862 102.517C101.563 102.816 101.344 103.269 101.204 103.875C101.073 104.473 101.008 105.229 101.008 106.143ZM107.662 107.949V106.857H111.05V107.949H107.662ZM116.583 111.155H115.379V104.169C115.379 103.899 115.379 103.67 115.379 103.483C115.389 103.297 115.398 103.124 115.407 102.965C115.417 102.797 115.426 102.625 115.435 102.447C115.286 102.597 115.151 102.723 115.029 102.825C114.908 102.928 114.754 103.059 114.567 103.217L113.503 104.085L112.859 103.259L115.561 101.159H116.583V111.155ZM126.905 111.155H120.297V110.133L122.915 107.487C123.419 106.983 123.844 106.535 124.189 106.143C124.534 105.751 124.796 105.369 124.973 104.995C125.15 104.613 125.239 104.197 125.239 103.749C125.239 103.199 125.076 102.783 124.749 102.503C124.422 102.214 123.998 102.069 123.475 102.069C122.99 102.069 122.56 102.153 122.187 102.321C121.823 102.489 121.45 102.723 121.067 103.021L120.409 102.195C120.67 101.971 120.955 101.771 121.263 101.593C121.58 101.416 121.921 101.276 122.285 101.173C122.658 101.071 123.055 101.019 123.475 101.019C124.1 101.019 124.637 101.127 125.085 101.341C125.533 101.556 125.878 101.864 126.121 102.265C126.373 102.657 126.499 103.129 126.499 103.679C126.499 104.071 126.438 104.445 126.317 104.799C126.196 105.145 126.023 105.485 125.799 105.821C125.575 106.157 125.304 106.498 124.987 106.843C124.67 107.189 124.32 107.548 123.937 107.921L121.851 109.979V110.035H126.905V111.155ZM128.645 110.399C128.645 110.054 128.729 109.811 128.897 109.671C129.065 109.531 129.265 109.461 129.499 109.461C129.741 109.461 129.947 109.531 130.115 109.671C130.292 109.811 130.381 110.054 130.381 110.399C130.381 110.735 130.292 110.978 130.115 111.127C129.947 111.277 129.741 111.351 129.499 111.351C129.265 111.351 129.065 111.277 128.897 111.127C128.729 110.978 128.645 110.735 128.645 110.399ZM128.645 104.407C128.645 104.053 128.729 103.805 128.897 103.665C129.065 103.525 129.265 103.455 129.499 103.455C129.741 103.455 129.947 103.525 130.115 103.665C130.292 103.805 130.381 104.053 130.381 104.407C130.381 104.743 130.292 104.986 130.115 105.135C129.947 105.285 129.741 105.359 129.499 105.359C129.265 105.359 129.065 105.285 128.897 105.135C128.729 104.986 128.645 104.743 128.645 104.407ZM138.705 106.143C138.705 106.955 138.644 107.679 138.523 108.313C138.401 108.948 138.205 109.489 137.935 109.937C137.673 110.376 137.328 110.712 136.899 110.945C136.479 111.179 135.97 111.295 135.373 111.295C134.626 111.295 134.005 111.09 133.511 110.679C133.025 110.269 132.661 109.681 132.419 108.915C132.185 108.141 132.069 107.217 132.069 106.143C132.069 105.061 132.176 104.137 132.391 103.371C132.615 102.606 132.969 102.023 133.455 101.621C133.94 101.211 134.579 101.005 135.373 101.005C136.119 101.005 136.74 101.211 137.235 101.621C137.729 102.023 138.098 102.606 138.341 103.371C138.583 104.137 138.705 105.061 138.705 106.143ZM133.301 106.143C133.301 107.058 133.366 107.819 133.497 108.425C133.637 109.032 133.856 109.489 134.155 109.797C134.463 110.096 134.869 110.245 135.373 110.245C135.877 110.245 136.278 110.096 136.577 109.797C136.885 109.499 137.109 109.046 137.249 108.439C137.389 107.823 137.459 107.058 137.459 106.143C137.459 105.229 137.389 104.473 137.249 103.875C137.109 103.269 136.885 102.816 136.577 102.517C136.278 102.209 135.877 102.055 135.373 102.055C134.869 102.055 134.463 102.209 134.155 102.517C133.856 102.816 133.637 103.269 133.497 103.875C133.366 104.473 133.301 105.229 133.301 106.143ZM146.717 106.143C146.717 106.955 146.656 107.679 146.535 108.313C146.413 108.948 146.217 109.489 145.947 109.937C145.685 110.376 145.34 110.712 144.911 110.945C144.491 111.179 143.982 111.295 143.385 111.295C142.638 111.295 142.017 111.09 141.523 110.679C141.037 110.269 140.673 109.681 140.431 108.915C140.197 108.141 140.081 107.217 140.081 106.143C140.081 105.061 140.188 104.137 140.403 103.371C140.627 102.606 140.981 102.023 141.467 101.621C141.952 101.211 142.591 101.005 143.385 101.005C144.131 101.005 144.752 101.211 145.247 101.621C145.741 102.023 146.11 102.606 146.353 103.371C146.595 104.137 146.717 105.061 146.717 106.143ZM141.313 106.143C141.313 107.058 141.378 107.819 141.509 108.425C141.649 109.032 141.868 109.489 142.167 109.797C142.475 110.096 142.881 110.245 143.385 110.245C143.889 110.245 144.29 110.096 144.589 109.797C144.897 109.499 145.121 109.046 145.261 108.439C145.401 107.823 145.471 107.058 145.471 106.143C145.471 105.229 145.401 104.473 145.261 103.875C145.121 103.269 144.897 102.816 144.589 102.517C144.29 102.209 143.889 102.055 143.385 102.055C142.881 102.055 142.475 102.209 142.167 102.517C141.868 102.816 141.649 103.269 141.509 103.875C141.378 104.473 141.313 105.229 141.313 106.143ZM156.111 101.159L152.387 111.155H151.183L154.907 101.159H156.111ZM164.859 111.155H163.655V104.169C163.655 103.899 163.655 103.67 163.655 103.483C163.664 103.297 163.673 103.124 163.683 102.965C163.692 102.797 163.701 102.625 163.711 102.447C163.561 102.597 163.426 102.723 163.305 102.825C163.183 102.928 163.029 103.059 162.843 103.217L161.779 104.085L161.135 103.259L163.837 101.159H164.859V111.155ZM174.802 103.497C174.802 103.945 174.718 104.333 174.55 104.659C174.382 104.986 174.14 105.252 173.822 105.457C173.514 105.663 173.15 105.807 172.73 105.891V105.947C173.533 106.041 174.13 106.293 174.522 106.703C174.914 107.114 175.11 107.651 175.11 108.313C175.11 108.892 174.975 109.41 174.704 109.867C174.434 110.315 174.014 110.665 173.444 110.917C172.884 111.169 172.161 111.295 171.274 111.295C170.752 111.295 170.266 111.253 169.818 111.169C169.37 111.095 168.941 110.955 168.53 110.749V109.601C168.95 109.807 169.403 109.97 169.888 110.091C170.374 110.203 170.84 110.259 171.288 110.259C172.184 110.259 172.828 110.087 173.22 109.741C173.622 109.387 173.822 108.901 173.822 108.285C173.822 107.865 173.71 107.529 173.486 107.277C173.272 107.016 172.954 106.825 172.534 106.703C172.114 106.582 171.61 106.521 171.022 106.521H170.056V105.471H171.036C171.587 105.471 172.044 105.392 172.408 105.233C172.782 105.075 173.062 104.855 173.248 104.575C173.444 104.286 173.542 103.955 173.542 103.581C173.542 103.096 173.379 102.723 173.052 102.461C172.726 102.191 172.282 102.055 171.722 102.055C171.368 102.055 171.046 102.093 170.756 102.167C170.467 102.233 170.196 102.331 169.944 102.461C169.702 102.583 169.454 102.727 169.202 102.895L168.586 102.055C168.829 101.869 169.104 101.696 169.412 101.537C169.73 101.379 170.08 101.253 170.462 101.159C170.845 101.066 171.26 101.019 171.708 101.019C172.754 101.019 173.528 101.253 174.032 101.719C174.546 102.186 174.802 102.779 174.802 103.497ZM176.92 110.399C176.92 110.054 177.004 109.811 177.172 109.671C177.34 109.531 177.541 109.461 177.774 109.461C178.017 109.461 178.222 109.531 178.39 109.671C178.567 109.811 178.656 110.054 178.656 110.399C178.656 110.735 178.567 110.978 178.39 111.127C178.222 111.277 178.017 111.351 177.774 111.351C177.541 111.351 177.34 111.277 177.172 111.127C177.004 110.978 176.92 110.735 176.92 110.399ZM176.92 104.407C176.92 104.053 177.004 103.805 177.172 103.665C177.34 103.525 177.541 103.455 177.774 103.455C178.017 103.455 178.222 103.525 178.39 103.665C178.567 103.805 178.656 104.053 178.656 104.407C178.656 104.743 178.567 104.986 178.39 105.135C178.222 105.285 178.017 105.359 177.774 105.359C177.541 105.359 177.34 105.285 177.172 105.135C177.004 104.986 176.92 104.743 176.92 104.407ZM186.98 106.143C186.98 106.955 186.92 107.679 186.798 108.313C186.677 108.948 186.481 109.489 186.21 109.937C185.949 110.376 185.604 110.712 185.174 110.945C184.754 111.179 184.246 111.295 183.648 111.295C182.902 111.295 182.281 111.09 181.786 110.679C181.301 110.269 180.937 109.681 180.694 108.915C180.461 108.141 180.344 107.217 180.344 106.143C180.344 105.061 180.452 104.137 180.666 103.371C180.89 102.606 181.245 102.023 181.73 101.621C182.216 101.211 182.855 101.005 183.648 101.005C184.395 101.005 185.016 101.211 185.51 101.621C186.005 102.023 186.374 102.606 186.616 103.371C186.859 104.137 186.98 105.061 186.98 106.143ZM181.576 106.143C181.576 107.058 181.642 107.819 181.772 108.425C181.912 109.032 182.132 109.489 182.43 109.797C182.738 110.096 183.144 110.245 183.648 110.245C184.152 110.245 184.554 110.096 184.852 109.797C185.16 109.499 185.384 109.046 185.524 108.439C185.664 107.823 185.734 107.058 185.734 106.143C185.734 105.229 185.664 104.473 185.524 103.875C185.384 103.269 185.16 102.816 184.852 102.517C184.554 102.209 184.152 102.055 183.648 102.055C183.144 102.055 182.738 102.209 182.43 102.517C182.132 102.816 181.912 103.269 181.772 103.875C181.642 104.473 181.576 105.229 181.576 106.143ZM194.992 106.143C194.992 106.955 194.931 107.679 194.81 108.313C194.689 108.948 194.493 109.489 194.222 109.937C193.961 110.376 193.615 110.712 193.186 110.945C192.766 111.179 192.257 111.295 191.66 111.295C190.913 111.295 190.293 111.09 189.798 110.679C189.313 110.269 188.949 109.681 188.706 108.915C188.473 108.141 188.356 107.217 188.356 106.143C188.356 105.061 188.463 104.137 188.678 103.371C188.902 102.606 189.257 102.023 189.742 101.621C190.227 101.211 190.867 101.005 191.66 101.005C192.407 101.005 193.027 101.211 193.522 101.621C194.017 102.023 194.385 102.606 194.628 103.371C194.871 104.137 194.992 105.061 194.992 106.143ZM189.588 106.143C189.588 107.058 189.653 107.819 189.784 108.425C189.924 109.032 190.143 109.489 190.442 109.797C190.75 110.096 191.156 110.245 191.66 110.245C192.164 110.245 192.565 110.096 192.864 109.797C193.172 109.499 193.396 109.046 193.536 108.439C193.676 107.823 193.746 107.058 193.746 106.143C193.746 105.229 193.676 104.473 193.536 103.875C193.396 103.269 193.172 102.816 192.864 102.517C192.565 102.209 192.164 102.055 191.66 102.055C191.156 102.055 190.75 102.209 190.442 102.517C190.143 102.816 189.924 103.269 189.784 103.875C189.653 104.473 189.588 105.229 189.588 106.143ZM196.242 107.949V106.857H199.63V107.949H196.242ZM205.163 111.155H203.959V104.169C203.959 103.899 203.959 103.67 203.959 103.483C203.969 103.297 203.978 103.124 203.987 102.965C203.997 102.797 204.006 102.625 204.015 102.447C203.866 102.597 203.731 102.723 203.609 102.825C203.488 102.928 203.334 103.059 203.147 103.217L202.083 104.085L201.439 103.259L204.141 101.159H205.163V111.155ZM212.195 101.019C212.783 101.019 213.301 101.113 213.749 101.299C214.197 101.477 214.547 101.743 214.799 102.097C215.06 102.452 215.191 102.891 215.191 103.413C215.191 103.815 215.102 104.165 214.925 104.463C214.757 104.762 214.528 105.028 214.239 105.261C213.95 105.485 213.632 105.686 213.287 105.863C213.698 106.059 214.071 106.283 214.407 106.535C214.743 106.778 215.009 107.063 215.205 107.389C215.41 107.716 215.513 108.108 215.513 108.565C215.513 109.125 215.378 109.611 215.107 110.021C214.836 110.423 214.454 110.735 213.959 110.959C213.474 111.183 212.9 111.295 212.237 111.295C211.518 111.295 210.907 111.188 210.403 110.973C209.908 110.759 209.53 110.455 209.269 110.063C209.017 109.662 208.891 109.177 208.891 108.607C208.891 108.15 208.984 107.753 209.171 107.417C209.367 107.081 209.624 106.792 209.941 106.549C210.258 106.307 210.599 106.101 210.963 105.933C210.636 105.747 210.338 105.537 210.067 105.303C209.806 105.061 209.596 104.785 209.437 104.477C209.288 104.169 209.213 103.81 209.213 103.399C209.213 102.886 209.344 102.457 209.605 102.111C209.866 101.757 210.221 101.486 210.669 101.299C211.117 101.113 211.626 101.019 212.195 101.019ZM210.095 108.621C210.095 109.107 210.268 109.513 210.613 109.839C210.958 110.157 211.49 110.315 212.209 110.315C212.666 110.315 213.049 110.241 213.357 110.091C213.665 109.942 213.898 109.737 214.057 109.475C214.225 109.214 214.309 108.915 214.309 108.579C214.309 108.253 214.22 107.968 214.043 107.725C213.875 107.473 213.632 107.249 213.315 107.053C213.007 106.857 212.638 106.68 212.209 106.521L211.985 106.437C211.574 106.615 211.229 106.806 210.949 107.011C210.669 107.217 210.454 107.45 210.305 107.711C210.165 107.973 210.095 108.276 210.095 108.621ZM212.181 102.013C211.668 102.013 211.243 102.139 210.907 102.391C210.58 102.634 210.417 102.989 210.417 103.455C210.417 103.801 210.496 104.09 210.655 104.323C210.823 104.557 211.047 104.757 211.327 104.925C211.607 105.084 211.915 105.238 212.251 105.387C212.578 105.247 212.867 105.093 213.119 104.925C213.38 104.757 213.586 104.557 213.735 104.323C213.894 104.081 213.973 103.791 213.973 103.455C213.973 102.989 213.81 102.634 213.483 102.391C213.156 102.139 212.722 102.013 212.181 102.013ZM217.225 110.399C217.225 110.054 217.309 109.811 217.477 109.671C217.645 109.531 217.845 109.461 218.079 109.461C218.321 109.461 218.527 109.531 218.695 109.671C218.872 109.811 218.961 110.054 218.961 110.399C218.961 110.735 218.872 110.978 218.695 111.127C218.527 111.277 218.321 111.351 218.079 111.351C217.845 111.351 217.645 111.277 217.477 111.127C217.309 110.978 217.225 110.735 217.225 110.399ZM217.225 104.407C217.225 104.053 217.309 103.805 217.477 103.665C217.645 103.525 217.845 103.455 218.079 103.455C218.321 103.455 218.527 103.525 218.695 103.665C218.872 103.805 218.961 104.053 218.961 104.407C218.961 104.743 218.872 104.986 218.695 105.135C218.527 105.285 218.321 105.359 218.079 105.359C217.845 105.359 217.645 105.285 217.477 105.135C217.309 104.986 217.225 104.743 217.225 104.407ZM227.285 106.143C227.285 106.955 227.224 107.679 227.103 108.313C226.982 108.948 226.786 109.489 226.515 109.937C226.254 110.376 225.908 110.712 225.479 110.945C225.059 111.179 224.55 111.295 223.953 111.295C223.206 111.295 222.586 111.09 222.091 110.679C221.606 110.269 221.242 109.681 220.999 108.915C220.766 108.141 220.649 107.217 220.649 106.143C220.649 105.061 220.756 104.137 220.971 103.371C221.195 102.606 221.55 102.023 222.035 101.621C222.52 101.211 223.16 101.005 223.953 101.005C224.7 101.005 225.32 101.211 225.815 101.621C226.31 102.023 226.678 102.606 226.921 103.371C227.164 104.137 227.285 105.061 227.285 106.143ZM221.881 106.143C221.881 107.058 221.946 107.819 222.077 108.425C222.217 109.032 222.436 109.489 222.735 109.797C223.043 110.096 223.449 110.245 223.953 110.245C224.457 110.245 224.858 110.096 225.157 109.797C225.465 109.499 225.689 109.046 225.829 108.439C225.969 107.823 226.039 107.058 226.039 106.143C226.039 105.229 225.969 104.473 225.829 103.875C225.689 103.269 225.465 102.816 225.157 102.517C224.858 102.209 224.457 102.055 223.953 102.055C223.449 102.055 223.043 102.209 222.735 102.517C222.436 102.816 222.217 103.269 222.077 103.875C221.946 104.473 221.881 105.229 221.881 106.143ZM235.297 106.143C235.297 106.955 235.236 107.679 235.115 108.313C234.993 108.948 234.797 109.489 234.527 109.937C234.265 110.376 233.92 110.712 233.491 110.945C233.071 111.179 232.562 111.295 231.965 111.295C231.218 111.295 230.597 111.09 230.103 110.679C229.617 110.269 229.253 109.681 229.011 108.915C228.777 108.141 228.661 107.217 228.661 106.143C228.661 105.061 228.768 104.137 228.983 103.371C229.207 102.606 229.561 102.023 230.047 101.621C230.532 101.211 231.171 101.005 231.965 101.005C232.711 101.005 233.332 101.211 233.827 101.621C234.321 102.023 234.69 102.606 234.933 103.371C235.175 104.137 235.297 105.061 235.297 106.143ZM229.893 106.143C229.893 107.058 229.958 107.819 230.089 108.425C230.229 109.032 230.448 109.489 230.747 109.797C231.055 110.096 231.461 110.245 231.965 110.245C232.469 110.245 232.87 110.096 233.169 109.797C233.477 109.499 233.701 109.046 233.841 108.439C233.981 107.823 234.051 107.058 234.051 106.143C234.051 105.229 233.981 104.473 233.841 103.875C233.701 103.269 233.477 102.816 233.169 102.517C232.87 102.209 232.469 102.055 231.965 102.055C231.461 102.055 231.055 102.209 230.747 102.517C230.448 102.816 230.229 103.269 230.089 103.875C229.958 104.473 229.893 105.229 229.893 106.143Z" fill="#BABABA"/>
</svg>
