<svg width="333" height="29" viewBox="0 0 333 29" fill="none" xmlns="http://www.w3.org/2000/svg">
<path d="M27.832 11.93H15.2231V0.844238H11.6812V28.156H15.2231V15.4058H27.832V28.156H31.3784V0.844238H27.832V11.93Z" fill="#BABABA"/>
<path d="M54.6628 0.844238L41.7144 28.156H45.6583L49.7898 19.4645H60.6479L64.8196 28.156H68.6652L55.8821 0.844238H54.6672H54.6628ZM59.0801 16.0199H51.4245L55.2613 7.94252L59.0801 16.0199Z" fill="#BABABA"/>
<path d="M103.656 0.844238L93.2579 21.9656L82.8822 1.09346L82.7572 0.844238H81.6629L77.7368 28.156H81.2028L83.6639 10.1677L92.6281 28.156H93.8609L102.714 10.3101L105.188 28.156H108.69L104.746 0.844238H103.656Z" fill="#BABABA"/>
<path d="M130.67 0.844238L117.721 28.156H121.665L125.797 19.4645H136.655L140.827 28.156H144.672L131.889 0.844238H130.674H130.67ZM135.087 16.0199H127.432L131.268 7.94252L135.087 16.0199Z" fill="#BABABA"/>
<path d="M163.203 11.3381L156.668 0.844238H152.568L161.487 15.2099V28.156H164.994V15.2099L173.739 0.844238H169.63L163.203 11.3381Z" fill="#BABABA"/>
<path d="M195.816 0.844238H194.601L181.653 28.156H185.597L189.728 19.4645H200.586L204.758 28.156H208.603L195.82 0.844238H195.816ZM199.014 16.0199H191.358L195.195 7.94252L199.014 16.0199Z" fill="#BABABA"/>
<path d="M234.603 27.7331L236.948 11.4004H237.216L243.88 24.8048L250.482 11.4004H250.745L253.104 27.7331H251.496L249.874 16.051L244.077 27.7331H243.657L237.792 15.962L236.184 27.7331H234.603Z" fill="#BABABA"/>
<path d="M260.945 11.4004H262.585V21.2623C262.585 22.4328 262.607 23.1626 262.652 23.4519C262.732 24.0972 262.924 24.6357 263.219 25.0674C263.518 25.4991 263.974 25.864 264.59 26.1577C265.206 26.4514 265.827 26.5983 266.453 26.5983C266.993 26.5983 267.516 26.4826 268.011 26.2556C268.507 26.0287 268.927 25.7082 269.257 25.2988C269.592 24.8938 269.838 24.3998 269.994 23.8213C270.106 23.4074 270.16 22.5574 270.16 21.2668V11.4048H271.799V21.2668C271.799 22.7265 271.656 23.9058 271.37 24.8048C271.084 25.7038 270.513 26.487 269.655 27.1546C268.797 27.8221 267.757 28.1559 266.542 28.1559C265.22 28.1559 264.085 27.8399 263.143 27.2124C262.2 26.5849 261.566 25.7483 261.249 24.7158C261.048 24.0794 260.95 22.9312 260.95 21.2757V11.4137L260.945 11.4004Z" fill="#BABABA"/>
<path d="M278.702 24.6938L280.095 23.8616C281.078 25.6595 282.208 26.5585 283.494 26.5585C284.044 26.5585 284.562 26.4294 285.044 26.1758C285.527 25.9221 285.893 25.5794 286.147 25.1477C286.402 24.7205 286.527 24.2621 286.527 23.7815C286.527 23.2341 286.34 22.6956 285.969 22.1705C285.455 21.4451 284.522 20.5728 283.159 19.5492C281.793 18.5212 280.939 17.778 280.609 17.3196C280.028 16.5497 279.738 15.7175 279.738 14.823C279.738 14.1109 279.908 13.4656 280.252 12.8782C280.591 12.2952 281.073 11.8323 281.694 11.4941C282.315 11.1559 282.99 10.9912 283.718 10.9912C284.49 10.9912 285.214 11.1826 285.884 11.5653C286.558 11.948 287.269 12.6467 288.019 13.6703L286.683 14.6805C286.067 13.8661 285.54 13.3276 285.107 13.0695C284.673 12.8114 284.2 12.6823 283.686 12.6823C283.025 12.6823 282.485 12.8826 282.065 13.2831C281.645 13.6837 281.435 14.1732 281.435 14.7607C281.435 15.1167 281.511 15.4594 281.659 15.7931C281.806 16.1269 282.078 16.4874 282.472 16.8835C282.686 17.0926 283.392 17.6356 284.589 18.5167C286.009 19.5581 286.983 20.4882 287.51 21.3027C288.037 22.1171 288.3 22.9359 288.3 23.7548C288.3 24.9386 287.849 25.9666 286.947 26.8433C286.045 27.7156 284.946 28.1517 283.655 28.1517C282.659 28.1517 281.757 27.8892 280.948 27.3596C280.14 26.83 279.394 25.9444 278.711 24.6983L278.702 24.6938Z" fill="#BABABA"/>
<path d="M296.09 11.4004H297.729V27.7331H296.09V11.4004Z" fill="#BABABA"/>
<path d="M321.319 14.4313L320.028 15.4193C319.314 14.4936 318.46 13.7905 317.46 13.3143C316.459 12.8381 315.361 12.5978 314.168 12.5978C312.859 12.5978 311.649 12.9093 310.537 13.5368C309.42 14.1643 308.558 15.001 307.946 16.0557C307.334 17.1104 307.026 18.2987 307.026 19.616C307.026 21.6053 307.71 23.2697 309.081 24.6004C310.452 25.931 312.181 26.5986 314.266 26.5986C316.562 26.5986 318.483 25.704 320.028 23.9106L321.319 24.8896C320.502 25.9266 319.483 26.7276 318.259 27.2928C317.036 27.858 315.673 28.1428 314.164 28.1428C311.296 28.1428 309.032 27.1905 307.379 25.2902C305.99 23.6836 305.293 21.7432 305.293 19.4736C305.293 17.0837 306.133 15.0722 307.817 13.4389C309.501 11.8056 311.609 10.9912 314.141 10.9912C315.673 10.9912 317.054 11.2938 318.286 11.8946C319.519 12.4999 320.528 13.3454 321.319 14.4313Z" fill="#BABABA"/>
</svg>
