<svg width="31" height="30" viewBox="0 0 31 30" fill="none" xmlns="http://www.w3.org/2000/svg">
<path d="M15.3164 0C23.587 0 30.3164 5.73037 30.3164 12.7753C30.3164 15.5952 29.2758 18.1337 27.1008 20.6348C23.9545 24.4367 16.9177 29.0671 15.3164 29.7755C13.7602 30.4642 13.9402 29.3878 14.0114 28.9628L14.017 28.9273L14.2308 27.5794C14.2814 27.1779 14.3339 26.5541 14.182 26.1566C14.0133 25.7178 13.3495 25.4895 12.862 25.3793C5.65266 24.3816 0.316406 19.0901 0.316406 12.7753C0.316406 5.73037 7.04766 0 15.3164 0ZM9.73266 15.1249H6.87328V9.67787C6.87328 9.59679 6.84272 9.519 6.78827 9.46149C6.73382 9.40398 6.65991 9.3714 6.58266 9.37088H5.52891C5.49049 9.37088 5.45246 9.37882 5.41697 9.39425C5.38148 9.40968 5.34924 9.43229 5.32208 9.4608C5.29492 9.4893 5.27337 9.52314 5.25867 9.56039C5.24397 9.59764 5.23641 9.63756 5.23641 9.67787V16.5378C5.23641 16.6185 5.26828 16.6952 5.31891 16.7483V16.7503L5.32266 16.7542L5.32641 16.7582C5.38078 16.8131 5.45347 16.8434 5.52891 16.8428H9.73266C9.89391 16.8428 10.0233 16.705 10.0233 16.5358V15.4338C10.0235 15.3935 10.0162 15.3535 10.0017 15.3162C9.98726 15.2788 9.96592 15.2449 9.93894 15.2162C9.91195 15.1875 9.87984 15.1647 9.84445 15.149C9.80906 15.1333 9.77107 15.1251 9.73266 15.1249ZM11.2158 9.37088C11.1382 9.37088 11.0638 9.40323 11.009 9.4608C10.9541 9.51837 10.9233 9.59645 10.9233 9.67787V16.5378C10.9233 16.707 11.0545 16.8428 11.2158 16.8428H12.2695C12.4308 16.8428 12.5602 16.705 12.5602 16.5378V9.67787C12.5602 9.59679 12.5296 9.519 12.4751 9.46149C12.4207 9.40398 12.3468 9.3714 12.2695 9.37088H11.2158ZM18.4589 9.37088C18.3813 9.37088 18.3069 9.40323 18.2521 9.4608C18.1972 9.51837 18.1664 9.59645 18.1664 9.67787V13.7513L15.172 9.50863C15.1645 9.4983 15.1563 9.48845 15.1477 9.47912V9.47715C15.1417 9.47026 15.1355 9.46369 15.1289 9.45747L15.1233 9.45157C15.1169 9.44511 15.11 9.43919 15.1027 9.43386H15.1008L15.0914 9.42598L15.0858 9.42205C15.0829 9.41975 15.0797 9.41778 15.0764 9.41614L15.0614 9.40631H15.0577L15.052 9.40237L15.0333 9.3945L15.0258 9.39056C15.0196 9.38823 15.0134 9.38626 15.007 9.38466H15.0033L14.9977 9.38269L14.9808 9.37875H14.9695L14.9639 9.37679H14.9564L14.9527 9.37482H13.8764C13.7992 9.37482 13.725 9.40689 13.6702 9.46404C13.6154 9.52118 13.5844 9.59876 13.5839 9.67984V16.5397C13.5839 16.709 13.7152 16.8448 13.8764 16.8448H14.9264C15.0895 16.8448 15.2208 16.707 15.2208 16.5397V12.4663L18.2208 16.7169C18.2407 16.7461 18.2655 16.7715 18.2939 16.7916L18.2958 16.7936L18.3145 16.8054L18.322 16.8093C18.3269 16.8123 18.3319 16.8149 18.337 16.8172L18.3502 16.8231L18.3595 16.8271C18.3657 16.8292 18.372 16.8312 18.3783 16.833H18.3839C18.4083 16.8403 18.4335 16.8443 18.4589 16.8448H19.5089C19.672 16.8448 19.8033 16.707 19.8033 16.5397V9.67787C19.8033 9.59645 19.7725 9.51837 19.7176 9.4608C19.6628 9.40323 19.5884 9.37088 19.5108 9.37088H18.4589ZM25.612 10.7818V9.67984C25.6123 9.63952 25.605 9.59955 25.5905 9.56221C25.576 9.52486 25.5547 9.49088 25.5277 9.46219C25.5007 9.4335 25.4686 9.41067 25.4332 9.395C25.3978 9.37934 25.3598 9.37114 25.3214 9.37088H21.1177C21.042 9.37098 20.9693 9.40204 20.9152 9.45747H20.9133L20.9114 9.4614L20.9077 9.46731C20.8553 9.52369 20.8257 9.59914 20.8252 9.67787V16.5378C20.8252 16.6185 20.857 16.6952 20.9077 16.7483L20.9114 16.7542L20.9152 16.7582C20.9696 16.8129 21.0423 16.8432 21.1177 16.8428H25.3214C25.4827 16.8428 25.612 16.705 25.612 16.5358V15.4338C25.6123 15.3935 25.605 15.3535 25.5905 15.3162C25.576 15.2788 25.5547 15.2449 25.5277 15.2162C25.5007 15.1875 25.4686 15.1647 25.4332 15.149C25.3978 15.1333 25.3598 15.1251 25.3214 15.1249H22.4602V13.9658H25.3195C25.4808 13.9658 25.6102 13.8281 25.6102 13.6588V12.5568C25.6104 12.5165 25.6031 12.4765 25.5886 12.4392C25.5741 12.4019 25.5528 12.3679 25.5258 12.3392C25.4988 12.3105 25.4667 12.2877 25.4313 12.272C25.3959 12.2563 25.3579 12.2481 25.3195 12.2479H22.4602V11.0888H25.3195C25.4808 11.0888 25.6102 10.9511 25.6102 10.7818H25.612Z" fill="#BABABA"/>
</svg>
