<svg width="31" height="30" viewBox="0 0 31 30" fill="none" xmlns="http://www.w3.org/2000/svg">
<path d="M17.8211 14.7391L14.3117 13.1016C14.0055 12.9594 13.7539 13.1187 13.7539 13.4578V16.5422C13.7539 16.8813 14.0055 17.0406 14.3117 16.8984L17.8195 15.2609C18.1273 15.1172 18.1273 14.8828 17.8211 14.7391ZM15.3164 0C7.03203 0 0.316406 6.71562 0.316406 15C0.316406 23.2844 7.03203 30 15.3164 30C23.6008 30 30.3164 23.2844 30.3164 15C30.3164 6.71562 23.6008 0 15.3164 0ZM15.3164 21.0937C7.63828 21.0937 7.50391 20.4016 7.50391 15C7.50391 9.59844 7.63828 8.90625 15.3164 8.90625C22.9945 8.90625 23.1289 9.59844 23.1289 15C23.1289 20.4016 22.9945 21.0937 15.3164 21.0937Z" fill="#BABABA"/>
</svg>
