<svg width="381" height="93" viewBox="0 0 381 93" fill="none" xmlns="http://www.w3.org/2000/svg">
<path d="M1.992 25.424V27.568H30.408V25.424H1.992ZM14.888 22.448V36.496H17.32V22.448H14.888ZM13.8 26.256C11.176 29.648 6.024 32.688 1.352 34.128C1.896 34.608 2.6 35.536 2.984 36.144C7.656 34.448 12.872 31.024 15.784 27.152L13.8 26.256ZM18.44 26.32L16.424 27.28C19.336 31.056 24.552 34.32 29.416 35.92C29.768 35.28 30.504 34.352 31.016 33.872C26.152 32.56 21.032 29.648 18.44 26.32ZM13.64 17.456H18.664V20.976H13.64V17.456ZM13.64 12.176H18.664V15.632H13.64V12.176ZM11.56 10.288V22.864H20.776V10.288H11.56ZM15.304 7.12C15.112 8.272 14.664 9.968 14.28 11.088L16.168 11.504C16.648 10.48 17.192 8.944 17.704 7.504L15.304 7.12ZM2.216 13.36C3.816 14.672 5.704 16.528 6.536 17.808L7.656 16.048C6.824 14.832 4.904 13.04 3.272 11.824L2.216 13.36ZM8.04 18.064C8.968 19.888 9.864 22.352 10.12 23.888L11.816 23.216C11.528 21.744 10.6 19.344 9.64 17.552L8.04 18.064ZM8.84 11.792C7.528 14.704 5.192 18.8 3.336 21.296L4.904 22.032C6.76 19.568 9.032 15.696 10.728 12.528L8.84 11.792ZM6.344 7.344C5.704 9.2 4.488 11.824 3.56 13.456L5.16 14.16C6.152 12.56 7.304 10.128 8.264 8.048L6.344 7.344ZM1.928 21.104L2.184 23.184C4.52 22.8 7.368 22.416 10.312 21.936L10.28 20.208C7.112 20.56 4.104 20.912 1.928 21.104ZM20.584 13.104C22.28 14.576 24.2 16.656 25.032 18.064L26.28 16.4C25.416 15.056 23.464 13.04 21.8 11.632L20.584 13.104ZM26.536 17.808C27.624 19.824 28.68 22.448 29 24.144L30.792 23.408C30.44 21.776 29.32 19.152 28.2 17.2L26.536 17.808ZM27.336 11.76C26.024 14.704 23.592 18.832 21.704 21.36L23.272 22.096C25.192 19.6 27.528 15.696 29.224 12.528L27.336 11.76ZM25 7.248C24.36 9.104 23.112 11.728 22.152 13.36L23.752 14.064C24.776 12.464 25.96 10.064 26.952 7.952L25 7.248ZM20.712 21.104L21 23.184C23.336 22.864 26.248 22.48 29.192 22.096L29.16 20.336C25.992 20.624 22.952 20.912 20.712 21.104ZM41.448 10.48H47.368V15.44H41.448V10.48ZM39.24 8.528V17.392H49.672V8.528H39.24ZM55.4 10.48H61.352V15.44H55.4V10.48ZM53.192 8.528V17.392H63.656V8.528H53.192ZM37.064 19.824V21.968H65.768V19.824H37.064ZM40.84 33.392V35.44H48.616V33.392H40.84ZM53.992 33.392V35.44H61.832V33.392H53.992ZM55.432 20.4L53.256 21.264C55.816 24.72 60.456 27.504 65.16 28.848C65.512 28.24 66.152 27.376 66.696 26.896C62.152 25.84 57.608 23.344 55.432 20.4ZM39.72 26.192V36.656H41.864V28.24H47.656V36.528H49.864V26.192H39.72ZM52.872 26.192V36.656H55.016V28.24H60.84V36.528H63.08V26.192H52.872ZM49.832 16.496C47.688 21.424 42.664 24.88 36.232 27.056C36.712 27.472 37.448 28.368 37.736 28.88C44.424 26.512 49.608 22.768 52.168 17.264L49.832 16.496ZM72.776 10.16V12.368H100.456V10.16H72.776ZM85.256 7.152V11.44H87.72V7.152H85.256ZM74.152 15.76V36.528H76.424V17.904H98.312V15.76H74.152ZM97.032 15.76V33.616C97.032 34.096 96.872 34.256 96.296 34.256C95.72 34.288 93.8 34.32 91.72 34.224C92.04 34.864 92.424 35.952 92.52 36.592C95.176 36.592 96.936 36.528 97.992 36.176C99.016 35.792 99.336 35.024 99.336 33.616V15.76H97.032ZM82.216 17.328C81.96 20.688 80.936 22.288 76.616 23.152C77.032 23.536 77.576 24.368 77.8 24.88C82.728 23.696 84.072 21.52 84.392 17.328H82.216ZM88.168 17.328V21.104C88.168 23.088 88.68 23.6 90.984 23.6C91.432 23.6 93.832 23.6 94.312 23.6C96.008 23.6 96.584 22.96 96.776 20.368C96.2 20.24 95.336 19.952 94.92 19.632C94.824 21.552 94.696 21.744 94.024 21.744C93.512 21.744 91.624 21.744 91.208 21.744C90.408 21.744 90.28 21.68 90.28 21.072V17.328H88.168ZM80.648 25.264V35.088H82.792V25.264H80.648ZM81.928 25.264V27.152H90.632V31.248H81.928V33.136H92.808V25.264H81.928ZM78.92 12.368C79.624 13.616 80.328 15.28 80.616 16.368L83.048 15.792C82.728 14.736 81.992 13.104 81.256 11.888L78.92 12.368ZM91.816 11.792C91.368 12.976 90.536 14.768 89.864 15.888L92.2 16.368C92.872 15.312 93.672 13.808 94.44 12.272L91.816 11.792ZM107.496 14.96V17.168H116.168V14.96H107.496ZM110.856 7.504V28.944H113.128V7.504H110.856ZM107.112 29.872L107.88 32.272C110.408 31.248 113.608 30 116.648 28.752L116.232 26.576C112.872 27.856 109.416 29.136 107.112 29.872ZM118.408 12.048V14.256H136.264V12.048H118.408ZM118.824 18.576V20.624H124.744V18.576H118.824ZM117.512 12.048V22C117.512 26.16 117.192 31.44 113.992 35.184C114.504 35.472 115.4 36.208 115.752 36.656C119.208 32.688 119.752 26.576 119.752 22.032V12.048H117.512ZM123.816 18.576V18.96C123.72 26.032 123.592 28.432 123.24 28.944C123.048 29.2 122.824 29.264 122.408 29.264C122.024 29.264 121.032 29.264 119.912 29.168C120.232 29.712 120.424 30.576 120.488 31.216C121.608 31.28 122.76 31.248 123.4 31.184C124.168 31.12 124.616 30.896 125.032 30.32C125.64 29.52 125.768 26.896 125.864 19.536C125.896 19.248 125.896 18.576 125.896 18.576H123.816ZM127.144 7.12C127.272 22.608 128.712 36.24 133.672 36.24C135.784 36.24 136.488 34.736 136.84 29.936C136.264 29.712 135.496 29.2 135.048 28.688C134.92 32.4 134.6 33.968 133.96 33.968C131.208 33.968 129.32 22.16 129.448 7.12H127.144ZM130.056 8.368C131.464 9.488 133.064 11.056 133.8 12.112L135.528 10.928C134.76 9.872 133.096 8.368 131.688 7.312L130.056 8.368ZM133.512 17.808C131.688 25.456 128.136 31.312 122.472 34.8C122.952 35.152 123.816 36.016 124.168 36.464C129.864 32.56 133.64 26.448 135.72 18.224L133.512 17.808Z" fill="#F2F2F2"/>
<path d="M88.12 83V82.68H88.792C89.304 82.68 89.7307 82.6053 90.072 82.456C90.4347 82.3067 90.7013 82.072 90.872 81.752C91.064 81.4107 91.16 80.9733 91.16 80.44V62.616C91.16 62.104 91.064 61.688 90.872 61.368C90.7013 61.048 90.4347 60.824 90.072 60.696C89.7307 60.5467 89.304 60.472 88.792 60.472H88.12V60.152H97.912V60.472H97.24C96.7493 60.472 96.3227 60.5467 95.96 60.696C95.5973 60.8453 95.3307 61.0907 95.16 61.432C94.9893 61.752 94.904 62.1787 94.904 62.712V80.44C94.904 80.9733 94.9893 81.4107 95.16 81.752C95.3307 82.072 95.5973 82.3067 95.96 82.456C96.3227 82.6053 96.7493 82.68 97.24 82.68H97.912V83H88.12ZM99.8313 83V82.68H100.119C100.695 82.68 101.165 82.6053 101.527 82.456C101.911 82.2853 102.189 82.008 102.359 81.624C102.551 81.2187 102.647 80.6747 102.647 79.992V68.792C102.647 68.1093 102.551 67.5867 102.359 67.224C102.189 66.84 101.922 66.5733 101.559 66.424C101.197 66.2533 100.738 66.168 100.183 66.168H99.9593V65.848H106.135V68.824H106.199C106.498 67.8427 106.903 67.1173 107.415 66.648C107.927 66.1787 108.493 65.8693 109.111 65.72C109.751 65.5707 110.349 65.496 110.903 65.496C112.802 65.496 114.21 65.9973 115.127 67C116.045 67.9813 116.503 69.56 116.503 71.736V79.928C116.503 80.6533 116.578 81.2187 116.727 81.624C116.898 82.008 117.154 82.2853 117.495 82.456C117.837 82.6053 118.285 82.68 118.839 82.68H118.999V83H112.983V70.68C112.983 69.2933 112.749 68.184 112.279 67.352C111.81 66.52 110.999 66.104 109.847 66.104C108.93 66.104 108.194 66.3707 107.639 66.904C107.106 67.4373 106.722 68.1413 106.487 69.016C106.274 69.8693 106.167 70.7867 106.167 71.768V79.96C106.167 80.6853 106.253 81.24 106.423 81.624C106.615 82.008 106.893 82.2853 107.255 82.456C107.639 82.6053 108.109 82.68 108.663 82.68H108.855V83H99.8313ZM126.787 83.32C125.635 83.32 124.632 83.1813 123.779 82.904C122.947 82.6267 122.307 82.232 121.859 81.72C121.411 81.1867 121.187 80.5573 121.187 79.832C121.187 79.2133 121.315 78.744 121.571 78.424C121.848 78.104 122.158 77.88 122.499 77.752C122.862 77.624 123.182 77.56 123.459 77.56C123.459 78.7973 123.566 79.8213 123.779 80.632C124.014 81.4213 124.387 82.0187 124.899 82.424C125.411 82.808 126.094 83 126.947 83C128.035 83 128.899 82.7227 129.539 82.168C130.2 81.592 130.531 80.7387 130.531 79.608C130.531 78.8613 130.392 78.2747 130.115 77.848C129.859 77.4213 129.432 77.048 128.835 76.728C128.238 76.3867 127.427 76.0027 126.403 75.576C125.251 75.0853 124.312 74.6053 123.587 74.136C122.862 73.6453 122.318 73.0907 121.955 72.472C121.614 71.8533 121.443 71.096 121.443 70.2C121.443 68.6853 121.976 67.5333 123.043 66.744C124.131 65.9333 125.624 65.528 127.523 65.528C128.632 65.528 129.56 65.6667 130.307 65.944C131.075 66.2213 131.651 66.584 132.035 67.032C132.419 67.48 132.611 67.9813 132.611 68.536C132.611 69.112 132.398 69.5813 131.971 69.944C131.544 70.3067 130.904 70.488 130.051 70.488C130.051 68.8027 129.816 67.608 129.347 66.904C128.899 66.2 128.206 65.848 127.267 65.848C126.627 65.848 126.072 65.9653 125.603 66.2C125.134 66.4133 124.76 66.744 124.483 67.192C124.227 67.6187 124.099 68.184 124.099 68.888C124.099 69.6133 124.248 70.2 124.547 70.648C124.867 71.0747 125.347 71.448 125.987 71.768C126.627 72.088 127.448 72.4507 128.451 72.856C129.603 73.304 130.531 73.7733 131.235 74.264C131.939 74.7547 132.451 75.3093 132.771 75.928C133.091 76.5467 133.251 77.2933 133.251 78.168C133.251 79.832 132.675 81.112 131.523 82.008C130.392 82.8827 128.814 83.32 126.787 83.32ZM142.337 83.32C140.758 83.32 139.585 82.9573 138.817 82.232C138.049 81.4853 137.665 80.184 137.665 78.328V66.168H135.265V65.848C136.097 65.848 136.822 65.7733 137.441 65.624C138.081 65.4533 138.625 65.1973 139.073 64.856C139.542 64.5147 139.916 64.0773 140.193 63.544C140.492 62.9893 140.716 62.328 140.865 61.56H141.185V65.848H145.569V66.168H141.185V79.576C141.185 80.664 141.388 81.4747 141.793 82.008C142.22 82.5413 142.838 82.808 143.649 82.808C143.948 82.808 144.257 82.776 144.577 82.712C144.918 82.648 145.27 82.552 145.633 82.424V82.744C145.356 82.872 144.908 83 144.289 83.128C143.67 83.256 143.02 83.32 142.337 83.32ZM147.079 83V82.68H147.463C148.018 82.68 148.476 82.6053 148.839 82.456C149.223 82.3067 149.511 82.0613 149.703 81.72C149.895 81.3787 149.991 80.9093 149.991 80.312V68.504C149.991 67.928 149.895 67.4693 149.703 67.128C149.511 66.7867 149.223 66.5413 148.839 66.392C148.476 66.2427 148.018 66.168 147.463 66.168H147.367V65.848H153.479V68.92H153.543C153.714 68.3227 153.959 67.768 154.279 67.256C154.62 66.744 155.09 66.328 155.687 66.008C156.284 65.6667 157.063 65.496 158.023 65.496C159.132 65.496 159.975 65.72 160.551 66.168C161.127 66.5947 161.415 67.2027 161.415 67.992C161.415 68.7173 161.148 69.304 160.615 69.752C160.082 70.2 159.26 70.424 158.151 70.424C158.151 69.464 158.055 68.7173 157.863 68.184C157.671 67.6507 157.415 67.2773 157.095 67.064C156.796 66.8293 156.455 66.712 156.071 66.712C155.538 66.712 155.1 66.8933 154.759 67.256C154.418 67.6187 154.151 68.1093 153.959 68.728C153.788 69.3467 153.671 70.008 153.607 70.712C153.543 71.416 153.511 72.1307 153.511 72.856V80.216C153.511 80.8347 153.607 81.3253 153.799 81.688C153.991 82.0507 154.279 82.3067 154.663 82.456C155.047 82.6053 155.506 82.68 156.039 82.68H156.615V83H147.079ZM170.834 83.32C168.957 83.32 167.56 82.8293 166.642 81.848C165.725 80.8453 165.266 79.256 165.266 77.08V68.888C165.266 68.184 165.181 67.64 165.01 67.256C164.861 66.8507 164.605 66.5733 164.242 66.424C163.88 66.2533 163.389 66.168 162.77 66.168H162.674V65.848H168.786V77.496C168.786 78.7333 168.872 79.736 169.042 80.504C169.234 81.272 169.544 81.8373 169.97 82.2C170.397 82.5627 170.973 82.744 171.698 82.744C172.594 82.744 173.33 82.488 173.906 81.976C174.482 81.464 174.909 80.7387 175.186 79.8C175.464 78.84 175.602 77.6987 175.602 76.376V68.824C175.602 68.1413 175.506 67.608 175.314 67.224C175.144 66.84 174.866 66.5733 174.482 66.424C174.12 66.2533 173.65 66.168 173.074 66.168H172.978V65.848H179.122V80.088C179.122 80.7707 179.218 81.304 179.41 81.688C179.602 82.0507 179.88 82.3067 180.242 82.456C180.626 82.6053 181.096 82.68 181.65 82.68H181.746V83H175.762V79H175.698C175.528 79.9813 175.261 80.76 174.898 81.336C174.536 81.912 174.12 82.3387 173.65 82.616C173.202 82.8933 172.733 83.0747 172.242 83.16C171.752 83.2667 171.282 83.32 170.834 83.32ZM183.3 83V82.68H183.588C184.143 82.68 184.601 82.6053 184.964 82.456C185.348 82.3067 185.636 82.0613 185.828 81.72C186.02 81.3787 186.116 80.9093 186.116 80.312V68.504C186.116 67.9067 186.02 67.448 185.828 67.128C185.636 66.7867 185.348 66.5413 184.964 66.392C184.601 66.2427 184.143 66.168 183.588 66.168H183.428V65.848H189.604V68.856H189.668C189.967 67.9173 190.361 67.2133 190.852 66.744C191.343 66.2533 191.897 65.9227 192.516 65.752C193.135 65.5813 193.764 65.496 194.404 65.496C195.236 65.496 195.983 65.624 196.644 65.88C197.327 66.136 197.913 66.552 198.404 67.128C198.916 67.6827 199.3 68.44 199.556 69.4H199.62C199.855 68.3333 200.196 67.5227 200.644 66.968C201.113 66.4133 201.657 66.0293 202.276 65.816C202.916 65.6027 203.588 65.496 204.292 65.496C206.148 65.496 207.524 66.0187 208.42 67.064C209.316 68.088 209.764 69.6773 209.764 71.832V80.152C209.764 80.792 209.839 81.304 209.988 81.688C210.159 82.0507 210.425 82.3067 210.788 82.456C211.172 82.6053 211.652 82.68 212.228 82.68H212.324V83H206.244V71.064C206.244 69.4 206.009 68.184 205.54 67.416C205.092 66.6267 204.356 66.232 203.332 66.232C202.543 66.232 201.871 66.456 201.316 66.904C200.783 67.3307 200.388 67.9493 200.132 68.76C199.876 69.5707 199.748 70.5413 199.748 71.672V80.152C199.748 80.792 199.833 81.304 200.004 81.688C200.175 82.0507 200.441 82.3067 200.804 82.456C201.188 82.6053 201.668 82.68 202.244 82.68H202.34V83H196.228V71.064C196.228 69.4 195.993 68.184 195.524 67.416C195.076 66.6267 194.319 66.232 193.252 66.232C192.42 66.232 191.737 66.456 191.204 66.904C190.671 67.352 190.276 68.0133 190.02 68.888C189.764 69.7627 189.636 70.8293 189.636 72.088V80.216C189.636 80.8347 189.732 81.3253 189.924 81.688C190.116 82.0507 190.404 82.3067 190.788 82.456C191.172 82.6053 191.631 82.68 192.164 82.68H192.324V83H183.3ZM222.598 83.32C220.102 83.32 218.171 82.552 216.806 81.016C215.462 79.48 214.79 77.3253 214.79 74.552C214.79 71.544 215.43 69.2827 216.71 67.768C217.99 66.2533 219.792 65.496 222.118 65.496C224.251 65.496 225.926 66.1467 227.142 67.448C228.379 68.728 228.998 70.6373 228.998 73.176V73.944H218.406C218.406 76.0987 218.555 77.848 218.854 79.192C219.152 80.5147 219.632 81.4853 220.294 82.104C220.955 82.7013 221.819 83 222.886 83C223.675 83 224.379 82.8507 224.998 82.552C225.616 82.232 226.139 81.7627 226.566 81.144C226.992 80.5253 227.28 79.7467 227.43 78.808C227.728 78.872 227.942 79.0213 228.07 79.256C228.219 79.4693 228.294 79.7147 228.294 79.992C228.294 80.4613 228.08 80.9627 227.654 81.496C227.248 82.008 226.619 82.4453 225.766 82.808C224.934 83.1493 223.878 83.32 222.598 83.32ZM225.318 73.624C225.318 71.7253 225.211 70.2107 224.998 69.08C224.784 67.9493 224.443 67.128 223.974 66.616C223.504 66.0827 222.875 65.816 222.086 65.816C221.254 65.816 220.571 66.0827 220.038 66.616C219.526 67.128 219.142 67.9493 218.886 69.08C218.63 70.2107 218.47 71.7253 218.406 73.624H225.318ZM231.331 83V82.68H231.619C232.195 82.68 232.665 82.6053 233.027 82.456C233.411 82.2853 233.689 82.008 233.859 81.624C234.051 81.2187 234.147 80.6747 234.147 79.992V68.792C234.147 68.1093 234.051 67.5867 233.859 67.224C233.689 66.84 233.422 66.5733 233.059 66.424C232.697 66.2533 232.238 66.168 231.683 66.168H231.459V65.848H237.635V68.824H237.699C237.998 67.8427 238.403 67.1173 238.915 66.648C239.427 66.1787 239.993 65.8693 240.611 65.72C241.251 65.5707 241.849 65.496 242.403 65.496C244.302 65.496 245.71 65.9973 246.627 67C247.545 67.9813 248.003 69.56 248.003 71.736V79.928C248.003 80.6533 248.078 81.2187 248.227 81.624C248.398 82.008 248.654 82.2853 248.995 82.456C249.337 82.6053 249.785 82.68 250.339 82.68H250.499V83H244.483V70.68C244.483 69.2933 244.249 68.184 243.779 67.352C243.31 66.52 242.499 66.104 241.347 66.104C240.43 66.104 239.694 66.3707 239.139 66.904C238.606 67.4373 238.222 68.1413 237.987 69.016C237.774 69.8693 237.667 70.7867 237.667 71.768V79.96C237.667 80.6853 237.753 81.24 237.923 81.624C238.115 82.008 238.393 82.2853 238.755 82.456C239.139 82.6053 239.609 82.68 240.163 82.68H240.355V83H231.331ZM259.087 83.32C257.508 83.32 256.335 82.9573 255.567 82.232C254.799 81.4853 254.415 80.184 254.415 78.328V66.168H252.015V65.848C252.847 65.848 253.572 65.7733 254.191 65.624C254.831 65.4533 255.375 65.1973 255.823 64.856C256.292 64.5147 256.666 64.0773 256.943 63.544C257.242 62.9893 257.466 62.328 257.615 61.56H257.935V65.848H262.319V66.168H257.935V79.576C257.935 80.664 258.138 81.4747 258.543 82.008C258.97 82.5413 259.588 82.808 260.399 82.808C260.698 82.808 261.007 82.776 261.327 82.712C261.668 82.648 262.02 82.552 262.383 82.424V82.744C262.106 82.872 261.658 83 261.039 83.128C260.42 83.256 259.77 83.32 259.087 83.32ZM269.909 83.32C268.842 83.32 267.914 83.128 267.125 82.744C266.336 82.3387 265.728 81.784 265.301 81.08C264.896 80.3547 264.693 79.5013 264.693 78.52C264.693 76.8773 265.29 75.6613 266.485 74.872C267.68 74.0827 269.504 73.6453 271.957 73.56L274.581 73.464V70.616C274.581 69.4853 274.517 68.568 274.389 67.864C274.261 67.16 274.005 66.648 273.621 66.328C273.237 65.9867 272.661 65.816 271.893 65.816C271.146 65.816 270.57 65.9867 270.165 66.328C269.781 66.648 269.514 67.16 269.365 67.864C269.237 68.568 269.173 69.5067 269.173 70.68C268.149 70.68 267.37 70.5307 266.837 70.232C266.304 69.912 266.037 69.4 266.037 68.696C266.037 67.928 266.304 67.3093 266.837 66.84C267.392 66.3707 268.117 66.0293 269.013 65.816C269.93 65.6027 270.933 65.496 272.021 65.496C274.048 65.496 275.562 65.912 276.565 66.744C277.589 67.576 278.101 68.9947 278.101 71V80.568C278.101 81.1013 278.165 81.528 278.293 81.848C278.421 82.1467 278.634 82.36 278.933 82.488C279.232 82.616 279.616 82.68 280.085 82.68H280.181V83H274.805V79.672H274.741C274.506 80.5467 274.154 81.2507 273.685 81.784C273.216 82.3173 272.661 82.712 272.021 82.968C271.381 83.2027 270.677 83.32 269.909 83.32ZM270.837 82.744C271.584 82.744 272.234 82.5307 272.789 82.104C273.365 81.6773 273.802 81.1227 274.101 80.44C274.421 79.736 274.581 78.9787 274.581 78.168V73.816L272.693 73.88C271.584 73.9227 270.709 74.1147 270.069 74.456C269.429 74.7973 268.97 75.3093 268.693 75.992C268.437 76.6747 268.309 77.592 268.309 78.744C268.309 79.64 268.394 80.3867 268.565 80.984C268.757 81.5813 269.034 82.0293 269.397 82.328C269.781 82.6053 270.261 82.744 270.837 82.744ZM281.917 83V82.68H282.333C282.887 82.68 283.346 82.6053 283.709 82.456C284.093 82.3067 284.381 82.0613 284.573 81.72C284.765 81.3787 284.861 80.9093 284.861 80.312V61.336C284.861 60.76 284.765 60.3013 284.573 59.96C284.381 59.6187 284.093 59.3733 283.709 59.224C283.325 59.0747 282.866 59 282.333 59H281.917V58.68H288.381V80.216C288.381 80.8347 288.477 81.3253 288.669 81.688C288.861 82.0507 289.138 82.3067 289.501 82.456C289.885 82.6053 290.354 82.68 290.909 82.68H291.293V83H281.917ZM307.193 83.32C306.083 83.32 305.091 83.2027 304.217 82.968C303.363 82.7333 302.649 82.4133 302.073 82.008C301.497 81.6027 301.059 81.1333 300.761 80.6C300.483 80.0453 300.345 79.4693 300.345 78.872C300.345 78.3173 300.451 77.8693 300.665 77.528C300.899 77.1653 301.219 76.8987 301.625 76.728C302.03 76.536 302.489 76.44 303.001 76.44C303.022 77.9973 303.203 79.256 303.545 80.216C303.886 81.176 304.387 81.88 305.049 82.328C305.731 82.776 306.563 83 307.545 83C308.889 83 309.977 82.616 310.809 81.848C311.662 81.08 312.089 79.9493 312.089 78.456C312.089 77.4747 311.897 76.6853 311.513 76.088C311.129 75.4693 310.542 74.9147 309.753 74.424C308.963 73.9333 307.939 73.4107 306.681 72.856C305.913 72.5147 305.166 72.1413 304.441 71.736C303.737 71.3307 303.107 70.8613 302.553 70.328C301.998 69.7947 301.561 69.1653 301.241 68.44C300.942 67.6933 300.793 66.84 300.793 65.88C300.793 64.5787 301.081 63.48 301.657 62.584C302.233 61.688 303.054 61.0053 304.121 60.536C305.209 60.0667 306.478 59.832 307.929 59.832C309.23 59.832 310.339 60.0027 311.257 60.344C312.195 60.6853 312.921 61.1333 313.433 61.688C313.966 62.2427 314.233 62.8507 314.233 63.512C314.233 64.1733 313.966 64.7067 313.433 65.112C312.921 65.496 312.217 65.688 311.321 65.688C311.321 64.4507 311.193 63.4267 310.937 62.616C310.702 61.8053 310.318 61.1973 309.785 60.792C309.251 60.3867 308.537 60.184 307.641 60.184C306.915 60.184 306.243 60.3333 305.625 60.632C305.027 60.9307 304.558 61.3893 304.217 62.008C303.875 62.6053 303.705 63.3947 303.705 64.376C303.705 65.3573 303.897 66.168 304.281 66.808C304.665 67.448 305.251 68.0133 306.041 68.504C306.83 68.9733 307.843 69.496 309.081 70.072C310.275 70.584 311.321 71.128 312.217 71.704C313.134 72.2587 313.849 72.9413 314.361 73.752C314.873 74.5627 315.129 75.5867 315.129 76.824C315.129 78.1467 314.819 79.2987 314.201 80.28C313.582 81.24 312.675 81.9867 311.481 82.52C310.307 83.0533 308.878 83.32 307.193 83.32ZM324.462 83.32C322.883 83.32 321.71 82.9573 320.942 82.232C320.174 81.4853 319.79 80.184 319.79 78.328V66.168H317.39V65.848C318.222 65.848 318.947 65.7733 319.566 65.624C320.206 65.4533 320.75 65.1973 321.198 64.856C321.667 64.5147 322.041 64.0773 322.318 63.544C322.617 62.9893 322.841 62.328 322.99 61.56H323.31V65.848H327.694V66.168H323.31V79.576C323.31 80.664 323.513 81.4747 323.918 82.008C324.345 82.5413 324.963 82.808 325.774 82.808C326.073 82.808 326.382 82.776 326.702 82.712C327.043 82.648 327.395 82.552 327.758 82.424V82.744C327.481 82.872 327.033 83 326.414 83.128C325.795 83.256 325.145 83.32 324.462 83.32ZM337.844 83.32C335.476 83.32 333.609 82.584 332.244 81.112C330.879 79.64 330.196 77.4 330.196 74.392C330.196 71.384 330.847 69.1547 332.148 67.704C333.449 66.232 335.38 65.496 337.94 65.496C340.308 65.496 342.175 66.232 343.54 67.704C344.905 69.1547 345.588 71.384 345.588 74.392C345.588 77.4 344.927 79.64 343.604 81.112C342.303 82.584 340.383 83.32 337.844 83.32ZM337.908 83C338.889 83 339.679 82.7227 340.276 82.168C340.873 81.592 341.3 80.6747 341.556 79.416C341.833 78.136 341.972 76.4613 341.972 74.392C341.972 72.3227 341.833 70.6587 341.556 69.4C341.3 68.1413 340.873 67.2347 340.276 66.68C339.679 66.104 338.879 65.816 337.876 65.816C336.895 65.816 336.105 66.104 335.508 66.68C334.911 67.2347 334.473 68.1413 334.196 69.4C333.94 70.6587 333.812 72.3227 333.812 74.392C333.812 76.4827 333.94 78.1573 334.196 79.416C334.473 80.6747 334.911 81.592 335.508 82.168C336.127 82.7227 336.927 83 337.908 83ZM347.985 83V82.68H348.369C348.924 82.68 349.383 82.6053 349.745 82.456C350.129 82.3067 350.417 82.0613 350.609 81.72C350.801 81.3787 350.897 80.9093 350.897 80.312V68.504C350.897 67.928 350.801 67.4693 350.609 67.128C350.417 66.7867 350.129 66.5413 349.745 66.392C349.383 66.2427 348.924 66.168 348.369 66.168H348.273V65.848H354.385V68.92H354.449C354.62 68.3227 354.865 67.768 355.185 67.256C355.527 66.744 355.996 66.328 356.593 66.008C357.191 65.6667 357.969 65.496 358.929 65.496C360.039 65.496 360.881 65.72 361.457 66.168C362.033 66.5947 362.321 67.2027 362.321 67.992C362.321 68.7173 362.055 69.304 361.521 69.752C360.988 70.2 360.167 70.424 359.057 70.424C359.057 69.464 358.961 68.7173 358.769 68.184C358.577 67.6507 358.321 67.2773 358.001 67.064C357.703 66.8293 357.361 66.712 356.977 66.712C356.444 66.712 356.007 66.8933 355.665 67.256C355.324 67.6187 355.057 68.1093 354.865 68.728C354.695 69.3467 354.577 70.008 354.513 70.712C354.449 71.416 354.417 72.1307 354.417 72.856V80.216C354.417 80.8347 354.513 81.3253 354.705 81.688C354.897 82.0507 355.185 82.3067 355.569 82.456C355.953 82.6053 356.412 82.68 356.945 82.68H357.521V83H347.985ZM372.317 83.32C369.821 83.32 367.89 82.552 366.525 81.016C365.181 79.48 364.509 77.3253 364.509 74.552C364.509 71.544 365.149 69.2827 366.429 67.768C367.709 66.2533 369.511 65.496 371.837 65.496C373.97 65.496 375.645 66.1467 376.861 67.448C378.098 68.728 378.717 70.6373 378.717 73.176V73.944H368.125C368.125 76.0987 368.274 77.848 368.573 79.192C368.871 80.5147 369.351 81.4853 370.013 82.104C370.674 82.7013 371.538 83 372.605 83C373.394 83 374.098 82.8507 374.717 82.552C375.335 82.232 375.858 81.7627 376.285 81.144C376.711 80.5253 376.999 79.7467 377.149 78.808C377.447 78.872 377.661 79.0213 377.789 79.256C377.938 79.4693 378.013 79.7147 378.013 79.992C378.013 80.4613 377.799 80.9627 377.373 81.496C376.967 82.008 376.338 82.4453 375.485 82.808C374.653 83.1493 373.597 83.32 372.317 83.32ZM375.037 73.624C375.037 71.7253 374.93 70.2107 374.717 69.08C374.503 67.9493 374.162 67.128 373.693 66.616C373.223 66.0827 372.594 65.816 371.805 65.816C370.973 65.816 370.29 66.0827 369.757 66.616C369.245 67.128 368.861 67.9493 368.605 69.08C368.349 70.2107 368.189 71.7253 368.125 73.624H375.037Z" fill="#F2F2F2"/>
<path d="M29.5 81L210 21" stroke="#F2F2F2" stroke-width="2"/>
</svg>
