<svg width="185" height="172" viewBox="0 0 185 172" fill="none" xmlns="http://www.w3.org/2000/svg">
<path d="M144.548 107.651C144.743 106.12 144.813 104.597 144.7 103.11C144.61 101.623 144.417 100.143 144.06 98.7298C142.723 93.0535 139.528 88.0012 134.992 84.7619C133.869 83.9517 132.669 83.2601 131.427 82.7037C130.169 82.1836 128.9 81.7355 127.614 81.4891C127.267 81.4047 126.93 81.3469 126.579 81.2939C127.639 77.2203 128.756 73.096 129.93 68.9432C134.907 66.596 139.841 63.9859 144.627 60.5344C147.754 58.2516 150.861 55.5622 153.35 52.2321C154.612 50.5913 155.681 48.817 156.612 47.0331C157.079 46.1255 157.471 45.2602 157.896 44.3L158.408 43.0601L158.947 41.6673C160.305 38.0418 161.235 34.2716 161.66 30.3766C162.072 26.4864 162.042 22.5011 160.992 18.4812C160.723 17.473 160.386 16.4668 159.916 15.4642C159.445 14.4616 158.871 13.4439 157.991 12.4929C157.561 12.0171 157.039 11.5528 156.406 11.1587C156.087 10.9661 155.751 10.7875 155.371 10.6324C155.24 10.5823 155.281 10.5902 155.005 10.4949L154.847 10.4545C154.69 10.4141 154.275 10.3092 154.105 10.296C153.202 10.1732 152.343 10.3132 151.642 10.5384C150.928 10.7683 150.337 11.0888 149.828 11.425C147.826 12.8089 146.657 14.3935 145.537 15.9679C144.449 17.5458 143.531 19.1593 142.686 20.7842C139.385 27.2996 136.915 33.9264 134.685 40.533C132.711 46.3319 130.951 52.1203 129.311 57.8428C126.566 59.2114 123.77 60.5456 120.998 61.8792C119.404 62.6479 117.826 63.358 116.206 64.1587C114.516 64.9927 112.849 65.8708 111.238 66.8412C108.008 68.778 104.97 71.036 102.199 73.573C99.4139 76.0924 96.9288 78.9392 94.8584 82.0564C92.774 85.156 91.1139 88.5527 90.0713 92.1158C89.7824 92.9961 89.5974 93.9139 89.3804 94.8057C89.2268 95.727 89.0322 96.6182 88.9638 97.5462C88.7412 99.3732 88.77 101.229 88.9275 103.046C89.2339 106.697 90.4531 110.188 92.2453 113.208L92.9382 114.325L93.7054 115.378C94.1855 116.076 94.8262 116.761 95.386 117.43L96.2238 118.284L96.6886 118.754L97.1564 119.171L98.0787 120.009L99.0445 120.801C101.629 122.877 104.495 124.565 107.502 125.757C109.593 126.599 111.752 127.197 113.942 127.588C113.648 129.095 113.34 130.585 113.035 132.043C112.495 134.67 111.872 137.215 111.219 139.68C110.545 142.146 109.832 144.528 108.936 146.758C108.483 147.871 108.003 148.949 107.463 149.966C107.327 150.212 107.191 150.502 107.054 150.702L106.591 151.458C106.273 151.905 105.976 152.329 105.616 152.746C104.226 154.426 102.485 155.7 100.637 156.494C98.7789 157.261 96.832 157.556 94.993 157.383L94.3103 157.286L94.1441 157.263C94.1441 157.263 94.0632 157.248 94.0813 157.256L93.9913 157.236L93.6179 157.161C93.1677 157.062 92.7708 156.943 92.3418 156.799C91.5061 156.508 90.7091 156.159 89.9942 155.704C89.2883 155.254 88.6434 154.744 88.0958 154.191C87.5566 153.62 87.1189 152.997 86.7615 152.367C86.0776 151.088 85.8038 149.758 85.8865 148.539C85.9055 147.93 86.046 147.344 86.2142 146.794C86.2962 146.523 86.4006 146.252 86.5098 145.994L86.6872 145.613C86.6637 145.735 86.6872 145.613 86.6963 145.617L86.7808 145.436L86.8767 145.183C87.0819 144.837 87.3632 144.328 87.6668 143.985C87.9609 143.614 88.2784 143.288 88.5931 143.015C88.9994 142.664 89.4089 142.424 89.7888 142.248C90.5724 143.408 91.7122 144.347 93.1225 144.872C96.6882 146.17 100.628 144.343 101.926 140.777C103.224 137.212 101.497 133.175 97.9612 131.814C95.4379 130.836 92.5772 130.607 89.2536 132.246C86.6053 133.55 84.0384 135.862 82.5435 138.762C82.1609 139.488 81.8284 140.249 81.56 141.061C81.2922 141.896 81.0806 142.658 80.9156 143.652C80.7008 145.273 80.7236 147.236 81.1602 149.116C81.6016 151.01 82.4852 152.878 83.7855 154.444C84.4203 155.236 85.1517 155.963 85.9742 156.589C86.775 157.238 87.6628 157.795 88.6018 158.266C89.5409 158.737 90.5445 159.116 91.5856 159.392C92.0949 159.53 92.6617 159.64 93.2006 159.714L93.5733 159.766L93.7933 159.792L93.995 159.809L94.8288 159.866C95.9434 159.889 97.0821 159.813 98.2165 159.58C99.3419 159.344 100.454 158.968 101.528 158.465C103.646 157.422 105.582 155.897 107.085 153.949C107.47 153.478 107.822 152.936 108.17 152.403L108.605 151.635C108.78 151.33 108.898 151.076 109.038 150.8C109.594 149.702 110.082 148.561 110.515 147.395C112.283 142.724 113.468 137.672 114.679 132.422C115.013 130.923 115.351 129.393 115.694 127.853C119.244 128.283 122.837 128.126 126.299 127.279C129.365 126.524 132.332 125.247 134.944 123.431C136.265 122.535 137.466 121.473 138.558 120.316C139.11 119.746 139.621 119.123 140.109 118.501C140.356 118.208 140.596 117.812 140.841 117.474C141.082 117.123 141.336 116.745 141.49 116.486L142.012 115.626L142.606 114.446C142.944 113.721 143.268 112.978 143.506 112.229C144.029 110.729 144.38 109.194 144.562 107.668L144.548 107.651ZM153.354 15.5287C153.354 15.5287 153.336 15.5202 153.305 15.5166C153.349 15.5154 153.381 15.519 153.354 15.5287ZM152.943 16.3632L152.961 16.3717C152.961 16.3717 152.925 16.3548 152.943 16.3632ZM138.457 41.8607C139.639 38.6383 140.902 35.4315 142.264 32.2712C143.618 29.1067 145.106 25.9832 146.806 23.0463C147.656 21.5778 148.561 20.157 149.54 18.8595C150.499 17.5848 151.624 16.3772 152.601 15.7955C152.927 15.5942 153.175 15.5336 153.291 15.5215L153.409 15.5764C153.246 15.5004 153.382 15.5637 153.355 15.551C153.391 15.5679 153.441 15.6024 153.496 15.65C153.606 15.7454 153.753 15.8801 153.902 16.0818C154.541 16.865 155.023 18.2923 155.251 19.7445C155.705 22.725 155.339 26.0188 154.576 29.1715C153.804 32.3424 152.597 35.4537 151.235 38.4484L150.728 39.5361L150.125 40.7338C149.768 41.3834 149.377 42.1279 148.979 42.7921C148.161 44.121 147.278 45.3756 146.276 46.5082C144.299 48.7862 141.828 50.702 139.09 52.4597C137.436 53.4985 135.696 54.4859 133.911 55.4523C135.316 50.9218 136.815 46.3798 138.457 41.8607ZM108.625 122.97C107.277 122.43 105.952 121.769 104.696 120.985C103.427 120.228 102.229 119.317 101.097 118.337L100.253 117.591L99.4532 116.799L99.0573 116.394L98.7061 115.987L97.916 115.078C97.0618 113.952 96.196 112.732 95.5773 111.385C94.9368 110.06 94.4153 108.67 94.1427 107.219C93.8435 105.778 93.6687 104.306 93.7174 102.829C93.7438 101.351 93.9448 99.8785 94.312 98.4278C94.462 97.7033 94.7286 96.9891 94.9373 96.281C95.2178 95.5843 95.453 94.8665 95.7922 94.186C98.2976 88.6679 102.692 83.9968 107.755 80.2335C110.307 78.3557 113.053 76.7007 115.925 75.2258C117.359 74.4928 118.83 73.7991 120.338 73.167C121.938 72.4786 123.552 71.7854 125.166 71.0922C125.374 71.0015 125.573 70.9065 125.78 70.8158C124.891 74.2628 124.037 77.682 123.231 81.0685C123.119 81.0716 123.012 81.088 122.892 81.0868L121.985 81.1387C121.41 81.2127 120.838 81.2553 120.273 81.3559C115.762 82.1334 111.892 84.2354 109.266 86.8399C106.591 89.4325 105.048 92.3874 104.281 95.0526C103.527 97.7353 103.535 100.155 103.984 101.986C104.402 103.836 105.231 105.039 105.836 105.729C105.989 105.899 106.131 106.043 106.247 106.174C106.375 106.278 106.485 106.373 106.572 106.447L106.833 106.668C106.833 106.668 106.785 106.557 106.704 106.354C106.613 106.146 106.474 105.828 106.365 105.424C106.137 104.611 105.942 103.373 106.168 101.846C106.377 100.332 106.994 98.5345 108.174 96.7348C109.324 94.9315 111.037 93.1484 113.245 91.7723C115.458 90.4094 118.153 89.503 121.171 89.4198C121.215 89.4186 121.26 89.4173 121.296 89.4119C120.668 92.2746 120.071 95.1185 119.513 97.9255C118.283 103.972 117.198 109.876 116.161 115.582C115.64 118.429 115.136 121.239 114.63 123.982C114.598 124.143 114.571 124.296 114.54 124.458C112.542 124.222 110.533 123.728 108.615 122.944L108.625 122.97ZM135.103 113.311C133.563 117.326 129.94 121.242 125.004 123.168C122.376 124.238 119.415 124.722 116.405 124.622C118.222 116.344 120.115 107.617 122.273 98.5608C122.971 95.6425 123.699 92.6831 124.44 89.6966L124.485 89.7177C124.845 89.7972 125.205 89.8544 125.544 89.9793C126.942 90.3881 128.273 91.1299 129.53 92.1019C132.01 94.096 134.142 97.2628 135.32 101.055C135.895 102.945 136.247 104.985 136.264 107.056C136.266 108.094 136.196 109.142 136.014 110.172C135.935 110.698 135.797 111.207 135.668 111.72L135.557 112.099L135.5 112.293L135.476 112.392C135.412 112.528 135.523 112.315 135.493 112.378L135.121 113.319L135.103 113.311Z" fill="#6A777A"/>
<path d="M39.8464 79.826L39.8528 79.7967L47.5018 45.622L47.3846 45.5963L47.3131 45.642L21.126 43.5278L20.2618 47.5972L14.7696 73.0823C13.7184 71.5303 11.9424 70.3411 9.77421 69.8642C5.77967 68.9857 1.94004 70.9877 1.2076 74.3181C0.475153 77.6485 3.2332 80.5179 7.22774 81.3964C11.1734 82.2642 14.9353 80.4294 15.8727 76.54L15.9899 76.5657L15.7708 77.5619C15.7708 77.5619 15.7143 77.5393 15.7165 77.5295C15.7165 77.5295 15.6893 77.5133 15.6915 77.5035L21.2643 51.6982L43.6773 53.5148L38.955 75.4525C37.9038 73.9005 36.1364 72.6722 33.9682 72.1953C29.9737 71.3168 26.1383 73.2993 25.4059 76.6297C24.6734 79.9601 27.4358 82.81 31.4303 83.6885C35.376 84.5562 39.1444 82.6921 40.0817 78.8027L39.8561 79.8282L39.8464 79.826ZM21.6625 49.7482L22.0469 48L44.4179 49.9609L44.0656 51.5626L21.6625 49.7482Z" fill="#6A777A"/>
<path fill-rule="evenodd" clip-rule="evenodd" d="M94.692 7.3457C94.6813 7.39454 94.489 14.1816 100.13 20.0503C104.821 24.9318 103.773 30.0255 100.283 32.0636C102.812 36.7665 100.57 41.096 96.5501 42.0549C96.5501 42.0549 102.494 37.7922 96.791 31.1829C93.9452 27.8744 92.2445 25.4117 91.5418 23.4858L86.7531 43.6009C87.0062 44.2982 87.2392 45.2851 87.0896 46.1382L87.1215 46.1452C86.194 50.0368 81.8728 52.0865 77.2435 51.0684C72.6141 50.0503 69.5692 45.971 70.4198 42.1035C71.2704 38.2359 75.7028 36.0059 80.3322 37.024C82.8422 37.576 84.8718 39.1487 86.083 40.9509L93.2619 7.56359L94.5804 7.85357L94.692 7.3457ZM93.4256 16.9683C93.387 18.168 93.4347 24.0966 98.491 29.3656L98.4812 29.3635C99.1389 30.0508 99.6828 30.7438 100.117 31.4229C101.469 29.652 102.782 26.3366 99.0454 22.0029C96.1648 18.6663 94.7028 16.2355 94.012 14.302L93.4256 16.9683Z" fill="#6A777A"/>
</svg>
