<svg width="30" height="30" viewBox="0 0 30 30" fill="none" xmlns="http://www.w3.org/2000/svg">
<mask id="mask0_764_3309" style="mask-type:alpha" maskUnits="userSpaceOnUse" x="0" y="0" width="30" height="30">
<rect width="30" height="30" fill="#D9D9D9"/>
</mask>
<g mask="url(#mask0_764_3309)">
<path d="M15 20C16.5625 20 17.8908 19.4533 18.985 18.36C20.0783 17.2658 20.625 15.9375 20.625 14.375C20.625 12.8125 20.0783 11.4842 18.985 10.39C17.8908 9.29667 16.5625 8.75 15 8.75C13.4375 8.75 12.1092 9.29667 11.015 10.39C9.92167 11.4842 9.375 12.8125 9.375 14.375C9.375 15.9375 9.92167 17.2658 11.015 18.36C12.1092 19.4533 13.4375 20 15 20ZM15 17.75C14.0625 17.75 13.2658 17.4217 12.61 16.765C11.9533 16.1092 11.625 15.3125 11.625 14.375C11.625 13.4375 11.9533 12.6404 12.61 11.9837C13.2658 11.3279 14.0625 11 15 11C15.9375 11 16.7346 11.3279 17.3913 11.9837C18.0471 12.6404 18.375 13.4375 18.375 14.375C18.375 15.3125 18.0471 16.1092 17.3913 16.765C16.7346 17.4217 15.9375 17.75 15 17.75ZM15 23.75C11.9583 23.75 9.1875 22.9008 6.6875 21.2025C4.1875 19.505 2.375 17.2292 1.25 14.375C2.375 11.5208 4.1875 9.24458 6.6875 7.54625C9.1875 5.84875 11.9583 5 15 5C18.0417 5 20.8125 5.84875 23.3125 7.54625C25.8125 9.24458 27.625 11.5208 28.75 14.375C27.625 17.2292 25.8125 19.505 23.3125 21.2025C20.8125 22.9008 18.0417 23.75 15 23.75ZM15 21.25C17.3542 21.25 19.5158 20.63 21.485 19.39C23.4533 18.1508 24.9583 16.4792 26 14.375C24.9583 12.2708 23.4533 10.5988 21.485 9.35875C19.5158 8.11958 17.3542 7.5 15 7.5C12.6458 7.5 10.4842 8.11958 8.515 9.35875C6.54667 10.5988 5.04167 12.2708 4 14.375C5.04167 16.4792 6.54667 18.1508 8.515 19.39C10.4842 20.63 12.6458 21.25 15 21.25Z" fill="#767676"/>
</g>
</svg>
