<svg width="30" height="30" viewBox="0 0 30 30" fill="none" xmlns="http://www.w3.org/2000/svg">
<mask id="mask0_764_3308" style="mask-type:alpha" maskUnits="userSpaceOnUse" x="0" y="0" width="30" height="30">
<rect width="30" height="30" fill="#D9D9D9"/>
</mask>
<g mask="url(#mask0_764_3308)">
<path d="M20.125 16.625L18.3125 14.8125C18.5 13.8333 18.2188 12.9167 17.4688 12.0625C16.7188 11.2083 15.75 10.875 14.5625 11.0625L12.75 9.25C13.1042 9.08333 13.4633 8.95833 13.8275 8.875C14.1925 8.79167 14.5833 8.75 15 8.75C16.5625 8.75 17.8908 9.29667 18.985 10.39C20.0783 11.4842 20.625 12.8125 20.625 14.375C20.625 14.7917 20.5833 15.1825 20.5 15.5475C20.4167 15.9117 20.2917 16.2708 20.125 16.625ZM24.125 20.5625L22.3125 18.8125C23.1042 18.2083 23.8075 17.5467 24.4225 16.8275C25.0367 16.1092 25.5625 15.2917 26 14.375C24.9583 12.2708 23.4633 10.5988 21.515 9.35875C19.5675 8.11958 17.3958 7.5 15 7.5C14.3958 7.5 13.8021 7.54167 13.2188 7.625C12.6354 7.70833 12.0625 7.83333 11.5 8L9.5625 6.0625C10.4167 5.70833 11.2917 5.4425 12.1875 5.265C13.0833 5.08833 14.0208 5 15 5C18.1458 5 20.9479 5.86958 23.4062 7.60875C25.8646 9.34875 27.6458 11.6042 28.75 14.375C28.2708 15.6042 27.6408 16.745 26.86 17.7975C26.0783 18.8492 25.1667 19.7708 24.125 20.5625ZM24.75 28.25L19.5 23.0625C18.7708 23.2917 18.0367 23.4638 17.2975 23.5788C16.5575 23.6929 15.7917 23.75 15 23.75C11.8542 23.75 9.05208 22.8804 6.59375 21.1413C4.13542 19.4012 2.35417 17.1458 1.25 14.375C1.6875 13.2708 2.23958 12.2446 2.90625 11.2962C3.57292 10.3487 4.33333 9.5 5.1875 8.75L1.75 5.25L3.5 3.5L26.5 26.5L24.75 28.25ZM6.9375 10.5C6.33333 11.0417 5.78125 11.6354 5.28125 12.2812C4.78125 12.9271 4.35417 13.625 4 14.375C5.04167 16.4792 6.53625 18.1508 8.48375 19.39C10.4321 20.63 12.6042 21.25 15 21.25C15.4167 21.25 15.8229 21.2242 16.2188 21.1725C16.6146 21.12 17.0208 21.0625 17.4375 21L16.3125 19.8125C16.0833 19.875 15.8646 19.9217 15.6562 19.9525C15.4479 19.9842 15.2292 20 15 20C13.4375 20 12.1092 19.4533 11.015 18.36C9.92167 17.2658 9.375 15.9375 9.375 14.375C9.375 14.1458 9.39042 13.9271 9.42125 13.7188C9.45292 13.5104 9.5 13.2917 9.5625 13.0625L6.9375 10.5Z" fill="#00323D"/>
</g>
</svg>
