<svg width="462" height="130" viewBox="0 0 462 130" fill="none" xmlns="http://www.w3.org/2000/svg">
<path fill-rule="evenodd" clip-rule="evenodd" d="M200 0H0V7.01993C2.52451 7.27451 4.51021 9.93654 4.51021 13.1829C4.51021 16.4293 2.52451 19.0913 0 19.3459V24.141C2.52451 24.3956 4.51021 27.0576 4.51021 30.304C4.51021 33.5504 2.52451 36.2124 0 36.467V41.2656C2.52451 41.5398 4.51021 44.4066 4.51021 47.9027C4.51021 51.3988 2.52451 54.2656 0 54.5398V59.3363C2.52451 59.5909 4.51021 62.2529 4.51021 65.4993C4.51021 68.7457 2.52451 71.4077 0 71.6623V76.4609C2.52451 76.7351 4.51021 79.6019 4.51021 83.098C4.51021 86.5941 2.52451 89.4609 0 89.7351V94.5316C2.52451 94.7862 4.51021 97.4482 4.51021 100.695C4.51021 103.941 2.52451 106.603 0 106.858V111.655C2.52451 111.909 4.51021 114.571 4.51021 117.818C4.51021 121.064 2.52451 123.726 0 123.981V130H200V0Z" fill="#5B322F"/>
<path d="M200 0H462V130H200V0Z" fill="#5B322F"/>
</svg>
