<svg width="500" height="500" viewBox="0 0 500 500" fill="none" xmlns="http://www.w3.org/2000/svg">
<g clip-path="url(#clip0_2568_11345)">
<rect width="500" height="500" fill="white"/>
<rect width="500" height="500" fill="white"/>
<g opacity="0.5" clip-path="url(#clip1_2568_11345)">
<path d="M130.414 268.555C129.579 267.405 129.066 266.388 128.832 265.475C128.18 266.794 128.949 268.076 130.414 268.555Z" fill="#C9D6D9"/>
<path d="M357.193 267.816C355.618 266.866 354.314 271.434 352.593 270.167C350.879 268.9 350.805 271.692 349.025 275.878C347.238 280.063 341.407 271.817 337.495 277.086C333.583 282.355 330.704 283.364 323.012 280.321C310.177 274.949 308.441 292.619 295.563 281.78C285.461 276.253 276.977 296.62 266.465 285.015C260.48 277.764 250.349 287.947 246.012 287.55C246.012 287.55 242.789 287.299 238.598 284.882C228.159 276.003 221.354 295.161 210.321 285.84C197.824 272.569 193.487 290.364 183.004 283.681C173.656 272.039 162.089 289.465 154.522 277.079C150.61 271.81 144.779 280.063 142.991 275.87C141.211 271.685 141.138 268.892 139.424 270.16C137.709 271.427 136.405 266.858 134.823 267.809C133.153 268.811 131.556 268.929 130.398 268.546C134.347 273.969 145.299 282.148 166.192 294.646C193.802 308.322 198.739 307.15 218.072 314.062C225.339 311.918 226.995 316.729 234.335 316.405C238.452 316.088 237.287 313.237 241.265 314.88C245.243 316.53 244.246 316.67 245.997 317.098C247.748 316.663 246.752 316.53 250.73 314.88C254.707 313.229 253.543 316.088 257.66 316.405C265.007 316.744 266.663 311.91 273.923 314.055C293.255 307.121 298.185 308.322 325.803 294.646C346.586 282.222 357.523 274.065 361.523 268.642C360.058 269.18 358.321 268.502 357.171 267.809L357.193 267.816ZM274.018 309.692C269.08 308.933 271.754 307.025 265.44 310.451C254.334 316.523 256.678 305.087 246.019 311.593C235.434 305.094 237.653 316.516 226.599 310.451C220.284 307.025 222.958 308.926 218.021 309.692C203.406 304.505 168.389 297.932 148.229 280.638C164.316 292.914 173.393 283.04 182.608 289.2C187.89 293.643 195.582 300.364 201.758 303.223C201.758 303.223 188.923 291.551 191.67 290.659C194.417 289.768 201.487 284.44 204.226 289.642C206.973 294.844 211.091 302.839 215.757 307.025C204.637 282.915 210.761 296.466 224.746 293.386C228.174 291.035 228.452 303.598 235.522 309.184C231.954 302.648 228.863 288.375 233.324 289.834C237.785 291.293 241.001 294.203 246.019 294.203C251.037 294.203 254.253 291.293 258.715 289.834C263.176 288.375 260.084 302.648 256.517 309.184C263.586 303.598 263.857 291.035 267.293 293.386C281.234 296.495 287.431 282.863 276.281 307.025C280.948 302.839 285.065 294.844 287.812 289.642C290.559 284.44 297.628 289.768 300.368 290.659C303.115 291.551 290.281 303.223 290.281 303.223C296.456 300.371 304.141 293.643 309.43 289.2C318.895 282.988 327.539 292.973 343.817 280.638C323.759 297.888 288.559 304.542 274.025 309.692H274.018Z" fill="#C9D6D9"/>
<path d="M214.038 247.362C211.533 242.587 208.719 239.632 206.485 237.841C206.038 237.584 205.584 237.311 205.115 237.016C195.782 231.055 154.605 209.988 151.587 206.819C122.064 165.238 186.025 212.641 199.233 220.982C198.991 220.584 198.749 220.186 198.515 219.781C192.676 215.175 179.615 204.904 170.392 197.808C158.18 188.42 148.708 181.943 148.429 173.064C148.195 165.607 171.849 184.883 192.12 201.625C191.951 200.563 191.819 199.48 191.717 198.39C176.824 182.864 156.026 161.37 158.444 153.529C160.641 146.426 161.462 140.082 169.146 148.202C173.124 152.402 183.82 166.889 193.218 179.894C193.482 178.87 193.775 177.846 194.097 176.814C183.446 159.306 171.952 138.91 176.142 135.889C181.087 136.397 181.497 121.166 184.376 124.725C186.127 126.877 194.486 140.148 203.372 158.356C204.39 156.904 205.482 155.453 206.646 153.994C201.284 135.314 196.5 117.858 197.277 117.622C200.984 116.48 206.749 120.923 211.137 116.097C213.481 113.525 216.492 122.92 220.353 139.794C222.55 137.827 224.638 136.051 226.484 134.511C225.253 120.312 224.843 109.089 226.785 107.726C226.836 107.689 226.88 107.66 226.931 107.623C226.828 104.646 226.858 101.772 227.056 99.0457C227.056 99.031 227.056 99.0162 227.056 98.9941C223.81 101.013 220.843 102.693 217.173 102.207C211.408 100.939 206.947 100.623 202.69 105.125C197.563 117.556 183.461 108.013 175.717 118.889C170.648 141.74 158.561 125.219 153.55 142.366C151.785 164.759 140.921 153.404 140.65 168.503C140.65 176.623 144.356 178.148 140.65 183.859C130.276 193.593 142.444 198.471 142.986 207.711C142.51 219.619 153.491 217.172 157.125 224.843C158.495 229.154 166.868 230.296 178.259 232.713C189.651 235.122 208.595 246.035 203.379 253.139C198.163 260.242 195.694 250.98 188.42 254.789C158.605 258.496 126.196 255.342 128.804 265.481C129.778 263.499 133.961 261.451 143.836 261.952C161.542 262.777 157.74 261.915 165.974 261.465C174.208 261.023 185.849 264.958 189.006 263.624C192.164 262.291 193.966 261.333 199.665 263.05C205.364 264.759 210.463 259.358 212.316 259.166C214.17 258.975 221.613 272.467 244.307 272.467C223.547 270.079 219.188 257.228 214.023 247.376L214.038 247.362Z" fill="#C9D6D9"/>
<path d="M303.595 254.782C296.321 250.972 293.852 260.242 288.636 253.131C283.42 246.028 302.364 235.115 313.756 232.706C325.147 230.296 333.52 229.154 334.89 224.836C338.531 217.158 349.468 219.634 349.029 207.711C349.615 198.434 361.687 193.615 351.366 183.859C347.659 178.148 351.366 176.623 351.366 168.503C351.058 153.36 340.245 164.796 338.458 142.366C336.128 132.087 330.085 134.629 323.089 131.203C316.085 127.776 320.415 125.492 316.298 118.897C308.584 107.999 294.445 117.548 289.325 105.132C285.068 100.63 280.607 100.947 274.842 102.214C271.802 102.612 269.26 101.551 266.652 100.033C266.593 100.969 266.512 101.912 266.403 102.87C266.205 104.624 265.912 106.363 265.553 108.094C267.875 111.639 265.787 133.693 263.443 155.386C265.069 155.327 266.666 155.379 268.227 155.541C273.794 129.095 277.882 112.81 280.878 116.104C285.273 120.923 291.031 116.487 294.738 117.63C295.617 117.902 289.361 140.251 283.222 161.458C284.189 162.195 285.127 163.006 286.021 163.875C295.822 142.882 305.727 127.106 307.646 124.74C310.525 121.189 310.943 136.412 315.887 135.904C320.393 139.109 306.833 162.365 295.632 180.595C295.888 181.508 296.115 182.429 296.321 183.365C306.239 169.578 318.554 152.785 322.891 148.209C330.575 140.089 331.403 146.434 333.593 153.537C336.231 162.07 311.345 186.792 296.526 202.369C296.372 203.202 296.203 204.034 296.013 204.867C317.008 187.521 343.864 165.135 343.615 173.079C343.344 181.958 333.872 188.435 321.653 197.822C309.433 207.21 290.497 222.183 290.497 222.183C291.544 223.539 373.13 160.891 340.458 206.827C337.439 209.995 296.262 231.062 286.929 237.024C269.985 249.071 275.442 258.724 265.179 265.614C258.073 271.015 247.715 272.467 247.715 272.467C270.41 272.467 277.845 258.975 279.706 259.159C290.028 267.029 294.247 259.616 303.009 263.617C306.166 264.951 317.807 261.016 326.041 261.458C334.275 261.9 330.473 262.77 348.179 261.944C359.878 261.399 362.596 264 363.101 265.828C366.544 255.254 333.637 258.525 303.595 254.782V254.782Z" fill="#C9D6D9"/>
<path d="M113.615 350.332H92.9342V331.977H87.125V377.198H92.9342V356.087H113.615V377.198H119.431V331.977H113.615V350.332Z" fill="#C9D6D9"/>
<path d="M157.628 331.977L136.391 377.198H142.859L149.635 362.807H167.444L174.286 377.198H180.594L159.628 331.977H157.635H157.628ZM164.873 357.104H152.317L158.609 343.73L164.873 357.104Z" fill="#C9D6D9"/>
<path d="M237.976 331.977L220.921 366.948L203.904 332.389L203.699 331.977H201.904L195.465 377.198H201.15L205.186 347.414L219.889 377.198H221.91L236.43 347.65L240.488 377.198H246.232L239.763 331.977H237.976Z" fill="#C9D6D9"/>
<path d="M282.28 331.977L261.043 377.198H267.512L274.288 362.807H292.096L298.939 377.198H305.246L284.28 331.977H282.287H282.28ZM289.525 357.104H276.969L283.262 343.73L289.525 357.104Z" fill="#C9D6D9"/>
<path d="M335.642 349.352L324.924 331.977H318.199L332.829 355.763V377.198H338.579V355.763L352.923 331.977H346.183L335.642 349.352Z" fill="#C9D6D9"/>
<path d="M389.124 331.977H387.132L365.895 377.198H372.363L379.139 362.807H396.948L403.79 377.198H410.098L389.131 331.977H389.124ZM394.369 357.104H381.813L388.106 343.73L394.369 357.104Z" fill="#C9D6D9"/>
<path d="M177.094 425.314L180.94 398.271H181.379L192.309 420.466L203.136 398.271H203.569L207.437 425.314H204.799L202.14 405.972L192.631 425.314H191.943L182.324 405.824L179.687 425.314H177.094V425.314Z" fill="#C9D6D9"/>
<path d="M220.293 398.271H222.981V414.6C222.981 416.538 223.018 417.747 223.091 418.226C223.223 419.294 223.538 420.186 224.022 420.901C224.513 421.615 225.26 422.22 226.271 422.706C227.282 423.192 228.3 423.435 229.326 423.435C230.212 423.435 231.069 423.244 231.882 422.868C232.695 422.492 233.384 421.962 233.926 421.284C234.475 420.613 234.878 419.795 235.135 418.837C235.318 418.152 235.406 416.745 235.406 414.608V398.279H238.094V414.608C238.094 417.025 237.86 418.977 237.391 420.466C236.922 421.954 235.985 423.251 234.578 424.356C233.171 425.462 231.465 426.014 229.472 426.014C227.304 426.014 225.443 425.491 223.897 424.452C222.351 423.413 221.311 422.028 220.791 420.318C220.461 419.265 220.3 417.364 220.3 414.623V398.294L220.293 398.271Z" fill="#C9D6D9"/>
<path d="M249.422 420.282L251.707 418.904C253.319 421.881 255.173 423.369 257.282 423.369C258.183 423.369 259.033 423.156 259.824 422.736C260.615 422.316 261.216 421.748 261.634 421.033C262.051 420.326 262.256 419.567 262.256 418.771C262.256 417.865 261.949 416.973 261.341 416.104C260.498 414.903 258.967 413.458 256.733 411.764C254.491 410.062 253.092 408.831 252.55 408.072C251.598 406.797 251.121 405.419 251.121 403.938C251.121 402.759 251.4 401.691 251.964 400.718C252.521 399.753 253.312 398.986 254.33 398.426C255.348 397.866 256.454 397.594 257.649 397.594C258.916 397.594 260.103 397.911 261.202 398.544C262.308 399.178 263.472 400.335 264.703 402.03L262.513 403.702C261.502 402.354 260.637 401.462 259.927 401.035C259.216 400.608 258.44 400.394 257.597 400.394C256.513 400.394 255.627 400.725 254.938 401.389C254.249 402.052 253.905 402.862 253.905 403.835C253.905 404.424 254.03 404.992 254.271 405.545C254.513 406.097 254.96 406.694 255.605 407.35C255.956 407.696 257.114 408.595 259.077 410.054C261.407 411.778 263.004 413.318 263.868 414.667C264.732 416.015 265.165 417.371 265.165 418.727C265.165 420.687 264.425 422.389 262.945 423.841C261.465 425.285 259.663 426.007 257.546 426.007C255.912 426.007 254.433 425.572 253.107 424.696C251.781 423.819 250.557 422.352 249.437 420.289L249.422 420.282Z" fill="#C9D6D9"/>
<path d="M277.945 398.271H280.634V425.314H277.945V398.271Z" fill="#C9D6D9"/>
<path d="M319.32 403.29L317.202 404.926C316.03 403.393 314.631 402.229 312.99 401.44C311.349 400.652 309.547 400.254 307.591 400.254C305.445 400.254 303.46 400.77 301.635 401.809C299.804 402.848 298.39 404.233 297.387 405.979C296.383 407.726 295.878 409.693 295.878 411.874C295.878 415.168 296.998 417.924 299.247 420.127C301.496 422.33 304.331 423.436 307.752 423.436C311.518 423.436 314.668 421.954 317.202 418.985L319.32 420.606C317.979 422.323 316.309 423.649 314.302 424.585C312.294 425.521 310.06 425.992 307.584 425.992C302.881 425.992 299.167 424.416 296.456 421.269C294.178 418.609 293.035 415.396 293.035 411.638C293.035 407.681 294.412 404.351 297.174 401.647C299.936 398.942 303.394 397.594 307.547 397.594C310.06 397.594 312.324 398.095 314.345 399.09C316.367 400.092 318.023 401.492 319.32 403.29V403.29Z" fill="#C9D6D9"/>
<path d="M78.2335 260.087C76.1164 259.328 73.2887 260.338 71.6258 261.377C69.8017 262.519 68.3512 264.118 66.2854 264.965C64.6298 265.651 62.7251 265.371 60.7545 264.766L60 265.356L78.402 281.375C77.6035 281.324 76.7464 281.493 75.8454 281.965C72.2924 283.674 70.4757 286.364 70.505 288.25C70.5709 291.824 75.1861 292.937 78.1749 291.448C81.3396 289.871 84.4897 286.275 82.0575 283.424C81.9257 283.276 81.7938 283.129 81.6546 282.989L81.6693 282.974L71.1496 273.815C71.8016 273.712 72.4463 273.115 72.9151 272.769C73.8601 272.076 74.6806 271.273 75.3033 270.366C75.9186 269.482 76.2556 268.679 76.6952 267.714C77.457 266.056 78.6291 265.157 80.5778 264.928C81.1711 264.855 81.4642 264.796 81.9989 265.061C82.563 265.341 83.0831 265.724 83.0685 266.122C83.3542 264.928 81.3836 264.236 80.3726 264.265C78.6951 264.317 77.2373 265.024 76.1164 265.953C75.3985 266.55 74.3949 267.662 73.8089 268.347C73.3254 268.907 72.8126 269.674 72.1606 270.182C71.428 270.75 71.0617 271.199 70.0361 271.354C69.6186 271.42 68.9153 271.457 68.3439 271.354L66.3074 269.578C67.0106 269.873 67.8018 269.777 68.3366 269.644C69.2963 269.409 69.8384 268.569 70.4098 267.935C71.4793 266.748 72.3291 265.518 73.2375 264.251C74.0946 263.057 76.3069 260.817 78.3874 261.458C79.4423 261.782 79.4569 262.688 79.9038 263.359C80.4825 262.15 79.7426 260.596 78.2409 260.058L78.2335 260.087Z" fill="#F2F2F2"/>
<path d="M399.56 229.25C399.538 229.103 399.509 228.963 399.479 228.823H399.494L394.893 213.047C394.967 211.772 394.696 209.981 394.285 208.928C392.476 209.112 390.615 209.709 388.85 210.357C388.132 210.623 380.799 213.209 380.799 213.209C381.151 214.815 381.868 216.93 381.868 216.93C381.934 216.952 382.008 216.967 382.074 216.982L386.337 231.594C385.92 231.314 385.399 231.174 384.762 231.24C382.293 231.38 380.462 232.743 379.891 234.099C378.799 236.671 380.96 238.867 383.055 238.712C385.268 238.55 388.11 236.943 387.685 234.173C387.663 234.025 387.634 233.885 387.604 233.745H387.619L383.575 219.87C384.718 219.303 387.04 218.618 389.297 217.947C392.139 217.107 394.102 216.51 395.091 215.957L398.219 226.686C397.802 226.406 397.282 226.266 396.644 226.332C394.176 226.472 392.344 227.836 391.773 229.192C390.681 231.763 392.842 233.959 394.937 233.804C397.15 233.642 399.992 232.036 399.567 229.265L399.56 229.25ZM388.945 216.657C386.645 217.335 384.462 217.984 383.187 218.581L382.726 216.996C384.059 216.849 385.758 215.766 386.791 215.39C389.282 214.476 391.809 214.064 394.315 213.319L394.703 214.653C393.992 215.162 391.209 215.987 388.945 216.657V216.657Z" fill="#F2F2F2"/>
<path d="M406.004 264.796C402.993 262.342 399.52 261.546 397.52 262.047C393.726 263.005 394.085 267.036 396.671 269.084C399.41 271.251 404.297 272.909 406.516 270.212C406.634 270.072 406.743 269.924 406.839 269.777H406.861L417.615 251.105C419.307 252.372 422.354 253.264 423.922 254.03C427.709 255.88 431.072 258.171 434.705 260.176L426.12 275.083C425.907 274.419 425.438 273.771 424.64 273.152C421.629 270.698 418.157 269.902 416.157 270.403C412.362 271.361 412.721 275.392 415.307 277.44C418.047 279.607 422.933 281.265 425.153 278.568C425.27 278.428 425.38 278.281 425.475 278.133H425.497L435.636 260.537C436.969 259.579 438.412 257.84 438.984 256.558C436.705 254.826 433.944 253.367 431.255 252.07C430.156 251.54 419.087 246.006 419.087 246.006C417.915 247.679 416.677 250.14 416.677 250.14C416.728 250.228 416.802 250.309 416.867 250.398L407.476 266.712C407.264 266.049 406.795 265.4 405.996 264.781L406.004 264.796Z" fill="#F2F2F2"/>
<path d="M95.8941 231.675C92.8833 229.221 89.4109 228.425 87.411 228.926C83.6163 229.884 83.9753 233.915 86.5613 235.963C89.301 238.13 94.1873 239.788 96.4069 237.091C96.5241 236.951 96.634 236.803 96.7293 236.656H96.7512L107.505 217.984C109.198 219.251 112.245 220.143 113.813 220.909C117.6 222.759 120.963 225.05 124.596 227.055L116.01 241.961C115.798 241.298 115.329 240.65 114.531 240.031C111.52 237.577 108.047 236.781 106.047 237.282C102.253 238.24 102.612 242.271 105.198 244.319C107.938 246.486 112.824 248.144 115.043 245.447C115.161 245.307 115.27 245.159 115.366 245.012H115.388L125.526 227.416C126.86 226.458 128.303 224.719 128.874 223.437C126.596 221.705 123.834 220.246 121.146 218.949C120.047 218.419 108.978 212.885 108.978 212.885C107.806 214.557 106.568 217.019 106.568 217.019C106.619 217.107 106.692 217.188 106.758 217.276L97.3666 233.591C97.1541 232.927 96.6853 232.279 95.8868 231.66L95.8941 231.675Z" fill="#F2F2F2"/>
<path d="M245.835 166.396C243.433 159.19 241.118 151.902 239.074 144.843C233.389 150.782 227.961 156.618 223.836 162.918C202.446 195.451 231.169 238.579 264.816 219.701C259.417 204.197 253.513 188.885 248.187 173.352C239.096 181.458 238.436 195.48 246.722 204.345C233.279 195.48 236.459 174.023 245.828 166.396H245.835ZM274.647 229.538C276.962 244.209 265.673 254.835 253.242 250.76C264.604 250.996 268.94 244.555 268.208 233.849C219.646 259.528 169.905 203.416 213.134 154.275C221.785 144.438 231.572 137.202 235.953 133.289C232.539 119.458 231.565 108.221 232.188 99.4005C234.81 62.5573 265.182 67.789 261.3 102.282C259.783 115.774 252.355 129.789 244.502 138.904C246.656 146.692 249.234 154.901 251.952 163.066C291.049 147.886 307.605 203.033 274.64 229.545L274.647 229.538ZM241.293 126.34C246.546 118.463 250.018 109.503 251.454 100.064C255.696 72.0997 240.033 76.904 238.92 103.077C238.642 109.569 239.25 117.387 241.293 126.34V126.34ZM254.172 169.631C259.454 185.09 265.241 200.343 270.713 215.729C295.24 196.475 281.013 158.703 254.172 169.631Z" fill="#C9D6D9"/>
</g>
</g>
<defs>
<clipPath id="clip0_2568_11345">
<rect width="500" height="500" fill="white"/>
</clipPath>
<clipPath id="clip1_2568_11345">
<rect width="379" height="352" fill="white" transform="translate(60 74)"/>
</clipPath>
</defs>
</svg>
