<svg width="30" height="30" viewBox="0 0 30 30" fill="none" xmlns="http://www.w3.org/2000/svg">
<path d="M9.00268 30C8.17743 30 7.47122 29.7065 6.88405 29.1195C6.29587 28.5315 6.00179 27.825 6.00179 27C6.00179 26.175 6.29587 25.4685 6.88405 24.8805C7.47122 24.2935 8.17743 24 9.00268 24C9.82792 24 10.5341 24.2935 11.1213 24.8805C11.7095 25.4685 12.0036 26.175 12.0036 27C12.0036 27.825 11.7095 28.5315 11.1213 29.1195C10.5341 29.7065 9.82792 30 9.00268 30ZM24.0071 30C23.1819 30 22.4757 29.7065 21.8885 29.1195C21.3003 28.5315 21.0063 27.825 21.0063 27C21.0063 26.175 21.3003 25.4685 21.8885 24.8805C22.4757 24.2935 23.1819 24 24.0071 24C24.8324 24 25.5391 24.2935 26.1273 24.8805C26.7145 25.4685 27.008 26.175 27.008 27C27.008 27.825 26.7145 28.5315 26.1273 29.1195C25.5391 29.7065 24.8324 30 24.0071 30ZM6.30188 3H28.4335C29.1087 3 29.5713 3.25 29.8214 3.75C30.0714 4.25 30.0589 4.775 29.7839 5.325L24.4573 14.925C24.1822 15.425 23.8196 15.8125 23.3695 16.0875C22.9193 16.3625 22.4067 16.5 21.8315 16.5H10.6532L9.00268 19.5H27.008V22.5H9.00268C7.87734 22.5 7.02709 22.006 6.45192 21.018C5.87675 20.031 5.85174 19.05 6.3769 18.075L8.4025 14.4L3.00089 3H0V0H4.87645L6.30188 3Z" fill="#00323D"/>
</svg>
