<svg width="30" height="30" viewBox="0 0 30 30" fill="none" xmlns="http://www.w3.org/2000/svg">
<path d="M26.5357 24.5677C28.0755 22.7165 29.1465 20.5221 29.658 18.17C30.1695 15.8178 30.1065 13.3772 29.4743 11.0545C28.8421 8.73189 27.6593 6.59553 26.0261 4.8262C24.3928 3.05687 22.3571 1.70662 20.0911 0.889664C17.8251 0.0727116 15.3955 -0.186906 13.0078 0.132775C10.6202 0.452455 8.3447 1.34203 6.37389 2.72624C4.40309 4.11045 2.79494 5.94858 1.68548 8.08514C0.576023 10.2217 -0.00210428 12.5938 5.75516e-06 15.0008C0.000815448 18.4999 1.2349 21.887 3.48571 24.5677L3.46427 24.5859C3.53932 24.6759 3.62509 24.753 3.70229 24.8419C3.79879 24.9523 3.90279 25.0562 4.00251 25.1633C4.30272 25.489 4.61151 25.8018 4.93532 26.0954C5.03396 26.1854 5.13582 26.2689 5.23553 26.3546C5.57863 26.6503 5.93139 26.931 6.297 27.1924C6.34418 27.2245 6.38707 27.2663 6.43424 27.2995V27.2867C8.94543 29.0524 11.9411 30 15.0118 30C18.0825 30 21.0782 29.0524 23.5894 27.2867V27.2995C23.6365 27.2663 23.6783 27.2245 23.7266 27.1924C24.0911 26.9299 24.445 26.6503 24.7881 26.3546C24.8878 26.2689 24.9896 26.1843 25.0883 26.0954C25.4121 25.8007 25.7209 25.489 26.0211 25.1633C26.1208 25.0562 26.2237 24.9523 26.3213 24.8419C26.3974 24.753 26.4843 24.6759 26.5593 24.5848L26.5357 24.5677ZM15.0107 6.43031C15.965 6.43031 16.8978 6.71305 17.6913 7.24278C18.4847 7.77251 19.1031 8.52543 19.4683 9.40634C19.8335 10.2872 19.9291 11.2566 19.7429 12.1917C19.5567 13.1269 19.0972 13.9859 18.4224 14.6601C17.7477 15.3343 16.8879 15.7935 15.952 15.9795C15.0161 16.1655 14.046 16.0701 13.1643 15.7052C12.2827 15.3403 11.5292 14.7224 10.999 13.9296C10.4688 13.1368 10.1859 12.2047 10.1859 11.2512C10.1859 9.97264 10.6942 8.74642 11.599 7.84232C12.5039 6.93822 13.7311 6.43031 15.0107 6.43031ZM6.44068 24.5677C6.45928 23.161 7.0314 21.8182 8.03327 20.8298C9.03514 19.8414 10.3862 19.2868 11.7941 19.2861H18.2273C19.6353 19.2868 20.9863 19.8414 21.9882 20.8298C22.9901 21.8182 23.5622 23.161 23.5808 24.5677C21.2293 26.6849 18.1761 27.8567 15.0107 27.8567C11.8453 27.8567 8.79217 26.6849 6.44068 24.5677Z" fill="#00323D"/>
</svg>
