<svg width="4013" height="1621" viewBox="0 0 4013 1621" fill="none" xmlns="http://www.w3.org/2000/svg">
<path d="M8.29951 1562.22C5.79951 1563.83 2.45951 1563.1 0.859508 1560.6C-0.750492 1558.1 -0.0204916 1554.76 2.47951 1553.16C223.61 1410.97 368.19 1477.95 495.35 1536.86C600.02 1585.35 692.6 1628.24 806.7 1539.02C825.36 1524.42 832.569 1509.65 834.159 1489.86C817.229 1495.71 799.52 1499.83 781.37 1502.44C714.75 1512.02 657.09 1495.29 613.62 1462.68C590.75 1445.53 571.83 1424.02 557.63 1399.67C543.43 1375.32 533.89 1348.09 529.77 1319.49C521.48 1261.84 535.28 1198.68 577.33 1142.46C577.45 1142.27 577.59 1142.09 577.74 1141.91C643.53 1065.27 691.01 1024.62 731.53 989.92C741.56 981.34 751.15 973.12 760.49 964.81C750.36 882.41 745.2 810.03 751.02 763C755.62 725.76 777.51 699.96 802.84 688.91C813.04 684.45 823.829 682.38 834.299 682.9C844.899 683.42 855.179 686.58 864.219 692.59C883.699 705.54 897.33 731.57 895.78 772.67C895.25 786.79 892.44 801.95 886.88 817.7C881.78 832.13 874.35 847.12 864.21 862.34H864.229C831.679 911.17 803.05 941.04 771.88 969.11C777.56 1014.54 784.71 1062.96 792.33 1111.77C820.42 1111.69 848.269 1117.12 873.219 1128.9L873.24 1128.92C886.15 1135.11 898.08 1143.05 908.84 1152.41C939.34 1178.92 960.769 1216.83 969.659 1258.27C978.539 1299.68 974.929 1344.69 955.419 1385.44C952.749 1391 949.79 1396.49 946.53 1401.87C962.72 1404.42 977.33 1408.1 990.63 1412.68C1020.2 1422.85 1043.31 1437.41 1062.88 1453.71C1078.88 1467.03 1093.06 1479.59 1106.24 1491.25C1160.4 1539.18 1197.25 1571.78 1266.03 1572.9C1264.93 1566.48 1265.14 1559.76 1266.73 1553.02C1272.09 1530.27 1293.14 1507 1332.23 1494.13C1361.83 1484.39 1388.88 1489.65 1405.8 1502C1412.58 1506.95 1417.79 1513.06 1420.98 1519.85C1424.25 1526.81 1425.4 1534.46 1423.95 1542.29C1421.13 1557.54 1408.41 1573.3 1382.21 1585.45C1357.12 1597.1 1331.2 1597.85 1315.17 1591.43C1309.45 1589.14 1304.83 1585.89 1301.72 1581.84C1294.62 1582.66 1287.81 1583.23 1281.27 1583.55C1283.78 1587.74 1287.2 1591.55 1291.47 1594.78C1308.49 1607.65 1338.87 1611.65 1380.47 1596.39C1395.13 1591.01 1406.69 1582.56 1415.05 1571.88C1423.76 1560.76 1429.09 1547.13 1430.89 1531.99C1443.34 1427.57 1426.18 1154.76 1426.13 1153.97C1425.96 1151 1428.22 1148.45 1431.19 1148.28C1431.51 1148.26 1431.82 1148.28 1432.12 1148.3C1487.19 1154.77 1543.53 1149 1597.41 1133.7C1654.51 1117.49 1708.86 1090.59 1756.07 1056.25C1758.48 1054.5 1761.85 1055.04 1763.6 1057.45C1764.36 1058.5 1764.69 1059.73 1764.62 1060.93C1764.7 1069.77 1766.5 1256.51 1762.95 1361.76C1782.15 1358.22 1803.68 1356.14 1826.49 1355.37C1901.62 1352.84 1991.16 1364.6 2057.3 1385.53C2043.6 1342.74 2035.04 1290.1 2037.91 1241.77C2040.81 1193.04 2055.31 1148.49 2087.74 1122.14C2129.69 1088.06 2158.59 1062.35 2176.42 1040.84C2185.03 1030.45 2190.99 1021.13 2194.55 1012.34C2177.92 1001.88 2164.9 989.41 2157.75 979.52C2155.44 976.31 2153.67 973.29 2152.55 970.62C2149.48 963.32 2150.44 957.65 2153.95 953.7C2156.7 950.62 2160.87 948.93 2165.75 948.61C2169.93 948.33 2174.77 949.06 2179.64 950.76C2192.89 955.39 2206.94 967.47 2209.04 986.41C2209.82 993.43 2209.35 1000.39 2207.52 1007.5C2210.84 1009.32 2214.28 1011.05 2217.83 1012.64C2241.31 1023.16 2269.52 1027.72 2297.31 1016.02C2303.77 1013.3 2310.24 1009.69 2316.65 1005.06C2322.48 1000.85 2327.79 996.2 2332.58 991.21C2356.27 966.53 2367.03 933.69 2368.84 902.81C2369.84 885.87 2368.16 869.58 2364.47 855.62C2363.25 855.51 2362.02 855.38 2360.78 855.23C2343.11 853.08 2323.7 846.86 2307.56 838.06C2296.34 831.93 2286.6 824.5 2279.97 816.21C2273.67 808.34 2271.51 801.82 2272.4 796.74C2273.22 792.06 2276.23 788.81 2280.83 786.92C2284.45 785.43 2289.12 784.86 2294.42 785.17C2311.12 786.13 2336.16 795.94 2353.87 812.94C2356.17 815.15 2358.37 817.72 2360.45 820.59C2365.28 827.28 2369.39 835.69 2372.58 845.29C2383.87 845.51 2393.5 843.53 2399.42 838.8C2401.09 837.47 2402.46 835.88 2403.46 834.04C2409.81 822.4 2410.38 806.62 2411.18 784.57C2412.24 755.21 2413.69 715.21 2429.39 658.39C2441.99 612.79 2467.35 583.48 2497.3 566.21C2535.33 544.28 2580.67 541.95 2616.55 550.35C2666.7 562.09 2681.12 539.88 2712.94 490.86C2717.97 483.12 2723.42 474.72 2729.6 465.54V465.52L2738.16 452.83C2786.13 381.75 2868.89 259.12 2872.5 210.87C2873.21 201.45 2871.57 192.26 2868.36 183.72C2856.95 183.51 2844.64 180.59 2833.5 176.12C2825.52 172.92 2818.08 168.91 2812 164.57C2805.61 160.01 2800.61 154.97 2797.84 149.94C2794.34 143.58 2794.11 137.22 2798.38 131.52C2801.5 127.35 2805.86 125.01 2810.99 124.27C2818.41 123.21 2827.54 125.69 2836.76 130.88C2845.51 135.82 2854.51 143.27 2862.19 152.44C2867.29 158.52 2871.84 165.39 2875.41 172.82C2881.76 172.11 2887.33 170.09 2891.43 166.38C2900.69 158 2901.3 139.25 2897.04 120.72C2885.27 121.08 2873.41 118.91 2863.86 114.95C2857.61 112.36 2852.23 108.96 2848.36 104.95C2844.07 100.51 2841.57 95.2998 2841.59 89.5498V89.5298C2841.62 83.1998 2844.71 76.5698 2851.83 70.0698C2860.5 62.1498 2869.63 62.1198 2878.21 67.2598C2883.1 70.1898 2887.69 74.8798 2891.74 80.7098C2895.62 86.2798 2899.1 92.9998 2901.95 100.25C2903.09 103.15 2904.14 106.15 2905.07 109.2C2909.14 108.55 2913.08 107.5 2916.76 106C2927.02 101.82 2930.65 88.4698 2930.66 73.8298C2929.34 73.4898 2928.05 73.0698 2926.82 72.5698C2922.67 70.9098 2919 68.3898 2915.94 65.2298L2915.6 64.8998C2912.54 61.6198 2910.14 57.6498 2908.58 53.1998C2905.66 44.8598 2905.71 34.8398 2909.82 24.5598C2911.64 20.0198 2914.26 17.5498 2917.4 16.8298L2917.83 16.7398C2923.42 15.7598 2928.68 20.8898 2932.63 29.5898C2935.72 36.3898 2938.44 45.7998 2939.99 55.8498H2939.97C2940.39 58.5398 2940.71 61.2698 2940.95 64.0298C2943.41 63.8498 2945.99 63.3098 2948.67 62.3698C2972.23 54.1298 2983.4 4.42981 2983.43 4.28981C2984.07 1.37981 2986.95 -0.460185 2989.86 0.179814C2990.39 0.299814 2990.88 0.489815 2991.33 0.739815L3035.85 21.6898C3038.54 22.9598 3039.69 26.1698 3038.42 28.8598C3038.15 29.4398 3037.79 29.9398 3037.36 30.3698C3037.28 30.4598 3007.24 60.5098 3012.94 80.9798C3016.86 79.0798 3021.03 77.5498 3025.25 76.4298C3039.84 72.5698 3055.43 73.6798 3064.79 81.8798C3069.8 86.2698 3071.47 90.6098 3070.67 94.6398C3069.79 99.1098 3066.03 102.32 3060.57 104.23C3056.38 105.7 3050.89 106.48 3045.03 106.5C3032.76 106.53 3018.39 103.09 3009.76 95.3898C3005.49 98.5398 3002.09 102.26 3000.21 106.36C2997.97 111.23 2997.93 116.86 3001.31 122.89C3005.3 130.01 3012.24 137.74 3020.39 144.99C3027.18 143.44 3034.01 142.64 3040.51 142.69C3057.65 142.83 3072.61 148.91 3079.29 162.76C3082.63 169.68 3083.32 174.88 3081.95 178.59L3081.79 179.01C3079.81 183.74 3075.49 185.58 3069.58 185.11C3065.51 184.78 3060.42 183.22 3054.81 180.74C3043.73 175.82 3029.93 166.96 3017.73 156.8C3016.2 157.25 3014.67 157.74 3013.15 158.27C3004.1 161.43 2995.54 166.02 2988.67 171.68C2977.87 180.58 2971.32 192.16 2974.14 204.84C2974.87 208.12 2976 211.27 2977.46 214.29C2980.12 214.16 2982.78 214.11 2985.45 214.15C3004.23 214.44 3022.9 219.08 3036.05 227.67C3041.84 231.46 3046.63 236.05 3049.98 241.41C3054.06 247.95 3054.63 253.27 3052.61 257.37C3050.37 261.89 3045.46 264.14 3038.91 264.35C3033.8 264.51 3027.39 263.42 3020.51 261.2C3003.61 255.74 2983.12 243.19 2971.56 225.53C2959.54 226.86 2948.16 230.23 2939.31 235.76C2934.33 238.87 2930.17 242.69 2927.22 247.2C2916.26 263.95 2840.58 428.33 2762.45 598.02L2752.92 618.72C2776.87 634.03 2802.1 656.29 2822.99 688.57C2868.65 759.14 2833.09 833.13 2800.38 901.21C2790.24 922.31 2780.38 942.83 2773.42 962.44C2770.92 969.48 2768.91 976.27 2767.31 982.77C2781.7 1000.68 2790.06 1026.68 2786.84 1045.97C2784.97 1057.23 2781.38 1064.07 2777.19 1066.96C2772.75 1070.03 2768.12 1069.58 2763.85 1065.99V1065.97C2760.87 1063.46 2758.14 1059.16 2756.07 1053.37C2751.15 1039.64 2749.13 1015.65 2755.59 985.66C2750.55 980.28 2744.86 976.08 2738.82 973.81C2732.61 971.47 2725.94 971.18 2719.16 973.78C2705.66 978.97 2691.4 995.24 2678.36 1028.57C2654.79 1088.8 2639.08 1134.56 2636.17 1168.24C2634.42 1188.46 2637.43 1204.19 2646.35 1216.08C2654.7 1207.81 2664.48 1202.16 2674.92 1200.43C2679.95 1199.59 2685.11 1199.66 2690.29 1200.77C2704.91 1203.9 2713.96 1212.98 2717 1222.38C2718.54 1227.12 2718.58 1231.99 2717.09 1236.34C2715.56 1240.81 2712.45 1244.69 2707.74 1247.31C2698.87 1252.25 2683.98 1252.5 2663.11 1242.57C2656.8 1239.57 2651.35 1236.13 2646.69 1232.24C2639.92 1241.6 2634.77 1253.21 2632.11 1265.63C2629.89 1276.01 2629.41 1286.91 2631.17 1297.5C2635.61 1324.18 2629.69 1365.9 2612.09 1411.25C2597.41 1449.06 2574.58 1489.58 2542.85 1526.19C2536.18 1533.89 2529.12 1540.7 2521.8 1546.69C2511.46 1555.15 2500.55 1562.03 2489.37 1567.54C2514.13 1580.14 2540.1 1590.46 2566.22 1597.79C2603.94 1608.38 2641.94 1612.71 2676.99 1608.6L2677.13 1608.58C2751.2 1596.81 2793.15 1558.58 2838.82 1516.96C2863.02 1494.9 2888.26 1471.9 2919.84 1451.18C2936.23 1440.43 2952.61 1430.53 2968.5 1421.32C2952.48 1410.41 2942.87 1392.47 2944.23 1366.44C2944.23 1366.15 2944.26 1365.86 2944.31 1365.57C2944.61 1363.8 2944.99 1361.91 2945.44 1359.9C2953.42 1323.99 2976.91 1298.02 3005.47 1282.27C3033.84 1266.63 3067.33 1261.08 3095.51 1265.91C3097.11 1266.18 3098.84 1266.53 3100.69 1266.94C3109.19 1268.83 3117.22 1271.86 3124.22 1275.86C3133.55 1281.2 3141.2 1288.33 3145.96 1296.92V1296.94C3150.83 1305.74 3152.65 1315.96 3150.15 1327.21C3148.96 1332.6 3146.79 1338.17 3143.53 1343.87C3133.52 1361.36 3113.98 1376 3090.39 1385.89H3090.37C3071.66 1393.73 3050.3 1398.65 3029.08 1399.68L3018.36 1405.63C3009.89 1410.32 3001.08 1415.2 2992.03 1420.31C2999.92 1422.51 3008.69 1423.52 3017.95 1423.41C3031.88 1423.25 3046.94 1420.55 3061.84 1415.63C3106.76 1400.78 3149.6 1365.79 3155.16 1319.07C3170.71 1188.65 3149.29 848.07 3149.23 847.09C3149.06 844.12 3151.32 841.57 3154.29 841.4C3156.7 841.26 3158.83 842.73 3159.64 844.87C3188.29 910.65 3225.69 932.33 3255 949.31C3300.64 975.75 3328.11 991.69 3283.96 1122.5C3269.2 1166.26 3280.71 1190.43 3313.19 1201.78C3348.07 1213.97 3406.07 1212.65 3481.23 1204.99C3576.06 1195.32 3617.15 1268.04 3662.6 1348.51C3722.63 1454.78 3790.59 1575.08 4005.75 1525.33C4008.65 1524.67 4011.54 1526.48 4012.21 1529.38C4012.87 1532.28 4011.06 1535.17 4008.16 1535.84C3785.2 1587.39 3715.13 1463.36 3653.23 1353.79C3609.6 1276.55 3570.17 1206.75 3482.28 1215.71C3405.69 1223.52 3346.26 1224.75 3309.65 1211.95C3270.64 1198.32 3256.59 1169.96 3273.76 1119.08C3315.1 996.59 3290.49 982.32 3249.61 958.63C3222.83 943.11 3189.58 923.84 3161.55 873.16C3166.21 956.19 3178.9 1211.06 3165.87 1320.35C3159.75 1371.72 3113.57 1409.91 3065.21 1425.89C3049.35 1431.13 3033.16 1434 3018.03 1434.18C3003.97 1434.34 2990.81 1432.15 2979.61 1427.38C2962.18 1437.39 2944.03 1448.25 2925.76 1460.24C2894.84 1480.53 2869.95 1503.21 2846.09 1524.96C2799.21 1567.68 2756.16 1606.91 2678.9 1619.22C2678.68 1619.27 2678.46 1619.31 2678.22 1619.34C2641.75 1623.62 2602.34 1619.14 2563.32 1608.19C2533.8 1599.9 2504.47 1587.9 2476.79 1573.16C2455.51 1581.63 2433.74 1585.49 2413.59 1586.03C2378.44 1586.98 2347.93 1577.68 2333.36 1565.05C2331.6 1563.53 2330.07 1561.98 2328.79 1560.41C2323.04 1553.38 2321.09 1546.02 2322.44 1539.22C2323.59 1533.4 2327.13 1528.19 2332.73 1524.13C2337.84 1520.42 2344.78 1517.63 2353.24 1516.27C2375.63 1512.64 2409.66 1518.94 2449.35 1544.55C2458.44 1550.42 2467.82 1556 2477.4 1561.24C2490.38 1555.6 2503.09 1548.1 2514.98 1538.37C2521.89 1532.72 2528.52 1526.33 2534.71 1519.18C2565.57 1483.57 2587.78 1444.16 2602.05 1407.4C2618.95 1363.87 2624.7 1324.27 2620.54 1299.3C2618.54 1287.32 2619.07 1275.04 2621.56 1263.42C2624.66 1248.93 2630.84 1235.37 2639 1224.57C2627.33 1210.48 2623.32 1191.68 2625.42 1167.33C2628.44 1132.42 2644.4 1085.81 2668.33 1024.67C2682.61 988.17 2699.18 969.97 2715.34 963.77C2724.8 960.13 2734.05 960.52 2742.63 963.75C2748.32 965.89 2753.69 969.3 2758.59 973.61C2759.93 968.82 2761.47 963.9 2763.26 958.87C2770.33 938.94 2780.37 918.06 2790.68 896.59C2822.14 831.12 2856.33 759.95 2813.96 694.46C2794.36 664.17 2770.82 643.13 2748.4 628.57C2673.93 790.28 2600.6 949.14 2581.75 983.08C2573.81 997.36 2566.43 1010.03 2559.69 1021.59C2533.28 1066.88 2516.88 1095.01 2527.24 1115.58C2529.88 1102.26 2535.77 1080.37 2559.9 1066.8C2569.32 1061.5 2575.08 1062.21 2578.17 1067.7C2582.62 1075.62 2574.39 1096.44 2563.98 1122.79C2550.75 1156.27 2533.74 1199.31 2534.94 1229.27C2564.4 1218.18 2583.2 1212.01 2602.53 1225.4C2611.44 1231.57 2613.94 1239.23 2612.07 1246.9C2610.04 1255.24 2602.37 1263.17 2592.35 1268.49C2582.74 1273.59 2570.73 1276.46 2559.48 1275.03C2544.77 1273.16 2531.47 1264.25 2526.21 1244.07C2499.18 1254.16 2463.45 1266.37 2412.72 1272.13C2353.92 1278.81 2311.48 1236.93 2287.98 1190.89C2280.42 1176.07 2274.81 1160.76 2271.25 1146.52C2267.67 1132.15 2266.18 1118.81 2266.89 1108.05C2267.92 1092.36 2273.67 1081.56 2284.42 1079.41L2284.87 1079.34L2288.07 1078.7C2301.02 1076.1 2305.51 1075.2 2307.35 1080.26C2308.63 1083.77 2306.99 1085.48 2304.49 1088.11C2301.31 1091.45 2294.13 1099 2300.77 1111.16C2302.18 1113.74 2305.02 1113.57 2308.83 1111.5C2323.63 1103.43 2346.94 1073.79 2369.79 1044.74C2385.39 1024.9 2400.8 1005.31 2413.61 992.5C2424.52 981.59 2435.04 974.8 2444.34 971.23C2461.25 941.78 2486.17 897.9 2515.6 844.64C2571.03 744.34 2663.19 588.99 2663.45 588.54C2664.64 586.52 2666.95 585.57 2669.12 585.99C2672.85 586.48 2705.62 591.22 2743.66 613.13L2752.67 593.55C2830.98 423.46 2906.85 258.7 2918.19 241.34C2922.02 235.48 2927.32 230.59 2933.62 226.65C2942.79 220.92 2954.16 217.22 2966.21 215.43C2965.13 212.77 2964.26 210.03 2963.63 207.2C2959.8 189.97 2968.07 174.76 2981.84 163.41C2989.42 157.16 2998.7 152.09 3008.47 148.54C3001.47 141.77 2995.57 134.77 2991.89 128.2C2986.62 118.78 2986.76 109.81 2990.41 101.89C2993.1 96.0398 2997.74 90.8898 3003.48 86.6798L3003.45 86.6098C2995.42 65.9698 3014.93 39.6898 3024.63 28.3798L2992.25 13.1398C2987.94 28.1198 2975.29 64.5198 2952.19 72.5998C2948.45 73.9098 2944.8 74.6498 2941.3 74.8698C2940.98 93.0398 2935.54 110.04 2920.78 116.06C2916.65 117.74 2912.25 118.95 2907.72 119.73C2912.23 141.3 2910.62 163.56 2898.61 174.42C2893.48 179.06 2886.87 181.8 2879.5 183.02C2882.51 192.08 2883.98 201.77 2883.23 211.73C2879.4 262.84 2795.63 386.97 2747.08 458.92L2738.52 471.61C2732.52 480.51 2727.03 488.98 2721.96 496.79C2687.3 550.2 2671.59 574.38 2614.09 560.93C2580.46 553.06 2538.06 555.19 2502.65 575.61C2474.99 591.56 2451.51 618.8 2439.76 661.34C2424.39 716.96 2422.97 756.22 2421.93 785.03C2421.08 808.56 2420.47 825.41 2412.91 839.27C2411.22 842.37 2408.92 845.04 2406.12 847.27C2398.79 853.13 2387.98 855.89 2375.63 856.13C2379.07 870.5 2380.58 886.76 2379.6 903.53C2377.65 936.69 2366.01 972.04 2340.34 998.77C2335.15 1004.18 2329.36 1009.25 2322.93 1013.89C2315.86 1018.99 2308.68 1023 2301.48 1026.03C2270.46 1039.09 2239.27 1034.14 2213.44 1022.57C2210.2 1021.12 2207.04 1019.55 2203.97 1017.91C2199.94 1027.29 2193.6 1037.11 2184.73 1047.8C2166.43 1069.87 2137.06 1096.02 2094.53 1130.57C2064.77 1154.76 2051.41 1196.52 2048.67 1242.48C2045.71 1292.39 2055.26 1347.03 2070.05 1389.87C2084.79 1395.05 2098.1 1400.71 2109.51 1406.79C2143.51 1424.92 2166.85 1450.43 2187.32 1472.79L2192.07 1477.98L2199.18 1479.23C2216.85 1482.28 2233.77 1484.78 2247.95 1486.74C2263.33 1488.86 2271.74 1494.14 2275.06 1500.19C2277.31 1504.29 2277.4 1508.61 2275.8 1512.68C2274.38 1516.27 2271.62 1519.58 2267.9 1522.19H2267.89C2259.53 1528.05 2245.74 1530.74 2232 1524.87C2215.58 1517.86 2201.64 1504.12 2186.66 1487.96C2172.44 1485.35 2158.12 1482.4 2144.78 1479.12C2123.67 1473.93 2109.19 1468.42 2097.62 1459.11C2086.01 1449.76 2077.72 1436.9 2069.06 1417.05C2066.48 1411.14 2063.99 1404.86 2061.62 1398.3C1996.23 1376.21 1903.93 1363.62 1826.84 1366.22C1803.6 1367 1781.78 1369.17 1762.56 1372.87C1762.28 1379.89 1761.97 1386.45 1761.64 1392.47C1760.64 1410.29 1759.42 1423.3 1754.25 1434.87C1749.01 1446.61 1739.98 1456.3 1723.5 1467.05C1692.55 1487.25 1669.04 1490.34 1653.73 1483.9C1645.24 1480.33 1639.24 1473.93 1635.82 1465.85C1632.54 1458.11 1631.69 1448.87 1633.34 1439.23C1637.26 1416.33 1655.42 1390.6 1688.56 1377.65C1702.52 1372.2 1713.68 1371.1 1722.19 1373.07C1724.22 1372.26 1726.31 1371.48 1728.45 1370.73C1735.73 1368.18 1743.65 1365.96 1752.12 1364.06C1755.37 1271.66 1754.32 1112.89 1753.98 1071.08C1707.79 1103.26 1655.33 1128.55 1600.35 1144.16C1547.24 1159.24 1491.76 1165.27 1437.3 1159.78C1439.78 1201.42 1453.07 1437.34 1441.63 1533.33C1439.6 1550.4 1433.52 1565.85 1423.55 1578.58C1413.95 1590.84 1400.78 1600.5 1384.2 1606.59C1338.68 1623.29 1304.63 1618.32 1284.99 1603.46C1277.86 1598.07 1272.6 1591.37 1269.32 1583.93C1194.89 1584.12 1156.32 1550.01 1099.13 1499.39C1085.96 1487.73 1071.78 1475.18 1056.03 1462.07C1037.4 1446.56 1015.38 1432.69 987.15 1422.98C973.12 1418.16 957.55 1414.36 940.09 1411.9C936.15 1417.57 931.86 1423.1 927.19 1428.47C909.04 1449.35 887.679 1465.39 864.159 1477.31C858.049 1480.41 851.789 1483.23 845.409 1485.79C844.709 1510.97 837.079 1529.06 813.349 1547.61C694.059 1640.89 598.679 1596.71 490.859 1546.76C366.199 1489.01 224.47 1423.35 8.31951 1562.34L8.29951 1562.22ZM834.51 1478.3C834.34 1465.27 832.55 1450.12 830.39 1431.84L830.24 1430.61C829.36 1423.17 828.4 1415.51 827.37 1407.63C825.54 1407.49 823.72 1407.34 821.93 1407.18C808.07 1413.16 793.26 1417.67 778.13 1420.32C749.61 1425.31 719.799 1423.76 692.669 1413.15C684.149 1409.82 676.099 1405.54 668.609 1400.47C640.859 1381.69 620.299 1351.91 609.789 1318.93C599.279 1285.95 598.8 1249.67 611.21 1217.91C614.46 1209.6 618.619 1201.56 623.729 1193.95L623.969 1193.56C648.589 1157.18 690.45 1130.96 736.59 1119.01C751.25 1115.21 766.35 1112.85 781.49 1112.06C774.34 1066.24 767.62 1020.78 762.13 977.76C754.49 984.46 746.659 991.17 738.549 998.11C698.319 1032.55 651.2 1072.9 585.99 1148.86C545.76 1202.62 532.54 1262.96 540.45 1317.98C544.36 1345.15 553.44 1371.06 566.96 1394.23C580.48 1417.41 598.43 1437.84 620.08 1454.08C661.37 1485.05 716.269 1500.92 779.859 1491.77C798.729 1489.06 817.09 1484.66 834.51 1478.31V1478.3ZM841.099 1430.57C843.069 1447.27 844.76 1461.53 845.28 1474.07C850.03 1472.06 854.709 1469.9 859.299 1467.57C881.599 1456.26 901.86 1441.06 919.03 1421.3C922.15 1417.71 925.1 1414.04 927.87 1410.31C913.32 1408.85 897.52 1408.27 880.31 1408.74C865.31 1409.15 851.34 1408.99 838.34 1408.32C839.27 1415.51 840.14 1422.53 840.95 1429.33L841.099 1430.56V1430.57ZM825.52 1393.68C818.31 1340.64 808.36 1279.27 798.02 1215.41L795.109 1197.42C787.039 1197.5 778.65 1198.46 770 1200.41C750.25 1204.88 730.819 1214.86 715.469 1228.21C701.129 1240.69 690.449 1256.07 686.609 1272.51C684.829 1280.15 683.83 1288.49 684.06 1297.08C684.53 1314.6 690.109 1333.39 704.539 1349.88C719.209 1366.65 743.089 1381.15 780.099 1389.79C792.059 1392.58 805.37 1394.76 820.15 1396.2C821.96 1395.39 823.74 1394.55 825.51 1393.69L825.52 1393.68ZM808.65 1213.72C818.77 1276.21 828.509 1336.34 835.669 1388.33C842.729 1384.32 849.389 1379.89 855.539 1375.12C881.719 1354.8 894.449 1329.36 896.659 1304.15C898.179 1286.81 894.75 1269.56 887.33 1254.15C879.88 1238.69 868.419 1225.08 853.919 1215.07C840.399 1205.74 824.2 1199.54 806.09 1197.87L808.659 1213.72H808.65ZM793.37 1186.67C789.95 1165.46 786.509 1144.09 783.159 1122.75C768.389 1123.45 753.619 1125.72 739.289 1129.43C695.579 1140.75 656.029 1165.43 632.909 1199.59L632.659 1199.93C628.039 1206.82 624.24 1214.17 621.24 1221.84C609.75 1251.24 610.24 1284.95 620.03 1315.68C629.82 1346.41 648.91 1374.12 674.63 1391.52C681.51 1396.17 688.85 1400.09 696.59 1403.11C721.76 1412.95 749.57 1414.37 776.27 1409.69C783.81 1408.37 791.259 1406.56 798.539 1404.32C791.179 1403.17 784.22 1401.82 777.65 1400.28C738.22 1391.07 712.5 1375.3 696.44 1356.95C680.14 1338.32 673.839 1317.1 673.299 1297.31C673.039 1287.7 674.139 1278.46 676.099 1270.05C680.479 1251.28 692.42 1233.95 708.38 1220.06C725.01 1205.59 746.13 1194.76 767.63 1189.9C776.47 1187.9 785.059 1186.85 793.359 1186.66L793.37 1186.67ZM761.75 764.31C756.22 809.04 760.84 877.56 770.27 955.99C798.73 929.85 825.32 901.23 855.24 856.36H855.26C864.85 841.97 871.89 827.78 876.71 814.11C881.9 799.38 884.53 785.31 885.02 772.29C886.41 735.48 874.84 712.6 858.27 701.58C850.89 696.67 842.479 694.09 833.799 693.66C824.979 693.23 815.839 694.99 807.159 698.79C785.009 708.46 765.84 731.25 761.75 764.32V764.31ZM794.02 1122.52C797.4 1144.01 800.86 1165.56 804.31 1186.91C825.43 1188.35 844.34 1195.38 860.03 1206.2C876.11 1217.29 888.8 1232.36 897.03 1249.45C905.29 1266.59 909.099 1285.78 907.409 1305.06C904.949 1333.08 890.919 1361.27 862.109 1383.63C855.569 1388.7 848.5 1393.41 841.01 1397.67C853.14 1398.24 866.14 1398.36 880.06 1397.98C900.07 1397.44 918.249 1398.27 934.849 1400.23C938.929 1393.88 942.549 1387.38 945.719 1380.77C964.149 1342.3 967.53 1299.71 959.12 1260.48C950.71 1221.28 930.519 1185.48 901.799 1160.53C891.729 1151.78 880.62 1144.36 868.63 1138.62C845.65 1127.78 819.99 1122.66 794.02 1122.52V1122.52ZM1276.99 1572.79C1283.52 1572.59 1290.34 1572.13 1297.48 1571.39C1297.22 1568.94 1297.39 1566.37 1298.04 1563.67C1300.77 1552.35 1312.62 1538.81 1337.52 1524.74C1357.93 1513.2 1375.01 1512.04 1385.48 1516.36C1391.48 1518.83 1395.56 1523.06 1397.27 1528.31C1398.95 1533.48 1398.27 1539.44 1394.79 1545.45C1388.1 1557 1370.07 1569.44 1337.13 1576.1C1329.79 1577.58 1322.75 1578.84 1315.96 1579.88C1316.96 1580.42 1318.04 1580.93 1319.2 1581.4C1332.84 1586.86 1355.4 1585.99 1377.72 1575.63C1400.33 1565.14 1411.16 1552.35 1413.38 1540.32C1414.4 1534.78 1413.58 1529.34 1411.25 1524.38C1408.83 1519.24 1404.79 1514.54 1399.49 1510.67C1385.08 1500.15 1361.66 1495.8 1335.63 1504.36C1300.55 1515.9 1281.84 1536.02 1277.26 1555.45C1275.86 1561.42 1275.79 1567.3 1277 1572.81L1276.99 1572.79ZM1308.2 1570.11C1316.69 1568.96 1325.6 1567.45 1335.01 1565.55C1364.47 1559.6 1380.07 1549.35 1385.46 1540.05C1387.32 1536.85 1387.76 1533.94 1387.02 1531.64C1386.3 1529.42 1384.35 1527.53 1381.39 1526.31C1373.55 1523.08 1359.98 1524.39 1342.79 1534.11C1320.82 1546.53 1310.58 1557.55 1308.5 1566.21C1308.17 1567.59 1308.08 1568.89 1308.2 1570.12V1570.11ZM1750.87 1391.76C1751.16 1386.59 1751.43 1381.01 1751.67 1375.08C1745.78 1376.48 1740.19 1378.04 1734.94 1379.77C1737.76 1382.55 1739.84 1385.94 1741.21 1389.77C1743.2 1395.35 1743.63 1401.87 1742.64 1408.72L1742.6 1408.95C1739.96 1426.42 1727.78 1446.66 1708.24 1458.95C1692.81 1468.65 1678.21 1472.58 1667.86 1471.51C1662.79 1470.98 1658.55 1469.28 1655.46 1466.49C1655.33 1466.37 1655.2 1466.25 1655.09 1466.12C1651.99 1463.14 1650.21 1459.17 1650.08 1454.28C1649.88 1446.97 1653.59 1437.46 1662.54 1426.19C1668.51 1418.68 1674.52 1412.36 1680.29 1407.2C1684.01 1398.79 1690.41 1391.51 1699.05 1385.27C1696.97 1385.9 1694.78 1386.67 1692.48 1387.57C1663.26 1398.99 1647.34 1421.24 1643.96 1440.92C1642.65 1448.56 1643.26 1455.73 1645.72 1461.55C1648.05 1467.04 1652.12 1471.4 1657.89 1473.82C1670.2 1478.99 1690.12 1475.84 1717.62 1457.89C1732.19 1448.38 1740.05 1440.1 1744.41 1430.35C1748.84 1420.42 1749.94 1408.37 1750.87 1391.75V1391.76ZM1724.32 1385.16C1723.81 1384.88 1723.28 1384.62 1722.72 1384.38C1719.07 1385.95 1715.66 1387.63 1712.51 1389.41C1713.63 1389.29 1714.7 1389.26 1715.71 1389.32C1720.18 1389.57 1723.63 1391.39 1725.75 1394.69C1727.27 1397.07 1727.94 1400.06 1727.59 1403.61V1403.67C1725.83 1420.09 1716.91 1435.03 1707.81 1443.63C1704.45 1446.8 1700.95 1449.2 1697.67 1450.6C1693.58 1452.34 1689.64 1452.6 1686.29 1451.08L1685.95 1450.91C1683.34 1449.61 1681.33 1447.36 1680.15 1444.04C1677.91 1437.76 1676.76 1431.8 1676.6 1426.17C1674.73 1428.28 1672.84 1430.53 1670.95 1432.9C1663.7 1442.03 1660.67 1449.09 1660.81 1453.99C1660.86 1455.84 1661.44 1457.28 1662.44 1458.3L1662.65 1458.48C1664.03 1459.72 1666.18 1460.51 1668.93 1460.8C1677.11 1461.65 1689.18 1458.21 1702.48 1449.85C1719.29 1439.28 1729.73 1422.07 1731.93 1407.32L1731.95 1407.17C1732.7 1402.04 1732.42 1397.28 1731.03 1393.37C1729.77 1389.84 1727.55 1386.97 1724.31 1385.17L1724.32 1385.16ZM1707.57 1401.78C1702.35 1403.89 1696.08 1407.79 1689.31 1413.58C1688.92 1414.66 1688.58 1415.76 1688.31 1416.88C1686.63 1423.76 1687.18 1431.59 1690.33 1440.4C1690.5 1440.87 1690.63 1441.14 1690.72 1441.22L1690.77 1441.24C1691.22 1441.45 1692.17 1441.24 1693.46 1440.69H1693.48C1695.56 1439.81 1697.96 1438.12 1700.43 1435.78C1708 1428.64 1715.42 1416.2 1716.88 1402.53C1716.97 1401.52 1716.9 1400.85 1716.68 1400.51C1716.53 1400.27 1715.98 1400.12 1715.12 1400.07C1713.23 1399.97 1710.66 1400.53 1707.56 1401.78H1707.57ZM2104.44 1416.16C2095.68 1411.49 2085.76 1407.07 2074.91 1402.94C2076.22 1406.26 2077.56 1409.49 2078.92 1412.62C2086.86 1430.83 2094.27 1442.47 2104.35 1450.59C2114.49 1458.75 2127.75 1463.72 2147.33 1468.53C2156.01 1470.67 2165.14 1472.66 2174.41 1474.52C2155.7 1454.19 2134.17 1432.02 2104.43 1416.16H2104.44ZM2204.46 1490.95C2214.94 1501.52 2225.15 1510.12 2236.2 1514.84C2246.15 1519.09 2255.91 1517.32 2261.7 1513.27C2263.7 1511.85 2265.13 1510.24 2265.76 1508.64C2266.2 1507.51 2266.2 1506.34 2265.61 1505.27C2263.78 1501.95 2257.99 1498.88 2246.52 1497.3C2233.96 1495.57 2219.45 1493.44 2204.47 1490.95H2204.46ZM2197.76 1001.6C2198.67 996.84 2198.84 992.19 2198.33 987.56C2196.76 973.46 2186.13 964.41 2176.1 960.9C2172.61 959.68 2169.26 959.15 2166.47 959.34C2164.38 959.48 2162.78 959.98 2162.01 960.84C2161.23 961.72 2161.25 963.52 2162.46 966.41C2163.27 968.33 2164.63 970.64 2166.48 973.2C2172.62 981.71 2183.62 992.34 2197.76 1001.6V1001.6ZM2360.86 844.33C2358.3 837.61 2355.22 831.7 2351.71 826.84C2350.04 824.53 2348.26 822.46 2346.39 820.66C2330.58 805.48 2308.47 796.73 2293.83 795.89C2290.08 795.67 2287 795.98 2284.91 796.84C2283.82 797.29 2283.13 797.87 2283.02 798.54V798.56C2282.64 800.71 2284.2 804.27 2288.36 809.47C2294.04 816.57 2302.65 823.09 2312.7 828.57C2327.29 836.53 2344.78 842.2 2360.86 844.33V844.33ZM2863.2 172.7C2860.49 167.9 2857.33 163.4 2853.89 159.3C2847.01 151.09 2839.08 144.49 2831.46 140.19C2824.29 136.14 2817.54 134.16 2812.48 134.89C2810.15 135.22 2808.24 136.21 2806.95 137.92C2805.58 139.75 2805.83 142.12 2807.25 144.7C2809.22 148.29 2813.11 152.1 2818.21 155.74C2823.61 159.6 2830.28 163.18 2837.48 166.07C2845.79 169.41 2854.76 171.83 2863.2 172.71V172.7ZM2894 109.97C2893.34 107.99 2892.63 106.03 2891.88 104.12C2889.34 97.6698 2886.26 91.7198 2882.85 86.8198C2879.62 82.1698 2876.15 78.5398 2872.65 76.4498C2868.27 73.8198 2863.56 73.8698 2859.05 77.9898C2854.36 82.2798 2852.32 86.1498 2852.31 89.4998V89.5198C2852.31 92.2598 2853.69 94.9598 2856.08 97.4298C2858.89 100.34 2863.02 102.9 2867.95 104.94C2875.51 108.07 2884.72 109.91 2893.99 109.97H2894ZM2929.95 62.1598C2929.77 60.5798 2929.56 58.9998 2929.32 57.4498H2929.3C2927.89 48.3398 2925.48 39.9398 2922.78 33.9798C2920.94 29.9198 2919.72 27.3098 2919.67 27.3198H2919.6C2919.32 27.4198 2920.15 27.6598 2919.81 28.5198C2916.73 36.2298 2916.64 43.5898 2918.74 49.5998C2919.79 52.6098 2921.41 55.2898 2923.48 57.4998L2923.7 57.7498C2925.47 59.5798 2927.58 61.0798 2929.97 62.1498L2929.95 62.1598ZM3019.74 89.6598C3026.26 93.8398 3036.25 95.7098 3045.02 95.6898C3049.68 95.6898 3053.92 95.0998 3057.02 94.0098C3058.86 93.3698 3060.02 92.8298 3060.08 92.5198C3060.13 92.2498 3059.42 91.4398 3057.7 89.9298C3051.23 84.2698 3039.44 83.7798 3027.99 86.7998C3025.18 87.5398 3022.4 88.4998 3019.74 89.6498V89.6598ZM3031.37 153.92C3040.84 161.05 3050.82 167.11 3059.16 170.81C3063.7 172.82 3067.6 174.07 3070.42 174.3C3071.41 174.38 3071.73 175.03 3071.83 174.78L3071.87 174.69C3072.17 173.7 3071.5 171.36 3069.57 167.38C3064.91 157.74 3053.6 153.5 3040.4 153.38C3037.46 153.36 3034.42 153.54 3031.35 153.91L3031.37 153.92ZM2984.33 224.84C2994.69 237.48 3010.5 246.61 3023.81 250.91C3029.53 252.76 3034.68 253.67 3038.58 253.55C3041.06 253.47 3042.66 253.14 3042.95 252.56C3043.31 251.83 3042.71 250.07 3040.83 247.06C3038.36 243.11 3034.68 239.62 3030.14 236.65C3018.68 229.16 3002.11 225.12 2985.27 224.86H2984.32L2984.33 224.84ZM2572.34 977.76C2590.96 944.24 2664.55 784.81 2739.16 622.79C2707.89 604.58 2680.31 598.64 2670.88 597.03C2657.65 619.38 2575.91 757.68 2525.05 849.72C2498.31 898.12 2475.26 938.81 2458.56 967.99L2459.55 967.97H2459.71C2464.93 967.95 2469.44 969.16 2473.04 971.33C2476.93 973.68 2479.75 977.12 2481.23 981.34C2483.48 987.73 2482.53 995.79 2477.45 1004.25C2459.22 1034.64 2423.43 1019.72 2423.33 1019.68C2420.57 1018.58 2419.23 1015.43 2420.34 1012.68C2420.44 1012.42 2420.56 1012.17 2420.7 1011.94C2420.74 1011.87 2425.51 1003.76 2434.04 989.01C2429.95 991.96 2425.67 995.6 2421.24 1000.03C2408.83 1012.44 2393.65 1031.75 2378.27 1051.3C2354.76 1081.19 2330.78 1111.69 2313.98 1120.85C2304.23 1126.17 2296.39 1125.5 2291.32 1116.21C2284.86 1104.37 2286.63 1095.45 2290.06 1089.18L2287.01 1089.8L2286.55 1089.91C2281.3 1090.96 2278.36 1098.05 2277.67 1108.63C2277.04 1118.33 2278.42 1130.55 2281.74 1143.86C2285.09 1157.29 2290.42 1171.79 2297.62 1185.91C2319.38 1228.55 2358.29 1267.38 2411.56 1261.33C2462.21 1255.58 2497.69 1243.18 2524.41 1233.17C2521.69 1200.42 2539.89 1154.35 2553.96 1118.75C2563.32 1095.06 2570.72 1076.34 2568.78 1072.9C2568.44 1072.3 2568.06 1074.53 2565.19 1076.14C2543.27 1088.47 2539.26 1109.89 2537.2 1120.89C2536.15 1126.5 2535.46 1130.27 2532.19 1132.05C2527.56 1134.57 2523.75 1131.6 2518.25 1121.5C2504.08 1095.53 2521.73 1065.26 2550.38 1016.12C2557.22 1004.39 2564.71 991.54 2572.36 977.78L2572.34 977.76ZM2527.04 1121.36C2526.42 1122.53 2525.94 1123.16 2527.02 1122.57C2527.68 1122.21 2527.39 1121.93 2527.04 1121.36ZM2536.37 1240.14C2540.15 1255.97 2549.98 1262.87 2560.82 1264.26C2569.74 1265.4 2579.43 1263.03 2587.28 1258.86C2594.73 1254.9 2600.32 1249.51 2601.6 1244.28C2602.42 1240.92 2601.02 1237.36 2596.41 1234.16C2581.15 1223.6 2563.93 1229.74 2536.37 1240.14ZM2459.6 978.72C2457.2 978.74 2454.55 979.13 2451.68 979.94C2443.25 994.61 2436.99 1005.37 2433.41 1011.51C2442.27 1013.49 2458.71 1014.53 2468.19 998.72C2471.5 993.2 2472.27 988.38 2471.04 984.88C2470.41 983.09 2469.18 981.6 2467.45 980.56C2465.46 979.36 2462.81 978.69 2459.62 978.72H2459.6ZM2764.36 997.09C2760.54 1020.39 2762.34 1038.76 2766.25 1049.68C2767.68 1053.67 2769.26 1056.39 2770.77 1057.67L2770.9 1057.8L2771.12 1058C2773.02 1056.63 2774.87 1052.21 2776.21 1044.13C2778.54 1030.17 2773.59 1011.88 2764.35 997.08L2764.36 997.09ZM2653.76 1223.87C2657.72 1227.25 2662.36 1230.21 2667.75 1232.77C2684.98 1240.97 2696.35 1241.28 2702.51 1237.85C2704.73 1236.61 2706.18 1234.82 2706.88 1232.78C2707.62 1230.63 2707.57 1228.12 2706.76 1225.61C2704.78 1219.49 2698.48 1213.49 2688.06 1211.26C2684.21 1210.44 2680.39 1210.38 2676.69 1211C2668.47 1212.37 2660.61 1217.02 2653.76 1223.87V1223.87ZM2413.33 1575.2C2429.62 1574.76 2447.03 1572.01 2464.31 1566.19C2457.24 1562.14 2450.3 1557.92 2443.51 1553.54C2406.33 1529.56 2375.12 1523.55 2354.91 1526.83C2348.23 1527.91 2342.87 1530.02 2339.04 1532.8C2335.7 1535.22 2333.63 1538.14 2333.02 1541.23C2332.3 1544.9 2333.57 1549.15 2337.13 1553.51C2338.07 1554.66 2339.17 1555.78 2340.39 1556.84C2353.19 1567.94 2380.86 1576.08 2413.32 1575.21L2413.33 1575.2ZM2979.15 1415.16C2988.98 1409.56 2998.58 1404.22 3007.81 1399.1C2990.49 1396.5 2984.07 1388 2985.11 1376.52C2986.52 1360.95 3005.12 1339.68 3027.71 1322.78C3050.11 1306.02 3076.84 1293.14 3094.81 1294.14C3109.55 1294.96 3118.99 1303.6 3117.87 1323.94C3116.69 1345.18 3091.18 1363.91 3053.52 1385.8C3064.9 1383.55 3075.96 1380.19 3086.19 1375.9C3107.71 1366.87 3125.36 1353.81 3134.14 1338.47C3136.88 1333.68 3138.67 1329.13 3139.62 1324.85C3141.51 1316.35 3140.17 1308.68 3136.54 1302.11C3132.79 1295.34 3126.55 1289.6 3118.86 1285.19C3112.74 1281.69 3105.75 1279.05 3098.37 1277.41C3096.99 1277.1 3095.42 1276.8 3093.7 1276.5C3067.79 1272.06 3036.92 1277.21 3010.67 1291.68C2984.6 1306.05 2963.18 1329.65 2955.96 1362.18C2955.64 1363.64 2955.31 1365.28 2955 1367.06C2953.77 1391.07 2963.52 1406.69 2979.18 1415.16H2979.15ZM3026.06 1388.98C3072.61 1363.06 3106.02 1342.98 3107.11 1323.35C3107.81 1310.7 3102.52 1305.36 3094.22 1304.9C3078.84 1304.05 3054.8 1315.94 3034.16 1331.39C3013.71 1346.7 2996.94 1365.1 2995.82 1377.49C2995.29 1383.33 3000.01 1387.66 3012.54 1388.84C3017.01 1389.08 3021.53 1389.12 3026.06 1388.97V1388.98ZM3159.61 844.82C3159.8 845.32 3159.92 845.86 3159.95 846.42L3159.61 844.82Z" fill="#333333"/>
</svg>
