<svg width="19" height="20" viewBox="0 0 19 20" fill="none" xmlns="http://www.w3.org/2000/svg">
<mask id="mask0_1214_11225" style="mask-type:alpha" maskUnits="userSpaceOnUse" x="0" y="0" width="19" height="20">
<rect x="0.695312" y="0.966797" width="18.1739" height="18.1739" fill="#D9D9D9"/>
</mask>
<g mask="url(#mask0_1214_11225)">
<path d="M9.0256 7.78259V5.51085H6.75386V3.99635H9.0256V1.72461H10.5401V3.99635H12.8118V5.51085H10.5401V7.78259H9.0256ZM5.99661 17.6268C5.58012 17.6268 5.22371 17.4786 4.92738 17.1823C4.63054 16.8855 4.48212 16.5288 4.48212 16.1123C4.48212 15.6958 4.63054 15.3392 4.92738 15.0423C5.22371 14.746 5.58012 14.5978 5.99661 14.5978C6.4131 14.5978 6.76951 14.746 7.06584 15.0423C7.36269 15.3392 7.51111 15.6958 7.51111 16.1123C7.51111 16.5288 7.36269 16.8855 7.06584 17.1823C6.76951 17.4786 6.4131 17.6268 5.99661 17.6268ZM13.5691 17.6268C13.1526 17.6268 12.7962 17.4786 12.4999 17.1823C12.203 16.8855 12.0546 16.5288 12.0546 16.1123C12.0546 15.6958 12.203 15.3392 12.4999 15.0423C12.7962 14.746 13.1526 14.5978 13.5691 14.5978C13.9856 14.5978 14.3422 14.746 14.6391 15.0423C14.9354 15.3392 15.0836 15.6958 15.0836 16.1123C15.0836 16.5288 14.9354 16.8855 14.6391 17.1823C14.3422 17.4786 13.9856 17.6268 13.5691 17.6268ZM5.99661 13.8406C5.42868 13.8406 4.99326 13.5912 4.69036 13.0924C4.38746 12.5941 4.38115 12.0989 4.67143 11.6067L5.69371 9.75144L2.96762 3.99635H1.45312V2.48186H3.93311L7.15141 9.29709H12.4711L15.4054 3.99635L16.7306 4.71574L13.7963 10.0165C13.6574 10.2689 13.4744 10.4645 13.2473 10.6033C13.0201 10.7422 12.7614 10.8116 12.4711 10.8116H6.82958L5.99661 12.3261H15.0836V13.8406H5.99661Z" fill="white"/>
</g>
</svg>
