<svg width="30" height="30" viewBox="0 0 30 30" fill="none" xmlns="http://www.w3.org/2000/svg">
<mask id="mask0_764_3152" style="mask-type:alpha" maskUnits="userSpaceOnUse" x="0" y="0" width="30" height="30">
<rect width="30" height="30" fill="#D9D9D9"/>
</mask>
<g mask="url(#mask0_764_3152)">
<path d="M23.75 10V7.5H21.25V5H23.75V2.5H26.25V5H28.75V7.5H26.25V10H23.75ZM3.75 27.5C3.0625 27.5 2.47417 27.2554 1.985 26.7663C1.495 26.2763 1.25 25.6875 1.25 25V10C1.25 9.3125 1.495 8.72417 1.985 8.235C2.47417 7.745 3.0625 7.5 3.75 7.5H7.6875L10 5H17.5V7.5H11.0938L8.8125 10H3.75V25H23.75V13.75H26.25V25C26.25 25.6875 26.0054 26.2763 25.5163 26.7663C25.0263 27.2554 24.4375 27.5 23.75 27.5H3.75ZM13.75 23.125C15.3125 23.125 16.6408 22.5783 17.735 21.485C18.8283 20.3908 19.375 19.0625 19.375 17.5C19.375 15.9375 18.8283 14.6092 17.735 13.515C16.6408 12.4217 15.3125 11.875 13.75 11.875C12.1875 11.875 10.8592 12.4217 9.765 13.515C8.67167 14.6092 8.125 15.9375 8.125 17.5C8.125 19.0625 8.67167 20.3908 9.765 21.485C10.8592 22.5783 12.1875 23.125 13.75 23.125ZM13.75 20.625C12.875 20.625 12.1354 20.3229 11.5312 19.7188C10.9271 19.1146 10.625 18.375 10.625 17.5C10.625 16.625 10.9271 15.8854 11.5312 15.2812C12.1354 14.6771 12.875 14.375 13.75 14.375C14.625 14.375 15.3646 14.6771 15.9688 15.2812C16.5729 15.8854 16.875 16.625 16.875 17.5C16.875 18.375 16.5729 19.1146 15.9688 19.7188C15.3646 20.3229 14.625 20.625 13.75 20.625Z" fill="#00323D"/>
</g>
</svg>
