<?xml version="1.0" encoding="utf-8"?>
<!-- Generator: Adobe Illustrator 26.5.0, SVG Export Plug-In . SVG Version: 6.00 Build 0)  -->
<svg version="1.1" id="圖層_1" xmlns="http://www.w3.org/2000/svg" xmlns:xlink="http://www.w3.org/1999/xlink" x="0px" y="0px"
	 viewBox="0 0 300 300" style="enable-background:new 0 0 300 300;" xml:space="preserve">
<style type="text/css">
	.st0{fill:#F2F2F2;}
	.st1{fill:#6A777A;}
</style>
<g>
	<path class="st0" d="M149.6,93.5c-35,0-63.3,26.1-63.3,58.3c0,32.2,28.3,58.3,63.3,58.3c5.9,0,9.3-0.1,13.4-0.7
		c4.8-0.7,9.5,1.7,11.7,6l4.2,8.2l5.3-10.8c3.1-6.3,7.3-12.1,12.4-17c9.7-9.4,13.9-16.5,16.8-33.4c0.7-4,0.6-7.8,0.6-10.4
		C214,119.8,184.5,93.5,149.6,93.5z M127.1,152.9c-0.3,4.3-3.8,7.8-8,8c-5.2,0.3-9.5-4-9.2-9.2c0.3-4.3,3.8-7.8,8-8
		C123.2,143.4,127.5,147.7,127.1,152.9z M158.7,152.9c-0.3,4.3-3.8,7.8-8,8c-5.2,0.3-9.5-4-9.2-9.2c0.3-4.3,3.8-7.8,8-8
		C154.8,143.4,159.1,147.7,158.7,152.9z M190.3,152.9c-0.3,4.3-3.8,7.8-8,8c-5.2,0.3-9.5-4-9.2-9.2c0.3-4.3,3.8-7.8,8-8
		C186.4,143.4,190.6,147.7,190.3,152.9z"/>
	<path class="st0" d="M46,150.5c0,9.4,5.4,17.6,13.3,21.6V129C51.4,132.9,46,141.1,46,150.5z"/>
	<path class="st0" d="M240.7,129v43.1c7.9-3.9,13.3-12.1,13.3-21.6C254,141.1,248.6,132.9,240.7,129z"/>
	<path class="st1" d="M240.7,125.9c0-4.3-3-8-7-9c-1.3-3.4-2.8-6.6-4.5-9.8c-2.1-4.1-4.5-8.1-7.2-11.8c1.4-3.1,0.9-6.6-1.2-9.2
		c-0.7-0.9-1.5-1.8-2.3-2.7c-18.4-20.8-42.9-32.3-69-32.3c-26.1,0-50.6,11.5-69,32.3c-0.8,0.9-1.5,1.8-2.3,2.7
		c-2.1,2.6-2.6,6.1-1.2,9.2c-2.6,3.8-5,7.7-7.2,11.8c-1.7,3.3-3.2,6.7-4.6,10.1c-3.5,1.3-6,4.7-6,8.7v3.1v43.1v3.1
		c0,4.6,3.4,8.5,7.8,9.2c4,11.8,10.6,22.6,19.4,31.6c12.4,12.7,28.6,20.9,46,23.7c0.6,5.2,5,9.2,10.4,9.2c5.8,0,10.4-4.7,10.4-10.4
		s-4.7-10.4-10.4-10.4c-4.2,0-7.8,2.4-9.4,6c-28.1-4.5-51.2-24.4-60.5-50.6c2.9-1.6,4.9-4.6,4.9-8.2v-49.3c0-2.6-1-4.9-2.7-6.6
		c-0.5-0.5-1-0.9-1.5-1.2c2.7-6.4,5.9-12.3,9.7-17.8c0.6,0.1,1.2,0.2,1.8,0.2c2.6,0,5.1-1.2,6.8-3.2c9.4-11.5,21.4-20,34.4-24.6
		c7.5-2.6,15.3-4,23.2-4c21.6,0,42.6,10.4,57.6,28.6c1.7,2,4.2,3.2,6.8,3.2h0c0.6,0,1.2-0.1,1.8-0.2c3.8,5.6,7.2,11.7,9.9,18.3
		c-0.3,0.2-0.6,0.5-0.9,0.8c-1.7,1.7-2.7,4-2.7,6.6v49.3c0,5.1,4.2,9.3,9.3,9.3s9.3-4.2,9.3-9.3v-3.1V129V125.9z"/>
</g>
</svg>
