<svg width="34" height="35" viewBox="0 0 34 35" fill="none" xmlns="http://www.w3.org/2000/svg">
<g filter="url(#filter0_d_854_9250)">
<mask id="mask0_854_9250" style="mask-type:alpha" maskUnits="userSpaceOnUse" x="2" y="0" width="30" height="30">
<rect x="2.82609" y="0.826088" width="28.3478" height="28.3478" fill="#D9D9D9" stroke="white" stroke-width="1.65218"/>
</mask>
<g mask="url(#mask0_854_9250)">
<mask id="path-2-inside-1_854_9250" fill="white">
<path d="M17 26.25L15.1875 24.625C13.0833 22.7292 11.3437 21.0937 9.96875 19.7188C8.59375 18.3438 7.5 17.1092 6.6875 16.015C5.875 14.9217 5.3075 13.9167 4.985 13C4.66167 12.0833 4.5 11.1458 4.5 10.1875C4.5 8.22917 5.15625 6.59375 6.46875 5.28125C7.78125 3.96875 9.41667 3.3125 11.375 3.3125C12.4583 3.3125 13.4896 3.54167 14.4687 4C15.4479 4.45833 16.2917 5.10417 17 5.9375C17.7083 5.10417 18.5521 4.45833 19.5312 4C20.5104 3.54167 21.5417 3.3125 22.625 3.3125C24.5833 3.3125 26.2187 3.96875 27.5312 5.28125C28.8437 6.59375 29.5 8.22917 29.5 10.1875C29.5 11.1458 29.3387 12.0833 29.0162 13C28.6929 13.9167 28.125 14.9217 27.3125 16.015C26.5 17.1092 25.4062 18.3438 24.0312 19.7188C22.6562 21.0937 20.9167 22.7292 18.8125 24.625L17 26.25Z"/>
</mask>
<path d="M17 26.25L15.3311 28.1114L17 29.6076L18.6689 28.1114L17 26.25ZM15.1875 24.625L13.5141 26.4823L13.5186 26.4864L15.1875 24.625ZM6.6875 16.015L8.69463 14.5246L8.69409 14.5238L6.6875 16.015ZM4.985 13L7.34331 12.1703L7.34263 12.1684L4.985 13ZM17 5.9375L15.0951 7.55662L17 9.79762L18.9048 7.55662L17 5.9375ZM29.0162 13L31.3739 13.8316L31.3746 13.8297L29.0162 13ZM27.3125 16.015L25.3059 14.5238L25.3054 14.5246L27.3125 16.015ZM18.8125 24.625L20.4814 26.4864L20.4859 26.4823L18.8125 24.625ZM18.6689 24.3886L16.8564 22.7636L13.5186 26.4864L15.3311 28.1114L18.6689 24.3886ZM16.8609 22.7677C14.7759 20.8891 13.0705 19.285 11.7365 17.951L8.20098 21.4865C9.61699 22.9025 11.3908 24.5693 13.5141 26.4823L16.8609 22.7677ZM11.7365 17.951C10.4148 16.6292 9.41075 15.4889 8.69463 14.5246L4.68037 17.5054C5.58925 18.7294 6.77274 20.0583 8.20098 21.4865L11.7365 17.951ZM8.69409 14.5238C7.97616 13.5578 7.55647 12.7762 7.34331 12.1703L2.62669 13.8297C3.05853 15.0571 3.77384 16.2856 4.68091 17.5062L8.69409 14.5238ZM7.34263 12.1684C7.11216 11.515 7 10.8585 7 10.1875H2C2 11.4332 2.21118 12.6517 2.62737 13.8316L7.34263 12.1684ZM7 10.1875C7 8.85164 7.42078 7.86475 8.23652 7.04902L4.70098 3.51348C2.89172 5.32275 2 7.60669 2 10.1875H7ZM8.23652 7.04902C9.05225 6.23328 10.0391 5.8125 11.375 5.8125V0.8125C8.79419 0.8125 6.51025 1.70422 4.70098 3.51348L8.23652 7.04902ZM11.375 5.8125C12.0928 5.8125 12.7622 5.96151 13.4089 6.26423L15.5286 1.73577C14.217 1.12183 12.8238 0.8125 11.375 0.8125V5.8125ZM13.4089 6.26423C14.0595 6.56878 14.6162 6.99314 15.0951 7.55662L18.9048 4.31838C17.9671 3.2152 16.8363 2.34789 15.5286 1.73577L13.4089 6.26423ZM18.9048 7.55662C19.3838 6.99314 19.9405 6.56878 20.5911 6.26423L18.4714 1.73577C17.1637 2.34789 16.0329 3.2152 15.0951 4.31838L18.9048 7.55662ZM20.5911 6.26423C21.2378 5.96151 21.9072 5.8125 22.625 5.8125V0.8125C21.1761 0.8125 19.783 1.12183 18.4714 1.73577L20.5911 6.26423ZM22.625 5.8125C23.9609 5.8125 24.9477 6.23328 25.7635 7.04902L29.299 3.51348C27.4897 1.70422 25.2058 0.8125 22.625 0.8125V5.8125ZM25.7635 7.04902C26.5792 7.86475 27 8.85164 27 10.1875H32C32 7.60669 31.1083 5.32275 29.299 3.51348L25.7635 7.04902ZM27 10.1875C27 10.8592 26.888 11.5164 26.6579 12.1703L31.3746 13.8297C31.7895 12.6503 32 11.4324 32 10.1875H27ZM26.6586 12.1684C26.4445 12.7753 26.024 13.5575 25.3059 14.5238L29.3191 17.5062C30.226 16.2859 30.9413 15.058 31.3739 13.8316L26.6586 12.1684ZM25.3054 14.5246C24.5892 15.4889 23.5852 16.6292 22.2635 17.951L25.799 21.4865C27.2273 20.0583 28.4107 18.7294 29.3196 17.5054L25.3054 14.5246ZM22.2635 17.951C20.9295 19.285 19.2241 20.8891 17.1391 22.7677L20.4859 26.4823C22.6092 24.5693 24.383 22.9025 25.799 21.4865L22.2635 17.951ZM17.1436 22.7636L15.3311 24.3886L18.6689 28.1114L20.4814 26.4864L17.1436 22.7636Z" fill="#00323D" mask="url(#path-2-inside-1_854_9250)"/>
</g>
</g>
<defs>
<filter id="filter0_d_854_9250" x="-2" y="0" width="38" height="38" filterUnits="userSpaceOnUse" color-interpolation-filters="sRGB">
<feFlood flood-opacity="0" result="BackgroundImageFix"/>
<feColorMatrix in="SourceAlpha" type="matrix" values="0 0 0 0 0 0 0 0 0 0 0 0 0 0 0 0 0 0 127 0" result="hardAlpha"/>
<feOffset dy="4"/>
<feGaussianBlur stdDeviation="2"/>
<feComposite in2="hardAlpha" operator="out"/>
<feColorMatrix type="matrix" values="0 0 0 0 0 0 0 0 0 0 0 0 0 0 0 0 0 0 0.25 0"/>
<feBlend mode="normal" in2="BackgroundImageFix" result="effect1_dropShadow_854_9250"/>
<feBlend mode="normal" in="SourceGraphic" in2="effect1_dropShadow_854_9250" result="shape"/>
</filter>
</defs>
</svg>
