<svg width="30" height="30" viewBox="0 0 30 30" fill="none" xmlns="http://www.w3.org/2000/svg">
<mask id="mask0_854_9251" style="mask-type:alpha" maskUnits="userSpaceOnUse" x="0" y="0" width="30" height="30">
<rect x="0.826088" y="0.826088" width="28.3478" height="28.3478" fill="#D9D9D9" stroke="white" stroke-width="1.65218"/>
</mask>
<g mask="url(#mask0_854_9251)">
<mask id="path-2-inside-1_854_9251" fill="white">
<path d="M15 26.25L13.1875 24.625C11.0833 22.7292 9.34375 21.0937 7.96875 19.7187C6.59375 18.3437 5.5 17.1092 4.6875 16.015C3.875 14.9217 3.3075 13.9167 2.985 13C2.66167 12.0833 2.5 11.1458 2.5 10.1875C2.5 8.22917 3.15625 6.59375 4.46875 5.28125C5.78125 3.96875 7.41667 3.3125 9.375 3.3125C10.4583 3.3125 11.4896 3.54167 12.4687 4C13.4479 4.45833 14.2917 5.10417 15 5.9375C15.7083 5.10417 16.5521 4.45833 17.5312 4C18.5104 3.54167 19.5417 3.3125 20.625 3.3125C22.5833 3.3125 24.2187 3.96875 25.5312 5.28125C26.8437 6.59375 27.5 8.22917 27.5 10.1875C27.5 11.1458 27.3387 12.0833 27.0162 13C26.6929 13.9167 26.125 14.9217 25.3125 16.015C24.5 17.1092 23.4062 18.3437 22.0312 19.7187C20.6562 21.0937 18.9167 22.7292 16.8125 24.625L15 26.25Z"/>
</mask>
<path d="M15 26.25L13.1875 24.625C11.0833 22.7292 9.34375 21.0937 7.96875 19.7187C6.59375 18.3437 5.5 17.1092 4.6875 16.015C3.875 14.9217 3.3075 13.9167 2.985 13C2.66167 12.0833 2.5 11.1458 2.5 10.1875C2.5 8.22917 3.15625 6.59375 4.46875 5.28125C5.78125 3.96875 7.41667 3.3125 9.375 3.3125C10.4583 3.3125 11.4896 3.54167 12.4687 4C13.4479 4.45833 14.2917 5.10417 15 5.9375C15.7083 5.10417 16.5521 4.45833 17.5312 4C18.5104 3.54167 19.5417 3.3125 20.625 3.3125C22.5833 3.3125 24.2187 3.96875 25.5312 5.28125C26.8437 6.59375 27.5 8.22917 27.5 10.1875C27.5 11.1458 27.3387 12.0833 27.0162 13C26.6929 13.9167 26.125 14.9217 25.3125 16.015C24.5 17.1092 23.4062 18.3437 22.0312 19.7187C20.6562 21.0937 18.9167 22.7292 16.8125 24.625L15 26.25Z" fill="#00323D"/>
<path d="M15 26.25L13.8971 27.4802L15 28.469L16.1029 27.4802L15 26.25ZM13.1875 24.625L12.0816 25.8525L12.0846 25.8552L13.1875 24.625ZM4.6875 16.015L6.01395 15.03L6.01359 15.0295L4.6875 16.015ZM2.985 13L4.54354 12.4517L4.54309 12.4504L2.985 13ZM15 5.9375L13.7411 7.00753L15 8.48854L16.2589 7.00753L15 5.9375ZM27.0162 13L28.5743 13.5496L28.5748 13.5483L27.0162 13ZM25.3125 16.015L23.9864 15.0295L23.986 15.03L25.3125 16.015ZM16.8125 24.625L17.9154 25.8552L17.9184 25.8524L16.8125 24.625ZM16.1029 25.0198L14.2904 23.3948L12.0846 25.8552L13.8971 27.4802L16.1029 25.0198ZM14.2934 23.3976C12.2019 21.5131 10.4849 19.8984 9.13701 18.5505L6.80048 20.887C8.20258 22.2891 9.96477 23.9452 12.0816 25.8524L14.2934 23.3976ZM9.13701 18.5505C7.7972 17.2107 6.76276 16.0384 6.01395 15.03L3.36105 17C4.23724 18.1799 5.3903 19.4768 6.80048 20.887L9.13701 18.5505ZM6.01359 15.0295C5.2636 14.0203 4.79378 13.163 4.54354 12.4517L1.42646 13.5483C1.82122 14.6704 2.4864 15.823 3.3614 17.0005L6.01359 15.0295ZM4.54309 12.4504C4.28112 11.7077 4.15218 10.9559 4.15218 10.1875H0.847823C0.847823 11.3357 1.04221 12.4589 1.42691 13.5496L4.54309 12.4504ZM4.15218 10.1875C4.15218 8.64054 4.65281 7.43372 5.63702 6.44951L3.30048 4.11298C1.65969 5.75378 0.847823 7.81779 0.847823 10.1875H4.15218ZM5.63702 6.44951C6.62122 5.46531 7.82804 4.96468 9.375 4.96468V1.66032C7.00529 1.66032 4.94128 2.47219 3.30048 4.11298L5.63702 6.44951ZM9.375 4.96468C10.2168 4.96468 11.0089 5.14087 11.7683 5.49636L13.1692 2.50364C11.9703 1.94247 10.6999 1.66032 9.375 1.66032V4.96468ZM11.7683 5.49636C12.5304 5.85306 13.1844 6.35253 13.7411 7.00753L16.2589 4.86747C15.3989 3.8558 14.3655 3.0636 13.1692 2.50364L11.7683 5.49636ZM16.2589 7.00753C16.8156 6.35253 17.4696 5.85306 18.2317 5.49636L16.8308 2.50364C15.6345 3.0636 14.6011 3.8558 13.7411 4.86747L16.2589 7.00753ZM18.2317 5.49636C18.9911 5.14087 19.7832 4.96468 20.625 4.96468V1.66032C19.3001 1.66032 18.0297 1.94247 16.8308 2.50364L18.2317 5.49636ZM20.625 4.96468C22.172 4.96468 23.3788 5.46531 24.363 6.44951L26.6995 4.11298C25.0587 2.47219 22.9947 1.66032 20.625 1.66032V4.96468ZM24.363 6.44951C25.3472 7.43372 25.8478 8.64054 25.8478 10.1875H29.1522C29.1522 7.81779 28.3403 5.75378 26.6995 4.11298L24.363 6.44951ZM25.8478 10.1875C25.8478 10.9564 25.7191 11.7087 25.4577 12.4517L28.5748 13.5483C28.9584 12.458 29.1522 11.3352 29.1522 10.1875H25.8478ZM25.4582 12.4504C25.207 13.1624 24.7365 14.0201 23.9864 15.0295L26.6386 17.0005C27.5135 15.8232 28.1788 14.671 28.5743 13.5496L25.4582 12.4504ZM23.986 15.03C23.2372 16.0384 22.2028 17.2107 20.863 18.5505L23.1995 20.887C24.6097 19.4768 25.7628 18.1799 26.6389 17L23.986 15.03ZM20.863 18.5505C19.5151 19.8984 17.7981 21.5131 15.7066 23.3976L17.9184 25.8524C20.0352 23.9452 21.7974 22.2891 23.1995 20.887L20.863 18.5505ZM15.7096 23.3948L13.8971 25.0198L16.1029 27.4802L17.9154 25.8552L15.7096 23.3948Z" fill="#00323D" mask="url(#path-2-inside-1_854_9251)"/>
</g>
</svg>
