<svg width="30" height="30" viewBox="0 0 30 30" fill="none" xmlns="http://www.w3.org/2000/svg">
<mask id="mask0_854_9250" style="mask-type:alpha" maskUnits="userSpaceOnUse" x="0" y="0" width="30" height="30">
<rect x="0.826088" y="0.826088" width="28.3478" height="28.3478" fill="#D9D9D9" stroke="white" stroke-width="1.65218"/>
</mask>
<g mask="url(#mask0_854_9250)">
<mask id="path-2-inside-1_854_9250" fill="white">
<path d="M15 26.25L13.1875 24.625C11.0833 22.7292 9.34375 21.0937 7.96875 19.7188C6.59375 18.3438 5.5 17.1092 4.6875 16.015C3.875 14.9217 3.3075 13.9167 2.985 13C2.66167 12.0833 2.5 11.1458 2.5 10.1875C2.5 8.22917 3.15625 6.59375 4.46875 5.28125C5.78125 3.96875 7.41667 3.3125 9.375 3.3125C10.4583 3.3125 11.4896 3.54167 12.4687 4C13.4479 4.45833 14.2917 5.10417 15 5.9375C15.7083 5.10417 16.5521 4.45833 17.5312 4C18.5104 3.54167 19.5417 3.3125 20.625 3.3125C22.5833 3.3125 24.2187 3.96875 25.5312 5.28125C26.8437 6.59375 27.5 8.22917 27.5 10.1875C27.5 11.1458 27.3387 12.0833 27.0162 13C26.6929 13.9167 26.125 14.9217 25.3125 16.015C24.5 17.1092 23.4062 18.3438 22.0312 19.7188C20.6562 21.0937 18.9167 22.7292 16.8125 24.625L15 26.25Z"/>
</mask>
<path d="M15 26.25L13.3311 28.1114L15 29.6076L16.6689 28.1114L15 26.25ZM13.1875 24.625L11.5141 26.4823L11.5186 26.4864L13.1875 24.625ZM4.6875 16.015L6.69463 14.5246L6.69409 14.5238L4.6875 16.015ZM2.985 13L5.34331 12.1703L5.34263 12.1684L2.985 13ZM15 5.9375L13.0951 7.55662L15 9.79762L16.9048 7.55662L15 5.9375ZM27.0162 13L29.3739 13.8316L29.3746 13.8297L27.0162 13ZM25.3125 16.015L23.3059 14.5238L23.3054 14.5246L25.3125 16.015ZM16.8125 24.625L18.4814 26.4864L18.4859 26.4823L16.8125 24.625ZM16.6689 24.3886L14.8564 22.7636L11.5186 26.4864L13.3311 28.1114L16.6689 24.3886ZM14.8609 22.7677C12.7759 20.8891 11.0705 19.285 9.73652 17.951L6.20098 21.4865C7.61699 22.9025 9.39078 24.5693 11.5141 26.4823L14.8609 22.7677ZM9.73652 17.951C8.41476 16.6292 7.41075 15.4889 6.69463 14.5246L2.68037 17.5054C3.58925 18.7294 4.77274 20.0583 6.20098 21.4865L9.73652 17.951ZM6.69409 14.5238C5.97616 13.5578 5.55647 12.7762 5.34331 12.1703L0.626694 13.8297C1.05853 15.0571 1.77384 16.2856 2.68091 17.5062L6.69409 14.5238ZM5.34263 12.1684C5.11216 11.515 5 10.8585 5 10.1875H0C0 11.4332 0.211178 12.6517 0.627366 13.8316L5.34263 12.1684ZM5 10.1875C5 8.85164 5.42078 7.86475 6.23652 7.04902L2.70098 3.51348C0.891716 5.32275 0 7.60669 0 10.1875H5ZM6.23652 7.04902C7.05225 6.23328 8.03914 5.8125 9.375 5.8125V0.8125C6.79419 0.8125 4.51025 1.70422 2.70098 3.51348L6.23652 7.04902ZM9.375 5.8125C10.0928 5.8125 10.7622 5.96151 11.4089 6.26423L13.5286 1.73577C12.217 1.12183 10.8238 0.8125 9.375 0.8125V5.8125ZM11.4089 6.26423C12.0595 6.56878 12.6162 6.99314 13.0951 7.55662L16.9048 4.31838C15.9671 3.2152 14.8363 2.34789 13.5286 1.73577L11.4089 6.26423ZM16.9048 7.55662C17.3838 6.99314 17.9405 6.56878 18.5911 6.26423L16.4714 1.73577C15.1637 2.34789 14.0329 3.2152 13.0951 4.31838L16.9048 7.55662ZM18.5911 6.26423C19.2378 5.96151 19.9072 5.8125 20.625 5.8125V0.8125C19.1761 0.8125 17.783 1.12183 16.4714 1.73577L18.5911 6.26423ZM20.625 5.8125C21.9609 5.8125 22.9477 6.23328 23.7635 7.04902L27.299 3.51348C25.4897 1.70422 23.2058 0.8125 20.625 0.8125V5.8125ZM23.7635 7.04902C24.5792 7.86475 25 8.85164 25 10.1875H30C30 7.60669 29.1083 5.32275 27.299 3.51348L23.7635 7.04902ZM25 10.1875C25 10.8592 24.888 11.5164 24.6579 12.1703L29.3746 13.8297C29.7895 12.6503 30 11.4324 30 10.1875H25ZM24.6586 12.1684C24.4445 12.7753 24.024 13.5575 23.3059 14.5238L27.3191 17.5062C28.226 16.2859 28.9413 15.058 29.3739 13.8316L24.6586 12.1684ZM23.3054 14.5246C22.5892 15.4889 21.5852 16.6292 20.2635 17.951L23.799 21.4865C25.2273 20.0583 26.4107 18.7294 27.3196 17.5054L23.3054 14.5246ZM20.2635 17.951C18.9295 19.285 17.2241 20.8891 15.1391 22.7677L18.4859 26.4823C20.6092 24.5693 22.383 22.9025 23.799 21.4865L20.2635 17.951ZM15.1436 22.7636L13.3311 24.3886L16.6689 28.1114L18.4814 26.4864L15.1436 22.7636Z" fill="#00323D" mask="url(#path-2-inside-1_854_9250)"/>
</g>
</svg>
