<svg width="30" height="30" viewBox="0 0 30 30" fill="none" xmlns="http://www.w3.org/2000/svg">
<path fill-rule="evenodd" clip-rule="evenodd" d="M0 15C0 6.71563 6.71563 0 15 0C23.2844 0 30 6.71563 30 15C30 21.4706 25.9031 26.9842 20.1616 29.0883V20.1721H23.5382L24.0447 16.2532H20.1616V13.75C20.1616 12.6136 20.4766 11.8409 22.1032 11.8409H24.1779H24.1811V8.33766C23.8207 8.28896 22.5902 8.18182 21.1551 8.18182C18.1616 8.18182 16.1129 10.0097 16.1129 13.3636V16.2532H12.7266V20.1753H16.1129V29.9593C15.7455 29.9863 15.3743 30 15 30C6.71563 30 0 23.2844 0 15Z" fill="#00323D"/>
</svg>
