<svg width="26" height="25" viewBox="0 0 26 25" fill="none" xmlns="http://www.w3.org/2000/svg">
<mask id="mask0_783_4706" style="mask-type:alpha" maskUnits="userSpaceOnUse" x="0" y="0" width="26" height="25">
<rect x="0.378906" width="25" height="25" fill="#D9D9D9"/>
</mask>
<g mask="url(#mask0_783_4706)">
<path d="M14.9575 13.541V19.791C14.9575 20.0862 14.8578 20.3334 14.6585 20.5327C14.4585 20.7327 14.2109 20.8327 13.9158 20.8327H11.8325C11.5373 20.8327 11.2901 20.7327 11.0908 20.5327C10.8908 20.3334 10.7908 20.0862 10.7908 19.791V13.541L4.74913 5.83268C4.48871 5.48546 4.44983 5.12088 4.63246 4.73893C4.81441 4.35699 5.13108 4.16602 5.58246 4.16602H20.1658C20.6172 4.16602 20.9342 4.35699 21.1168 4.73893C21.2988 5.12088 21.2595 5.48546 20.9991 5.83268L14.9575 13.541ZM12.8741 12.8118L18.0304 6.24935H7.71788L12.8741 12.8118Z" fill="#00323D"/>
</g>
</svg>
