<svg width="30" height="30" viewBox="0 0 30 30" fill="none" xmlns="http://www.w3.org/2000/svg">
<mask id="mask0_138_202" style="mask-type:alpha" maskUnits="userSpaceOnUse" x="0" y="0" width="30" height="30">
<rect width="30" height="30" fill="#D9D9D9"/>
</mask>
<g mask="url(#mask0_138_202)">
<path d="M13.75 26.25L9.78125 22.6875C8.28125 21.3333 6.995 20.125 5.9225 19.0625C4.84917 18 3.96375 17 3.26625 16.0625C2.56792 15.125 2.0575 14.2188 1.735 13.3438C1.41167 12.4688 1.25 11.5521 1.25 10.5938C1.25 8.63542 1.90625 7.005 3.21875 5.7025C4.53125 4.40083 6.16667 3.75 8.125 3.75C9.20833 3.75 10.2396 3.97917 11.2188 4.4375C12.1979 4.89583 13.0417 5.54167 13.75 6.375C14.4583 5.54167 15.3021 4.89583 16.2812 4.4375C17.2604 3.97917 18.2917 3.75 19.375 3.75C21.0625 3.75 22.4792 4.22375 23.625 5.17125C24.7708 6.11958 25.5521 7.3125 25.9688 8.75H23.3125C22.9375 7.91667 22.3854 7.29167 21.6562 6.875C20.9271 6.45833 20.1667 6.25 19.375 6.25C18.3125 6.25 17.3958 6.53667 16.625 7.11C15.8542 7.6825 15.1354 8.4375 14.4688 9.375H13.0312C12.3854 8.4375 11.6512 7.6825 10.8288 7.11C10.0054 6.53667 9.10417 6.25 8.125 6.25C6.9375 6.25 5.91125 6.66125 5.04625 7.48375C4.18208 8.30708 3.75 9.34375 3.75 10.5938C3.75 11.2813 3.89583 11.9792 4.1875 12.6875C4.47917 13.3958 5 14.2137 5.75 15.1412C6.5 16.0679 7.52083 17.1508 8.8125 18.39C10.1042 19.63 11.75 21.125 13.75 22.875C14.2917 22.3958 14.9271 21.8438 15.6562 21.2188C16.3854 20.5938 16.9688 20.0729 17.4062 19.6562L17.6875 19.9375L18.2962 20.5475L18.9062 21.1562L19.1875 21.4375C18.7292 21.8542 18.1458 22.3696 17.4375 22.9837C16.7292 23.5987 16.1042 24.1458 15.5625 24.625L13.75 26.25ZM22.5 21.25V17.5H18.75V15H22.5V11.25H25V15H28.75V17.5H25V21.25H22.5Z" fill="#00323D"/>
</g>
</svg>
