<svg width="30" height="30" viewBox="0 0 30 30" fill="none" xmlns="http://www.w3.org/2000/svg">
<path d="M15 0C23.2706 0 30 5.73037 30 12.7753C30 15.5952 28.9594 18.1337 26.7844 20.6348C23.6381 24.4367 16.6012 29.0671 15 29.7755C13.4438 30.4642 13.6237 29.3878 13.695 28.9628L13.7006 28.9273L13.9144 27.5794C13.965 27.1779 14.0175 26.5541 13.8656 26.1566C13.6969 25.7178 13.0331 25.4895 12.5456 25.3793C5.33625 24.3816 0 19.0901 0 12.7753C0 5.73037 6.73125 0 15 0ZM9.41625 15.1249H6.55687V9.67787C6.55688 9.59679 6.52632 9.519 6.47187 9.46149C6.41742 9.40398 6.3435 9.3714 6.26625 9.37088H5.2125C5.17409 9.37088 5.13605 9.37882 5.10056 9.39425C5.06508 9.40968 5.03283 9.43229 5.00567 9.4608C4.97851 9.4893 4.95696 9.52314 4.94227 9.56039C4.92757 9.59764 4.92 9.63756 4.92 9.67787V16.5378C4.92 16.6185 4.95187 16.6952 5.0025 16.7483V16.7503L5.00625 16.7542L5.01 16.7582C5.06438 16.8131 5.13706 16.8434 5.2125 16.8428H9.41625C9.5775 16.8428 9.70687 16.705 9.70687 16.5358V15.4338C9.70712 15.3935 9.6998 15.3535 9.68533 15.3162C9.67086 15.2788 9.64952 15.2449 9.62253 15.2162C9.59554 15.1875 9.56344 15.1647 9.52804 15.149C9.49265 15.1333 9.45466 15.1251 9.41625 15.1249ZM10.8994 9.37088C10.8218 9.37088 10.7474 9.40323 10.6925 9.4608C10.6377 9.51837 10.6069 9.59645 10.6069 9.67787V16.5378C10.6069 16.707 10.7381 16.8428 10.8994 16.8428H11.9531C12.1144 16.8428 12.2438 16.705 12.2438 16.5378V9.67787C12.2438 9.59679 12.2132 9.519 12.1587 9.46149C12.1043 9.40398 12.0304 9.3714 11.9531 9.37088H10.8994ZM18.1425 9.37088C18.0649 9.37088 17.9905 9.40323 17.9357 9.4608C17.8808 9.51837 17.85 9.59645 17.85 9.67787V13.7513L14.8556 9.50863C14.8481 9.4983 14.8399 9.48845 14.8312 9.47912V9.47715C14.8253 9.47026 14.8191 9.46369 14.8125 9.45747L14.8069 9.45157C14.8004 9.44511 14.7936 9.43919 14.7863 9.43386H14.7844L14.775 9.42598L14.7694 9.42205C14.7664 9.41975 14.7633 9.41778 14.76 9.41614L14.745 9.40631H14.7413L14.7356 9.40237L14.7169 9.3945L14.7094 9.39056C14.7032 9.38823 14.697 9.38626 14.6906 9.38466H14.6869L14.6812 9.38269L14.6644 9.37875H14.6531L14.6475 9.37679H14.64L14.6363 9.37482H13.56C13.4827 9.37482 13.4086 9.40689 13.3538 9.46404C13.299 9.52118 13.268 9.59876 13.2675 9.67984V16.5397C13.2675 16.709 13.3987 16.8448 13.56 16.8448H14.61C14.7731 16.8448 14.9044 16.707 14.9044 16.5397V12.4663L17.9044 16.7169C17.9243 16.7461 17.9491 16.7715 17.9775 16.7916L17.9794 16.7936L17.9981 16.8054L18.0056 16.8093C18.0104 16.8123 18.0155 16.8149 18.0206 16.8172L18.0338 16.8231L18.0431 16.8271C18.0493 16.8292 18.0556 16.8312 18.0619 16.833H18.0675C18.0919 16.8403 18.1171 16.8443 18.1425 16.8448H19.1925C19.3556 16.8448 19.4869 16.707 19.4869 16.5397V9.67787C19.4869 9.59645 19.4561 9.51837 19.4012 9.4608C19.3463 9.40323 19.272 9.37088 19.1944 9.37088H18.1425ZM25.2956 10.7818V9.67984C25.2959 9.63952 25.2885 9.59955 25.2741 9.56221C25.2596 9.52486 25.2383 9.49088 25.2113 9.46219C25.1843 9.4335 25.1522 9.41067 25.1168 9.395C25.0814 9.37934 25.0434 9.37114 25.005 9.37088H20.8013C20.7256 9.37098 20.6529 9.40204 20.5988 9.45747H20.5969L20.595 9.4614L20.5913 9.46731C20.5389 9.52369 20.5093 9.59914 20.5087 9.67787V16.5378C20.5087 16.6185 20.5406 16.6952 20.5913 16.7483L20.595 16.7542L20.5988 16.7582C20.6532 16.8129 20.7258 16.8432 20.8013 16.8428H25.005C25.1663 16.8428 25.2956 16.705 25.2956 16.5358V15.4338C25.2959 15.3935 25.2885 15.3535 25.2741 15.3162C25.2596 15.2788 25.2383 15.2449 25.2113 15.2162C25.1843 15.1875 25.1522 15.1647 25.1168 15.149C25.0814 15.1333 25.0434 15.1251 25.005 15.1249H22.1438V13.9658H25.0031C25.1644 13.9658 25.2937 13.8281 25.2937 13.6588V12.5568C25.294 12.5165 25.2867 12.4765 25.2722 12.4392C25.2577 12.4019 25.2364 12.3679 25.2094 12.3392C25.1824 12.3105 25.1503 12.2877 25.1149 12.272C25.0795 12.2563 25.0415 12.2481 25.0031 12.2479H22.1438V11.0888H25.0031C25.1644 11.0888 25.2937 10.9511 25.2937 10.7818H25.2956Z" fill="#00323D"/>
</svg>
