<svg width="166" height="154" viewBox="0 0 166 154" fill="none" xmlns="http://www.w3.org/2000/svg">
<g clip-path="url(#clip0_557_2196)">
<path d="M30.8424 85.1171C30.4766 84.6142 30.252 84.1693 30.1493 83.7695C29.8638 84.3466 30.2007 84.9075 30.8424 85.1171Z" fill="#00323D"/>
<path d="M130.171 84.795C129.481 84.3791 128.91 86.3779 128.156 85.8234C127.405 85.2689 127.373 86.4907 126.593 88.3218C125.81 90.1529 123.256 86.5455 121.543 88.8505C119.83 91.1555 118.569 91.5972 115.2 90.2658C109.578 87.9156 108.818 95.6463 103.177 90.9041C98.7523 88.4862 95.0368 97.3968 90.4324 92.3193C87.811 89.1471 83.3735 93.6024 81.474 93.4283C81.474 93.4283 80.0622 93.3187 78.2269 92.2613C73.6547 88.3766 70.6739 96.7585 65.8417 92.6804C60.3679 86.8743 58.4684 94.6598 53.8769 91.7358C49.7827 86.6422 44.7163 94.2665 41.4018 88.8473C39.6885 86.5423 37.1344 90.1529 36.3515 88.3186C35.5718 86.4875 35.5397 85.2657 34.7889 85.8202C34.0381 86.3747 33.467 84.3759 32.7739 84.7918C32.0424 85.2302 31.3429 85.2818 30.8359 85.1142C32.5654 87.4869 37.3622 91.0653 46.5131 96.5328C58.6064 102.516 60.7689 102.004 69.2364 105.027C72.4194 104.089 73.1445 106.194 76.3595 106.053C78.1628 105.914 77.6526 104.666 79.3949 105.385C81.1371 106.107 80.7007 106.169 81.4676 106.356C82.2345 106.165 81.7981 106.107 83.5404 105.385C85.2826 104.663 84.7725 105.914 86.5757 106.053C89.7939 106.201 90.5191 104.086 93.6988 105.024C102.166 101.991 104.326 102.516 116.422 96.5328C125.525 91.0975 130.315 87.5288 132.067 85.1561C131.425 85.3914 130.665 85.0948 130.161 84.7918L130.171 84.795ZM93.7405 103.116C91.5779 102.784 92.749 101.949 89.9832 103.448C85.119 106.104 86.1457 101.101 81.4772 103.947C76.8408 101.104 77.813 106.101 72.9712 103.448C70.2054 101.949 71.3766 102.78 69.214 103.116C62.8128 100.846 47.4757 97.9706 38.6457 90.4044C45.6917 95.7752 49.6672 91.4553 53.7036 94.1504C56.017 96.0944 59.386 99.0344 62.0909 100.285C62.0909 100.285 56.4694 95.1788 57.6726 94.7887C58.8759 94.3987 61.9722 92.0679 63.1722 94.3438C64.3754 96.6198 66.1786 100.118 68.2225 101.949C63.3519 91.4005 66.0343 97.3291 72.1595 95.9815C73.6611 94.9531 73.783 100.45 76.8793 102.893C75.3167 100.034 73.9627 93.7894 75.9167 94.4277C77.8708 95.066 79.2793 96.3394 81.4772 96.3394C83.6751 96.3394 85.0837 95.066 87.0377 94.4277C88.9918 93.7894 87.6377 100.034 86.0752 102.893C89.1715 100.45 89.2902 94.9531 90.795 95.9815C96.901 97.342 99.6154 91.378 94.7319 101.949C96.7758 100.118 98.5791 96.6198 99.7823 94.3438C100.986 92.0679 104.082 94.3987 105.282 94.7887C106.485 95.1788 100.864 100.285 100.864 100.285C103.568 99.0377 106.934 96.0944 109.251 94.1504C113.396 91.4328 117.183 95.801 124.312 90.4044C115.527 97.9513 100.11 100.862 93.7437 103.116H93.7405Z" fill="#00323D"/>
<path d="M67.467 75.8464C66.3697 73.7574 65.1376 72.4646 64.159 71.6812C63.9632 71.5684 63.7643 71.4491 63.559 71.3202C59.4712 68.7121 41.4357 59.4953 40.1137 58.1091C27.1831 39.9173 55.1973 60.6559 60.9825 64.3052C60.8766 64.1311 60.7707 63.9571 60.668 63.7798C58.1108 61.7649 52.3898 57.2709 48.3502 54.1664C43.0015 50.0593 38.8528 47.2256 38.7308 43.341C38.6282 40.0785 48.9887 48.5119 57.8669 55.8364C57.7931 55.3721 57.7354 54.8982 57.6904 54.4211C51.1674 47.6286 42.0581 38.2248 43.117 34.7947C44.0796 31.687 44.4389 28.9113 47.8047 32.4639C49.547 34.3015 54.2316 40.6395 58.3482 46.3294C58.4637 45.8813 58.592 45.4332 58.7332 44.9819C54.0679 37.3222 49.0336 28.3988 50.8689 27.077C53.0348 27.2995 53.2144 20.6359 54.4754 22.193C55.2423 23.1343 58.9033 28.9404 62.7953 36.9063C63.2413 36.2712 63.7194 35.6362 64.2295 34.9978C61.8809 26.8256 59.7856 19.1884 60.1258 19.0853C61.7493 18.5856 64.2745 20.5295 66.1964 18.4179C67.2232 17.2928 68.5419 21.4032 70.2328 28.7856C71.1954 27.9249 72.1099 27.1479 72.9184 26.4742C72.3794 20.2619 72.1997 15.3521 73.05 14.7557C73.0724 14.7396 73.0917 14.7267 73.1142 14.7106C73.0692 13.4082 73.0821 12.1509 73.1687 10.9581C73.1687 10.9517 73.1687 10.9452 73.1687 10.9355C71.7473 11.8189 70.4478 12.5539 68.8403 12.3411C66.3151 11.7866 64.3611 11.648 62.4969 13.6177C60.2509 19.0563 54.0743 14.8815 50.6829 19.6398C48.4625 29.6367 43.1683 22.409 40.9736 29.9107C40.2004 39.7078 35.442 34.7399 35.3233 41.3455C35.3233 44.8981 36.9468 45.5654 35.3233 48.0638C30.7799 52.3224 36.1094 54.4566 36.3468 58.4992C36.1383 63.7088 40.948 62.6385 42.5394 65.9945C43.1394 67.8804 46.8069 68.3801 51.7962 69.4375C56.7856 70.4917 65.083 75.2661 62.7985 78.3738C60.514 81.4815 59.4327 77.4292 56.2466 79.0959C43.1876 80.7175 28.9927 79.3377 30.135 83.7736C30.5617 82.9064 32.3938 82.0102 36.719 82.2294C44.4742 82.5905 42.809 82.2133 46.4154 82.0167C50.0219 81.8232 55.1203 83.5447 56.5033 82.9612C57.8862 82.3777 58.6755 81.9586 61.1718 82.7098C63.668 83.4577 65.9012 81.0947 66.713 81.0109C67.5248 80.927 70.7847 86.8298 80.7249 86.8298C71.6318 85.7853 69.7227 80.163 67.4606 75.8528L67.467 75.8464Z" fill="#00323D"/>
<path d="M106.694 79.0932C103.508 77.4265 102.427 81.4821 100.142 78.3711C97.8575 75.2634 106.155 70.489 111.144 69.4348C116.134 68.3806 119.801 67.8809 120.401 65.9918C121.996 62.6326 126.786 63.7158 126.594 58.4997C126.85 54.441 132.138 52.3326 127.617 48.0644C125.994 45.5659 127.617 44.8986 127.617 41.346C127.482 34.7211 122.747 39.7244 121.964 29.9112C120.943 25.4141 118.296 26.5263 115.232 25.0272C112.165 23.5282 114.061 22.5288 112.258 19.6435C108.879 14.8755 102.686 19.0536 100.444 13.6215C98.5794 11.6518 96.6254 11.7904 94.1002 12.3449C92.7686 12.5189 91.6552 12.0547 90.513 11.3906C90.4873 11.8 90.452 12.2127 90.4039 12.6318C90.3173 13.399 90.1889 14.1599 90.0317 14.9174C91.0488 16.4681 90.1344 26.1169 89.1076 35.6077C89.8199 35.5819 90.5194 35.6044 91.2028 35.6754C93.6414 24.1052 95.4318 16.9807 96.7441 18.4217C98.6692 20.53 101.191 18.5893 102.815 19.089C103.2 19.2083 100.46 28.986 97.7708 38.2641C98.1944 38.5864 98.6051 38.9411 98.9965 39.3215C103.29 30.1369 107.628 23.2348 108.468 22.2C109.729 20.6461 109.912 27.3064 112.078 27.084C114.051 28.4863 108.112 38.6606 103.206 46.6362C103.318 47.036 103.418 47.4389 103.508 47.8484C107.852 41.8167 113.246 34.4697 115.145 32.4677C118.511 28.9151 118.874 31.6908 119.833 34.7985C120.988 38.5316 110.089 49.3474 103.598 56.1625C103.53 56.5268 103.456 56.8911 103.373 57.2554C112.569 49.6666 124.332 39.8727 124.222 43.348C124.104 47.2326 119.955 50.0663 114.603 54.1734C109.251 58.2805 100.957 64.8312 100.957 64.8312C101.416 65.4244 137.15 38.0158 122.84 58.1129C121.518 59.4991 103.482 68.7159 99.3944 71.3239C91.9729 76.5948 94.3633 80.818 89.868 83.8322C86.7557 86.1952 82.2188 86.8303 82.2188 86.8303C92.159 86.8303 95.4157 80.9276 96.2307 81.0082C100.752 84.4512 102.6 81.208 106.437 82.9585C107.82 83.5421 112.919 81.8206 116.525 82.014C120.132 82.2074 118.466 82.5878 126.221 82.2268C131.346 81.9882 132.536 83.1262 132.757 83.9257C134.265 79.2996 119.852 80.7309 106.694 79.0932Z" fill="#00323D"/>
<path d="M23.4851 120.896H14.4272V112.865H11.8828V132.65H14.4272V123.413H23.4851V132.65H26.0327V112.865H23.4851V120.896Z" fill="#00323D"/>
<path d="M42.7627 112.865L33.4609 132.65H36.2941L39.2621 126.354H47.0622L50.059 132.65H52.8216L43.6386 112.865H42.7659H42.7627ZM45.936 123.858H40.4364L43.1926 118.007L45.936 123.858Z" fill="#00323D"/>
<path d="M77.9554 112.865L70.4858 128.165L63.0322 113.046L62.9424 112.865H62.1563L59.3359 132.65H61.8258L63.5937 119.619L70.0334 132.65H70.919L77.2784 119.722L79.056 132.65H81.5715L78.7383 112.865H77.9554Z" fill="#00323D"/>
<path d="M97.3603 112.865L88.0586 132.65H90.8918L93.8597 126.354H101.66L104.657 132.65H107.419L98.2363 112.865H97.3635H97.3603ZM100.534 123.858H95.0341L97.7903 118.007L100.534 123.858Z" fill="#00323D"/>
<path d="M120.73 120.467L116.035 112.865H113.09L119.497 123.272V132.65H122.016V123.272L128.299 112.865H125.347L120.73 120.467Z" fill="#00323D"/>
<path d="M144.159 112.865H143.286L133.984 132.65H136.818L139.786 126.354H147.586L150.582 132.65H153.345L144.162 112.865H144.159ZM146.456 123.858H140.957L143.713 118.007L146.456 123.858Z" fill="#00323D"/>
<path d="M51.2852 153.7L52.9697 141.869H53.1622L57.9494 151.579L62.6917 141.869H62.881L64.5752 153.7H63.4201L62.2554 145.238L58.0906 153.7H57.789L53.5761 145.174L52.421 153.7H51.2852Z" fill="#00323D"/>
<path d="M70.207 141.869H71.3846V149.013C71.3846 149.861 71.4006 150.39 71.4327 150.599C71.4905 151.067 71.6284 151.457 71.8402 151.769C72.0552 152.082 72.3825 152.346 72.8252 152.559C73.268 152.772 73.714 152.878 74.1632 152.878C74.5515 152.878 74.9269 152.795 75.283 152.63C75.6392 152.466 75.9408 152.234 76.1782 151.937C76.4189 151.644 76.5954 151.286 76.7077 150.867C76.7879 150.567 76.8264 149.951 76.8264 149.016V141.872H78.0039V149.016C78.0039 150.074 77.9012 150.928 77.6959 151.579C77.4905 152.23 77.0798 152.798 76.4638 153.281C75.8477 153.765 75.1001 154.007 74.2274 154.007C73.2777 154.007 72.4627 153.778 71.7857 153.323C71.1086 152.869 70.653 152.263 70.4252 151.515C70.2808 151.054 70.2102 150.222 70.2102 149.023V141.879L70.207 141.869Z" fill="#00323D"/>
<path d="M82.9648 151.498L83.9659 150.895C84.6718 152.198 85.4836 152.849 86.4077 152.849C86.8023 152.849 87.1745 152.756 87.521 152.572C87.8676 152.388 88.1307 152.14 88.3136 151.827C88.4965 151.518 88.5863 151.186 88.5863 150.837C88.5863 150.441 88.4515 150.051 88.1852 149.67C87.8162 149.145 87.1456 148.513 86.167 147.772C85.1852 147.027 84.5723 146.489 84.3349 146.156C83.9178 145.599 83.7092 144.996 83.7092 144.348C83.7092 143.832 83.8312 143.365 84.0782 142.939C84.3221 142.517 84.6686 142.182 85.1146 141.937C85.5606 141.692 86.0451 141.572 86.5681 141.572C87.1232 141.572 87.643 141.711 88.1243 141.988C88.6088 142.265 89.1189 142.772 89.658 143.513L88.6986 144.245C88.2558 143.655 87.8772 143.265 87.566 143.078C87.2547 142.891 86.9146 142.797 86.5456 142.797C86.0708 142.797 85.6825 142.942 85.3809 143.233C85.0793 143.523 84.9285 143.877 84.9285 144.303C84.9285 144.561 84.9831 144.809 85.0889 145.051C85.1948 145.293 85.3905 145.554 85.6729 145.841C85.8269 145.992 86.3339 146.385 87.1938 147.024C88.2141 147.778 88.9136 148.452 89.2922 149.042C89.6708 149.632 89.8601 150.225 89.8601 150.818C89.8601 151.676 89.536 152.42 88.8879 153.055C88.2398 153.687 87.4505 154.003 86.5232 154.003C85.8077 154.003 85.1595 153.813 84.5788 153.429C83.998 153.046 83.4622 152.404 82.9713 151.502L82.9648 151.498Z" fill="#00323D"/>
<path d="M95.457 141.869H96.6346V153.7H95.457V141.869Z" fill="#00323D"/>
<path d="M113.579 144.064L112.652 144.78C112.138 144.109 111.525 143.6 110.807 143.255C110.088 142.91 109.299 142.736 108.442 142.736C107.502 142.736 106.632 142.962 105.833 143.416C105.031 143.871 104.412 144.477 103.972 145.241C103.533 146.005 103.311 146.866 103.311 147.82C103.311 149.261 103.802 150.467 104.787 151.431C105.772 152.395 107.014 152.878 108.512 152.878C110.162 152.878 111.541 152.23 112.652 150.931L113.579 151.64C112.992 152.391 112.26 152.972 111.381 153.381C110.502 153.79 109.523 153.997 108.439 153.997C106.379 153.997 104.752 153.307 103.565 151.93C102.567 150.766 102.066 149.361 102.066 147.717C102.066 145.986 102.67 144.528 103.879 143.345C105.089 142.162 106.603 141.572 108.423 141.572C109.523 141.572 110.515 141.791 111.4 142.227C112.286 142.665 113.011 143.278 113.579 144.064Z" fill="#00323D"/>
<path d="M7.9862 81.4148C7.05891 81.0827 5.8204 81.5244 5.09204 81.9789C4.2931 82.4786 3.6578 83.1782 2.75298 83.5489C2.02783 83.8487 1.1936 83.7262 0.330486 83.4619L0 83.7198L8.06 90.7283C7.71026 90.7057 7.33485 90.7798 6.9402 90.9862C5.38403 91.7341 4.58829 92.9108 4.60113 93.736C4.63001 95.2996 6.65142 95.7864 7.96053 95.1352C9.34664 94.4453 10.7263 92.8721 9.66109 91.6245C9.60333 91.56 9.54558 91.4955 9.48461 91.4343L9.49103 91.4278L4.88349 87.4207C5.16905 87.3755 5.45141 87.1144 5.65676 86.9629C6.07067 86.6598 6.43003 86.3084 6.70276 85.9119C6.97228 85.5251 7.11988 85.1737 7.31239 84.7514C7.64609 84.026 8.15946 83.6327 9.01295 83.5328C9.27285 83.5005 9.40119 83.4748 9.63542 83.5908C9.88248 83.7133 10.1103 83.8809 10.1039 84.055C10.229 83.5328 9.3659 83.2297 8.92311 83.2426C8.18834 83.2652 7.54983 83.5747 7.05891 83.9809C6.74447 84.242 6.30489 84.7288 6.04821 85.0286C5.83644 85.2736 5.61184 85.6089 5.32627 85.8313C5.00541 86.0796 4.84498 86.2762 4.39578 86.3439C4.21289 86.3729 3.90486 86.389 3.65459 86.3439L2.7626 85.567C3.07063 85.6959 3.41716 85.654 3.65138 85.596C4.07171 85.4928 4.30915 85.1253 4.55942 84.8481C5.02787 84.3291 5.40007 83.7907 5.79794 83.2362C6.17334 82.7139 7.14234 81.7339 8.05358 82.0144C8.51562 82.1562 8.52204 82.5528 8.71776 82.8461C8.97124 82.3174 8.64717 81.6372 7.98941 81.4019L7.9862 81.4148Z" fill="#F2F2F2"/>
<path d="M148.724 67.9224C148.714 67.858 148.701 67.7967 148.689 67.7355H148.695L146.68 60.8333C146.712 60.2756 146.593 59.4923 146.414 59.0312C145.621 59.1118 144.806 59.373 144.033 59.6567C143.718 59.7727 140.507 60.9043 140.507 60.9043C140.661 61.607 140.975 62.5323 140.975 62.5323C141.004 62.5419 141.036 62.5484 141.065 62.5548L142.932 68.9476C142.749 68.8251 142.522 68.7638 142.242 68.7929C141.161 68.8541 140.359 69.4505 140.109 70.0437C139.631 71.1688 140.577 72.1295 141.495 72.0618C142.464 71.9908 143.709 71.2881 143.523 70.0759C143.513 70.0114 143.5 69.9502 143.487 69.8889H143.494L141.723 63.8186C142.223 63.5703 143.24 63.2705 144.229 62.9772C145.474 62.6096 146.333 62.3485 146.767 62.1067L148.137 66.8006C147.954 66.6781 147.726 66.6168 147.447 66.6458C146.365 66.7071 145.563 67.3035 145.313 67.8966C144.835 69.0217 145.782 69.9824 146.699 69.9147C147.668 69.8438 148.913 69.141 148.727 67.9289L148.724 67.9224ZM144.075 62.413C143.067 62.7096 142.111 62.9933 141.553 63.2544L141.35 62.5613C141.934 62.4968 142.679 62.0229 143.131 61.8585C144.222 61.4588 145.329 61.2782 146.426 60.9526L146.597 61.5361C146.285 61.7586 145.066 62.1196 144.075 62.413Z" fill="#F2F2F2"/>
<path d="M151.549 83.4745C150.23 82.401 148.709 82.0529 147.833 82.2721C146.171 82.6912 146.328 84.4546 147.461 85.3508C148.661 86.2986 150.801 87.0239 151.773 85.844C151.825 85.7828 151.873 85.7183 151.915 85.6538H151.924L156.635 77.4848C157.376 78.0393 158.71 78.4293 159.397 78.7646C161.056 79.5738 162.529 80.5764 164.12 81.4532L160.36 87.975C160.267 87.6848 160.061 87.4011 159.712 87.1303C158.393 86.0568 156.872 85.7086 155.996 85.9278C154.334 86.3469 154.491 88.1103 155.624 89.0066C156.824 89.9543 158.964 90.6797 159.936 89.4998C159.987 89.4385 160.036 89.3741 160.077 89.3096H160.087L164.528 81.6112C165.112 81.1921 165.744 80.4313 165.994 79.8704C164.996 79.1128 163.786 78.4745 162.609 77.9071C162.128 77.675 157.279 75.2539 157.279 75.2539C156.766 75.9857 156.224 77.0624 156.224 77.0624C156.246 77.1011 156.278 77.1366 156.307 77.1753L152.194 84.3127C152.101 84.0226 151.895 83.7389 151.546 83.4681L151.549 83.4745Z" fill="#F2F2F2"/>
<path d="M15.7208 68.9824C14.402 67.9088 12.8811 67.5607 12.0052 67.7799C10.3431 68.199 10.5004 69.9624 11.633 70.8586C12.833 71.8064 14.9731 72.5317 15.9454 71.3518C15.9967 71.2906 16.0448 71.2261 16.0865 71.1616H16.0962L20.8064 62.9926C21.5476 63.5471 22.8823 63.9371 23.569 64.2724C25.2278 65.0816 26.7006 66.0842 28.292 66.9611L24.5316 73.4828C24.4385 73.1926 24.2332 72.9089 23.8834 72.6381C22.5647 71.5646 21.0438 71.2164 20.1679 71.4357C18.5058 71.8547 18.663 73.6182 19.7957 74.5144C20.9957 75.4622 23.1358 76.1875 24.108 75.0076C24.1594 74.9464 24.2075 74.8819 24.2492 74.8174H24.2588L28.6995 67.119C29.2835 66.6999 29.9156 65.9391 30.1659 65.3782C29.168 64.6206 27.9583 63.9823 26.7808 63.4149C26.2995 63.1828 21.4513 60.7617 21.4513 60.7617C20.9379 61.4935 20.3957 62.5703 20.3957 62.5703C20.4181 62.6089 20.4502 62.6444 20.4791 62.6831L16.3657 69.8205C16.2726 69.5304 16.0673 69.2467 15.7175 68.9759L15.7208 68.9824Z" fill="#F2F2F2"/>
<path d="M81.394 40.4236C80.3416 37.2707 79.3276 34.0824 78.4324 30.994C75.9426 33.5924 73.565 36.1456 71.7586 38.9019C62.3895 53.1349 74.9704 72.0037 89.7075 63.7444C87.3427 56.9616 84.7566 50.2625 82.424 43.4668C78.4421 47.013 78.1533 53.1478 81.7822 57.026C75.8945 53.1478 77.287 43.7602 81.3908 40.4236H81.394ZM94.0134 68.0481C95.0273 74.4667 90.0829 79.1154 84.6379 77.3326C89.6144 77.4358 91.5139 74.6182 91.193 69.934C69.9233 81.1689 48.1369 56.6198 67.0708 35.1204C70.8602 30.8167 75.1468 27.6509 77.0656 25.9391C75.5704 19.8881 75.1436 14.9718 75.4164 11.113C76.565 -5.00595 89.8679 -2.71707 88.1673 12.3735C87.5032 18.2762 84.2496 24.4078 80.81 28.3956C81.7534 31.8032 82.8828 35.3945 84.0732 38.9664C101.197 32.3254 108.449 56.4522 94.0102 68.0514L94.0134 68.0481ZM79.4047 22.8991C81.7052 19.4529 83.2261 15.5328 83.855 11.4031C85.7128 -0.831155 78.8528 1.27075 78.3651 12.7216C78.2431 15.5618 78.5095 18.9822 79.4047 22.8991ZM85.0454 41.8388C87.3588 48.6023 89.8936 55.2755 92.2904 62.0068C103.033 53.583 96.8017 37.0579 85.0454 41.8388Z" fill="url(#paint0_linear_557_2196)"/>
</g>
<defs>
<linearGradient id="paint0_linear_557_2196" x1="62.5593" y1="10.0092" x2="96.5982" y2="73.4801" gradientUnits="userSpaceOnUse">
<stop offset="0.0343749" stop-color="white"/>
<stop offset="1" stop-color="#00323D"/>
</linearGradient>
<clipPath id="clip0_557_2196">
<rect width="166" height="154" fill="white"/>
</clipPath>
</defs>
</svg>
