<svg width="180" height="180" viewBox="0 0 180 180" fill="none" xmlns="http://www.w3.org/2000/svg">
<rect width="180" height="180" fill="#D9D9D9"/>
<mask id="mask0_1457_11258" style="mask-type:alpha" maskUnits="userSpaceOnUse" x="28" y="24" width="125" height="125">
<rect x="28" y="24" width="125" height="125" fill="#D9D9D9"/>
</mask>
<g mask="url(#mask0_1457_11258)">
<path d="M108.73 81.291C110.987 81.291 112.854 80.5532 114.329 79.0775C115.805 77.6018 116.543 75.7355 116.543 73.4785C116.543 71.2216 115.805 69.3553 114.329 67.8796C112.854 66.4039 110.987 65.666 108.73 65.666C106.474 65.666 104.607 66.4039 103.132 67.8796C101.656 69.3553 100.918 71.2216 100.918 73.4785C100.918 75.7355 101.656 77.6018 103.132 79.0775C104.607 80.5532 106.474 81.291 108.73 81.291ZM72.2721 81.291C74.5291 81.291 76.3954 80.5532 77.8711 79.0775C79.3468 77.6018 80.0846 75.7355 80.0846 73.4785C80.0846 71.2216 79.3468 69.3553 77.8711 67.8796C76.3954 66.4039 74.5291 65.666 72.2721 65.666C70.0152 65.666 68.1489 66.4039 66.6732 67.8796C65.1975 69.3553 64.4596 71.2216 64.4596 73.4785C64.4596 75.7355 65.1975 77.6018 66.6732 79.0775C68.1489 80.5532 70.0152 81.291 72.2721 81.291ZM90.5013 115.145C96.6645 115.145 102.111 113.452 106.84 110.067C111.572 106.682 114.98 102.298 117.064 96.916H63.9388C66.0221 102.298 69.4301 106.682 74.1628 110.067C78.8919 113.452 84.3381 115.145 90.5013 115.145ZM90.5013 138.583C83.2964 138.583 76.5256 137.215 70.1888 134.479C63.852 131.746 58.3398 128.036 53.6523 123.348C48.9648 118.661 45.2548 113.149 42.5221 106.812C39.786 100.475 38.418 93.7042 38.418 86.4994C38.418 79.2945 39.786 72.5237 42.5221 66.1869C45.2548 59.85 48.9648 54.3379 53.6523 49.6504C58.3398 44.9629 63.852 41.2511 70.1888 38.515C76.5256 35.7823 83.2964 34.416 90.5013 34.416C97.7062 34.416 104.477 35.7823 110.814 38.515C117.151 41.2511 122.663 44.9629 127.35 49.6504C132.038 54.3379 135.748 59.85 138.48 66.1869C141.217 72.5237 142.585 79.2945 142.585 86.4994C142.585 93.7042 141.217 100.475 138.48 106.812C135.748 113.149 132.038 118.661 127.35 123.348C122.663 128.036 117.151 131.746 110.814 134.479C104.477 137.215 97.7062 138.583 90.5013 138.583ZM90.5013 128.166C102.046 128.166 111.878 124.109 119.996 115.994C128.111 107.876 132.168 98.0445 132.168 86.4994C132.168 74.9542 128.111 65.1226 119.996 57.0046C111.878 48.89 102.046 44.8327 90.5013 44.8327C78.9562 44.8327 69.1263 48.89 61.0117 57.0046C52.8937 65.1226 48.8346 74.9542 48.8346 86.4994C48.8346 98.0445 52.8937 107.876 61.0117 115.994C69.1263 124.109 78.9562 128.166 90.5013 128.166Z" fill="#F2F2F2"/>
</g>
</svg>
