<svg width="30" height="30" viewBox="0 0 30 30" fill="none" xmlns="http://www.w3.org/2000/svg">
<mask id="mask0_780_6693" style="mask-type:alpha" maskUnits="userSpaceOnUse" x="0" y="0" width="30" height="30">
<rect width="30" height="30" fill="#D9D9D9"/>
</mask>
<g mask="url(#mask0_780_6693)">
<path d="M6.46875 20H25V9.875C25.4792 9.77083 25.9271 9.63 26.3438 9.4525C26.7604 9.27583 27.1458 9.04167 27.5 8.75V20C27.5 20.6875 27.2554 21.2763 26.7663 21.7663C26.2763 22.2554 25.6875 22.5 25 22.5H7.5L2.5 27.5V5C2.5 4.3125 2.745 3.72375 3.235 3.23375C3.72417 2.74458 4.3125 2.5 5 2.5H17.625C17.5417 2.91667 17.5 3.33333 17.5 3.75C17.5 4.16667 17.5417 4.58333 17.625 5H5V21.4688L6.46875 20ZM7.5 17.5H17.5V15H7.5V17.5ZM7.5 13.75H22.5V11.25H7.5V13.75ZM7.5 10H22.5V9.875C21.7292 9.70833 21.0258 9.42167 20.39 9.015C19.755 8.60917 19.2083 8.10417 18.75 7.5H7.5V10ZM23.75 7.5C22.7083 7.5 21.8229 7.13542 21.0938 6.40625C20.3646 5.67708 20 4.79167 20 3.75C20 2.70833 20.3646 1.82292 21.0938 1.09375C21.8229 0.364583 22.7083 0 23.75 0C24.7917 0 25.6771 0.364583 26.4062 1.09375C27.1354 1.82292 27.5 2.70833 27.5 3.75C27.5 4.79167 27.1354 5.67708 26.4062 6.40625C25.6771 7.13542 24.7917 7.5 23.75 7.5Z" fill="#00323D"/>
</g>
</svg>
