<svg width="107" height="99" viewBox="0 0 107 99" fill="none" xmlns="http://www.w3.org/2000/svg">
<g opacity="0.1">
<path d="M83.7692 62.2768C83.8822 61.3912 83.9227 60.5101 83.8575 59.65C83.8052 58.7896 83.6934 57.9334 83.4867 57.1161C82.7116 53.8323 80.8601 50.9095 78.2312 49.0355C77.5804 48.5669 76.8849 48.1667 76.1656 47.8449C75.4365 47.544 74.7008 47.2847 73.9554 47.1422C73.7544 47.0934 73.559 47.0599 73.3559 47.0293C73.9701 44.6727 74.6173 42.2867 75.2976 39.8843C78.1821 38.5264 81.0417 37.0164 83.8152 35.0197C85.6273 33.6991 87.4278 32.1432 88.8706 30.2168C89.6014 29.2675 90.2213 28.2411 90.7606 27.2091C91.0313 26.684 91.2586 26.1834 91.5051 25.628L91.8016 24.9106L92.1138 24.1049C92.9011 22.0075 93.4398 19.8264 93.6862 17.5731C93.9248 15.3226 93.9078 13.0171 93.2991 10.6915C93.143 10.1083 92.948 9.52617 92.6753 8.94616C92.4026 8.36615 92.0701 7.77744 91.5597 7.22727C91.3109 6.952 91.008 6.6834 90.6413 6.45538C90.4567 6.34399 90.262 6.24065 90.0417 6.15095C89.9657 6.12198 89.9892 6.12651 89.8295 6.07138L89.7381 6.04801C89.6467 6.02465 89.4065 5.96396 89.3078 5.95633C88.7847 5.88531 88.2866 5.96631 87.8805 6.09654C87.4667 6.22956 87.1244 6.41498 86.8291 6.60945C85.6689 7.41005 84.9916 8.32678 84.3426 9.23755C83.7119 10.1504 83.1802 11.0838 82.6902 12.0239C80.7772 15.7931 79.3455 19.6267 78.0536 23.4487C76.9095 26.8034 75.8897 30.1521 74.9388 33.4626C73.348 34.2543 71.7281 35.0262 70.1212 35.7977C69.1975 36.2424 68.2833 36.6532 67.3445 37.1164C66.3649 37.5989 65.3988 38.1068 64.4654 38.6683C62.5933 39.7887 60.8326 41.095 59.2268 42.5626C57.6129 44.0202 56.1727 45.667 54.9728 47.4704C53.7649 49.2635 52.8028 51.2285 52.1985 53.2898C52.0311 53.7991 51.9239 54.33 51.7982 54.846C51.7092 55.379 51.5964 55.8945 51.5567 56.4314C51.4278 57.4883 51.4444 58.5619 51.5357 59.6128C51.7133 61.725 52.4198 63.745 53.4585 65.4919L53.86 66.1383L54.3047 66.7472C54.5829 67.1511 54.9542 67.5472 55.2786 67.9342L55.7641 68.4282L56.0335 68.7003L56.3046 68.9413L56.8391 69.4261L57.3988 69.8843C58.8969 71.0854 60.5572 72.062 62.3004 72.7517C63.5117 73.2386 64.7632 73.5846 66.0321 73.8111C65.8617 74.6828 65.6833 75.5444 65.5069 76.3878C65.1937 77.9079 64.8325 79.3802 64.4544 80.8063C64.0634 82.2328 63.6503 83.6107 63.1311 84.9009C62.8689 85.5448 62.5905 86.1685 62.2775 86.7568C62.1984 86.8988 62.1201 87.0666 62.0404 87.1826L61.7724 87.6197C61.5877 87.8784 61.4156 88.1238 61.207 88.3651C60.4016 89.3371 59.3926 90.074 58.3216 90.5331C57.2449 90.9768 56.1166 91.1476 55.0508 91.0476L54.6552 90.9911L54.5589 90.9783C54.5589 90.9783 54.512 90.9692 54.5225 90.9741L54.4703 90.9626L54.2539 90.9194C53.993 90.8618 53.763 90.7931 53.5144 90.7094C53.0301 90.5415 52.5682 90.3394 52.1539 90.0765C51.7448 89.816 51.3711 89.5208 51.0537 89.2009C50.7412 88.8704 50.4876 88.5099 50.2805 88.1455C49.8841 87.4058 49.7254 86.6363 49.7734 85.931C49.7844 85.5787 49.8658 85.24 49.9633 84.9216C50.0108 84.765 50.0713 84.6081 50.1346 84.4588L50.2374 84.2386C50.2238 84.3088 50.2374 84.2386 50.2427 84.241L50.2916 84.1361L50.3472 83.9897C50.4661 83.7897 50.6291 83.4953 50.8051 83.2964C50.9755 83.0821 51.1596 82.8932 51.3419 82.7355C51.5774 82.5323 51.8147 82.3938 52.0349 82.292C52.489 82.9628 53.1495 83.5062 53.9669 83.8098C56.0332 84.5605 58.3168 83.5038 59.0687 81.4411C59.8207 79.3783 58.8202 77.0429 56.771 76.2555C55.3087 75.6901 53.6508 75.5571 51.7247 76.5056C50.1899 77.2596 48.7023 78.5972 47.836 80.2749C47.6143 80.6951 47.4216 81.1352 47.266 81.6053C47.1109 82.0884 46.9882 82.5292 46.8926 83.1038C46.7681 84.0416 46.7813 85.1774 47.0343 86.2652C47.2901 87.3607 47.8022 88.4414 48.5558 89.3473C48.9237 89.8056 49.3475 90.2262 49.8242 90.5883C50.2883 90.9638 50.8028 91.2861 51.347 91.5584C51.8912 91.8307 52.4728 92.0502 53.0761 92.2096C53.3713 92.2895 53.6998 92.3529 54.0121 92.3961L54.2281 92.4264L54.3556 92.441L54.4725 92.4507L54.9557 92.484C55.6016 92.4973 56.2615 92.4533 56.919 92.3187C57.5711 92.1817 58.2159 91.9647 58.8379 91.6732C60.0657 91.07 61.1874 90.1877 62.0585 89.0611C62.2817 88.7884 62.4857 88.4748 62.6872 88.1665L62.9394 87.7221C63.0408 87.5459 63.1093 87.3991 63.1905 87.239C63.5126 86.6038 63.7951 85.9438 64.0461 85.2692C65.0708 82.5674 65.7576 79.6446 66.4593 76.6075C66.6532 75.7403 66.8491 74.855 67.0475 73.9643C69.1052 74.2131 71.1872 74.1222 73.1934 73.6322C74.9703 73.1951 76.6896 72.4567 78.2033 71.4057C78.9694 70.8877 79.6654 70.2733 80.2977 69.6037C80.6178 69.2739 80.9138 68.9138 81.1969 68.554C81.34 68.3844 81.4789 68.1554 81.6212 67.96C81.7608 67.7569 81.9078 67.538 81.997 67.388L82.2995 66.8905L82.6437 66.2082C82.8395 65.7887 83.0273 65.359 83.1657 64.9256C83.4684 64.058 83.672 63.1698 83.7773 62.287L83.7692 62.2768ZM88.8728 8.98349C88.8728 8.98349 88.8623 8.97861 88.8441 8.97652C88.87 8.97581 88.8882 8.97789 88.8728 8.98349ZM88.6347 9.46627L88.6452 9.47115C88.6452 9.47115 88.6242 9.46138 88.6347 9.46627ZM80.2397 24.2168C80.9246 22.3526 81.6563 20.4975 82.4459 18.6692C83.2302 16.8385 84.0929 15.0315 85.0779 13.3325C85.5704 12.483 86.0948 11.661 86.6626 10.9104C87.2178 10.173 87.8701 9.47436 88.4363 9.13785C88.625 9.02137 88.7692 8.98634 88.8364 8.97932L88.9047 9.01109C88.8102 8.9671 88.889 9.00376 88.8732 8.99642C88.8942 9.0062 88.9233 9.0261 88.9552 9.0537C89.0189 9.10888 89.104 9.18677 89.1902 9.30346C89.5605 9.75655 89.84 10.5822 89.9721 11.4223C90.2349 13.1466 90.0231 15.0521 89.5808 16.876C89.1336 18.7104 88.434 20.5103 87.6444 22.2428L87.3507 22.872L87.0017 23.5649C86.7942 23.9407 86.5676 24.3714 86.3371 24.7556C85.8631 25.5244 85.3516 26.2502 84.7708 26.9054C83.6249 28.2233 82.1932 29.3316 80.6061 30.3484C79.6478 30.9493 78.6394 31.5206 77.6048 32.0796C78.4192 29.4587 79.2878 26.8311 80.2397 24.2168ZM62.9508 71.1395C62.1695 70.8271 61.4019 70.4445 60.6738 69.9909C59.9383 69.553 59.2445 69.026 58.5884 68.4592L58.0994 68.0274L57.6356 67.5692L57.4062 67.3348L57.2027 67.0997L56.7448 66.574C56.2497 65.9224 55.748 65.2167 55.3894 64.4372C55.0183 63.671 54.716 62.8666 54.558 62.0272C54.3846 61.1934 54.2834 60.3421 54.3116 59.4872C54.3269 58.6327 54.4434 57.7806 54.6561 56.9414C54.7431 56.5223 54.8976 56.1091 55.0185 55.6994C55.1811 55.2964 55.3174 54.8811 55.514 54.4875C56.9659 51.2952 59.5125 48.5929 62.447 46.4158C63.926 45.3295 65.5174 44.3721 67.1817 43.5188C68.0126 43.0948 68.8649 42.6934 69.7389 42.3278C70.6665 41.9295 71.6017 41.5285 72.537 41.1275C72.6574 41.075 72.7726 41.0201 72.893 40.9676C72.3776 42.9617 71.8826 44.9397 71.4156 46.8989C71.3508 46.9007 71.2888 46.9101 71.2188 46.9095L70.6933 46.9395C70.36 46.9823 70.0289 47.0069 69.7012 47.0651C67.0872 47.5149 64.8444 48.7309 63.3226 50.2377C61.7721 51.7375 60.8781 53.447 60.4332 54.9888C59.9964 56.5408 60.0014 57.9408 60.2614 59C60.5035 60.07 60.9843 60.7659 61.3349 61.1652C61.4232 61.2637 61.5059 61.3469 61.5728 61.4227C61.647 61.4827 61.7108 61.5379 61.7612 61.5805L61.9125 61.7084C61.9125 61.7084 61.8849 61.6444 61.8375 61.5267C61.7849 61.4065 61.7047 61.2223 61.6412 60.9886C61.5089 60.5186 61.3958 59.8022 61.527 58.9186C61.648 58.0431 62.0056 57.0031 62.6898 55.962C63.3559 54.9188 64.3489 53.8872 65.6285 53.0911C66.9109 52.3027 68.4727 51.7783 70.2215 51.7302C70.2474 51.7295 70.2733 51.7288 70.294 51.7256C69.93 53.3817 69.584 55.0269 69.2607 56.6508C68.5483 60.1489 67.9193 63.5645 67.3181 66.8654C67.0162 68.512 66.724 70.1376 66.4308 71.7244C66.4126 71.8181 66.3969 71.9066 66.3788 72.0002C65.2212 71.8638 64.057 71.5775 62.9452 71.1241L62.9508 71.1395ZM78.2957 65.5513C77.4031 67.8742 75.3034 70.1397 72.4432 71.2536C70.9203 71.8727 69.2038 72.1528 67.4599 72.0947C68.5126 67.3061 69.6099 62.2575 70.8601 57.0183C71.2646 55.3301 71.6867 53.618 72.116 51.8903L72.1423 51.9025C72.351 51.9485 72.5593 51.9816 72.7557 52.0538C73.566 52.2904 74.3375 52.7195 75.066 53.2818C76.5031 54.4354 77.7386 56.2674 78.4214 58.4615C78.755 59.5549 78.9587 60.7347 78.9684 61.9327C78.9694 62.5331 78.9291 63.1399 78.8237 63.7355C78.7777 64.0395 78.6977 64.3342 78.6229 64.6313L78.559 64.8505L78.5258 64.9627L78.5118 65.02C78.4751 65.0987 78.5391 64.9753 78.5219 65.012L78.3062 65.5562L78.2957 65.5513Z" fill="#6A777A"/>
<path d="M23.0918 46.1797L23.0956 46.1628L27.5284 26.3924L27.4605 26.3775L27.419 26.4039L12.2429 25.1809L11.742 27.535L8.55913 42.2784C7.94994 41.3806 6.92069 40.6926 5.66417 40.4167C3.34922 39.9085 1.12405 41.0667 0.699578 42.9933C0.275107 44.92 1.87347 46.58 4.18842 47.0882C6.47506 47.5902 8.65519 46.5288 9.19839 44.2787L9.26631 44.2936L9.13934 44.8699C9.13934 44.8699 9.10662 44.8568 9.10787 44.8511C9.10787 44.8511 9.09213 44.8418 9.09338 44.8361L12.323 29.9075L25.3119 30.9584L22.5752 43.6496C21.9661 42.7517 20.9418 42.0411 19.6853 41.7653C17.3703 41.2571 15.1476 42.4039 14.7232 44.3306C14.2987 46.2573 15.8995 47.9059 18.2145 48.4142C20.5011 48.9162 22.685 47.8378 23.2282 45.5877L23.0975 46.1809L23.0918 46.1797ZM12.5537 28.7794L12.7766 27.7681L25.7412 28.9024L25.537 29.8291L12.5537 28.7794Z" fill="#6A777A"/>
<path fill-rule="evenodd" clip-rule="evenodd" d="M54.8773 4.25C54.8711 4.27825 54.7596 8.20465 58.0288 11.5997C60.7473 14.4237 60.1397 17.3705 58.1176 18.5495C59.5831 21.2702 58.2837 23.7748 55.9541 24.3296C55.9541 24.3296 59.399 21.8636 56.0937 18.04C54.4445 16.1261 53.4588 14.7013 53.0516 13.5872L50.2764 25.2239C50.4231 25.6274 50.5582 26.1983 50.4714 26.6918L50.4899 26.6959C49.9524 28.9472 47.4482 30.133 44.7653 29.544C42.0825 28.955 40.3179 26.5951 40.8108 24.3577C41.3038 22.1203 43.8725 20.8302 46.5553 21.4192C48.01 21.7385 49.1862 22.6483 49.8881 23.6909L54.0484 4.37605L54.8125 4.5438L54.8773 4.25ZM54.1434 9.81675C54.121 10.5108 54.1486 13.9406 57.0789 16.9887L57.0732 16.9875C57.4544 17.3851 57.7696 17.786 58.0212 18.1789C58.8047 17.1544 59.5655 15.2364 57.4002 12.7293C55.7308 10.7991 54.8835 9.39284 54.4832 8.27428L54.1434 9.81675Z" fill="#6A777A"/>
</g>
</svg>
