<svg width="30" height="30" viewBox="0 0 30 30" fill="none" xmlns="http://www.w3.org/2000/svg">
<mask id="mask0_138_203" style="mask-type:alpha" maskUnits="userSpaceOnUse" x="0" y="0" width="30" height="30">
<rect width="30" height="30" fill="#D9D9D9"/>
</mask>
<g mask="url(#mask0_138_203)">
<path d="M6.25 26.2499C5.5625 26.2499 4.97375 26.0054 4.48375 25.5162C3.99458 25.0262 3.75 24.4374 3.75 23.7499V6.24993C3.75 5.56243 3.99458 4.97368 4.48375 4.48368C4.97375 3.99451 5.5625 3.74993 6.25 3.74993H15V6.24993H6.25V23.7499H23.75V14.9999H26.25V23.7499C26.25 24.4374 26.0054 25.0262 25.5163 25.5162C25.0263 26.0054 24.4375 26.2499 23.75 26.2499H6.25ZM12.125 19.6249L10.375 17.8749L23.7663 4.5H19.2663V2H28.0163V10.75H25.5163V6.25L12.125 19.6249Z" fill="#00323D"/>
</g>
</svg>
