<svg width="36" height="36" viewBox="0 0 36 36" fill="none" xmlns="http://www.w3.org/2000/svg">
<path d="M18 0C8.05875 0 0 8.05875 0 18C0 27.9412 8.05875 36 18 36C27.9412 36 36 27.9412 36 18C36 8.05875 27.9412 0 18 0Z" fill="#CAAFAD"/>
<path d="M18 3C9.71563 3 3 9.71563 3 18C3 26.2844 9.71563 33 18 33C26.2844 33 33 26.2844 33 18C33 9.71563 26.2844 3 18 3Z" fill="#5B322F"/>
<path d="M25.8019 13.0364L17.257 27.172C16.9431 27.6905 16.4162 28 15.8462 28C15.342 28 14.8644 27.7572 14.5371 27.3336L9.28139 20.5511C8.86174 20.0093 8.91733 19.2135 9.409 18.7392C9.88659 18.2769 10.6891 18.2681 11.1776 18.7207L15.6434 22.8559L23.6355 11.5419C24.0332 10.9792 24.8576 10.8273 25.4214 11.2163C26.007 11.6207 26.1745 12.4206 25.8019 13.0364Z" fill="white"/>
</svg>
