<svg width="30" height="30" viewBox="0 0 30 30" fill="none" xmlns="http://www.w3.org/2000/svg">
<mask id="mask0_778_6644" style="mask-type:alpha" maskUnits="userSpaceOnUse" x="0" y="0" width="30" height="30">
<rect width="30" height="30" fill="#D9D9D9"/>
</mask>
<g mask="url(#mask0_778_6644)">
<path d="M13.125 17.5H22.5V15H15.625L13.125 17.5ZM7.5 17.5H10.5625L17.9375 10.1875C18.0625 10.0625 18.125 9.90625 18.125 9.71875C18.125 9.53125 18.0625 9.375 17.9375 9.25L15.75 7.0625C15.625 6.9375 15.4688 6.875 15.2812 6.875C15.0938 6.875 14.9375 6.9375 14.8125 7.0625L7.5 14.4375V17.5ZM2.5 27.5V5C2.5 4.3125 2.745 3.72375 3.235 3.23375C3.72417 2.74458 4.3125 2.5 5 2.5H25C25.6875 2.5 26.2763 2.74458 26.7663 3.23375C27.2554 3.72375 27.5 4.3125 27.5 5V20C27.5 20.6875 27.2554 21.2763 26.7663 21.7663C26.2763 22.2554 25.6875 22.5 25 22.5H7.5L2.5 27.5ZM5 21.4688L6.46875 20H25V5H5V21.4688Z" fill="#00323D"/>
</g>
</svg>
