<svg width="26" height="25" viewBox="0 0 26 25" fill="none" xmlns="http://www.w3.org/2000/svg">
<mask id="mask0_783_4709" style="mask-type:alpha" maskUnits="userSpaceOnUse" x="0" y="0" width="26" height="25">
<rect x="0.640625" width="25" height="25" fill="#D9D9D9"/>
</mask>
<g mask="url(#mask0_783_4709)">
<path d="M21.0612 21.873L14.4987 15.3105C13.9779 15.7272 13.3789 16.0571 12.7018 16.3001C12.0247 16.5432 11.3043 16.6647 10.5404 16.6647C8.648 16.6647 7.04661 16.0095 5.7362 14.6991C4.42509 13.388 3.76953 11.7862 3.76953 9.89388C3.76953 8.00152 4.42509 6.39978 5.7362 5.08867C7.04661 3.77826 8.648 3.12305 10.5404 3.12305C12.4327 3.12305 14.0345 3.77826 15.3456 5.08867C16.656 6.39978 17.3112 8.00152 17.3112 9.89388C17.3112 10.6578 17.1897 11.3783 16.9466 12.0553C16.7036 12.7324 16.3737 13.3314 15.957 13.8522L22.5195 20.4147L21.0612 21.873ZM10.5404 14.5814C11.8424 14.5814 12.9494 14.1258 13.8612 13.2147C14.7723 12.3029 15.2279 11.196 15.2279 9.89388C15.2279 8.5918 14.7723 7.48485 13.8612 6.57305C12.9494 5.66194 11.8424 5.20638 10.5404 5.20638C9.23828 5.20638 8.13134 5.66194 7.21953 6.57305C6.30842 7.48485 5.85286 8.5918 5.85286 9.89388C5.85286 11.196 6.30842 12.3029 7.21953 13.2147C8.13134 14.1258 9.23828 14.5814 10.5404 14.5814Z" fill="#00323D"/>
</g>
</svg>
