<svg width="31" height="30" viewBox="0 0 31 30" fill="none" xmlns="http://www.w3.org/2000/svg">
<path d="M9.19565 30C8.39855 30 7.71642 29.7065 7.14927 29.1195C6.58116 28.5315 6.2971 27.825 6.2971 27C6.2971 26.175 6.58116 25.4685 7.14927 24.8805C7.71642 24.2935 8.39855 24 9.19565 24C9.99275 24 10.6749 24.2935 11.242 24.8805C11.8101 25.4685 12.0942 26.175 12.0942 27C12.0942 27.825 11.8101 28.5315 11.242 29.1195C10.6749 29.7065 9.99275 30 9.19565 30ZM23.6884 30C22.8913 30 22.2092 29.7065 21.642 29.1195C21.0739 28.5315 20.7899 27.825 20.7899 27C20.7899 26.175 21.0739 25.4685 21.642 24.8805C22.2092 24.2935 22.8913 24 23.6884 24C24.4855 24 25.1681 24.2935 25.7362 24.8805C26.3034 25.4685 26.587 26.175 26.587 27C26.587 27.825 26.3034 28.5315 25.7362 29.1195C25.1681 29.7065 24.4855 30 23.6884 30ZM16.442 12L14.413 9.9L16.6957 7.5H10.6449V4.5H16.6957L14.3768 2.1L16.442 0L22.2391 6L16.442 12ZM0.5 3V0H5.24638L11.4058 13.5H21.5507L27.2029 3H30.5L24.1232 14.925C23.8575 15.425 23.5072 15.8125 23.0725 16.0875C22.6377 16.3625 22.1425 16.5 21.587 16.5H10.7899L9.19565 19.5H26.587V22.5H9.19565C8.1087 22.5 7.28744 22.006 6.73188 21.018C6.17633 20.031 6.15217 19.05 6.65942 18.075L8.61594 14.4L3.39855 3H0.5Z" fill="#F2F2F2"/>
</svg>
