<svg width="31" height="30" viewBox="0 0 31 30" fill="none" xmlns="http://www.w3.org/2000/svg">
<path d="M9.50268 30C8.67743 30 7.97122 29.7065 7.38405 29.1195C6.79587 28.5315 6.50179 27.825 6.50179 27C6.50179 26.175 6.79587 25.4685 7.38405 24.8805C7.97122 24.2935 8.67743 24 9.50268 24C10.3279 24 11.0341 24.2935 11.6213 24.8805C12.2095 25.4685 12.5036 26.175 12.5036 27C12.5036 27.825 12.2095 28.5315 11.6213 29.1195C11.0341 29.7065 10.3279 30 9.50268 30ZM24.5071 30C23.6819 30 22.9757 29.7065 22.3885 29.1195C21.8003 28.5315 21.5063 27.825 21.5063 27C21.5063 26.175 21.8003 25.4685 22.3885 24.8805C22.9757 24.2935 23.6819 24 24.5071 24C25.3324 24 26.0391 24.2935 26.6273 24.8805C27.2145 25.4685 27.508 26.175 27.508 27C27.508 27.825 27.2145 28.5315 26.6273 29.1195C26.0391 29.7065 25.3324 30 24.5071 30ZM6.80188 3H28.9335C29.6087 3 30.0713 3.25 30.3214 3.75C30.5714 4.25 30.5589 4.775 30.2839 5.325L24.9573 14.925C24.6822 15.425 24.3196 15.8125 23.8695 16.0875C23.4193 16.3625 22.9067 16.5 22.3315 16.5H11.1532L9.50268 19.5H27.508V22.5H9.50268C8.37734 22.5 7.52709 22.006 6.95192 21.018C6.37675 20.031 6.35174 19.05 6.8769 18.075L8.9025 14.4L3.50089 3H0.5V0H5.37645L6.80188 3Z" fill="#F2F2F2"/>
</svg>
