<svg width="30" height="30" viewBox="0 0 30 30" fill="none" xmlns="http://www.w3.org/2000/svg">
<path d="M8.69565 30C7.89855 30 7.21642 29.7065 6.64927 29.1195C6.08116 28.5315 5.7971 27.825 5.7971 27C5.7971 26.175 6.08116 25.4685 6.64927 24.8805C7.21642 24.2935 7.89855 24 8.69565 24C9.49275 24 10.1749 24.2935 10.742 24.8805C11.3101 25.4685 11.5942 26.175 11.5942 27C11.5942 27.825 11.3101 28.5315 10.742 29.1195C10.1749 29.7065 9.49275 30 8.69565 30ZM23.1884 30C22.3913 30 21.7092 29.7065 21.142 29.1195C20.5739 28.5315 20.2899 27.825 20.2899 27C20.2899 26.175 20.5739 25.4685 21.142 24.8805C21.7092 24.2935 22.3913 24 23.1884 24C23.9855 24 24.6681 24.2935 25.2362 24.8805C25.8034 25.4685 26.087 26.175 26.087 27C26.087 27.825 25.8034 28.5315 25.2362 29.1195C24.6681 29.7065 23.9855 30 23.1884 30ZM0 3V0H4.74638L10.9058 13.5H21.0507L26.7029 3H30L23.6232 14.925C23.3575 15.425 23.0072 15.8125 22.5725 16.0875C22.1377 16.3625 21.6425 16.5 21.087 16.5H10.2899L8.69565 19.5H26.087V22.5H8.69565C7.6087 22.5 6.78744 22.006 6.23188 21.018C5.67633 20.031 5.65217 19.05 6.15942 18.075L8.11594 14.4L2.89855 3H0Z" fill="#00323D"/>
<path d="M14.8711 7.14286V11.4286H17.8451V7.14286H22.3061V4.28571H17.8451V0H14.8711V4.28571H10.4102V7.14286H14.8711Z" fill="#00323D"/>
</svg>
