<svg width="220" height="28" viewBox="0 0 220 28" fill="none" xmlns="http://www.w3.org/2000/svg">
<rect width="219" height="28" transform="translate(0.5)" fill="#00323D"/>
<path d="M55.7174 23C55.2391 23 54.8299 22.8239 54.4896 22.4717C54.1487 22.1189 53.9783 21.695 53.9783 21.2C53.9783 20.705 54.1487 20.2811 54.4896 19.9283C54.8299 19.5761 55.2391 19.4 55.7174 19.4C56.1957 19.4 56.6049 19.5761 56.9452 19.9283C57.2861 20.2811 57.4565 20.705 57.4565 21.2C57.4565 21.695 57.2861 22.1189 56.9452 22.4717C56.6049 22.8239 56.1957 23 55.7174 23ZM64.413 23C63.9348 23 63.5255 22.8239 63.1852 22.4717C62.8443 22.1189 62.6739 21.695 62.6739 21.2C62.6739 20.705 62.8443 20.2811 63.1852 19.9283C63.5255 19.5761 63.9348 19.4 64.413 19.4C64.8913 19.4 65.3009 19.5761 65.6417 19.9283C65.982 20.2811 66.1522 20.705 66.1522 21.2C66.1522 21.695 65.982 22.1189 65.6417 22.4717C65.3009 22.8239 64.8913 23 64.413 23ZM50.5 6.8V5H53.3478L57.0435 13.1H63.1304L66.5217 6.8H68.5L64.6739 13.955C64.5145 14.255 64.3043 14.4875 64.0435 14.6525C63.7826 14.8175 63.4855 14.9 63.1522 14.9H56.6739L55.7174 16.7H66.1522V18.5H55.7174C55.0652 18.5 54.5725 18.2036 54.2391 17.6108C53.9058 17.0186 53.8913 16.43 54.1957 15.845L55.3696 13.64L52.2391 6.8H50.5Z" fill="#F2F2F2"/>
<path d="M59.4227 9.28571V11.8571H61.2071V9.28571H63.8836V7.57143H61.2071V5H59.4227V7.57143H56.7461V9.28571H59.4227Z" fill="#F2F2F2"/>
<path d="M89.18 18.704V19.872H93.532V18.704H89.18ZM80.348 9.6V10.768H86.492V9.6H80.348ZM88.636 8.56V21.04H89.804V9.712H92.892V20.928H94.108V8.56H88.636ZM86.172 9.6V9.888C86.06 16.736 85.916 19.104 85.548 19.6C85.404 19.808 85.26 19.856 85.02 19.84C84.716 19.84 84.028 19.84 83.276 19.776C83.484 20.112 83.612 20.64 83.628 20.992C84.348 21.04 85.084 21.04 85.532 20.976C86.012 20.928 86.3 20.784 86.588 20.368C87.1 19.664 87.212 17.328 87.34 10.208C87.34 10.048 87.34 9.6 87.34 9.6H86.172ZM82.62 6.784C82.604 12.384 82.62 17.664 79.948 20.48C80.252 20.656 80.668 21.024 80.876 21.296C83.692 18.24 83.772 12.688 83.788 6.784H82.62ZM101.532 7.536V8.752H106.06V7.536H101.532ZM105.452 7.536C105.452 10.544 105.98 17.36 112.38 21.232C112.604 20.944 113.084 20.432 113.356 20.224C107.036 16.48 106.684 10.4 106.684 7.536H105.452ZM105.004 10.672C104.028 15.2 102.028 18.432 98.476 20.288C98.796 20.512 99.34 21.008 99.564 21.264C103.1 19.184 105.212 15.808 106.364 10.928L105.004 10.672ZM122.812 7.952V8.864H131.26V7.952H122.812ZM122.444 11.776V12.688H131.596V11.776H122.444ZM122.396 17.712V18.64H131.66V17.712H122.396ZM123.228 9.824V10.72H130.988V9.824H123.228ZM124.764 6.576V12.144H125.836V6.576H124.764ZM128.22 6.576V12.144H129.292V6.576H128.22ZM126.46 12.176V18H127.532V12.176H126.46ZM129.596 13.616V20.032C129.596 20.24 129.532 20.288 129.308 20.304C129.1 20.32 128.316 20.32 127.484 20.288C127.628 20.576 127.772 20.992 127.82 21.264C128.972 21.264 129.708 21.28 130.156 21.104C130.572 20.928 130.7 20.624 130.7 20.032V13.616H129.596ZM123.42 13.616V21.296H124.508V14.528H130.076V13.616H123.42ZM123.98 15.68V16.512H130.044V15.68H123.98ZM118.412 17.584C118.108 18.752 117.516 19.888 116.796 20.656C117.052 20.816 117.5 21.136 117.708 21.296C118.444 20.448 119.116 19.152 119.5 17.84L118.412 17.584ZM120.428 17.984C120.924 18.768 121.468 19.84 121.708 20.512L122.668 20.048C122.428 19.392 121.852 18.352 121.324 17.568L120.428 17.984ZM118.668 11.168H121.068V13.232H118.668V11.168ZM118.668 14.16H121.068V16.256H118.668V14.16ZM118.668 8.176H121.068V10.224H118.668V8.176ZM117.612 7.168V17.248H122.14V7.168H117.612ZM143.244 6.56C142.7 8.992 141.756 11.296 140.412 12.736C140.668 12.896 141.148 13.248 141.34 13.424C142.684 11.84 143.74 9.408 144.332 6.784L143.244 6.56ZM148.764 9.248V9.536C148.428 16.56 148.06 19.104 147.532 19.712C147.34 19.92 147.18 19.984 146.924 19.984C146.62 19.984 145.964 19.968 145.244 19.904C145.436 20.224 145.548 20.736 145.58 21.088C146.284 21.136 146.988 21.152 147.404 21.088C147.9 21.04 148.204 20.896 148.524 20.464C149.18 19.68 149.516 17.168 149.884 9.872C149.9 9.696 149.9 9.248 149.9 9.248H148.764ZM143.132 9.248L142.62 10.384H149.244V9.248H143.132ZM144.748 9.6C144.092 12.4 142.556 15.504 140.684 16.976C141.004 17.152 141.388 17.44 141.628 17.68C143.452 16.096 144.972 12.896 145.66 10.064L144.748 9.6ZM147.036 9.696C146.268 13.952 144.492 18.288 141.692 20.288C142.044 20.464 142.476 20.768 142.716 21.024C145.404 18.864 147.196 14.448 147.996 10.144L147.036 9.696ZM135.26 15.44L135.58 16.608C137.196 16.096 139.356 15.424 141.388 14.784L141.228 13.728C139.052 14.384 136.764 15.056 135.26 15.44ZM138.252 6.576V21.28H139.372V6.576H138.252ZM136.268 7.488C136.076 9.456 135.756 11.488 135.148 12.848C135.404 12.96 135.868 13.232 136.06 13.376C136.668 11.952 137.068 9.792 137.308 7.664L136.268 7.488ZM136.364 9.84L136.172 11.008H141.02V9.84H136.364ZM154.428 8.032V9.136H167.772V8.032H154.428ZM153.932 17.856V18.96H168.316V17.856H153.932ZM160.444 6.576V21.328H161.676V6.576H160.444ZM156.764 13.888H165.42V15.552H156.764V13.888ZM156.764 11.312H165.42V12.944H156.764V11.312ZM155.612 10.304V16.544H166.62V10.304H155.612Z" fill="white"/>
</svg>
