<svg width="150" height="22" viewBox="0 0 150 22" fill="none" xmlns="http://www.w3.org/2000/svg">
<path d="M39.7955 17H37.3795V10.392C37.3795 10.2107 37.3795 9.98667 37.3795 9.72C37.3902 9.45333 37.4008 9.176 37.4115 8.888C37.4222 8.6 37.4328 8.344 37.4435 8.12C37.3902 8.184 37.2728 8.30133 37.0915 8.472C36.9208 8.632 36.7608 8.776 36.6115 8.904L35.2995 9.96L34.1315 8.504L37.8115 5.576H39.7955V17Z" fill="#00323D"/>
<path d="M66.6638 17H59.1118V15.832L62.1038 12.808C62.6798 12.232 63.1651 11.72 63.5598 11.272C63.9544 10.824 64.2531 10.3867 64.4558 9.96C64.6584 9.52267 64.7598 9.048 64.7598 8.536C64.7598 7.90667 64.5731 7.432 64.1998 7.112C63.8264 6.78133 63.3411 6.616 62.7438 6.616C62.1891 6.616 61.6984 6.712 61.2718 6.904C60.8558 7.096 60.4291 7.36267 59.9918 7.704L59.2398 6.76C59.5384 6.504 59.8638 6.27467 60.2158 6.072C60.5784 5.86933 60.9678 5.70933 61.3838 5.592C61.8104 5.47467 62.2638 5.416 62.7438 5.416C63.4584 5.416 64.0718 5.53867 64.5838 5.784C65.0958 6.02933 65.4904 6.38133 65.7678 6.84C66.0558 7.288 66.1998 7.82667 66.1998 8.456C66.1998 8.904 66.1304 9.33067 65.9918 9.736C65.8531 10.1307 65.6558 10.52 65.3998 10.904C65.1438 11.288 64.8344 11.6773 64.4718 12.072C64.1091 12.4667 63.7091 12.8773 63.2718 13.304L60.8878 15.656V15.72H66.6638V17ZM91.388 8.248C91.388 8.76 91.292 9.20267 91.1 9.576C90.908 9.94933 90.6307 10.2533 90.268 10.488C89.916 10.7227 89.5 10.888 89.02 10.984V11.048C89.9373 11.1547 90.62 11.4427 91.068 11.912C91.516 12.3813 91.74 12.9947 91.74 13.752C91.74 14.4133 91.5853 15.0053 91.276 15.528C90.9667 16.04 90.4867 16.44 89.836 16.728C89.196 17.016 88.3693 17.16 87.356 17.16C86.7587 17.16 86.204 17.112 85.692 17.016C85.18 16.9307 84.6893 16.7707 84.22 16.536V15.224C84.7 15.4587 85.2173 15.6453 85.772 15.784C86.3267 15.912 86.86 15.976 87.372 15.976C88.396 15.976 89.132 15.7787 89.58 15.384C90.0387 14.9787 90.268 14.424 90.268 13.72C90.268 13.24 90.14 12.856 89.884 12.568C89.6387 12.2693 89.276 12.0507 88.796 11.912C88.316 11.7733 87.74 11.704 87.068 11.704H85.964V10.504H87.084C87.7133 10.504 88.236 10.4133 88.652 10.232C89.0787 10.0507 89.3987 9.8 89.612 9.48C89.836 9.14933 89.948 8.77067 89.948 8.344C89.948 7.78933 89.7613 7.36267 89.388 7.064C89.0147 6.75467 88.508 6.6 87.868 6.6C87.4627 6.6 87.0947 6.64267 86.764 6.728C86.4333 6.80267 86.124 6.91467 85.836 7.064C85.5587 7.20267 85.276 7.368 84.988 7.56L84.284 6.6C84.5613 6.38667 84.876 6.18933 85.228 6.008C85.5907 5.82667 85.9907 5.68267 86.428 5.576C86.8653 5.46933 87.34 5.416 87.852 5.416C89.0467 5.416 89.932 5.68267 90.508 6.216C91.0947 6.74933 91.388 7.42667 91.388 8.248ZM117.488 14.408H115.824V17H114.464V14.408H108.992V13.208L114.368 5.512H115.824V13.144H117.488V14.408ZM114.464 9.544C114.464 9.26667 114.464 9.016 114.464 8.792C114.475 8.55733 114.486 8.33867 114.496 8.136C114.507 7.93333 114.512 7.74133 114.512 7.56C114.523 7.368 114.534 7.18667 114.544 7.016H114.48C114.395 7.21867 114.288 7.43733 114.16 7.672C114.032 7.90667 113.91 8.104 113.792 8.264L110.368 13.144H114.464V9.544Z" fill="#6A777A"/>
<path d="M142 18L149 11.5L142 5" stroke="#6A777A" stroke-width="2" stroke-linejoin="round"/>
<path d="M8 5L1 11.5L8 18" stroke="#6A777A" stroke-width="2" stroke-linejoin="round"/>
</svg>
