<svg width="663" height="313" viewBox="0 0 663 313" fill="none" xmlns="http://www.w3.org/2000/svg">
<g clip-path="url(#clip0_782_4571)">
<path d="M-221.606 128.999C-221.606 128.999 55.8273 34.4605 244.427 62.8301C433.027 91.1998 232.967 147.291 283.084 199.064C333.201 250.837 535.165 129.123 634.091 321.102" stroke="#BABABA" stroke-miterlimit="10"/>
<path d="M-223.871 145.316C-223.871 145.316 53.5631 50.7663 242.162 79.1468C430.76 107.527 230.701 163.608 280.818 215.381C330.935 267.154 532.899 145.44 631.825 337.418" stroke="#BABABA" stroke-miterlimit="10"/>
<path d="M-226.137 161.634C-226.137 161.634 51.2975 67.0847 239.896 95.4652C428.495 123.846 228.436 179.926 278.553 231.699C328.67 283.472 530.633 161.758 629.559 353.737" stroke="#BABABA" stroke-miterlimit="10"/>
<path d="M-228.402 177.951C-228.402 177.951 49.0319 83.4011 237.63 111.782C426.229 140.162 226.17 196.243 276.287 248.016C326.404 299.788 528.368 178.075 627.294 370.053" stroke="#BABABA" stroke-miterlimit="10"/>
<path d="M-230.663 194.258C-230.663 194.258 46.7702 99.7195 235.369 128.1C423.967 156.48 223.908 212.561 274.025 264.334C324.142 316.107 526.106 194.393 625.032 386.371" stroke="#BABABA" stroke-miterlimit="10"/>
<path d="M606.525 206.601C600.473 201.158 600.171 194.375 600.178 194.326L600.104 194.84L598.768 194.647L594.035 228.468C592.696 226.759 590.558 225.338 588.014 224.97C583.323 224.291 579.064 226.837 578.497 230.756C577.93 234.676 581.264 238.523 585.955 239.201C590.646 239.88 594.806 237.522 595.449 233.573L594.518 233.438L594.578 233.023L594.583 232.993L598.21 210.652C599.051 212.522 600.926 214.854 604.005 217.947C610.174 224.124 604.555 228.808 604.555 228.808C608.494 227.559 610.416 223.078 607.552 218.572C610.884 216.285 611.559 211.129 606.525 206.601ZM605.568 216.011C600.142 211.124 599.663 205.214 599.615 204.015L600.006 201.313C600.835 203.191 602.47 205.509 605.586 208.628C609.627 212.678 608.559 216.08 607.339 217.945C606.857 217.299 606.264 216.647 605.558 216.01L605.568 216.011Z" fill="#F2F2F2"/>
<path d="M550.741 270.602L550.746 270.573L555.89 235.932L555.771 235.915L555.703 235.966L529.431 235.761L528.865 239.883L525.241 265.7C524.079 264.228 522.222 263.171 520.024 262.853C515.977 262.268 512.293 264.544 511.804 267.918C511.316 271.293 514.275 273.955 518.323 274.54C522.322 275.119 525.94 273.015 526.592 269.068L526.711 269.085L526.565 270.095C526.565 270.095 526.507 270.076 526.508 270.066C526.508 270.066 526.48 270.052 526.481 270.042L530.163 243.9L552.649 244.082L549.534 266.305C548.373 264.834 546.521 263.737 544.324 263.419C540.276 262.834 536.595 265.09 536.107 268.464C535.618 271.839 538.581 274.481 542.628 275.067C546.627 275.645 550.25 273.512 550.902 269.565L550.751 270.604L550.741 270.602ZM530.419 241.926L530.675 240.155L553.129 240.484L552.894 242.107L530.419 241.926Z" fill="#F2F2F2"/>
<g clip-path="url(#clip1_782_4571)">
<path d="M412.801 271.102C407.757 270.757 405.141 267.476 405.13 267.452L404.99 267.214L404.001 267.782L414.789 286.395C413.478 286.075 411.969 286.328 410.577 287.12C408.021 288.586 406.95 291.53 408.173 293.658C409.396 295.787 412.366 296.166 414.922 294.7C417.455 293.246 418.683 290.623 417.273 288.082L417.028 288.221L417.202 288.522L417.204 288.508L407.33 271.152C408.462 271.751 410.208 272.222 412.931 272.558C418.322 273.214 417.288 277.701 417.288 277.701C419.018 275.172 417.673 271.43 412.809 271.096L412.801 271.102Z" fill="#F2F2F2"/>
<path d="M385.387 244.556C381.369 243.691 379.982 247.213 379.99 247.207C378.834 253.04 377.686 258.867 376.53 264.701C372.183 264.405 367.851 264.25 363.536 264.235C364.161 259.217 364.785 254.2 365.41 249.182C366.191 250.05 367.394 250.717 368.815 250.923C371.423 251.3 373.81 250.049 374.155 248.067C374.5 246.086 372.59 244.09 369.876 243.69C365.846 243.107 364.714 246.723 364.722 246.717C363.977 252.617 363.233 258.51 362.495 264.411C357.966 264.423 353.457 264.591 348.97 264.914C349.226 259.785 349.474 254.661 349.723 249.531C350.556 250.341 351.789 250.897 353.211 251.001C355.817 251.19 358.084 249.769 358.279 247.765C358.475 245.762 356.434 243.972 353.718 243.782C351.154 243.6 348.995 245.036 348.683 246.841C348.669 246.934 348.635 247.023 348.628 247.116L348.664 247.121C348.341 253.569 348.017 260.016 347.694 266.463L347.715 266.466C347.709 266.661 347.701 266.863 347.695 267.058C352.244 266.759 356.821 266.616 361.411 266.641C362.02 266.642 362.628 266.651 363.236 266.659L363.243 266.616C367.855 266.58 372.488 266.706 377.134 266.994C377.279 266.238 377.425 265.483 377.563 264.727C378.548 259.725 379.527 254.715 380.505 249.712C381.228 250.636 382.396 251.386 383.818 251.693C386.413 252.257 388.905 251.181 389.391 249.227C389.877 247.273 388.089 245.142 385.381 244.548L385.387 244.556Z" fill="#F2F2F2"/>
</g>
</g>
<defs>
<clipPath id="clip0_782_4571">
<rect width="874.821" height="268.984" fill="white" transform="translate(-204.012) rotate(7.90374)"/>
</clipPath>
<clipPath id="clip1_782_4571">
<rect width="74.748" height="46.7992" fill="white" transform="translate(349.742 239.383) rotate(8.23385)"/>
</clipPath>
</defs>
</svg>
