<svg width="235" height="229" viewBox="0 0 235 229" fill="none" xmlns="http://www.w3.org/2000/svg">
<path d="M99.8379 43.452C92.5701 39.7855 90.5014 33.3185 90.4954 33.2689L90.5584 33.785L89.2183 33.9486L93.5144 67.8277C91.7742 66.5289 89.3381 65.7181 86.787 66.0294C82.0819 66.6037 78.6395 70.1771 79.1192 74.1079C79.599 78.0387 83.824 80.8778 88.5291 80.3035C93.2342 79.7293 96.6314 76.3629 96.2163 72.3839L95.2832 72.4978L95.2323 72.0809L95.2287 72.0511L92.8742 49.5405C94.1757 51.1245 96.5967 52.8842 100.378 55.0621C107.951 59.4067 103.756 65.3991 103.756 65.3991C107.23 63.1616 107.91 58.3337 103.965 54.7351C106.581 51.6555 105.882 46.5023 99.8379 43.452V43.452ZM101.38 52.784C94.8626 49.4892 92.8521 43.9117 92.4908 42.7671L92.1601 40.0572C93.4528 41.6523 95.638 43.4609 99.4619 45.6538C104.424 48.5037 104.284 52.0668 103.596 54.1858C102.961 53.6891 102.218 53.2156 101.37 52.7852L101.38 52.784Z" fill="#F2F2F2"/>
<path d="M62.778 119.833L62.7744 119.803L58.6608 85.025L58.5417 85.0395L58.4894 85.1063L33.0824 91.7936L33.6162 95.9194L36.8837 121.784C35.3775 120.668 33.3076 120.135 31.104 120.404C27.0441 120.9 24.0854 124.061 24.4985 127.446C24.9116 130.831 28.4649 132.624 32.5248 132.128C36.5351 131.639 39.4759 128.661 39.0707 124.68L39.1899 124.666L39.3134 125.678C39.3134 125.678 39.2526 125.676 39.2514 125.666C39.2514 125.666 39.2204 125.659 39.2192 125.65L35.9216 99.4561L57.6692 93.7393L60.4871 116.002C58.9808 114.886 56.9061 114.313 54.7025 114.582C50.6426 115.078 47.6814 118.22 48.0946 121.605C48.5077 124.989 52.0586 126.762 56.1185 126.267C60.1287 125.777 63.0659 122.769 62.6608 118.789L62.788 119.831L62.778 119.833ZM35.6508 97.4844L35.4339 95.7076L57.1898 90.1409L57.3884 91.7688L35.6508 97.4844V97.4844Z" fill="#F2F2F2"/>
<path d="M175.756 124.075C175.432 122.566 174.993 121.106 174.394 119.741C173.816 118.367 173.143 117.035 172.338 115.82C169.194 110.909 164.505 107.201 159.152 105.649C157.824 105.257 156.462 105.002 155.107 104.889C153.747 104.815 152.401 104.813 151.106 105.007C150.751 105.043 150.413 105.1 150.065 105.166C149.715 100.972 149.401 96.7104 149.131 92.4032C153.049 88.5386 156.839 84.4403 160.21 79.5973C162.403 76.4069 164.443 72.8396 165.687 68.8725C166.333 66.9064 166.754 64.8778 167.041 62.8863C167.18 61.8752 167.263 60.9288 167.346 59.8819L167.418 58.5424L167.465 57.0498C167.544 53.179 167.171 49.3138 166.281 45.4982C165.38 41.6915 164.031 37.9413 161.707 34.497C161.119 33.6351 160.468 32.7973 159.692 32.0074C158.915 31.2175 158.036 30.4477 156.89 29.8425C156.328 29.5358 155.68 29.2711 154.953 29.109C154.588 29.033 154.212 28.9758 153.802 28.9555C153.662 28.9518 153.703 28.9457 153.411 28.9472L153.249 28.9614C153.087 28.9755 152.661 29.014 152.496 29.058C151.604 29.2414 150.839 29.6585 150.253 30.1032C149.655 30.5568 149.204 31.055 148.835 31.5412C147.405 33.5105 146.828 35.393 146.293 37.2495C145.79 39.0991 145.459 40.9255 145.2 42.7388C144.246 49.9802 144.112 57.0511 144.199 64.0232C144.259 70.1486 144.518 76.193 144.867 82.1359C142.731 84.3371 140.536 86.5225 138.363 88.7C137.114 89.9536 135.861 91.1466 134.598 92.439C133.28 93.7863 131.998 95.1674 130.8 96.6169C128.395 99.5151 126.277 102.653 124.504 105.965C122.712 109.265 121.311 112.775 120.391 116.402C119.452 120.017 119.012 123.772 119.21 127.48C119.229 128.406 119.359 129.333 119.45 130.246C119.61 131.167 119.722 132.072 119.965 132.97C120.361 134.767 121.003 136.509 121.754 138.17C123.254 141.513 125.562 144.404 128.254 146.658L129.278 147.483L130.351 148.221C131.035 148.721 131.866 149.154 132.616 149.6L133.69 150.128L134.284 150.417L134.864 150.655L136.012 151.14L137.186 151.567C140.313 152.669 143.575 153.312 146.808 153.439C149.059 153.54 151.295 153.389 153.49 153.032C153.713 154.551 153.916 156.059 154.112 157.535C154.473 160.193 154.729 162.801 154.931 165.343C155.112 167.893 155.229 170.376 155.123 172.777C155.065 173.977 154.969 175.154 154.797 176.292C154.75 176.569 154.718 176.888 154.655 177.122L154.469 177.988C154.317 178.516 154.177 179.015 153.976 179.527C153.222 181.573 152.002 183.352 150.521 184.714C149.023 186.053 147.284 186.977 145.491 187.424L144.815 187.558L144.651 187.592C144.651 187.592 144.569 187.604 144.589 187.606L144.498 187.617L144.121 187.671C143.663 187.726 143.249 187.746 142.796 187.751C141.912 187.755 141.044 187.689 140.219 187.498C139.403 187.307 138.626 187.039 137.926 186.699C137.228 186.339 136.608 185.896 136.062 185.42C134.993 184.441 134.294 183.277 133.968 182.099C133.784 181.518 133.722 180.919 133.698 180.344C133.686 180.061 133.695 179.771 133.712 179.491L133.753 179.073C133.771 179.196 133.753 179.073 133.763 179.074L133.783 178.875L133.789 178.605C133.868 178.21 133.965 177.637 134.137 177.212C134.292 176.765 134.483 176.352 134.69 175.99C134.957 175.524 135.264 175.163 135.564 174.871C136.687 175.705 138.074 176.213 139.579 176.241C143.373 176.283 146.485 173.253 146.527 169.459C146.569 165.665 143.602 162.428 139.815 162.317C137.11 162.231 134.335 162.963 131.743 165.611C129.676 167.719 128.021 170.751 127.572 173.983C127.452 174.795 127.391 175.623 127.407 176.479C127.431 177.355 127.484 178.144 127.658 179.136C127.992 180.737 128.665 182.582 129.7 184.211C130.744 185.851 132.197 187.321 133.943 188.367C134.805 188.904 135.736 189.347 136.719 189.665C137.69 190.012 138.712 190.243 139.754 190.376C140.796 190.509 141.869 190.534 142.943 190.449C143.469 190.41 144.04 190.326 144.573 190.217L144.942 190.143L145.158 190.094L145.354 190.043L146.16 189.821C147.219 189.473 148.268 189.024 149.261 188.428C150.244 187.832 151.17 187.109 152.015 186.278C153.668 184.592 154.989 182.511 155.761 180.176C155.968 179.603 156.121 178.975 156.272 178.357L156.428 177.488C156.492 177.143 156.519 176.864 156.56 176.556C156.72 175.336 156.802 174.098 156.824 172.854C156.944 167.862 156.387 162.703 155.788 157.348C155.607 155.823 155.419 154.267 155.231 152.701C158.724 151.93 162.061 150.591 165.046 148.644C167.688 146.914 170.064 144.727 171.926 142.147C172.876 140.864 173.657 139.463 174.303 138.01C174.635 137.289 174.911 136.532 175.165 135.784C175.301 135.425 175.396 134.972 175.516 134.572C175.627 134.161 175.74 133.72 175.8 133.424L176.007 132.44L176.176 131.13C176.255 130.334 176.314 129.526 176.291 128.74C176.287 127.152 176.109 125.587 175.775 124.087L175.756 124.075ZM153.523 34.2436C153.523 34.2436 153.503 34.2416 153.472 34.2487C153.514 34.2327 153.545 34.2257 153.523 34.2436ZM153.412 35.1672L153.432 35.1691C153.432 35.1691 153.392 35.1652 153.412 35.1672ZM148.198 64.0251C148.245 60.5932 148.373 57.1492 148.611 53.7159C148.838 50.2817 149.207 46.8413 149.837 43.507C150.152 41.8398 150.535 40.1994 151.029 38.6504C151.51 37.1302 152.171 35.6178 152.901 34.745C153.141 34.4472 153.356 34.3075 153.461 34.2576L153.59 34.2704C153.411 34.2527 153.561 34.2674 153.531 34.2645C153.57 34.2684 153.629 34.2842 153.697 34.311C153.832 34.3645 154.015 34.4429 154.223 34.5838C155.085 35.1109 156.013 36.2976 156.71 37.5921C158.126 40.2537 158.873 43.4824 159.198 46.7099C159.521 49.9572 159.414 53.2927 159.121 56.5698L159.004 57.764L158.833 59.0937C158.71 59.8252 158.588 60.6572 158.433 61.4157C158.102 62.9406 157.686 64.4169 157.115 65.8177C156.005 68.6224 154.31 71.2489 152.309 73.8151C151.093 75.3433 149.779 76.8518 148.415 78.3554C148.239 73.6153 148.147 68.8333 148.198 64.0251V64.0251ZM146.943 150.438C145.492 150.376 144.023 150.191 142.578 149.868C141.13 149.574 139.698 149.112 138.305 148.563L137.262 148.138L136.244 147.656L135.736 147.405L135.27 147.138L134.224 146.543C133.044 145.763 131.823 144.9 130.793 143.834C129.749 142.796 128.796 141.657 128.058 140.379C127.298 139.118 126.645 137.788 126.201 136.378C125.737 134.975 125.438 133.519 125.303 132.029C125.205 131.295 125.219 130.533 125.181 129.796C125.215 129.046 125.199 128.29 125.293 127.536C125.828 121.499 128.425 115.636 131.954 110.406C133.74 107.789 135.782 105.317 138.002 102.973C139.112 101.806 140.269 100.664 141.482 99.5681C142.764 98.388 144.057 97.199 145.35 96.01C145.516 95.8555 145.672 95.7 145.838 95.5455C146.142 99.0924 146.469 102.601 146.832 106.064C146.727 106.104 146.632 106.154 146.517 106.193L145.679 106.543C145.161 106.803 144.636 107.033 144.136 107.315C140.138 109.544 137.184 112.811 135.57 116.138C133.905 119.471 133.43 122.771 133.589 125.54C133.767 128.32 134.578 130.601 135.608 132.179C136.615 133.786 137.797 134.646 138.597 135.096C138.797 135.206 138.979 135.295 139.131 135.38C139.287 135.436 139.422 135.489 139.529 135.53L139.848 135.652C139.848 135.652 139.766 135.563 139.622 135.398C139.467 135.232 139.231 134.978 138.994 134.633C138.509 133.942 137.915 132.839 137.622 131.323C137.317 129.825 137.303 127.925 137.82 125.836C138.307 123.753 139.332 121.503 140.959 119.473C142.595 117.453 144.837 115.705 147.656 114.626C147.698 114.61 147.74 114.594 147.772 114.577C148.128 117.486 148.508 120.367 148.912 123.2C149.757 129.312 150.69 135.242 151.604 140.969C152.056 143.827 152.512 146.646 152.944 149.401C152.968 149.564 152.993 149.718 153.017 149.881C151.054 150.321 148.995 150.52 146.925 150.416L146.943 150.438ZM168.722 132.546C168.6 136.845 166.48 141.741 162.462 145.194C160.337 147.075 157.704 148.513 154.831 149.416C153.801 141.005 152.694 132.144 151.727 122.884C151.418 119.9 151.124 116.866 150.832 113.803L150.882 113.808C151.248 113.764 151.606 113.698 151.968 113.704C153.422 113.626 154.924 113.884 156.432 114.385C159.433 115.444 162.494 117.725 164.863 120.912C166.033 122.505 167.04 124.312 167.743 126.26C168.089 127.239 168.371 128.251 168.54 129.283C168.64 129.805 168.678 130.332 168.727 130.859L168.748 131.253L168.759 131.455L168.769 131.556C168.754 131.706 168.788 131.468 168.781 131.537L168.741 132.548L168.722 132.546Z" fill="#F2F2F2"/>
</svg>
