<svg width="654" height="163" viewBox="0 0 654 163" fill="none" xmlns="http://www.w3.org/2000/svg">
<g clip-path="url(#clip0_782_4561)">
<path d="M9.01606 194.111C9.01606 194.111 187.503 5.96338 365.902 55.1209C544.3 104.278 620.856 42.3673 668.367 0.416445" stroke="#BABABA" stroke-miterlimit="10"/>
<path d="M9.96583 211.365C9.96583 211.365 188.452 23.2075 366.851 72.365C545.25 121.523 621.805 59.6114 669.317 17.6606" stroke="#BABABA" stroke-miterlimit="10"/>
<path d="M10.9184 228.609C10.9184 228.609 189.405 40.4614 367.804 89.6189C546.203 138.776 622.758 76.8654 670.27 34.9145" stroke="#BABABA" stroke-miterlimit="10"/>
<path d="M11.8682 245.861C11.8682 245.861 190.354 57.7036 368.753 106.861C547.152 156.019 623.708 94.1075 671.219 52.1567" stroke="#BABABA" stroke-miterlimit="10"/>
<path d="M12.8213 263.115C12.8213 263.115 191.308 74.9575 369.706 124.115C548.105 173.273 624.661 111.361 672.172 69.4106" stroke="#BABABA" stroke-miterlimit="10"/>
<g clip-path="url(#clip1_782_4561)">
<path d="M493.258 26.2363C487.97 29.3314 483.109 27.8329 483.082 27.8237L482.788 27.6778L482.182 28.92L505.691 40.2067C504.156 40.7784 502.816 42.0674 501.964 43.8082C500.404 47.0183 501.345 50.6988 504.017 51.9981C506.701 53.3021 509.923 51.6503 511.491 48.4358C513.042 45.2525 512.479 41.7767 509.327 40.2001L509.177 40.5073L509.555 40.6897L509.546 40.6941L487.811 30.0321C489.351 29.8585 491.428 29.1443 494.376 27.6152C500.227 24.6014 502.254 29.7991 502.254 29.7991C502.266 26.0872 498.366 23.2514 493.258 26.2363V26.2363Z" fill="#F2F2F2"/>
<path d="M431.711 101.464C436.096 99.3218 434.638 94.4469 434.634 94.4379L424.009 72.5951L438.408 63.0905L447.566 81.6103C446.13 81.1542 444.394 81.2455 442.786 82.0311C439.829 83.4751 438.414 86.6597 439.616 89.1217C440.819 91.5837 444.201 92.4245 447.148 90.9849C451.533 88.843 450.075 83.9681 450.071 83.9591L439.446 62.1162L454.579 52.131L463.904 70.9251C462.468 70.469 460.75 70.5739 459.15 71.3552C456.194 72.7992 454.778 75.9614 455.981 78.4234C457.184 80.8854 460.526 81.6453 463.483 80.2013C466.268 78.8407 467.611 75.8477 466.778 73.5054C466.73 73.3842 466.713 73.2588 466.661 73.151L466.616 73.173L455.033 49.4608L455.015 49.4695L454.641 48.7505L438.989 58.7891L436.911 60.116L436.937 60.1699L421.474 70.5948L422.879 73.403L432.115 92.0845C430.68 91.6284 428.943 91.7197 427.335 92.5054C424.379 93.9494 422.963 97.134 424.166 99.596C425.368 102.058 428.75 102.899 431.698 101.459L431.711 101.464Z" fill="#F2F2F2"/>
<path d="M383.409 94.5088C386.023 93.2315 387.433 90.7177 386.161 88.0002L386.485 87.8422L386.695 88.2735L386.525 88.3345L376.83 68.8751L390.28 59.979L398.582 76.8136C397.293 76.4081 395.74 76.51 394.302 77.2123C391.661 78.5027 390.387 81.3398 391.462 83.5412C392.537 85.7426 395.681 86.7556 398.332 85.4608C400.982 84.166 401.719 80.3892 401.325 79.4688L401.036 78.8757L401.014 78.8308L390.33 57.0277L390.303 57.0408L390.132 56.6904L374.312 67.0226L375.607 69.6062L383.895 86.3692C382.607 85.9637 381.063 86.0612 379.625 86.7634C376.984 88.0539 375.648 90.7651 376.728 92.9755C377.807 95.1859 380.767 95.7992 383.409 94.5088V94.5088Z" fill="#F2F2F2"/>
</g>
</g>
<defs>
<clipPath id="clip0_782_4561">
<rect width="669.67" height="226.95" fill="white" transform="translate(0 36.8887) rotate(-3.15775)"/>
</clipPath>
<clipPath id="clip1_782_4561">
<rect width="143.46" height="58.48" fill="white" transform="translate(365 68.9668) rotate(-26.0345)"/>
</clipPath>
</defs>
</svg>
